M48
; DRILL file {KiCad (5.1.2)-2} date 2020/01/05 22:50:12
; FORMAT={-:-/ absolute / metric / decimal}
; #@! TF.CreationDate,2020-01-05T22:50:12+09:00
; #@! TF.GenerationSoftware,Kicad,Pcbnew,(5.1.2)-2
FMAT,2
METRIC
T1C0.762
T2C0.800
T3C0.900
T4C1.000
T5C3.000
%
G90
G05
T1
X169.615Y-109.595
X169.625Y-115.345
X172.165Y-109.595
X172.165Y-115.345
X245.815Y-114.04
X245.825Y-119.79
X248.365Y-114.04
X248.365Y-119.79
X93.415Y-114.04
X93.425Y-119.79
X95.965Y-114.04
X95.965Y-119.79
T2
X99.06Y-111.506
X99.06Y-119.126
X107.145Y-106.096
X107.145Y-113.716
X241.935Y-111.76
X241.935Y-119.38
X196.0Y-116.38
X196.0Y-124.0
X184.515Y-110.871
X184.515Y-118.491
X159.345Y-110.73
X159.345Y-114.73
X161.145Y-110.73
X161.145Y-114.73
X178.165Y-110.871
X178.165Y-118.491
X146.685Y-115.57
X149.225Y-118.11
X151.765Y-115.57
X184.15Y-123.23
X184.15Y-128.23
X157.115Y-110.871
X157.115Y-118.491
X235.585Y-106.045
X235.585Y-113.665
X103.01Y-117.564
X105.55Y-120.104
X108.09Y-117.564
X163.465Y-110.871
X163.465Y-118.491
X154.575Y-110.871
X154.575Y-118.491
X156.845Y-123.23
X156.845Y-128.23
X174.99Y-110.871
X174.99Y-118.491
X232.41Y-117.475
X234.95Y-120.015
X237.49Y-117.475
X180.345Y-110.73
X180.345Y-114.73
X182.145Y-110.73
X182.145Y-114.73
X187.96Y-121.92
X187.96Y-129.54
T3
X99.375Y-106.299
X99.375Y-108.839
X241.935Y-106.045
X241.935Y-108.585
X175.895Y-103.505
X175.895Y-106.045
X93.345Y-111.125
X95.885Y-111.125
X180.07Y-106.68
X182.61Y-106.68
X245.745Y-111.125
X248.285Y-111.125
X159.02Y-106.68
X161.56Y-106.68
X165.735Y-103.505
X165.735Y-106.045
T4
X105.41Y-104.14
X105.41Y-110.49
X166.345Y-115.341
X166.345Y-120.421
X190.145Y-120.73
X193.761Y-120.731
X227.145Y-113.73
X227.145Y-120.73
X232.161Y-107.351
X232.192Y-104.11
X238.49Y-108.721
X238.582Y-102.73
X161.925Y-128.27
X164.425Y-128.27
X166.925Y-128.27
X169.425Y-128.27
X171.925Y-128.27
X174.425Y-128.27
X176.925Y-128.27
X179.425Y-128.27
T5
X160.645Y-137.73
X180.645Y-137.73
T0
M30
