M48
; DRILL file {KiCad (5.1.4)-1} date 2020/01/21 20:17:59
; FORMAT={-:-/ absolute / metric / decimal}
; #@! TF.CreationDate,2020-01-21T20:17:59+09:00
; #@! TF.GenerationSoftware,Kicad,Pcbnew,(5.1.4)-1
; #@! TF.FileFunction,Plated,1,2,PTH
FMAT,2
METRIC
T1C0.300
T2C0.400
T3C0.600
T4C0.762
T5C0.800
T6C0.900
T7C1.000
T8C1.200
T9C1.500
T10C2.300
T11C2.500
T12C2.540
T13C3.000
T14C4.500
%
G90
G05
T1
X98.662Y-67.6
X98.662Y-78.15
X98.662Y-79.85
X105.725Y-72.9
X110.675Y-70.36
X110.675Y-71.63
X110.75Y-43.05
X112.2Y-72.9
X114.5Y-39.35
X115.75Y-108.83
X116.4Y-108.15
X116.943Y-91.993
X117.9Y-39.9
X119.84Y-106.39
X120.325Y-85.2
X121.5Y-86.1
X122.075Y-88.25
X122.575Y-85.775
X122.725Y-86.75
X122.75Y-76.25
X124.31Y-79.65
X124.35Y-78.58
X124.377Y-91.477
X124.47Y-80.48
X124.575Y-71.25
X124.66Y-81.241
X124.95Y-85.675
X125.25Y-70.675
X125.507Y-87.243
X126.5Y-84.7
X126.875Y-69.81
X126.89Y-67.92
X127.45Y-71.91
X127.75Y-35.15
X127.925Y-68.881
X128.0Y-116.2
X128.025Y-72.49
X128.5Y-89.525
X128.507Y-69.643
X128.675Y-71.725
X128.75Y-73.05
X128.815Y-91.259
X128.836Y-81.816
X129.125Y-88.912
X129.42Y-82.4
X129.587Y-70.723
X129.7Y-90.1
X130.78Y-71.88
X131.4Y-91.55
X131.45Y-116.2
X131.54Y-86.375
X131.902Y-73.038
X132.18Y-86.95
X132.505Y-73.405
X132.807Y-78.307
X132.925Y-97.2
X133.26Y-79.32
X134.525Y-93.9
X134.69Y-78.52
X135.242Y-79.091
X135.25Y-94.7
X136.115Y-81.55
X136.66Y-79.54
X137.25Y-90.05
X137.75Y-82.25
X138.18Y-78.71
X138.25Y-82.75
X139.04Y-77.97
X139.899Y-80.539
X140.576Y-82.421
X140.745Y-81.742
X141.18Y-107.72
X141.275Y-76.725
X141.35Y-116.5
X141.611Y-88.94
X141.611Y-91.49
X142.725Y-64.48
X142.74Y-85.18
X142.775Y-77.98
X142.775Y-94.02
X142.81Y-86.69
X143.985Y-83.815
X143.99Y-75.43
X144.02Y-68.3
X144.04Y-92.73
X144.09Y-65.76
X144.16Y-111.54
X144.26Y-61.94
X144.41Y-89.0
X144.51Y-76.05
X144.808Y-83.562
X144.9Y-110.415
X144.91Y-69.6
X144.99Y-89.51
X145.1Y-79.25
X145.2Y-116.5
X145.21Y-105.16
X145.22Y-76.55
X145.597Y-88.786
X145.727Y-68.133
X145.744Y-79.567
X145.815Y-80.725
X146.1Y-70.18
X146.22Y-77.75
X146.3Y-109.84
X146.36Y-90.77
X146.36Y-92.75
X146.367Y-68.773
X146.49Y-91.48
X146.54Y-64.48
X147.725Y-81.79
X147.844Y-67.189
X148.215Y-94.02
X148.46Y-85.61
X148.8Y-95.3
X148.89Y-76.71
X149.24Y-99.45
X149.55Y-110.76
X149.805Y-104.18
X151.3Y-57.55
X151.3Y-62.75
X151.35Y-67.95
X151.35Y-73.4
X151.35Y-78.75
X151.35Y-84.2
X151.35Y-89.55
X151.35Y-94.95
X151.35Y-100.35
X151.35Y-105.75
X151.35Y-111.2
X151.35Y-116.9
X151.9Y-99.45
X152.001Y-116.076
X153.325Y-62.515
X153.325Y-65.055
X153.325Y-67.915
X153.325Y-73.315
X153.325Y-75.855
X153.325Y-78.715
X153.325Y-84.115
X153.325Y-89.515
X153.325Y-92.055
X153.325Y-94.915
X153.325Y-102.855
X153.325Y-105.715
X153.325Y-111.115
X159.6Y-84.1
X159.6Y-116.5
X159.65Y-97.0
X159.65Y-100.25
X159.65Y-105.7
X159.65Y-111.1
X159.7Y-57.1
X159.7Y-62.5
X159.7Y-67.9
X159.7Y-89.55
X159.748Y-94.945
X159.75Y-75.65
X159.75Y-78.7
X159.75Y-80.85
X159.8Y-64.95
X159.8Y-70.15
X159.8Y-73.3
X159.8Y-86.55
X159.8Y-92.05
X159.8Y-102.65
X159.8Y-108.2
X159.8Y-119.05
X159.85Y-113.65
X159.9Y-59.35
X164.208Y-49.215
X164.208Y-51.755
X164.208Y-55.165
X164.208Y-57.705
X164.208Y-61.365
X164.208Y-63.905
X164.208Y-67.315
X164.208Y-69.855
X164.208Y-73.515
X164.208Y-76.055
X164.208Y-79.465
X164.208Y-82.005
X164.208Y-85.665
X164.208Y-88.205
X164.208Y-91.615
X164.208Y-94.155
X164.208Y-97.815
X164.208Y-100.355
X164.208Y-103.765
X164.208Y-106.305
X164.208Y-109.965
X164.208Y-112.505
X164.208Y-115.915
X164.208Y-118.455
X193.45Y-45.3
T2
X98.0Y-44.25
X98.0Y-50.25
X98.0Y-56.25
X98.0Y-63.5
X98.25Y-31.0
X98.25Y-36.75
X100.0Y-121.75
X101.2Y-53.5
X101.4Y-63.6
X101.75Y-29.5
X101.75Y-33.25
X101.75Y-44.25
X102.75Y-37.5
X103.0Y-53.0
X103.13Y-71.601
X103.75Y-127.5
X104.0Y-41.75
X104.0Y-77.0
X104.0Y-123.0
X104.3Y-53.5
X104.4Y-63.6
X105.4Y-108.8
X105.9Y-48.5
X106.0Y-29.5
X106.0Y-33.25
X106.0Y-37.5
X107.0Y-51.0
X107.5Y-107.25
X107.7Y-98.2
X107.75Y-94.25
X107.75Y-117.25
X107.75Y-123.0
X107.82Y-80.19
X107.83Y-92.86
X108.0Y-73.5
X108.0Y-78.5
X108.2Y-58.4
X109.25Y-68.0
X110.0Y-93.5
X110.2Y-109.2
X110.25Y-29.5
X110.25Y-33.25
X110.25Y-115.0
X110.4Y-98.6
X110.5Y-65.25
X110.6Y-102.6
X110.75Y-121.5
X111.1Y-58.4
X111.94Y-86.47
X111.95Y-83.2
X111.95Y-88.75
X112.0Y-49.0
X112.5Y-127.5
X112.8Y-79.9
X113.25Y-68.25
X113.5Y-125.0
X113.75Y-45.5
X113.75Y-52.0
X113.79Y-76.64
X114.0Y-65.0
X114.0Y-121.5
X114.5Y-109.0
X114.75Y-113.0
X115.0Y-29.5
X115.0Y-33.25
X115.3Y-82.4
X116.25Y-35.5
X116.25Y-125.0
X117.2Y-67.4
X117.5Y-113.0
X117.6Y-118.4
X118.2Y-106.6
X118.25Y-37.5
X118.5Y-45.5
X118.5Y-52.0
X118.5Y-58.5
X118.75Y-121.25
X118.75Y-125.0
X119.0Y-127.75
X119.25Y-29.5
X119.5Y-70.5
X119.5Y-73.25
X119.5Y-76.25
X119.75Y-113.0
X120.1Y-82.0
X120.5Y-64.0
X120.6Y-98.5
X121.2Y-109.2
X121.4Y-114.6
X121.75Y-77.75
X121.75Y-80.5
X121.8Y-102.7
X122.675Y-83.775
X123.2Y-67.4
X123.2Y-112.8
X123.5Y-52.0
X123.5Y-58.5
X124.25Y-29.5
X124.5Y-127.75
X125.2Y-69.4
X125.25Y-110.75
X125.5Y-56.0
X125.6Y-64.0
X126.5Y-121.0
X126.6Y-98.0
X128.0Y-58.25
X129.0Y-29.5
X129.0Y-34.25
X129.2Y-98.4
X129.5Y-51.25
X129.6Y-106.2
X129.62Y-94.01
X129.625Y-84.175
X129.75Y-43.5
X130.2Y-59.8
X130.6Y-113.1
X130.75Y-53.0
X130.84Y-105.78
X131.25Y-111.25
X131.25Y-121.0
X131.8Y-68.0
X132.0Y-82.25
X132.25Y-127.75
X132.75Y-70.75
X132.75Y-116.75
X132.8Y-103.2
X133.5Y-39.0
X133.5Y-43.5
X133.5Y-57.25
X133.5Y-68.0
X133.6Y-59.8
X133.75Y-29.5
X133.75Y-34.25
X134.0Y-84.25
X135.5Y-113.0
X135.75Y-52.5
X135.75Y-107.0
X135.8Y-71.6
X135.8Y-75.8
X136.2Y-99.6
X136.2Y-105.4
X136.25Y-57.25
X136.25Y-114.25
X136.75Y-124.25
X136.75Y-127.75
X137.5Y-85.75
X137.59Y-87.19
X138.0Y-48.25
X138.25Y-117.25
X138.75Y-31.75
X138.75Y-62.75
X139.2Y-92.6
X139.2Y-110.0
X139.25Y-99.25
X139.25Y-105.5
X140.0Y-77.0
X140.5Y-29.5
X140.5Y-34.25
X140.75Y-68.0
X140.75Y-74.25
X141.5Y-60.75
X141.59Y-57.19
X141.6Y-52.5
X142.0Y-99.75
X142.5Y-127.75
X142.75Y-101.75
X142.75Y-104.25
X142.75Y-124.25
X145.0Y-29.5
X145.0Y-34.25
X145.0Y-96.25
X145.75Y-102.5
X145.91Y-106.33
X146.5Y-71.5
X146.75Y-116.0
X147.25Y-38.0
X147.5Y-99.0
X148.0Y-59.0
X148.5Y-114.25
X148.5Y-118.75
X148.5Y-124.25
X148.5Y-127.75
X148.75Y-48.25
X148.75Y-52.5
X149.045Y-62.43
X149.5Y-71.25
X149.575Y-65.05
X150.15Y-55.75
X150.2Y-60.5
X151.5Y-29.5
X151.5Y-34.25
X151.5Y-48.3
X151.5Y-54.5
X152.55Y-38.0
X153.75Y-48.3
X153.75Y-54.5
X154.15Y-55.85
X154.15Y-72.05
X154.15Y-77.5
X154.15Y-88.25
X154.15Y-93.7
X154.15Y-99.05
X154.15Y-104.5
X154.15Y-115.25
X154.2Y-61.25
X154.2Y-66.65
X154.2Y-82.85
X154.2Y-109.85
X154.5Y-120.5
X154.5Y-124.25
X154.5Y-127.75
X156.5Y-29.5
X156.5Y-34.25
X157.45Y-55.85
X157.45Y-72.05
X157.45Y-77.5
X157.45Y-88.25
X157.45Y-93.7
X157.45Y-99.05
X157.45Y-104.5
X157.45Y-115.25
X157.5Y-61.25
X157.5Y-66.65
X157.5Y-82.85
X157.5Y-109.85
X160.75Y-120.5
X160.75Y-124.25
X160.75Y-127.75
X165.75Y-50.5
X165.75Y-51.3
X165.75Y-52.1
X165.75Y-56.5
X165.75Y-57.3
X165.75Y-58.1
X165.75Y-62.55
X165.75Y-63.35
X165.75Y-64.15
X165.75Y-68.55
X165.75Y-69.35
X165.75Y-70.15
X165.75Y-70.15
X165.75Y-74.75
X165.75Y-75.55
X165.75Y-76.35
X165.75Y-80.7
X165.75Y-81.5
X165.75Y-82.3
X165.75Y-86.85
X165.75Y-87.65
X165.75Y-88.45
X165.75Y-92.8
X165.75Y-93.6
X165.75Y-94.4
X165.75Y-99.0
X165.75Y-99.8
X165.75Y-100.6
X165.75Y-104.95
X165.75Y-105.75
X165.75Y-106.55
X165.75Y-111.15
X165.75Y-111.95
X165.75Y-112.75
X165.75Y-117.1
X165.75Y-117.9
X165.75Y-118.7
X166.55Y-50.5
X166.55Y-51.3
X166.55Y-52.1
X166.55Y-56.5
X166.55Y-57.3
X166.55Y-58.1
X166.55Y-62.55
X166.55Y-63.35
X166.55Y-64.15
X166.55Y-68.55
X166.55Y-69.35
X166.55Y-70.15
X166.55Y-74.75
X166.55Y-75.55
X166.55Y-76.35
X166.55Y-80.7
X166.55Y-81.5
X166.55Y-82.3
X166.55Y-86.85
X166.55Y-87.65
X166.55Y-88.45
X166.55Y-92.8
X166.55Y-93.6
X166.55Y-94.4
X166.55Y-99.0
X166.55Y-99.8
X166.55Y-100.6
X166.55Y-104.95
X166.55Y-105.75
X166.55Y-106.55
X166.55Y-111.15
X166.55Y-111.95
X166.55Y-112.75
X166.55Y-117.1
X166.55Y-117.9
X166.55Y-118.7
X167.35Y-50.5
X167.35Y-51.3
X167.35Y-52.1
X167.35Y-56.5
X167.35Y-57.3
X167.35Y-58.1
X167.35Y-62.55
X167.35Y-63.35
X167.35Y-64.15
X167.35Y-68.55
X167.35Y-69.35
X167.35Y-70.15
X167.35Y-74.75
X167.35Y-75.55
X167.35Y-76.35
X167.35Y-80.7
X167.35Y-81.5
X167.35Y-82.3
X167.35Y-86.85
X167.35Y-87.65
X167.35Y-88.45
X167.35Y-92.8
X167.35Y-93.6
X167.35Y-94.4
X167.35Y-99.0
X167.35Y-99.8
X167.35Y-100.6
X167.35Y-104.95
X167.35Y-105.75
X167.35Y-106.55
X167.35Y-111.15
X167.35Y-111.95
X167.35Y-112.75
X167.35Y-117.1
X167.35Y-117.9
X167.35Y-118.7
X168.15Y-50.5
X168.15Y-51.3
X168.15Y-52.1
X168.15Y-56.5
X168.15Y-57.3
X168.15Y-58.1
X168.15Y-62.55
X168.15Y-63.35
X168.15Y-64.15
X168.15Y-68.55
X168.15Y-69.35
X168.15Y-70.15
X168.15Y-74.75
X168.15Y-75.55
X168.15Y-76.35
X168.15Y-80.7
X168.15Y-81.5
X168.15Y-82.3
X168.15Y-86.85
X168.15Y-87.65
X168.15Y-88.45
X168.15Y-92.8
X168.15Y-93.6
X168.15Y-94.4
X168.15Y-99.0
X168.15Y-99.8
X168.15Y-100.6
X168.15Y-104.95
X168.15Y-105.75
X168.15Y-106.55
X168.15Y-111.15
X168.15Y-111.95
X168.15Y-112.75
X168.15Y-117.1
X168.15Y-117.9
X168.15Y-118.7
X168.95Y-50.5
X168.95Y-51.3
X168.95Y-52.1
X168.95Y-56.5
X168.95Y-57.3
X168.95Y-58.1
X168.95Y-62.55
X168.95Y-63.35
X168.95Y-64.15
X168.95Y-68.55
X168.95Y-69.35
X168.95Y-70.15
X168.95Y-74.75
X168.95Y-75.55
X168.95Y-76.35
X168.95Y-80.7
X168.95Y-81.5
X168.95Y-82.3
X168.95Y-86.85
X168.95Y-87.65
X168.95Y-88.45
X168.95Y-92.8
X168.95Y-93.6
X168.95Y-94.4
X168.95Y-99.0
X168.95Y-99.8
X168.95Y-100.6
X168.95Y-104.95
X168.95Y-105.75
X168.95Y-106.55
X168.95Y-111.15
X168.95Y-111.95
X168.95Y-112.75
X168.95Y-117.1
X168.95Y-117.9
X168.95Y-118.7
X169.75Y-50.5
X169.75Y-51.3
X169.75Y-52.1
X169.75Y-56.5
X169.75Y-57.3
X169.75Y-58.1
X169.75Y-62.55
X169.75Y-63.35
X169.75Y-64.15
X169.75Y-68.55
X169.75Y-69.35
X169.75Y-70.15
X169.75Y-74.75
X169.75Y-75.55
X169.75Y-76.35
X169.75Y-80.7
X169.75Y-81.5
X169.75Y-82.3
X169.75Y-86.85
X169.75Y-87.65
X169.75Y-88.45
X169.75Y-92.8
X169.75Y-93.6
X169.75Y-94.4
X169.75Y-99.0
X169.75Y-99.8
X169.75Y-100.6
X169.75Y-104.95
X169.75Y-105.75
X169.75Y-106.55
X169.75Y-111.15
X169.75Y-111.95
X169.75Y-112.75
X169.75Y-117.1
X169.75Y-117.9
X169.75Y-118.7
T3
X164.0Y-47.95
X164.0Y-53.9
X164.0Y-60.1
X164.0Y-66.05
X164.0Y-72.25
X164.0Y-78.15
X164.0Y-84.4
X164.0Y-90.35
X164.0Y-96.55
X164.0Y-102.5
X164.0Y-108.7
X164.0Y-114.65
X164.8Y-47.95
X164.8Y-53.9
X164.8Y-60.1
X164.8Y-66.05
X164.8Y-72.25
X164.8Y-78.15
X164.8Y-84.4
X164.8Y-90.35
X164.8Y-96.55
X164.8Y-102.5
X164.8Y-108.7
X164.8Y-114.65
X185.25Y-30.75
X185.25Y-31.75
X185.25Y-32.75
X185.25Y-33.75
X185.25Y-34.75
X186.25Y-30.75
X186.25Y-34.75
X191.5Y-30.75
X191.5Y-34.75
X192.5Y-30.75
X192.5Y-31.75
X192.5Y-32.75
X192.5Y-33.75
X192.5Y-34.75
T4
X129.59Y-61.36
X129.59Y-63.9
X129.59Y-66.44
X137.21Y-61.36
X137.21Y-63.9
X137.21Y-66.44
T5
X105.95Y-63.3
X107.45Y-63.3
X108.95Y-63.3
X110.45Y-63.3
X111.95Y-63.3
X113.45Y-63.3
X114.95Y-63.3
X116.45Y-63.3
X117.95Y-63.3
T6
X169.77Y-33.87
X177.27Y-40.47
T7
X117.25Y-69.25
X117.25Y-71.79
X117.25Y-74.33
X117.25Y-76.87
X117.25Y-79.41
X117.25Y-81.95
X115.05Y-123.35
X117.55Y-123.35
X120.05Y-123.35
X122.55Y-123.35
X187.75Y-58.0
X187.75Y-60.5
X104.15Y-97.45
X104.15Y-99.99
X104.15Y-102.53
X104.15Y-105.07
X104.15Y-107.61
X104.15Y-110.15
X104.15Y-112.69
X104.15Y-115.23
X104.15Y-117.77
X104.15Y-120.31
X122.25Y-69.21
X122.25Y-71.75
X131.75Y-45.5
X131.75Y-48.04
X131.75Y-50.58
X181.3Y-57.75
X181.3Y-60.29
X99.06Y-97.44
X99.06Y-99.98
X99.06Y-102.52
X99.06Y-105.06
X99.06Y-107.6
X99.06Y-110.14
X99.06Y-112.68
X99.06Y-115.22
X99.06Y-117.76
X99.06Y-120.3
X101.6Y-97.44
X101.6Y-99.98
X101.6Y-102.52
X101.6Y-105.06
X101.6Y-107.6
X101.6Y-110.14
X101.6Y-112.68
X101.6Y-115.22
X101.6Y-117.76
X101.6Y-120.3
X127.55Y-123.35
X130.05Y-123.35
X132.55Y-123.35
X135.05Y-123.35
T8
X159.0Y-32.92
X159.0Y-35.47
X159.0Y-38.0
X159.0Y-40.54
X159.0Y-43.08
X117.97Y-31.25
X120.51Y-31.25
X123.05Y-31.25
X125.58Y-31.25
X128.13Y-31.25
T9
X170.27Y-41.07
X170.27Y-44.07
X178.27Y-44.07
T10
X191.0Y-47.0
X191.0Y-73.0
T11
X175.85Y-51.15
X175.85Y-56.15
X175.85Y-110.65
X175.85Y-115.65
X175.85Y-86.65
X175.85Y-91.65
X175.85Y-98.9
X175.85Y-103.9
X175.85Y-62.4
X175.85Y-67.4
X175.85Y-74.65
X175.85Y-79.65
T12
X182.9Y-38.3
X182.9Y-43.38
X182.9Y-47.44
X182.9Y-52.52
T13
X100.0Y-40.5
X100.0Y-125.5
X165.0Y-40.5
X165.0Y-125.5
X194.25Y-59.25
T14
X189.0Y-33.0
X189.0Y-40.0
T0
M30
