G04 #@! TF.GenerationSoftware,KiCad,Pcbnew,(5.1.4)-1*
G04 #@! TF.CreationDate,2019-12-17T13:05:30+09:00*
G04 #@! TF.ProjectId,Main,4d61696e-2e6b-4696-9361-645f70636258,rev?*
G04 #@! TF.SameCoordinates,Original*
G04 #@! TF.FileFunction,Legend,Bot*
G04 #@! TF.FilePolarity,Positive*
%FSLAX46Y46*%
G04 Gerber Fmt 4.6, Leading zero omitted, Abs format (unit mm)*
G04 Created by KiCad (PCBNEW (5.1.4)-1) date 2019-12-17 13:05:30*
%MOMM*%
%LPD*%
G04 APERTURE LIST*
%ADD10C,0.150000*%
%ADD11C,0.200000*%
%ADD12C,0.120000*%
G04 APERTURE END LIST*
D10*
X43252380Y-57311904D02*
X43633333Y-57311904D01*
X43671428Y-57692857D01*
X43633333Y-57654761D01*
X43557142Y-57616666D01*
X43366666Y-57616666D01*
X43290476Y-57654761D01*
X43252380Y-57692857D01*
X43214285Y-57769047D01*
X43214285Y-57959523D01*
X43252380Y-58035714D01*
X43290476Y-58073809D01*
X43366666Y-58111904D01*
X43557142Y-58111904D01*
X43633333Y-58073809D01*
X43671428Y-58035714D01*
X42985714Y-57311904D02*
X42719047Y-58111904D01*
X42452380Y-57311904D01*
X37595238Y-58111904D02*
X38052380Y-58111904D01*
X37823809Y-58111904D02*
X37823809Y-57311904D01*
X37900000Y-57426190D01*
X37976190Y-57502380D01*
X38052380Y-57540476D01*
X37290476Y-57388095D02*
X37252380Y-57350000D01*
X37176190Y-57311904D01*
X36985714Y-57311904D01*
X36909523Y-57350000D01*
X36871428Y-57388095D01*
X36833333Y-57464285D01*
X36833333Y-57540476D01*
X36871428Y-57654761D01*
X37328571Y-58111904D01*
X36833333Y-58111904D01*
X36604761Y-57311904D02*
X36338095Y-58111904D01*
X36071428Y-57311904D01*
D11*
X80395238Y-87973809D02*
X80280952Y-88011904D01*
X80090476Y-88011904D01*
X80014285Y-87973809D01*
X79976190Y-87935714D01*
X79938095Y-87859523D01*
X79938095Y-87783333D01*
X79976190Y-87707142D01*
X80014285Y-87669047D01*
X80090476Y-87630952D01*
X80242857Y-87592857D01*
X80319047Y-87554761D01*
X80357142Y-87516666D01*
X80395238Y-87440476D01*
X80395238Y-87364285D01*
X80357142Y-87288095D01*
X80319047Y-87250000D01*
X80242857Y-87211904D01*
X80052380Y-87211904D01*
X79938095Y-87250000D01*
X79595238Y-88011904D02*
X79595238Y-87211904D01*
X79290476Y-87211904D01*
X79214285Y-87250000D01*
X79176190Y-87288095D01*
X79138095Y-87364285D01*
X79138095Y-87478571D01*
X79176190Y-87554761D01*
X79214285Y-87592857D01*
X79290476Y-87630952D01*
X79595238Y-87630952D01*
X78795238Y-87592857D02*
X78528571Y-87592857D01*
X78414285Y-88011904D02*
X78795238Y-88011904D01*
X78795238Y-87211904D01*
X78414285Y-87211904D01*
X78109523Y-87783333D02*
X77728571Y-87783333D01*
X78185714Y-88011904D02*
X77919047Y-87211904D01*
X77652380Y-88011904D01*
X77385714Y-88011904D02*
X77385714Y-87211904D01*
X76928571Y-88011904D02*
X77271428Y-87554761D01*
X76928571Y-87211904D02*
X77385714Y-87669047D01*
X76585714Y-87592857D02*
X76319047Y-87592857D01*
X76204761Y-88011904D02*
X76585714Y-88011904D01*
X76585714Y-87211904D01*
X76204761Y-87211904D01*
X75404761Y-88011904D02*
X75671428Y-87630952D01*
X75861904Y-88011904D02*
X75861904Y-87211904D01*
X75557142Y-87211904D01*
X75480952Y-87250000D01*
X75442857Y-87288095D01*
X75404761Y-87364285D01*
X75404761Y-87478571D01*
X75442857Y-87554761D01*
X75480952Y-87592857D01*
X75557142Y-87630952D01*
X75861904Y-87630952D01*
D12*
X65512779Y-94140000D02*
X65187221Y-94140000D01*
X65512779Y-95160000D02*
X65187221Y-95160000D01*
D10*
X90725000Y-61600000D02*
X97625000Y-61600000D01*
X90725000Y-56500000D02*
X97625000Y-56500000D01*
X63100000Y-47250000D02*
X63100000Y-54150000D01*
X58000000Y-47250000D02*
X58000000Y-54150000D01*
X80600000Y-96650000D02*
X74300000Y-96650000D01*
X74300000Y-96650000D02*
X74300000Y-89150000D01*
X81800000Y-89150000D02*
X74300000Y-89150000D01*
X81800000Y-89150000D02*
X81800000Y-95450000D01*
X80600000Y-96650000D02*
X81800000Y-95450000D01*
X80000000Y-92450000D02*
X81000000Y-92950000D01*
X80000000Y-93550000D02*
X80000000Y-92450000D01*
X81000000Y-92950000D02*
X80000000Y-93550000D01*
D12*
X46930000Y-134022779D02*
X46930000Y-133697221D01*
X45910000Y-134022779D02*
X45910000Y-133697221D01*
X47912779Y-64510000D02*
X47587221Y-64510000D01*
X47912779Y-63490000D02*
X47587221Y-63490000D01*
X42010000Y-53087221D02*
X42010000Y-53412779D01*
X40990000Y-53087221D02*
X40990000Y-53412779D01*
X39287221Y-106340000D02*
X39612779Y-106340000D01*
X39287221Y-107360000D02*
X39612779Y-107360000D01*
X60240000Y-55987221D02*
X60240000Y-56312779D01*
X61260000Y-55987221D02*
X61260000Y-56312779D01*
X66762779Y-104490000D02*
X66437221Y-104490000D01*
X66762779Y-105510000D02*
X66437221Y-105510000D01*
X48460000Y-49262779D02*
X48460000Y-48937221D01*
X47440000Y-49262779D02*
X47440000Y-48937221D01*
X57975727Y-80254478D02*
X57745522Y-80024273D01*
X57254478Y-80975727D02*
X57024273Y-80745522D01*
X39337221Y-80110000D02*
X39662779Y-80110000D01*
X39337221Y-79090000D02*
X39662779Y-79090000D01*
X54937221Y-52890000D02*
X55262779Y-52890000D01*
X54937221Y-53910000D02*
X55262779Y-53910000D01*
X56254478Y-81975727D02*
X56024273Y-81745522D01*
X56975727Y-81254478D02*
X56745522Y-81024273D01*
X51490000Y-55738748D02*
X51490000Y-56261252D01*
X52910000Y-55738748D02*
X52910000Y-56261252D01*
X61225727Y-77004478D02*
X60995522Y-76774273D01*
X60504478Y-77725727D02*
X60274273Y-77495522D01*
X58254478Y-79975727D02*
X58024273Y-79745522D01*
X58975727Y-79254478D02*
X58745522Y-79024273D01*
X55975727Y-82254478D02*
X55745522Y-82024273D01*
X55254478Y-82975727D02*
X55024273Y-82745522D01*
X64325727Y-92045522D02*
X64095522Y-92275727D01*
X63604478Y-91324273D02*
X63374273Y-91554478D01*
X37710000Y-115212779D02*
X37710000Y-114887221D01*
X36690000Y-115212779D02*
X36690000Y-114887221D01*
X37710000Y-127712779D02*
X37710000Y-127387221D01*
X36690000Y-127712779D02*
X36690000Y-127387221D01*
X73837221Y-83260000D02*
X74162779Y-83260000D01*
X73837221Y-82240000D02*
X74162779Y-82240000D01*
X59640000Y-99037221D02*
X59640000Y-99362779D01*
X60660000Y-99037221D02*
X60660000Y-99362779D01*
X62237221Y-94140000D02*
X62562779Y-94140000D01*
X62237221Y-95160000D02*
X62562779Y-95160000D01*
X59490000Y-62762779D02*
X59490000Y-62437221D01*
X60510000Y-62762779D02*
X60510000Y-62437221D01*
X64724273Y-73404478D02*
X64954478Y-73174273D01*
X65445522Y-74125727D02*
X65675727Y-73895522D01*
X62725727Y-75104478D02*
X62495522Y-74874273D01*
X62004478Y-75825727D02*
X61774273Y-75595522D01*
X59490000Y-66437221D02*
X59490000Y-66762779D01*
X60510000Y-66437221D02*
X60510000Y-66762779D01*
X62704478Y-89925727D02*
X62474273Y-89695522D01*
X63425727Y-89204478D02*
X63195522Y-88974273D01*
X48510000Y-122937221D02*
X48510000Y-123262779D01*
X47490000Y-122937221D02*
X47490000Y-123262779D01*
X48510000Y-110337221D02*
X48510000Y-110662779D01*
X47490000Y-110337221D02*
X47490000Y-110662779D01*
X84012779Y-111110000D02*
X83687221Y-111110000D01*
X84012779Y-110090000D02*
X83687221Y-110090000D01*
X86587221Y-66010000D02*
X86912779Y-66010000D01*
X86587221Y-64990000D02*
X86912779Y-64990000D01*
X89760000Y-63087221D02*
X89760000Y-63412779D01*
X88740000Y-63087221D02*
X88740000Y-63412779D01*
X86062779Y-60240000D02*
X85737221Y-60240000D01*
X86062779Y-61260000D02*
X85737221Y-61260000D01*
X99385000Y-60162779D02*
X99385000Y-59837221D01*
X98365000Y-60162779D02*
X98365000Y-59837221D01*
X61500000Y-131000000D02*
X57600000Y-131000000D01*
X61500000Y-133000000D02*
X57600000Y-133000000D01*
X61500000Y-131000000D02*
X61500000Y-133000000D01*
X50750000Y-55450000D02*
X50750000Y-51550000D01*
X48750000Y-55450000D02*
X48750000Y-51550000D01*
X50750000Y-55450000D02*
X48750000Y-55450000D01*
X55300000Y-52200000D02*
X55300000Y-48300000D01*
X53300000Y-52200000D02*
X53300000Y-48300000D01*
X55300000Y-52200000D02*
X53300000Y-52200000D01*
X65650000Y-59300000D02*
X65650000Y-55400000D01*
X63650000Y-59300000D02*
X63650000Y-55400000D01*
X65650000Y-59300000D02*
X63650000Y-59300000D01*
X68550000Y-59750000D02*
X68550000Y-61750000D01*
X68550000Y-61750000D02*
X64650000Y-61750000D01*
X68550000Y-59750000D02*
X64650000Y-59750000D01*
X48500000Y-45500000D02*
X48500000Y-41600000D01*
X46500000Y-45500000D02*
X46500000Y-41600000D01*
X48500000Y-45500000D02*
X46500000Y-45500000D01*
X90275000Y-61625000D02*
X90275000Y-57725000D01*
X88275000Y-61625000D02*
X88275000Y-57725000D01*
X90275000Y-61625000D02*
X88275000Y-61625000D01*
X104100000Y-64165000D02*
X106385000Y-64165000D01*
X106385000Y-64165000D02*
X106385000Y-65635000D01*
X106385000Y-65635000D02*
X104100000Y-65635000D01*
X106485000Y-71785000D02*
X104200000Y-71785000D01*
X106485000Y-70315000D02*
X106485000Y-71785000D01*
X104200000Y-70315000D02*
X106485000Y-70315000D01*
X106385000Y-77985000D02*
X104100000Y-77985000D01*
X106385000Y-76515000D02*
X106385000Y-77985000D01*
X104100000Y-76515000D02*
X106385000Y-76515000D01*
X106385000Y-84135000D02*
X104100000Y-84135000D01*
X106385000Y-82665000D02*
X106385000Y-84135000D01*
X104100000Y-82665000D02*
X106385000Y-82665000D01*
X106385000Y-90285000D02*
X104100000Y-90285000D01*
X106385000Y-88815000D02*
X106385000Y-90285000D01*
X104100000Y-88815000D02*
X106385000Y-88815000D01*
X104100000Y-94965000D02*
X106385000Y-94965000D01*
X106385000Y-94965000D02*
X106385000Y-96435000D01*
X106385000Y-96435000D02*
X104100000Y-96435000D01*
X103200000Y-61500000D02*
X103200000Y-63500000D01*
X103200000Y-63500000D02*
X99300000Y-63500000D01*
X103200000Y-61500000D02*
X99300000Y-61500000D01*
X106385000Y-102585000D02*
X104100000Y-102585000D01*
X106385000Y-101115000D02*
X106385000Y-102585000D01*
X104100000Y-101115000D02*
X106385000Y-101115000D01*
X104100000Y-107315000D02*
X106385000Y-107315000D01*
X106385000Y-107315000D02*
X106385000Y-108785000D01*
X106385000Y-108785000D02*
X104100000Y-108785000D01*
X103850000Y-113515000D02*
X106135000Y-113515000D01*
X106135000Y-113515000D02*
X106135000Y-114985000D01*
X106135000Y-114985000D02*
X103850000Y-114985000D01*
X103800000Y-119665000D02*
X106085000Y-119665000D01*
X106085000Y-119665000D02*
X106085000Y-121135000D01*
X106085000Y-121135000D02*
X103800000Y-121135000D01*
X104050000Y-125865000D02*
X106335000Y-125865000D01*
X106335000Y-125865000D02*
X106335000Y-127335000D01*
X106335000Y-127335000D02*
X104050000Y-127335000D01*
X106335000Y-133485000D02*
X104050000Y-133485000D01*
X106335000Y-132015000D02*
X106335000Y-133485000D01*
X104050000Y-132015000D02*
X106335000Y-132015000D01*
X109000000Y-49000000D02*
X111000000Y-49000000D01*
X111000000Y-49000000D02*
X111000000Y-52900000D01*
X109000000Y-49000000D02*
X109000000Y-52900000D01*
D10*
X53480000Y-131111000D02*
X56020000Y-131111000D01*
X56020000Y-132889000D02*
X53480000Y-132889000D01*
X56020000Y-132889000D02*
X56020000Y-131111000D01*
X53480000Y-131111000D02*
X53480000Y-132889000D01*
D12*
X55590000Y-66075000D02*
X56500000Y-66075000D01*
X57900000Y-66075000D02*
X58810000Y-66075000D01*
X55590000Y-63500000D02*
X55590000Y-66075000D01*
X58810000Y-63925000D02*
X58810000Y-66075000D01*
X93775000Y-50460000D02*
X91625000Y-50460000D01*
X94200000Y-47240000D02*
X91625000Y-47240000D01*
X91625000Y-49550000D02*
X91625000Y-50460000D01*
X91625000Y-47240000D02*
X91625000Y-48150000D01*
X105360000Y-46925000D02*
X104450000Y-46925000D01*
X103050000Y-46925000D02*
X102140000Y-46925000D01*
X105360000Y-49500000D02*
X105360000Y-46925000D01*
X102140000Y-49075000D02*
X102140000Y-46925000D01*
X74037221Y-70040000D02*
X74362779Y-70040000D01*
X74037221Y-71060000D02*
X74362779Y-71060000D01*
X67512779Y-59210000D02*
X67187221Y-59210000D01*
X67512779Y-58190000D02*
X67187221Y-58190000D01*
X55037221Y-70260000D02*
X55362779Y-70260000D01*
X55037221Y-69240000D02*
X55362779Y-69240000D01*
X51090000Y-49637221D02*
X51090000Y-49962779D01*
X52110000Y-49637221D02*
X52110000Y-49962779D01*
X55037221Y-66390000D02*
X55362779Y-66390000D01*
X55037221Y-67410000D02*
X55362779Y-67410000D01*
X55037221Y-67840000D02*
X55362779Y-67840000D01*
X55037221Y-68860000D02*
X55362779Y-68860000D01*
X58740000Y-55987221D02*
X58740000Y-56312779D01*
X59760000Y-55987221D02*
X59760000Y-56312779D01*
X58260000Y-56312779D02*
X58260000Y-55987221D01*
X57240000Y-56312779D02*
X57240000Y-55987221D01*
X42262779Y-107390000D02*
X41937221Y-107390000D01*
X42262779Y-108410000D02*
X41937221Y-108410000D01*
X42312779Y-119840000D02*
X41987221Y-119840000D01*
X42312779Y-120860000D02*
X41987221Y-120860000D01*
X66310000Y-132187221D02*
X66310000Y-132512779D01*
X65290000Y-132187221D02*
X65290000Y-132512779D01*
X52290000Y-130637221D02*
X52290000Y-130962779D01*
X53310000Y-130637221D02*
X53310000Y-130962779D01*
X57540000Y-121662779D02*
X57540000Y-121337221D01*
X58560000Y-121662779D02*
X58560000Y-121337221D01*
X63540000Y-132187221D02*
X63540000Y-132512779D01*
X64560000Y-132187221D02*
X64560000Y-132512779D01*
X42262779Y-112640000D02*
X41937221Y-112640000D01*
X42262779Y-113660000D02*
X41937221Y-113660000D01*
X42262779Y-126110000D02*
X41937221Y-126110000D01*
X42262779Y-125090000D02*
X41937221Y-125090000D01*
X42262779Y-109710000D02*
X41937221Y-109710000D01*
X42262779Y-108690000D02*
X41937221Y-108690000D01*
X42312779Y-122260000D02*
X41987221Y-122260000D01*
X42312779Y-121240000D02*
X41987221Y-121240000D01*
X42262779Y-112260000D02*
X41937221Y-112260000D01*
X42262779Y-111240000D02*
X41937221Y-111240000D01*
X42262779Y-124760000D02*
X41937221Y-124760000D01*
X42262779Y-123740000D02*
X41937221Y-123740000D01*
X68160000Y-98987221D02*
X68160000Y-99312779D01*
X67140000Y-98987221D02*
X67140000Y-99312779D01*
X69660000Y-98987221D02*
X69660000Y-99312779D01*
X68640000Y-98987221D02*
X68640000Y-99312779D01*
X48662779Y-130140000D02*
X48337221Y-130140000D01*
X48662779Y-131160000D02*
X48337221Y-131160000D01*
X48762779Y-118660000D02*
X48437221Y-118660000D01*
X48762779Y-117640000D02*
X48437221Y-117640000D01*
X48662779Y-125860000D02*
X48337221Y-125860000D01*
X48662779Y-124840000D02*
X48337221Y-124840000D01*
X48712779Y-112340000D02*
X48387221Y-112340000D01*
X48712779Y-113360000D02*
X48387221Y-113360000D01*
X48662779Y-128740000D02*
X48337221Y-128740000D01*
X48662779Y-129760000D02*
X48337221Y-129760000D01*
X48762779Y-116240000D02*
X48437221Y-116240000D01*
X48762779Y-117260000D02*
X48437221Y-117260000D01*
X48662779Y-127260000D02*
X48337221Y-127260000D01*
X48662779Y-126240000D02*
X48337221Y-126240000D01*
X48762779Y-114760000D02*
X48437221Y-114760000D01*
X48762779Y-113740000D02*
X48437221Y-113740000D01*
X86587221Y-66490000D02*
X86912779Y-66490000D01*
X86587221Y-67510000D02*
X86912779Y-67510000D01*
X103612779Y-74010000D02*
X103287221Y-74010000D01*
X103612779Y-72990000D02*
X103287221Y-72990000D01*
X103462779Y-85340000D02*
X103137221Y-85340000D01*
X103462779Y-86360000D02*
X103137221Y-86360000D01*
X103462779Y-98710000D02*
X103137221Y-98710000D01*
X103462779Y-97690000D02*
X103137221Y-97690000D01*
X103512779Y-66790000D02*
X103187221Y-66790000D01*
X103512779Y-67810000D02*
X103187221Y-67810000D01*
X103512779Y-80210000D02*
X103187221Y-80210000D01*
X103512779Y-79190000D02*
X103187221Y-79190000D01*
X103462779Y-91490000D02*
X103137221Y-91490000D01*
X103462779Y-92510000D02*
X103137221Y-92510000D01*
X103087221Y-43590000D02*
X103412779Y-43590000D01*
X103087221Y-44610000D02*
X103412779Y-44610000D01*
X92587221Y-73740000D02*
X92912779Y-73740000D01*
X92587221Y-74760000D02*
X92912779Y-74760000D01*
X111612779Y-66560000D02*
X111287221Y-66560000D01*
X111612779Y-65540000D02*
X111287221Y-65540000D01*
X111662779Y-68240000D02*
X111337221Y-68240000D01*
X111662779Y-69260000D02*
X111337221Y-69260000D01*
X111712779Y-71640000D02*
X111387221Y-71640000D01*
X111712779Y-72660000D02*
X111387221Y-72660000D01*
X111662779Y-74240000D02*
X111337221Y-74240000D01*
X111662779Y-75260000D02*
X111337221Y-75260000D01*
X111712779Y-78910000D02*
X111387221Y-78910000D01*
X111712779Y-77890000D02*
X111387221Y-77890000D01*
X111662779Y-80490000D02*
X111337221Y-80490000D01*
X111662779Y-81510000D02*
X111337221Y-81510000D01*
X111662779Y-83940000D02*
X111337221Y-83940000D01*
X111662779Y-84960000D02*
X111337221Y-84960000D01*
X111662779Y-87460000D02*
X111337221Y-87460000D01*
X111662779Y-86440000D02*
X111337221Y-86440000D01*
X111662779Y-91160000D02*
X111337221Y-91160000D01*
X111662779Y-90140000D02*
X111337221Y-90140000D01*
X111662779Y-92690000D02*
X111337221Y-92690000D01*
X111662779Y-93710000D02*
X111337221Y-93710000D01*
X111662779Y-96190000D02*
X111337221Y-96190000D01*
X111662779Y-97210000D02*
X111337221Y-97210000D01*
X111662779Y-99710000D02*
X111337221Y-99710000D01*
X111662779Y-98690000D02*
X111337221Y-98690000D01*
X78887221Y-64090000D02*
X79212779Y-64090000D01*
X78887221Y-65110000D02*
X79212779Y-65110000D01*
X101712779Y-46560000D02*
X101387221Y-46560000D01*
X101712779Y-45540000D02*
X101387221Y-45540000D01*
X93262779Y-44840000D02*
X92937221Y-44840000D01*
X93262779Y-45860000D02*
X92937221Y-45860000D01*
X103462779Y-109990000D02*
X103137221Y-109990000D01*
X103462779Y-111010000D02*
X103137221Y-111010000D01*
X103162779Y-122340000D02*
X102837221Y-122340000D01*
X103162779Y-123360000D02*
X102837221Y-123360000D01*
X103462779Y-134640000D02*
X103137221Y-134640000D01*
X103462779Y-135660000D02*
X103137221Y-135660000D01*
X103462779Y-104760000D02*
X103137221Y-104760000D01*
X103462779Y-103740000D02*
X103137221Y-103740000D01*
X103262779Y-117160000D02*
X102937221Y-117160000D01*
X103262779Y-116140000D02*
X102937221Y-116140000D01*
X103412779Y-128490000D02*
X103087221Y-128490000D01*
X103412779Y-129510000D02*
X103087221Y-129510000D01*
X111662779Y-102390000D02*
X111337221Y-102390000D01*
X111662779Y-103410000D02*
X111337221Y-103410000D01*
X111662779Y-105960000D02*
X111337221Y-105960000D01*
X111662779Y-104940000D02*
X111337221Y-104940000D01*
X111662779Y-108590000D02*
X111337221Y-108590000D01*
X111662779Y-109610000D02*
X111337221Y-109610000D01*
X111662779Y-112210000D02*
X111337221Y-112210000D01*
X111662779Y-111190000D02*
X111337221Y-111190000D01*
X111662779Y-114790000D02*
X111337221Y-114790000D01*
X111662779Y-115810000D02*
X111337221Y-115810000D01*
X111662779Y-118360000D02*
X111337221Y-118360000D01*
X111662779Y-117340000D02*
X111337221Y-117340000D01*
X111662779Y-120940000D02*
X111337221Y-120940000D01*
X111662779Y-121960000D02*
X111337221Y-121960000D01*
X111662779Y-124510000D02*
X111337221Y-124510000D01*
X111662779Y-123490000D02*
X111337221Y-123490000D01*
X111662779Y-127140000D02*
X111337221Y-127140000D01*
X111662779Y-128160000D02*
X111337221Y-128160000D01*
X111662779Y-129640000D02*
X111337221Y-129640000D01*
X111662779Y-130660000D02*
X111337221Y-130660000D01*
X111662779Y-134260000D02*
X111337221Y-134260000D01*
X111662779Y-133240000D02*
X111337221Y-133240000D01*
X111662779Y-135790000D02*
X111337221Y-135790000D01*
X111662779Y-136810000D02*
X111337221Y-136810000D01*
X55900000Y-57600000D02*
X54300000Y-57600000D01*
X54300000Y-54400000D02*
X56600000Y-54400000D01*
X62485000Y-126750000D02*
X62485000Y-128700000D01*
X62485000Y-126750000D02*
X62485000Y-124800000D01*
X53615000Y-126750000D02*
X53615000Y-128700000D01*
X53615000Y-126750000D02*
X53615000Y-123300000D01*
X67060000Y-62340000D02*
X67060000Y-63600000D01*
X67060000Y-69160000D02*
X67060000Y-67900000D01*
X63300000Y-62340000D02*
X67060000Y-62340000D01*
X61050000Y-69160000D02*
X67060000Y-69160000D01*
X88350000Y-62450000D02*
X88350000Y-64750000D01*
X85150000Y-64050000D02*
X85150000Y-62450000D01*
X98912779Y-73760000D02*
X98587221Y-73760000D01*
X98912779Y-72740000D02*
X98587221Y-72740000D01*
X98137221Y-68910000D02*
X98462779Y-68910000D01*
X98137221Y-67890000D02*
X98462779Y-67890000D01*
X96470000Y-65550000D02*
X97970000Y-65550000D01*
X97970000Y-65550000D02*
X97970000Y-65820000D01*
X97970000Y-65820000D02*
X100800000Y-65820000D01*
X96470000Y-72450000D02*
X97970000Y-72450000D01*
X97970000Y-72450000D02*
X97970000Y-72180000D01*
X97970000Y-72180000D02*
X99070000Y-72180000D01*
X63210000Y-56041422D02*
X63210000Y-56558578D01*
X61790000Y-56041422D02*
X61790000Y-56558578D01*
D10*
X50525000Y-61925000D02*
X50400000Y-61925000D01*
X50525000Y-58675000D02*
X50300000Y-58675000D01*
X47275000Y-58675000D02*
X47500000Y-58675000D01*
X47275000Y-61925000D02*
X47500000Y-61925000D01*
X50525000Y-61925000D02*
X50525000Y-58675000D01*
X47275000Y-61925000D02*
X47275000Y-58675000D01*
X50400000Y-61925000D02*
X50400000Y-63000000D01*
D12*
X40990000Y-45287221D02*
X40990000Y-45612779D01*
X42010000Y-45287221D02*
X42010000Y-45612779D01*
X39050000Y-56550000D02*
X39350000Y-56250000D01*
X38750000Y-56250000D02*
X39350000Y-56250000D01*
X39050000Y-56550000D02*
X38750000Y-56250000D01*
X38200000Y-57450000D02*
X38200000Y-58050000D01*
X41650000Y-56750000D02*
X38850000Y-56750000D01*
X42300000Y-58050000D02*
X42300000Y-57450000D01*
X38850000Y-58750000D02*
X41650000Y-58750000D01*
X41600000Y-58750000D02*
G75*
G03X42300000Y-58050000I0J700000D01*
G01*
X42300000Y-57450000D02*
G75*
G03X41600000Y-56750000I-700000J0D01*
G01*
X38900000Y-56750000D02*
G75*
G03X38200000Y-57450000I0J-700000D01*
G01*
X38200000Y-58050000D02*
G75*
G03X38900000Y-58750000I700000J0D01*
G01*
X45940000Y-72860000D02*
X45940000Y-72560000D01*
X50560000Y-72860000D02*
X45940000Y-72860000D01*
X50560000Y-72560000D02*
X50560000Y-72860000D01*
X45940000Y-66140000D02*
X45940000Y-66440000D01*
X50560000Y-66140000D02*
X45940000Y-66140000D01*
X50560000Y-66440000D02*
X50560000Y-66140000D01*
X51450000Y-66440000D02*
X50560000Y-66440000D01*
X112400000Y-43850000D02*
X112400000Y-47150000D01*
X112400000Y-47150000D02*
X107000000Y-47150000D01*
X112400000Y-43850000D02*
X107000000Y-43850000D01*
X66860000Y-125462779D02*
X66860000Y-125137221D01*
X65840000Y-125462779D02*
X65840000Y-125137221D01*
X80590000Y-125512779D02*
X80590000Y-125187221D01*
X81610000Y-125512779D02*
X81610000Y-125187221D01*
X73490000Y-118182779D02*
X73490000Y-117857221D01*
X72470000Y-118182779D02*
X72470000Y-117857221D01*
X74437221Y-133040000D02*
X74762779Y-133040000D01*
X74437221Y-134060000D02*
X74762779Y-134060000D01*
X72837221Y-135510000D02*
X73162779Y-135510000D01*
X72837221Y-134490000D02*
X73162779Y-134490000D01*
X84337221Y-131760000D02*
X84662779Y-131760000D01*
X84337221Y-130740000D02*
X84662779Y-130740000D01*
X84337221Y-132240000D02*
X84662779Y-132240000D01*
X84337221Y-133260000D02*
X84662779Y-133260000D01*
X69265000Y-131160000D02*
X68690000Y-131160000D01*
X68690000Y-131160000D02*
X68690000Y-130585000D01*
X78335000Y-131160000D02*
X78910000Y-131160000D01*
X78910000Y-131160000D02*
X78910000Y-130585000D01*
X69265000Y-120940000D02*
X68690000Y-120940000D01*
X68690000Y-120940000D02*
X68690000Y-121515000D01*
X78335000Y-120940000D02*
X78910000Y-120940000D01*
X78910000Y-120940000D02*
X78910000Y-121515000D01*
X78910000Y-121515000D02*
X80200000Y-121515000D01*
X80460000Y-120062779D02*
X80460000Y-119737221D01*
X79440000Y-120062779D02*
X79440000Y-119737221D01*
X50240000Y-103937221D02*
X50240000Y-104262779D01*
X51260000Y-103937221D02*
X51260000Y-104262779D01*
X56960000Y-103937221D02*
X56960000Y-104262779D01*
X55940000Y-103937221D02*
X55940000Y-104262779D01*
X55940000Y-107537221D02*
X55940000Y-107862779D01*
X56960000Y-107537221D02*
X56960000Y-107862779D01*
X51210000Y-107587221D02*
X51210000Y-107912779D01*
X50190000Y-107587221D02*
X50190000Y-107912779D01*
D10*
X66321428Y-92961904D02*
X66245238Y-92961904D01*
X66169047Y-93000000D01*
X66130952Y-93038095D01*
X66092857Y-93114285D01*
X66054761Y-93266666D01*
X66054761Y-93457142D01*
X66092857Y-93609523D01*
X66130952Y-93685714D01*
X66169047Y-93723809D01*
X66245238Y-93761904D01*
X66321428Y-93761904D01*
X66397619Y-93723809D01*
X66435714Y-93685714D01*
X66473809Y-93609523D01*
X66511904Y-93457142D01*
X66511904Y-93266666D01*
X66473809Y-93114285D01*
X66435714Y-93038095D01*
X66397619Y-93000000D01*
X66321428Y-92961904D01*
X65711904Y-93685714D02*
X65673809Y-93723809D01*
X65711904Y-93761904D01*
X65750000Y-93723809D01*
X65711904Y-93685714D01*
X65711904Y-93761904D01*
X64911904Y-93761904D02*
X65369047Y-93761904D01*
X65140476Y-93761904D02*
X65140476Y-92961904D01*
X65216666Y-93076190D01*
X65292857Y-93152380D01*
X65369047Y-93190476D01*
X64226190Y-93228571D02*
X64226190Y-93761904D01*
X64569047Y-93228571D02*
X64569047Y-93647619D01*
X64530952Y-93723809D01*
X64454761Y-93761904D01*
X64340476Y-93761904D01*
X64264285Y-93723809D01*
X64226190Y-93685714D01*
X93722619Y-57311904D02*
X93675000Y-57359523D01*
X93627380Y-57454761D01*
X93627380Y-57692857D01*
X93675000Y-57788095D01*
X93722619Y-57835714D01*
X93817857Y-57883333D01*
X93913095Y-57883333D01*
X94055952Y-57835714D01*
X94627380Y-57264285D01*
X94627380Y-57883333D01*
X93722619Y-58264285D02*
X93675000Y-58311904D01*
X93627380Y-58407142D01*
X93627380Y-58645238D01*
X93675000Y-58740476D01*
X93722619Y-58788095D01*
X93817857Y-58835714D01*
X93913095Y-58835714D01*
X94055952Y-58788095D01*
X94627380Y-58216666D01*
X94627380Y-58835714D01*
X93960714Y-59692857D02*
X94627380Y-59692857D01*
X93960714Y-59264285D02*
X94484523Y-59264285D01*
X94579761Y-59311904D01*
X94627380Y-59407142D01*
X94627380Y-59550000D01*
X94579761Y-59645238D01*
X94532142Y-59692857D01*
X94627380Y-60169047D02*
X93627380Y-60169047D01*
X94103571Y-60169047D02*
X94103571Y-60740476D01*
X94627380Y-60740476D02*
X93627380Y-60740476D01*
X62288095Y-50247619D02*
X62240476Y-50200000D01*
X62145238Y-50152380D01*
X61907142Y-50152380D01*
X61811904Y-50200000D01*
X61764285Y-50247619D01*
X61716666Y-50342857D01*
X61716666Y-50438095D01*
X61764285Y-50580952D01*
X62335714Y-51152380D01*
X61716666Y-51152380D01*
X61335714Y-50247619D02*
X61288095Y-50200000D01*
X61192857Y-50152380D01*
X60954761Y-50152380D01*
X60859523Y-50200000D01*
X60811904Y-50247619D01*
X60764285Y-50342857D01*
X60764285Y-50438095D01*
X60811904Y-50580952D01*
X61383333Y-51152380D01*
X60764285Y-51152380D01*
X59907142Y-50485714D02*
X59907142Y-51152380D01*
X60335714Y-50485714D02*
X60335714Y-51009523D01*
X60288095Y-51104761D01*
X60192857Y-51152380D01*
X60050000Y-51152380D01*
X59954761Y-51104761D01*
X59907142Y-51057142D01*
X59430952Y-51152380D02*
X59430952Y-50152380D01*
X59430952Y-50628571D02*
X58859523Y-50628571D01*
X58859523Y-51152380D02*
X58859523Y-50152380D01*
X44551904Y-132888571D02*
X44551904Y-132964761D01*
X44590000Y-133040952D01*
X44628095Y-133079047D01*
X44704285Y-133117142D01*
X44856666Y-133155238D01*
X45047142Y-133155238D01*
X45199523Y-133117142D01*
X45275714Y-133079047D01*
X45313809Y-133040952D01*
X45351904Y-132964761D01*
X45351904Y-132888571D01*
X45313809Y-132812380D01*
X45275714Y-132774285D01*
X45199523Y-132736190D01*
X45047142Y-132698095D01*
X44856666Y-132698095D01*
X44704285Y-132736190D01*
X44628095Y-132774285D01*
X44590000Y-132812380D01*
X44551904Y-132888571D01*
X45275714Y-133498095D02*
X45313809Y-133536190D01*
X45351904Y-133498095D01*
X45313809Y-133460000D01*
X45275714Y-133498095D01*
X45351904Y-133498095D01*
X45351904Y-134298095D02*
X45351904Y-133840952D01*
X45351904Y-134069523D02*
X44551904Y-134069523D01*
X44666190Y-133993333D01*
X44742380Y-133917142D01*
X44780476Y-133840952D01*
X44818571Y-134983809D02*
X45351904Y-134983809D01*
X44818571Y-134640952D02*
X45237619Y-134640952D01*
X45313809Y-134679047D01*
X45351904Y-134755238D01*
X45351904Y-134869523D01*
X45313809Y-134945714D01*
X45275714Y-134983809D01*
X48721428Y-64761904D02*
X48645238Y-64761904D01*
X48569047Y-64800000D01*
X48530952Y-64838095D01*
X48492857Y-64914285D01*
X48454761Y-65066666D01*
X48454761Y-65257142D01*
X48492857Y-65409523D01*
X48530952Y-65485714D01*
X48569047Y-65523809D01*
X48645238Y-65561904D01*
X48721428Y-65561904D01*
X48797619Y-65523809D01*
X48835714Y-65485714D01*
X48873809Y-65409523D01*
X48911904Y-65257142D01*
X48911904Y-65066666D01*
X48873809Y-64914285D01*
X48835714Y-64838095D01*
X48797619Y-64800000D01*
X48721428Y-64761904D01*
X48111904Y-65485714D02*
X48073809Y-65523809D01*
X48111904Y-65561904D01*
X48150000Y-65523809D01*
X48111904Y-65485714D01*
X48111904Y-65561904D01*
X47311904Y-65561904D02*
X47769047Y-65561904D01*
X47540476Y-65561904D02*
X47540476Y-64761904D01*
X47616666Y-64876190D01*
X47692857Y-64952380D01*
X47769047Y-64990476D01*
X46626190Y-65028571D02*
X46626190Y-65561904D01*
X46969047Y-65028571D02*
X46969047Y-65447619D01*
X46930952Y-65523809D01*
X46854761Y-65561904D01*
X46740476Y-65561904D01*
X46664285Y-65523809D01*
X46626190Y-65485714D01*
X42266903Y-52303570D02*
X42266903Y-52379760D01*
X42304999Y-52455951D01*
X42343094Y-52494046D01*
X42419284Y-52532141D01*
X42571665Y-52570237D01*
X42762141Y-52570237D01*
X42914522Y-52532141D01*
X42990713Y-52494046D01*
X43028808Y-52455951D01*
X43066903Y-52379760D01*
X43066903Y-52303570D01*
X43028808Y-52227379D01*
X42990713Y-52189284D01*
X42914522Y-52151189D01*
X42762141Y-52113094D01*
X42571665Y-52113094D01*
X42419284Y-52151189D01*
X42343094Y-52189284D01*
X42304999Y-52227379D01*
X42266903Y-52303570D01*
X42990713Y-52913094D02*
X43028808Y-52951189D01*
X43066903Y-52913094D01*
X43028808Y-52874999D01*
X42990713Y-52913094D01*
X43066903Y-52913094D01*
X43066903Y-53713094D02*
X43066903Y-53255951D01*
X43066903Y-53484522D02*
X42266903Y-53484522D01*
X42381189Y-53408332D01*
X42457379Y-53332141D01*
X42495475Y-53255951D01*
X42533570Y-54398808D02*
X43066903Y-54398808D01*
X42533570Y-54055951D02*
X42952618Y-54055951D01*
X43028808Y-54094046D01*
X43066903Y-54170237D01*
X43066903Y-54284522D01*
X43028808Y-54360713D01*
X42990713Y-54398808D01*
X37383333Y-107211904D02*
X37840476Y-107211904D01*
X37611904Y-107211904D02*
X37611904Y-106411904D01*
X37688095Y-106526190D01*
X37764285Y-106602380D01*
X37840476Y-106640476D01*
X36697619Y-106678571D02*
X36697619Y-107211904D01*
X37040476Y-106678571D02*
X37040476Y-107097619D01*
X37002380Y-107173809D01*
X36926190Y-107211904D01*
X36811904Y-107211904D01*
X36735714Y-107173809D01*
X36697619Y-107135714D01*
X60311904Y-57878571D02*
X60311904Y-57954761D01*
X60350000Y-58030952D01*
X60388095Y-58069047D01*
X60464285Y-58107142D01*
X60616666Y-58145238D01*
X60807142Y-58145238D01*
X60959523Y-58107142D01*
X61035714Y-58069047D01*
X61073809Y-58030952D01*
X61111904Y-57954761D01*
X61111904Y-57878571D01*
X61073809Y-57802380D01*
X61035714Y-57764285D01*
X60959523Y-57726190D01*
X60807142Y-57688095D01*
X60616666Y-57688095D01*
X60464285Y-57726190D01*
X60388095Y-57764285D01*
X60350000Y-57802380D01*
X60311904Y-57878571D01*
X61035714Y-58488095D02*
X61073809Y-58526190D01*
X61111904Y-58488095D01*
X61073809Y-58450000D01*
X61035714Y-58488095D01*
X61111904Y-58488095D01*
X61111904Y-59288095D02*
X61111904Y-58830952D01*
X61111904Y-59059523D02*
X60311904Y-59059523D01*
X60426190Y-58983333D01*
X60502380Y-58907142D01*
X60540476Y-58830952D01*
X60578571Y-59973809D02*
X61111904Y-59973809D01*
X60578571Y-59630952D02*
X60997619Y-59630952D01*
X61073809Y-59669047D01*
X61111904Y-59745238D01*
X61111904Y-59859523D01*
X61073809Y-59935714D01*
X61035714Y-59973809D01*
X70271428Y-104561904D02*
X70195238Y-104561904D01*
X70119047Y-104600000D01*
X70080952Y-104638095D01*
X70042857Y-104714285D01*
X70004761Y-104866666D01*
X70004761Y-105057142D01*
X70042857Y-105209523D01*
X70080952Y-105285714D01*
X70119047Y-105323809D01*
X70195238Y-105361904D01*
X70271428Y-105361904D01*
X70347619Y-105323809D01*
X70385714Y-105285714D01*
X70423809Y-105209523D01*
X70461904Y-105057142D01*
X70461904Y-104866666D01*
X70423809Y-104714285D01*
X70385714Y-104638095D01*
X70347619Y-104600000D01*
X70271428Y-104561904D01*
X69661904Y-105285714D02*
X69623809Y-105323809D01*
X69661904Y-105361904D01*
X69700000Y-105323809D01*
X69661904Y-105285714D01*
X69661904Y-105361904D01*
X68861904Y-105361904D02*
X69319047Y-105361904D01*
X69090476Y-105361904D02*
X69090476Y-104561904D01*
X69166666Y-104676190D01*
X69242857Y-104752380D01*
X69319047Y-104790476D01*
X68176190Y-104828571D02*
X68176190Y-105361904D01*
X68519047Y-104828571D02*
X68519047Y-105247619D01*
X68480952Y-105323809D01*
X68404761Y-105361904D01*
X68290476Y-105361904D01*
X68214285Y-105323809D01*
X68176190Y-105285714D01*
X48711904Y-48128571D02*
X48711904Y-48204761D01*
X48750000Y-48280952D01*
X48788095Y-48319047D01*
X48864285Y-48357142D01*
X49016666Y-48395238D01*
X49207142Y-48395238D01*
X49359523Y-48357142D01*
X49435714Y-48319047D01*
X49473809Y-48280952D01*
X49511904Y-48204761D01*
X49511904Y-48128571D01*
X49473809Y-48052380D01*
X49435714Y-48014285D01*
X49359523Y-47976190D01*
X49207142Y-47938095D01*
X49016666Y-47938095D01*
X48864285Y-47976190D01*
X48788095Y-48014285D01*
X48750000Y-48052380D01*
X48711904Y-48128571D01*
X49435714Y-48738095D02*
X49473809Y-48776190D01*
X49511904Y-48738095D01*
X49473809Y-48700000D01*
X49435714Y-48738095D01*
X49511904Y-48738095D01*
X49511904Y-49538095D02*
X49511904Y-49080952D01*
X49511904Y-49309523D02*
X48711904Y-49309523D01*
X48826190Y-49233333D01*
X48902380Y-49157142D01*
X48940476Y-49080952D01*
X48978571Y-50223809D02*
X49511904Y-50223809D01*
X48978571Y-49880952D02*
X49397619Y-49880952D01*
X49473809Y-49919047D01*
X49511904Y-49995238D01*
X49511904Y-50109523D01*
X49473809Y-50185714D01*
X49435714Y-50223809D01*
X56622850Y-79003290D02*
X56568976Y-78949415D01*
X56488163Y-78922478D01*
X56434289Y-78922478D01*
X56353476Y-78949415D01*
X56218789Y-79030228D01*
X56084102Y-79164915D01*
X56003290Y-79299602D01*
X55976353Y-79380414D01*
X55976353Y-79434289D01*
X56003290Y-79515101D01*
X56057165Y-79568976D01*
X56137977Y-79595913D01*
X56191852Y-79595913D01*
X56272664Y-79568976D01*
X56407351Y-79488163D01*
X56542038Y-79353476D01*
X56622850Y-79218789D01*
X56649788Y-79137977D01*
X56649788Y-79084102D01*
X56622850Y-79003290D01*
X55680041Y-79084102D02*
X55626167Y-79084102D01*
X55626167Y-79137977D01*
X55680041Y-79137977D01*
X55680041Y-79084102D01*
X55626167Y-79137977D01*
X55060481Y-78572292D02*
X55383730Y-78895541D01*
X55222105Y-78733916D02*
X55787791Y-78168231D01*
X55760854Y-78302918D01*
X55760854Y-78410667D01*
X55787791Y-78491479D01*
X54952731Y-77710295D02*
X54575608Y-78087418D01*
X55195168Y-77952731D02*
X54898857Y-78249043D01*
X54818044Y-78275980D01*
X54737232Y-78249043D01*
X54656420Y-78168231D01*
X54629483Y-78087418D01*
X54629483Y-78033544D01*
X41733333Y-79961904D02*
X42190476Y-79961904D01*
X41961904Y-79961904D02*
X41961904Y-79161904D01*
X42038095Y-79276190D01*
X42114285Y-79352380D01*
X42190476Y-79390476D01*
X41047619Y-79428571D02*
X41047619Y-79961904D01*
X41390476Y-79428571D02*
X41390476Y-79847619D01*
X41352380Y-79923809D01*
X41276190Y-79961904D01*
X41161904Y-79961904D01*
X41085714Y-79923809D01*
X41047619Y-79885714D01*
X53371428Y-52961904D02*
X53295238Y-52961904D01*
X53219047Y-53000000D01*
X53180952Y-53038095D01*
X53142857Y-53114285D01*
X53104761Y-53266666D01*
X53104761Y-53457142D01*
X53142857Y-53609523D01*
X53180952Y-53685714D01*
X53219047Y-53723809D01*
X53295238Y-53761904D01*
X53371428Y-53761904D01*
X53447619Y-53723809D01*
X53485714Y-53685714D01*
X53523809Y-53609523D01*
X53561904Y-53457142D01*
X53561904Y-53266666D01*
X53523809Y-53114285D01*
X53485714Y-53038095D01*
X53447619Y-53000000D01*
X53371428Y-52961904D01*
X52761904Y-53685714D02*
X52723809Y-53723809D01*
X52761904Y-53761904D01*
X52800000Y-53723809D01*
X52761904Y-53685714D01*
X52761904Y-53761904D01*
X51961904Y-53761904D02*
X52419047Y-53761904D01*
X52190476Y-53761904D02*
X52190476Y-52961904D01*
X52266666Y-53076190D01*
X52342857Y-53152380D01*
X52419047Y-53190476D01*
X51276190Y-53228571D02*
X51276190Y-53761904D01*
X51619047Y-53228571D02*
X51619047Y-53647619D01*
X51580952Y-53723809D01*
X51504761Y-53761904D01*
X51390476Y-53761904D01*
X51314285Y-53723809D01*
X51276190Y-53685714D01*
X54818095Y-80400617D02*
X55141344Y-80723866D01*
X54979720Y-80562241D02*
X55545405Y-79996556D01*
X55518468Y-80131243D01*
X55518468Y-80238992D01*
X55545405Y-80319805D01*
X54710345Y-79538620D02*
X54333222Y-79915743D01*
X54952782Y-79781056D02*
X54656471Y-80077368D01*
X54575658Y-80104305D01*
X54494846Y-80077368D01*
X54414034Y-79996556D01*
X54387097Y-79915743D01*
X54387097Y-79861869D01*
X50628571Y-55919047D02*
X51161904Y-55919047D01*
X50323809Y-55728571D02*
X50895238Y-55538095D01*
X50895238Y-56033333D01*
X51085714Y-56338095D02*
X51123809Y-56376190D01*
X51161904Y-56338095D01*
X51123809Y-56300000D01*
X51085714Y-56338095D01*
X51161904Y-56338095D01*
X50361904Y-56642857D02*
X50361904Y-57176190D01*
X51161904Y-56833333D01*
X50628571Y-57823809D02*
X51161904Y-57823809D01*
X50628571Y-57480952D02*
X51047619Y-57480952D01*
X51123809Y-57519047D01*
X51161904Y-57595238D01*
X51161904Y-57709523D01*
X51123809Y-57785714D01*
X51085714Y-57823809D01*
X59837495Y-75717935D02*
X59783621Y-75664060D01*
X59702808Y-75637123D01*
X59648934Y-75637123D01*
X59568121Y-75664060D01*
X59433434Y-75744873D01*
X59298747Y-75879560D01*
X59217935Y-76014247D01*
X59190998Y-76095059D01*
X59190998Y-76148934D01*
X59217935Y-76229746D01*
X59271810Y-76283621D01*
X59352622Y-76310558D01*
X59406497Y-76310558D01*
X59487309Y-76283621D01*
X59621996Y-76202808D01*
X59756683Y-76068121D01*
X59837495Y-75933434D01*
X59864433Y-75852622D01*
X59864433Y-75798747D01*
X59837495Y-75717935D01*
X58894686Y-75798747D02*
X58840812Y-75798747D01*
X58840812Y-75852622D01*
X58894686Y-75852622D01*
X58894686Y-75798747D01*
X58840812Y-75852622D01*
X58275126Y-75286937D02*
X58598375Y-75610186D01*
X58436750Y-75448561D02*
X59002436Y-74882876D01*
X58975499Y-75017563D01*
X58975499Y-75125312D01*
X59002436Y-75206124D01*
X58167376Y-74424940D02*
X57790253Y-74802063D01*
X58409813Y-74667376D02*
X58113502Y-74963688D01*
X58032689Y-74990625D01*
X57951877Y-74963688D01*
X57871065Y-74882876D01*
X57844128Y-74802063D01*
X57844128Y-74748189D01*
X57552139Y-78003290D02*
X57498265Y-77949415D01*
X57417452Y-77922478D01*
X57363578Y-77922478D01*
X57282765Y-77949415D01*
X57148078Y-78030228D01*
X57013391Y-78164915D01*
X56932579Y-78299602D01*
X56905642Y-78380414D01*
X56905642Y-78434289D01*
X56932579Y-78515101D01*
X56986454Y-78568976D01*
X57067266Y-78595913D01*
X57121141Y-78595913D01*
X57201953Y-78568976D01*
X57336640Y-78488163D01*
X57471327Y-78353476D01*
X57552139Y-78218789D01*
X57579077Y-78137977D01*
X57579077Y-78084102D01*
X57552139Y-78003290D01*
X56609330Y-78084102D02*
X56555456Y-78084102D01*
X56555456Y-78137977D01*
X56609330Y-78137977D01*
X56609330Y-78084102D01*
X56555456Y-78137977D01*
X55989770Y-77572292D02*
X56313019Y-77895541D01*
X56151394Y-77733916D02*
X56717080Y-77168231D01*
X56690143Y-77302918D01*
X56690143Y-77410667D01*
X56717080Y-77491479D01*
X55882020Y-76710295D02*
X55504897Y-77087418D01*
X56124457Y-76952731D02*
X55828146Y-77249043D01*
X55747333Y-77275980D01*
X55666521Y-77249043D01*
X55585709Y-77168231D01*
X55558772Y-77087418D01*
X55558772Y-77033544D01*
X54596683Y-80977123D02*
X54542809Y-80923248D01*
X54461996Y-80896311D01*
X54408122Y-80896311D01*
X54327309Y-80923248D01*
X54192622Y-81004061D01*
X54057935Y-81138748D01*
X53977123Y-81273435D01*
X53950186Y-81354247D01*
X53950186Y-81408122D01*
X53977123Y-81488934D01*
X54030998Y-81542809D01*
X54111810Y-81569746D01*
X54165685Y-81569746D01*
X54246497Y-81542809D01*
X54381184Y-81461996D01*
X54515871Y-81327309D01*
X54596683Y-81192622D01*
X54623621Y-81111810D01*
X54623621Y-81057935D01*
X54596683Y-80977123D01*
X53653874Y-81057935D02*
X53600000Y-81057935D01*
X53600000Y-81111810D01*
X53653874Y-81111810D01*
X53653874Y-81057935D01*
X53600000Y-81111810D01*
X53034314Y-80546125D02*
X53357563Y-80869374D01*
X53195938Y-80707749D02*
X53761624Y-80142064D01*
X53734687Y-80276751D01*
X53734687Y-80384500D01*
X53761624Y-80465312D01*
X52926564Y-79684128D02*
X52549441Y-80061251D01*
X53169001Y-79926564D02*
X52872690Y-80222876D01*
X52791877Y-80249813D01*
X52711065Y-80222876D01*
X52630253Y-80142064D01*
X52603316Y-80061251D01*
X52603316Y-80007377D01*
X66127123Y-88903316D02*
X66073248Y-88957190D01*
X66046311Y-89038003D01*
X66046311Y-89091877D01*
X66073248Y-89172690D01*
X66154061Y-89307377D01*
X66288748Y-89442064D01*
X66423435Y-89522876D01*
X66504247Y-89549813D01*
X66558122Y-89549813D01*
X66638934Y-89522876D01*
X66692809Y-89469001D01*
X66719746Y-89388189D01*
X66719746Y-89334314D01*
X66692809Y-89253502D01*
X66611996Y-89118815D01*
X66477309Y-88984128D01*
X66342622Y-88903316D01*
X66261810Y-88876378D01*
X66207935Y-88876378D01*
X66127123Y-88903316D01*
X66207935Y-89846125D02*
X66207935Y-89900000D01*
X66261810Y-89900000D01*
X66261810Y-89846125D01*
X66207935Y-89846125D01*
X66261810Y-89900000D01*
X65696125Y-90465685D02*
X66019374Y-90142436D01*
X65857749Y-90304061D02*
X65292064Y-89738375D01*
X65426751Y-89765312D01*
X65534500Y-89765312D01*
X65615312Y-89738375D01*
X64834128Y-90573435D02*
X65211251Y-90950558D01*
X65076564Y-90330998D02*
X65372876Y-90627309D01*
X65399813Y-90708122D01*
X65372876Y-90788934D01*
X65292064Y-90869746D01*
X65211251Y-90896683D01*
X65157377Y-90896683D01*
X36761904Y-111428571D02*
X36761904Y-111504761D01*
X36800000Y-111580952D01*
X36838095Y-111619047D01*
X36914285Y-111657142D01*
X37066666Y-111695238D01*
X37257142Y-111695238D01*
X37409523Y-111657142D01*
X37485714Y-111619047D01*
X37523809Y-111580952D01*
X37561904Y-111504761D01*
X37561904Y-111428571D01*
X37523809Y-111352380D01*
X37485714Y-111314285D01*
X37409523Y-111276190D01*
X37257142Y-111238095D01*
X37066666Y-111238095D01*
X36914285Y-111276190D01*
X36838095Y-111314285D01*
X36800000Y-111352380D01*
X36761904Y-111428571D01*
X37485714Y-112038095D02*
X37523809Y-112076190D01*
X37561904Y-112038095D01*
X37523809Y-112000000D01*
X37485714Y-112038095D01*
X37561904Y-112038095D01*
X37561904Y-112838095D02*
X37561904Y-112380952D01*
X37561904Y-112609523D02*
X36761904Y-112609523D01*
X36876190Y-112533333D01*
X36952380Y-112457142D01*
X36990476Y-112380952D01*
X37028571Y-113523809D02*
X37561904Y-113523809D01*
X37028571Y-113180952D02*
X37447619Y-113180952D01*
X37523809Y-113219047D01*
X37561904Y-113295238D01*
X37561904Y-113409523D01*
X37523809Y-113485714D01*
X37485714Y-113523809D01*
X36811904Y-129278571D02*
X36811904Y-129354761D01*
X36850000Y-129430952D01*
X36888095Y-129469047D01*
X36964285Y-129507142D01*
X37116666Y-129545238D01*
X37307142Y-129545238D01*
X37459523Y-129507142D01*
X37535714Y-129469047D01*
X37573809Y-129430952D01*
X37611904Y-129354761D01*
X37611904Y-129278571D01*
X37573809Y-129202380D01*
X37535714Y-129164285D01*
X37459523Y-129126190D01*
X37307142Y-129088095D01*
X37116666Y-129088095D01*
X36964285Y-129126190D01*
X36888095Y-129164285D01*
X36850000Y-129202380D01*
X36811904Y-129278571D01*
X37535714Y-129888095D02*
X37573809Y-129926190D01*
X37611904Y-129888095D01*
X37573809Y-129850000D01*
X37535714Y-129888095D01*
X37611904Y-129888095D01*
X37611904Y-130688095D02*
X37611904Y-130230952D01*
X37611904Y-130459523D02*
X36811904Y-130459523D01*
X36926190Y-130383333D01*
X37002380Y-130307142D01*
X37040476Y-130230952D01*
X37078571Y-131373809D02*
X37611904Y-131373809D01*
X37078571Y-131030952D02*
X37497619Y-131030952D01*
X37573809Y-131069047D01*
X37611904Y-131145238D01*
X37611904Y-131259523D01*
X37573809Y-131335714D01*
X37535714Y-131373809D01*
X74971428Y-81111904D02*
X74895238Y-81111904D01*
X74819047Y-81150000D01*
X74780952Y-81188095D01*
X74742857Y-81264285D01*
X74704761Y-81416666D01*
X74704761Y-81607142D01*
X74742857Y-81759523D01*
X74780952Y-81835714D01*
X74819047Y-81873809D01*
X74895238Y-81911904D01*
X74971428Y-81911904D01*
X75047619Y-81873809D01*
X75085714Y-81835714D01*
X75123809Y-81759523D01*
X75161904Y-81607142D01*
X75161904Y-81416666D01*
X75123809Y-81264285D01*
X75085714Y-81188095D01*
X75047619Y-81150000D01*
X74971428Y-81111904D01*
X74361904Y-81835714D02*
X74323809Y-81873809D01*
X74361904Y-81911904D01*
X74400000Y-81873809D01*
X74361904Y-81835714D01*
X74361904Y-81911904D01*
X73561904Y-81911904D02*
X74019047Y-81911904D01*
X73790476Y-81911904D02*
X73790476Y-81111904D01*
X73866666Y-81226190D01*
X73942857Y-81302380D01*
X74019047Y-81340476D01*
X72876190Y-81378571D02*
X72876190Y-81911904D01*
X73219047Y-81378571D02*
X73219047Y-81797619D01*
X73180952Y-81873809D01*
X73104761Y-81911904D01*
X72990476Y-81911904D01*
X72914285Y-81873809D01*
X72876190Y-81835714D01*
X60511904Y-101316666D02*
X60511904Y-100859523D01*
X60511904Y-101088095D02*
X59711904Y-101088095D01*
X59826190Y-101011904D01*
X59902380Y-100935714D01*
X59940476Y-100859523D01*
X59978571Y-102002380D02*
X60511904Y-102002380D01*
X59978571Y-101659523D02*
X60397619Y-101659523D01*
X60473809Y-101697619D01*
X60511904Y-101773809D01*
X60511904Y-101888095D01*
X60473809Y-101964285D01*
X60435714Y-102002380D01*
X62533333Y-93761904D02*
X62990476Y-93761904D01*
X62761904Y-93761904D02*
X62761904Y-92961904D01*
X62838095Y-93076190D01*
X62914285Y-93152380D01*
X62990476Y-93190476D01*
X61847619Y-93228571D02*
X61847619Y-93761904D01*
X62190476Y-93228571D02*
X62190476Y-93647619D01*
X62152380Y-93723809D01*
X62076190Y-93761904D01*
X61961904Y-93761904D01*
X61885714Y-93723809D01*
X61847619Y-93685714D01*
X59161904Y-62085714D02*
X59161904Y-61628571D01*
X59161904Y-61857142D02*
X58361904Y-61857142D01*
X58476190Y-61780952D01*
X58552380Y-61704761D01*
X58590476Y-61628571D01*
X58361904Y-62580952D02*
X58361904Y-62657142D01*
X58400000Y-62733333D01*
X58438095Y-62771428D01*
X58514285Y-62809523D01*
X58666666Y-62847619D01*
X58857142Y-62847619D01*
X59009523Y-62809523D01*
X59085714Y-62771428D01*
X59123809Y-62733333D01*
X59161904Y-62657142D01*
X59161904Y-62580952D01*
X59123809Y-62504761D01*
X59085714Y-62466666D01*
X59009523Y-62428571D01*
X58857142Y-62390476D01*
X58666666Y-62390476D01*
X58514285Y-62428571D01*
X58438095Y-62466666D01*
X58400000Y-62504761D01*
X58361904Y-62580952D01*
X58628571Y-63533333D02*
X59161904Y-63533333D01*
X58628571Y-63190476D02*
X59047619Y-63190476D01*
X59123809Y-63228571D01*
X59161904Y-63304761D01*
X59161904Y-63419047D01*
X59123809Y-63495238D01*
X59085714Y-63533333D01*
X64728595Y-71804788D02*
X64674720Y-71858662D01*
X64647783Y-71939475D01*
X64647783Y-71993349D01*
X64674720Y-72074162D01*
X64755533Y-72208849D01*
X64890220Y-72343536D01*
X65024907Y-72424348D01*
X65105719Y-72451285D01*
X65159594Y-72451285D01*
X65240406Y-72424348D01*
X65294281Y-72370473D01*
X65321218Y-72289661D01*
X65321218Y-72235786D01*
X65294281Y-72154974D01*
X65213468Y-72020287D01*
X65078781Y-71885600D01*
X64944094Y-71804788D01*
X64863282Y-71777850D01*
X64809407Y-71777850D01*
X64728595Y-71804788D01*
X64809407Y-72747597D02*
X64809407Y-72801472D01*
X64863282Y-72801472D01*
X64863282Y-72747597D01*
X64809407Y-72747597D01*
X64863282Y-72801472D01*
X64297597Y-73367157D02*
X64620846Y-73043908D01*
X64459221Y-73205533D02*
X63893536Y-72639847D01*
X64028223Y-72666784D01*
X64135972Y-72666784D01*
X64216784Y-72639847D01*
X63435600Y-73474907D02*
X63812723Y-73852030D01*
X63678036Y-73232470D02*
X63974348Y-73528781D01*
X64001285Y-73609594D01*
X63974348Y-73690406D01*
X63893536Y-73771218D01*
X63812723Y-73798155D01*
X63758849Y-73798155D01*
X61014247Y-73871810D02*
X60637123Y-74248934D01*
X61364433Y-73790998D02*
X61095059Y-74329746D01*
X60744873Y-73979560D01*
X60394686Y-73898747D02*
X60340812Y-73898747D01*
X60340812Y-73952622D01*
X60394686Y-73952622D01*
X60394686Y-73898747D01*
X60340812Y-73952622D01*
X60690998Y-73171437D02*
X60313874Y-72794314D01*
X59990625Y-73602436D01*
X59667376Y-72524940D02*
X59290253Y-72902063D01*
X59909813Y-72767376D02*
X59613502Y-73063688D01*
X59532689Y-73090625D01*
X59451877Y-73063688D01*
X59371065Y-72982876D01*
X59344128Y-72902063D01*
X59344128Y-72848189D01*
X59638095Y-68128571D02*
X59600000Y-68166666D01*
X59561904Y-68242857D01*
X59561904Y-68433333D01*
X59600000Y-68509523D01*
X59638095Y-68547619D01*
X59714285Y-68585714D01*
X59790476Y-68585714D01*
X59904761Y-68547619D01*
X60361904Y-68090476D01*
X60361904Y-68585714D01*
X59638095Y-68890476D02*
X59600000Y-68928571D01*
X59561904Y-69004761D01*
X59561904Y-69195238D01*
X59600000Y-69271428D01*
X59638095Y-69309523D01*
X59714285Y-69347619D01*
X59790476Y-69347619D01*
X59904761Y-69309523D01*
X60361904Y-68852380D01*
X60361904Y-69347619D01*
X59828571Y-70033333D02*
X60361904Y-70033333D01*
X59828571Y-69690476D02*
X60247619Y-69690476D01*
X60323809Y-69728571D01*
X60361904Y-69804761D01*
X60361904Y-69919047D01*
X60323809Y-69995238D01*
X60285714Y-70033333D01*
X62127496Y-88115685D02*
X62127496Y-88061810D01*
X62100558Y-87980998D01*
X61965871Y-87846311D01*
X61885059Y-87819374D01*
X61831184Y-87819374D01*
X61750372Y-87846311D01*
X61696497Y-87900186D01*
X61642622Y-88007935D01*
X61642622Y-88654433D01*
X61292436Y-88304247D01*
X61103874Y-88007935D02*
X61050000Y-88007935D01*
X61050000Y-88061810D01*
X61103874Y-88061810D01*
X61103874Y-88007935D01*
X61050000Y-88061810D01*
X61319374Y-87307563D02*
X61319374Y-87253688D01*
X61292436Y-87172876D01*
X61157749Y-87038189D01*
X61076937Y-87011251D01*
X61023062Y-87011251D01*
X60942250Y-87038189D01*
X60888375Y-87092064D01*
X60834500Y-87199813D01*
X60834500Y-87846311D01*
X60484314Y-87496125D01*
X60376564Y-86634128D02*
X59999441Y-87011251D01*
X60619001Y-86876564D02*
X60322690Y-87172876D01*
X60241877Y-87199813D01*
X60161065Y-87172876D01*
X60080253Y-87092064D01*
X60053316Y-87011251D01*
X60053316Y-86957377D01*
X47561904Y-119478571D02*
X47561904Y-119554761D01*
X47600000Y-119630952D01*
X47638095Y-119669047D01*
X47714285Y-119707142D01*
X47866666Y-119745238D01*
X48057142Y-119745238D01*
X48209523Y-119707142D01*
X48285714Y-119669047D01*
X48323809Y-119630952D01*
X48361904Y-119554761D01*
X48361904Y-119478571D01*
X48323809Y-119402380D01*
X48285714Y-119364285D01*
X48209523Y-119326190D01*
X48057142Y-119288095D01*
X47866666Y-119288095D01*
X47714285Y-119326190D01*
X47638095Y-119364285D01*
X47600000Y-119402380D01*
X47561904Y-119478571D01*
X48285714Y-120088095D02*
X48323809Y-120126190D01*
X48361904Y-120088095D01*
X48323809Y-120050000D01*
X48285714Y-120088095D01*
X48361904Y-120088095D01*
X48361904Y-120888095D02*
X48361904Y-120430952D01*
X48361904Y-120659523D02*
X47561904Y-120659523D01*
X47676190Y-120583333D01*
X47752380Y-120507142D01*
X47790476Y-120430952D01*
X47828571Y-121573809D02*
X48361904Y-121573809D01*
X47828571Y-121230952D02*
X48247619Y-121230952D01*
X48323809Y-121269047D01*
X48361904Y-121345238D01*
X48361904Y-121459523D01*
X48323809Y-121535714D01*
X48285714Y-121573809D01*
X48761904Y-109528571D02*
X48761904Y-109604761D01*
X48800000Y-109680952D01*
X48838095Y-109719047D01*
X48914285Y-109757142D01*
X49066666Y-109795238D01*
X49257142Y-109795238D01*
X49409523Y-109757142D01*
X49485714Y-109719047D01*
X49523809Y-109680952D01*
X49561904Y-109604761D01*
X49561904Y-109528571D01*
X49523809Y-109452380D01*
X49485714Y-109414285D01*
X49409523Y-109376190D01*
X49257142Y-109338095D01*
X49066666Y-109338095D01*
X48914285Y-109376190D01*
X48838095Y-109414285D01*
X48800000Y-109452380D01*
X48761904Y-109528571D01*
X49485714Y-110138095D02*
X49523809Y-110176190D01*
X49561904Y-110138095D01*
X49523809Y-110100000D01*
X49485714Y-110138095D01*
X49561904Y-110138095D01*
X49561904Y-110938095D02*
X49561904Y-110480952D01*
X49561904Y-110709523D02*
X48761904Y-110709523D01*
X48876190Y-110633333D01*
X48952380Y-110557142D01*
X48990476Y-110480952D01*
X49028571Y-111623809D02*
X49561904Y-111623809D01*
X49028571Y-111280952D02*
X49447619Y-111280952D01*
X49523809Y-111319047D01*
X49561904Y-111395238D01*
X49561904Y-111509523D01*
X49523809Y-111585714D01*
X49485714Y-111623809D01*
X84821428Y-111411904D02*
X84745238Y-111411904D01*
X84669047Y-111450000D01*
X84630952Y-111488095D01*
X84592857Y-111564285D01*
X84554761Y-111716666D01*
X84554761Y-111907142D01*
X84592857Y-112059523D01*
X84630952Y-112135714D01*
X84669047Y-112173809D01*
X84745238Y-112211904D01*
X84821428Y-112211904D01*
X84897619Y-112173809D01*
X84935714Y-112135714D01*
X84973809Y-112059523D01*
X85011904Y-111907142D01*
X85011904Y-111716666D01*
X84973809Y-111564285D01*
X84935714Y-111488095D01*
X84897619Y-111450000D01*
X84821428Y-111411904D01*
X84211904Y-112135714D02*
X84173809Y-112173809D01*
X84211904Y-112211904D01*
X84250000Y-112173809D01*
X84211904Y-112135714D01*
X84211904Y-112211904D01*
X83411904Y-112211904D02*
X83869047Y-112211904D01*
X83640476Y-112211904D02*
X83640476Y-111411904D01*
X83716666Y-111526190D01*
X83792857Y-111602380D01*
X83869047Y-111640476D01*
X82726190Y-111678571D02*
X82726190Y-112211904D01*
X83069047Y-111678571D02*
X83069047Y-112097619D01*
X83030952Y-112173809D01*
X82954761Y-112211904D01*
X82840476Y-112211904D01*
X82764285Y-112173809D01*
X82726190Y-112135714D01*
X90421428Y-65061904D02*
X90345238Y-65061904D01*
X90269047Y-65100000D01*
X90230952Y-65138095D01*
X90192857Y-65214285D01*
X90154761Y-65366666D01*
X90154761Y-65557142D01*
X90192857Y-65709523D01*
X90230952Y-65785714D01*
X90269047Y-65823809D01*
X90345238Y-65861904D01*
X90421428Y-65861904D01*
X90497619Y-65823809D01*
X90535714Y-65785714D01*
X90573809Y-65709523D01*
X90611904Y-65557142D01*
X90611904Y-65366666D01*
X90573809Y-65214285D01*
X90535714Y-65138095D01*
X90497619Y-65100000D01*
X90421428Y-65061904D01*
X89811904Y-65785714D02*
X89773809Y-65823809D01*
X89811904Y-65861904D01*
X89850000Y-65823809D01*
X89811904Y-65785714D01*
X89811904Y-65861904D01*
X89011904Y-65861904D02*
X89469047Y-65861904D01*
X89240476Y-65861904D02*
X89240476Y-65061904D01*
X89316666Y-65176190D01*
X89392857Y-65252380D01*
X89469047Y-65290476D01*
X88326190Y-65328571D02*
X88326190Y-65861904D01*
X88669047Y-65328571D02*
X88669047Y-65747619D01*
X88630952Y-65823809D01*
X88554761Y-65861904D01*
X88440476Y-65861904D01*
X88364285Y-65823809D01*
X88326190Y-65785714D01*
X89611904Y-57842857D02*
X89611904Y-57385714D01*
X89611904Y-57614285D02*
X88811904Y-57614285D01*
X88926190Y-57538095D01*
X89002380Y-57461904D01*
X89040476Y-57385714D01*
X88811904Y-58566666D02*
X88811904Y-58185714D01*
X89192857Y-58147619D01*
X89154761Y-58185714D01*
X89116666Y-58261904D01*
X89116666Y-58452380D01*
X89154761Y-58528571D01*
X89192857Y-58566666D01*
X89269047Y-58604761D01*
X89459523Y-58604761D01*
X89535714Y-58566666D01*
X89573809Y-58528571D01*
X89611904Y-58452380D01*
X89611904Y-58261904D01*
X89573809Y-58185714D01*
X89535714Y-58147619D01*
X88811904Y-59100000D02*
X88811904Y-59176190D01*
X88850000Y-59252380D01*
X88888095Y-59290476D01*
X88964285Y-59328571D01*
X89116666Y-59366666D01*
X89307142Y-59366666D01*
X89459523Y-59328571D01*
X89535714Y-59290476D01*
X89573809Y-59252380D01*
X89611904Y-59176190D01*
X89611904Y-59100000D01*
X89573809Y-59023809D01*
X89535714Y-58985714D01*
X89459523Y-58947619D01*
X89307142Y-58909523D01*
X89116666Y-58909523D01*
X88964285Y-58947619D01*
X88888095Y-58985714D01*
X88850000Y-59023809D01*
X88811904Y-59100000D01*
X88811904Y-59861904D02*
X88811904Y-59938095D01*
X88850000Y-60014285D01*
X88888095Y-60052380D01*
X88964285Y-60090476D01*
X89116666Y-60128571D01*
X89307142Y-60128571D01*
X89459523Y-60090476D01*
X89535714Y-60052380D01*
X89573809Y-60014285D01*
X89611904Y-59938095D01*
X89611904Y-59861904D01*
X89573809Y-59785714D01*
X89535714Y-59747619D01*
X89459523Y-59709523D01*
X89307142Y-59671428D01*
X89116666Y-59671428D01*
X88964285Y-59709523D01*
X88888095Y-59747619D01*
X88850000Y-59785714D01*
X88811904Y-59861904D01*
X88811904Y-60623809D02*
X88811904Y-60700000D01*
X88850000Y-60776190D01*
X88888095Y-60814285D01*
X88964285Y-60852380D01*
X89116666Y-60890476D01*
X89307142Y-60890476D01*
X89459523Y-60852380D01*
X89535714Y-60814285D01*
X89573809Y-60776190D01*
X89611904Y-60700000D01*
X89611904Y-60623809D01*
X89573809Y-60547619D01*
X89535714Y-60509523D01*
X89459523Y-60471428D01*
X89307142Y-60433333D01*
X89116666Y-60433333D01*
X88964285Y-60471428D01*
X88888095Y-60509523D01*
X88850000Y-60547619D01*
X88811904Y-60623809D01*
X89078571Y-61233333D02*
X89878571Y-61233333D01*
X89116666Y-61233333D02*
X89078571Y-61309523D01*
X89078571Y-61461904D01*
X89116666Y-61538095D01*
X89154761Y-61576190D01*
X89230952Y-61614285D01*
X89459523Y-61614285D01*
X89535714Y-61576190D01*
X89573809Y-61538095D01*
X89611904Y-61461904D01*
X89611904Y-61309523D01*
X89573809Y-61233333D01*
X86580952Y-59428571D02*
X86580952Y-59961904D01*
X86771428Y-59123809D02*
X86961904Y-59695238D01*
X86466666Y-59695238D01*
X86161904Y-59885714D02*
X86123809Y-59923809D01*
X86161904Y-59961904D01*
X86200000Y-59923809D01*
X86161904Y-59885714D01*
X86161904Y-59961904D01*
X85857142Y-59161904D02*
X85323809Y-59161904D01*
X85666666Y-59961904D01*
X84676190Y-59428571D02*
X84676190Y-59961904D01*
X85019047Y-59428571D02*
X85019047Y-59847619D01*
X84980952Y-59923809D01*
X84904761Y-59961904D01*
X84790476Y-59961904D01*
X84714285Y-59923809D01*
X84676190Y-59885714D01*
X100677380Y-59407142D02*
X100677380Y-58835714D01*
X100677380Y-59121428D02*
X99677380Y-59121428D01*
X99820238Y-59026190D01*
X99915476Y-58930952D01*
X99963095Y-58835714D01*
X99677380Y-60026190D02*
X99677380Y-60121428D01*
X99725000Y-60216666D01*
X99772619Y-60264285D01*
X99867857Y-60311904D01*
X100058333Y-60359523D01*
X100296428Y-60359523D01*
X100486904Y-60311904D01*
X100582142Y-60264285D01*
X100629761Y-60216666D01*
X100677380Y-60121428D01*
X100677380Y-60026190D01*
X100629761Y-59930952D01*
X100582142Y-59883333D01*
X100486904Y-59835714D01*
X100296428Y-59788095D01*
X100058333Y-59788095D01*
X99867857Y-59835714D01*
X99772619Y-59883333D01*
X99725000Y-59930952D01*
X99677380Y-60026190D01*
X100010714Y-61216666D02*
X100677380Y-61216666D01*
X100010714Y-60788095D02*
X100534523Y-60788095D01*
X100629761Y-60835714D01*
X100677380Y-60930952D01*
X100677380Y-61073809D01*
X100629761Y-61169047D01*
X100582142Y-61216666D01*
X57207142Y-133847809D02*
X57092857Y-133885904D01*
X56902380Y-133885904D01*
X56826190Y-133847809D01*
X56788095Y-133809714D01*
X56750000Y-133733523D01*
X56750000Y-133657333D01*
X56788095Y-133581142D01*
X56826190Y-133543047D01*
X56902380Y-133504952D01*
X57054761Y-133466857D01*
X57130952Y-133428761D01*
X57169047Y-133390666D01*
X57207142Y-133314476D01*
X57207142Y-133238285D01*
X57169047Y-133162095D01*
X57130952Y-133124000D01*
X57054761Y-133085904D01*
X56864285Y-133085904D01*
X56750000Y-133124000D01*
X56483333Y-133085904D02*
X56292857Y-133885904D01*
X56140476Y-133314476D01*
X55988095Y-133885904D01*
X55797619Y-133085904D01*
X55492857Y-133885904D02*
X55492857Y-133085904D01*
X55302380Y-133085904D01*
X55188095Y-133124000D01*
X55111904Y-133200190D01*
X55073809Y-133276380D01*
X55035714Y-133428761D01*
X55035714Y-133543047D01*
X55073809Y-133695428D01*
X55111904Y-133771619D01*
X55188095Y-133847809D01*
X55302380Y-133885904D01*
X55492857Y-133885904D01*
X54883333Y-133962095D02*
X54273809Y-133962095D01*
X54197619Y-133085904D02*
X53930952Y-133885904D01*
X53664285Y-133085904D01*
X53054761Y-133885904D02*
X53054761Y-133085904D01*
X53054761Y-133847809D02*
X53130952Y-133885904D01*
X53283333Y-133885904D01*
X53359523Y-133847809D01*
X53397619Y-133809714D01*
X53435714Y-133733523D01*
X53435714Y-133504952D01*
X53397619Y-133428761D01*
X53359523Y-133390666D01*
X53283333Y-133352571D01*
X53130952Y-133352571D01*
X53054761Y-133390666D01*
X52330952Y-133885904D02*
X52330952Y-133085904D01*
X52330952Y-133847809D02*
X52407142Y-133885904D01*
X52559523Y-133885904D01*
X52635714Y-133847809D01*
X52673809Y-133809714D01*
X52711904Y-133733523D01*
X52711904Y-133504952D01*
X52673809Y-133428761D01*
X52635714Y-133390666D01*
X52559523Y-133352571D01*
X52407142Y-133352571D01*
X52330952Y-133390666D01*
X58507142Y-62392857D02*
X58773809Y-62392857D01*
X58773809Y-62811904D02*
X58773809Y-62011904D01*
X58392857Y-62011904D01*
X58088095Y-62392857D02*
X57821428Y-62392857D01*
X57707142Y-62811904D02*
X58088095Y-62811904D01*
X58088095Y-62011904D01*
X57707142Y-62011904D01*
X57478571Y-62011904D02*
X57021428Y-62011904D01*
X57250000Y-62811904D02*
X57250000Y-62011904D01*
X56945238Y-62888095D02*
X56335714Y-62888095D01*
X56145238Y-62811904D02*
X56145238Y-62011904D01*
X55840476Y-62011904D01*
X55764285Y-62050000D01*
X55726190Y-62088095D01*
X55688095Y-62164285D01*
X55688095Y-62278571D01*
X55726190Y-62354761D01*
X55764285Y-62392857D01*
X55840476Y-62430952D01*
X56145238Y-62430952D01*
X93976190Y-51027856D02*
X94242857Y-51027856D01*
X94242857Y-51446903D02*
X94242857Y-50646903D01*
X93861904Y-50646903D01*
X93557142Y-51027856D02*
X93290476Y-51027856D01*
X93176190Y-51446903D02*
X93557142Y-51446903D01*
X93557142Y-50646903D01*
X93176190Y-50646903D01*
X92947619Y-50646903D02*
X92490476Y-50646903D01*
X92719047Y-51446903D02*
X92719047Y-50646903D01*
X92414285Y-51523094D02*
X91804761Y-51523094D01*
X91614285Y-51446903D02*
X91614285Y-50646903D01*
X91157142Y-51446903D01*
X91157142Y-50646903D01*
X103692857Y-50392857D02*
X103692857Y-50126190D01*
X104111904Y-50126190D02*
X103311904Y-50126190D01*
X103311904Y-50507142D01*
X103692857Y-50811904D02*
X103692857Y-51078571D01*
X104111904Y-51192857D02*
X104111904Y-50811904D01*
X103311904Y-50811904D01*
X103311904Y-51192857D01*
X103311904Y-51421428D02*
X103311904Y-51878571D01*
X104111904Y-51650000D02*
X103311904Y-51650000D01*
X104188095Y-51954761D02*
X104188095Y-52564285D01*
X104111904Y-52754761D02*
X103311904Y-52754761D01*
X103311904Y-53059523D01*
X103350000Y-53135714D01*
X103388095Y-53173809D01*
X103464285Y-53211904D01*
X103578571Y-53211904D01*
X103654761Y-53173809D01*
X103692857Y-53135714D01*
X103730952Y-53059523D01*
X103730952Y-52754761D01*
X74914285Y-68572380D02*
X75390476Y-68572380D01*
X75438095Y-69048571D01*
X75390476Y-69000952D01*
X75295238Y-68953333D01*
X75057142Y-68953333D01*
X74961904Y-69000952D01*
X74914285Y-69048571D01*
X74866666Y-69143809D01*
X74866666Y-69381904D01*
X74914285Y-69477142D01*
X74961904Y-69524761D01*
X75057142Y-69572380D01*
X75295238Y-69572380D01*
X75390476Y-69524761D01*
X75438095Y-69477142D01*
X73914285Y-69572380D02*
X74485714Y-69572380D01*
X74200000Y-69572380D02*
X74200000Y-68572380D01*
X74295238Y-68715238D01*
X74390476Y-68810476D01*
X74485714Y-68858095D01*
X73295238Y-68572380D02*
X73200000Y-68572380D01*
X73104761Y-68620000D01*
X73057142Y-68667619D01*
X73009523Y-68762857D01*
X72961904Y-68953333D01*
X72961904Y-69191428D01*
X73009523Y-69381904D01*
X73057142Y-69477142D01*
X73104761Y-69524761D01*
X73200000Y-69572380D01*
X73295238Y-69572380D01*
X73390476Y-69524761D01*
X73438095Y-69477142D01*
X73485714Y-69381904D01*
X73533333Y-69191428D01*
X73533333Y-68953333D01*
X73485714Y-68762857D01*
X73438095Y-68667619D01*
X73390476Y-68620000D01*
X73295238Y-68572380D01*
X67921428Y-57161904D02*
X68302380Y-57161904D01*
X68340476Y-57542857D01*
X68302380Y-57504761D01*
X68226190Y-57466666D01*
X68035714Y-57466666D01*
X67959523Y-57504761D01*
X67921428Y-57542857D01*
X67883333Y-57619047D01*
X67883333Y-57809523D01*
X67921428Y-57885714D01*
X67959523Y-57923809D01*
X68035714Y-57961904D01*
X68226190Y-57961904D01*
X68302380Y-57923809D01*
X68340476Y-57885714D01*
X67121428Y-57961904D02*
X67578571Y-57961904D01*
X67350000Y-57961904D02*
X67350000Y-57161904D01*
X67426190Y-57276190D01*
X67502380Y-57352380D01*
X67578571Y-57390476D01*
X66626190Y-57161904D02*
X66550000Y-57161904D01*
X66473809Y-57200000D01*
X66435714Y-57238095D01*
X66397619Y-57314285D01*
X66359523Y-57466666D01*
X66359523Y-57657142D01*
X66397619Y-57809523D01*
X66435714Y-57885714D01*
X66473809Y-57923809D01*
X66550000Y-57961904D01*
X66626190Y-57961904D01*
X66702380Y-57923809D01*
X66740476Y-57885714D01*
X66778571Y-57809523D01*
X66816666Y-57657142D01*
X66816666Y-57466666D01*
X66778571Y-57314285D01*
X66740476Y-57238095D01*
X66702380Y-57200000D01*
X66626190Y-57161904D01*
X53271428Y-69311904D02*
X53652380Y-69311904D01*
X53690476Y-69692857D01*
X53652380Y-69654761D01*
X53576190Y-69616666D01*
X53385714Y-69616666D01*
X53309523Y-69654761D01*
X53271428Y-69692857D01*
X53233333Y-69769047D01*
X53233333Y-69959523D01*
X53271428Y-70035714D01*
X53309523Y-70073809D01*
X53385714Y-70111904D01*
X53576190Y-70111904D01*
X53652380Y-70073809D01*
X53690476Y-70035714D01*
X52471428Y-70111904D02*
X52928571Y-70111904D01*
X52700000Y-70111904D02*
X52700000Y-69311904D01*
X52776190Y-69426190D01*
X52852380Y-69502380D01*
X52928571Y-69540476D01*
X51976190Y-69311904D02*
X51900000Y-69311904D01*
X51823809Y-69350000D01*
X51785714Y-69388095D01*
X51747619Y-69464285D01*
X51709523Y-69616666D01*
X51709523Y-69807142D01*
X51747619Y-69959523D01*
X51785714Y-70035714D01*
X51823809Y-70073809D01*
X51900000Y-70111904D01*
X51976190Y-70111904D01*
X52052380Y-70073809D01*
X52090476Y-70035714D01*
X52128571Y-69959523D01*
X52166666Y-69807142D01*
X52166666Y-69616666D01*
X52128571Y-69464285D01*
X52090476Y-69388095D01*
X52052380Y-69350000D01*
X51976190Y-69311904D01*
X51961904Y-46483333D02*
X51961904Y-46026190D01*
X51961904Y-46254761D02*
X51161904Y-46254761D01*
X51276190Y-46178571D01*
X51352380Y-46102380D01*
X51390476Y-46026190D01*
X51885714Y-46826190D02*
X51923809Y-46864285D01*
X51961904Y-46826190D01*
X51923809Y-46788095D01*
X51885714Y-46826190D01*
X51961904Y-46826190D01*
X51238095Y-47169047D02*
X51200000Y-47207142D01*
X51161904Y-47283333D01*
X51161904Y-47473809D01*
X51200000Y-47550000D01*
X51238095Y-47588095D01*
X51314285Y-47626190D01*
X51390476Y-47626190D01*
X51504761Y-47588095D01*
X51961904Y-47130952D01*
X51961904Y-47626190D01*
X51961904Y-47969047D02*
X51161904Y-47969047D01*
X51657142Y-48045238D02*
X51961904Y-48273809D01*
X51428571Y-48273809D02*
X51733333Y-47969047D01*
X53271428Y-66461904D02*
X53652380Y-66461904D01*
X53690476Y-66842857D01*
X53652380Y-66804761D01*
X53576190Y-66766666D01*
X53385714Y-66766666D01*
X53309523Y-66804761D01*
X53271428Y-66842857D01*
X53233333Y-66919047D01*
X53233333Y-67109523D01*
X53271428Y-67185714D01*
X53309523Y-67223809D01*
X53385714Y-67261904D01*
X53576190Y-67261904D01*
X53652380Y-67223809D01*
X53690476Y-67185714D01*
X52471428Y-67261904D02*
X52928571Y-67261904D01*
X52700000Y-67261904D02*
X52700000Y-66461904D01*
X52776190Y-66576190D01*
X52852380Y-66652380D01*
X52928571Y-66690476D01*
X51976190Y-66461904D02*
X51900000Y-66461904D01*
X51823809Y-66500000D01*
X51785714Y-66538095D01*
X51747619Y-66614285D01*
X51709523Y-66766666D01*
X51709523Y-66957142D01*
X51747619Y-67109523D01*
X51785714Y-67185714D01*
X51823809Y-67223809D01*
X51900000Y-67261904D01*
X51976190Y-67261904D01*
X52052380Y-67223809D01*
X52090476Y-67185714D01*
X52128571Y-67109523D01*
X52166666Y-66957142D01*
X52166666Y-66766666D01*
X52128571Y-66614285D01*
X52090476Y-66538095D01*
X52052380Y-66500000D01*
X51976190Y-66461904D01*
X53728571Y-67911904D02*
X53233333Y-67911904D01*
X53500000Y-68216666D01*
X53385714Y-68216666D01*
X53309523Y-68254761D01*
X53271428Y-68292857D01*
X53233333Y-68369047D01*
X53233333Y-68559523D01*
X53271428Y-68635714D01*
X53309523Y-68673809D01*
X53385714Y-68711904D01*
X53614285Y-68711904D01*
X53690476Y-68673809D01*
X53728571Y-68635714D01*
X52966666Y-67911904D02*
X52471428Y-67911904D01*
X52738095Y-68216666D01*
X52623809Y-68216666D01*
X52547619Y-68254761D01*
X52509523Y-68292857D01*
X52471428Y-68369047D01*
X52471428Y-68559523D01*
X52509523Y-68635714D01*
X52547619Y-68673809D01*
X52623809Y-68711904D01*
X52852380Y-68711904D01*
X52928571Y-68673809D01*
X52966666Y-68635714D01*
X51976190Y-67911904D02*
X51900000Y-67911904D01*
X51823809Y-67950000D01*
X51785714Y-67988095D01*
X51747619Y-68064285D01*
X51709523Y-68216666D01*
X51709523Y-68407142D01*
X51747619Y-68559523D01*
X51785714Y-68635714D01*
X51823809Y-68673809D01*
X51900000Y-68711904D01*
X51976190Y-68711904D01*
X52052380Y-68673809D01*
X52090476Y-68635714D01*
X52128571Y-68559523D01*
X52166666Y-68407142D01*
X52166666Y-68216666D01*
X52128571Y-68064285D01*
X52090476Y-67988095D01*
X52052380Y-67950000D01*
X51976190Y-67911904D01*
X58811904Y-58135714D02*
X58811904Y-57754761D01*
X59192857Y-57716666D01*
X59154761Y-57754761D01*
X59116666Y-57830952D01*
X59116666Y-58021428D01*
X59154761Y-58097619D01*
X59192857Y-58135714D01*
X59269047Y-58173809D01*
X59459523Y-58173809D01*
X59535714Y-58135714D01*
X59573809Y-58097619D01*
X59611904Y-58021428D01*
X59611904Y-57830952D01*
X59573809Y-57754761D01*
X59535714Y-57716666D01*
X58811904Y-58669047D02*
X58811904Y-58745238D01*
X58850000Y-58821428D01*
X58888095Y-58859523D01*
X58964285Y-58897619D01*
X59116666Y-58935714D01*
X59307142Y-58935714D01*
X59459523Y-58897619D01*
X59535714Y-58859523D01*
X59573809Y-58821428D01*
X59611904Y-58745238D01*
X59611904Y-58669047D01*
X59573809Y-58592857D01*
X59535714Y-58554761D01*
X59459523Y-58516666D01*
X59307142Y-58478571D01*
X59116666Y-58478571D01*
X58964285Y-58516666D01*
X58888095Y-58554761D01*
X58850000Y-58592857D01*
X58811904Y-58669047D01*
X59611904Y-59278571D02*
X58811904Y-59278571D01*
X59307142Y-59354761D02*
X59611904Y-59583333D01*
X59078571Y-59583333D02*
X59383333Y-59278571D01*
X58111904Y-58173809D02*
X58111904Y-57716666D01*
X58111904Y-57945238D02*
X57311904Y-57945238D01*
X57426190Y-57869047D01*
X57502380Y-57792857D01*
X57540476Y-57716666D01*
X57311904Y-58669047D02*
X57311904Y-58745238D01*
X57350000Y-58821428D01*
X57388095Y-58859523D01*
X57464285Y-58897619D01*
X57616666Y-58935714D01*
X57807142Y-58935714D01*
X57959523Y-58897619D01*
X58035714Y-58859523D01*
X58073809Y-58821428D01*
X58111904Y-58745238D01*
X58111904Y-58669047D01*
X58073809Y-58592857D01*
X58035714Y-58554761D01*
X57959523Y-58516666D01*
X57807142Y-58478571D01*
X57616666Y-58478571D01*
X57464285Y-58516666D01*
X57388095Y-58554761D01*
X57350000Y-58592857D01*
X57311904Y-58669047D01*
X58111904Y-59278571D02*
X57311904Y-59278571D01*
X57807142Y-59354761D02*
X58111904Y-59583333D01*
X57578571Y-59583333D02*
X57883333Y-59278571D01*
X42195238Y-107111904D02*
X42652380Y-107111904D01*
X42423809Y-107111904D02*
X42423809Y-106311904D01*
X42500000Y-106426190D01*
X42576190Y-106502380D01*
X42652380Y-106540476D01*
X41852380Y-107111904D02*
X41852380Y-106311904D01*
X41776190Y-106807142D02*
X41547619Y-107111904D01*
X41547619Y-106578571D02*
X41852380Y-106883333D01*
X42245238Y-119561904D02*
X42702380Y-119561904D01*
X42473809Y-119561904D02*
X42473809Y-118761904D01*
X42550000Y-118876190D01*
X42626190Y-118952380D01*
X42702380Y-118990476D01*
X41902380Y-119561904D02*
X41902380Y-118761904D01*
X41826190Y-119257142D02*
X41597619Y-119561904D01*
X41597619Y-119028571D02*
X41902380Y-119333333D01*
X65361904Y-133921428D02*
X65361904Y-134416666D01*
X65666666Y-134150000D01*
X65666666Y-134264285D01*
X65704761Y-134340476D01*
X65742857Y-134378571D01*
X65819047Y-134416666D01*
X66009523Y-134416666D01*
X66085714Y-134378571D01*
X66123809Y-134340476D01*
X66161904Y-134264285D01*
X66161904Y-134035714D01*
X66123809Y-133959523D01*
X66085714Y-133921428D01*
X65361904Y-134683333D02*
X65361904Y-135178571D01*
X65666666Y-134911904D01*
X65666666Y-135026190D01*
X65704761Y-135102380D01*
X65742857Y-135140476D01*
X65819047Y-135178571D01*
X66009523Y-135178571D01*
X66085714Y-135140476D01*
X66123809Y-135102380D01*
X66161904Y-135026190D01*
X66161904Y-134797619D01*
X66123809Y-134721428D01*
X66085714Y-134683333D01*
X65361904Y-135673809D02*
X65361904Y-135750000D01*
X65400000Y-135826190D01*
X65438095Y-135864285D01*
X65514285Y-135902380D01*
X65666666Y-135940476D01*
X65857142Y-135940476D01*
X66009523Y-135902380D01*
X66085714Y-135864285D01*
X66123809Y-135826190D01*
X66161904Y-135750000D01*
X66161904Y-135673809D01*
X66123809Y-135597619D01*
X66085714Y-135559523D01*
X66009523Y-135521428D01*
X65857142Y-135483333D01*
X65666666Y-135483333D01*
X65514285Y-135521428D01*
X65438095Y-135559523D01*
X65400000Y-135597619D01*
X65361904Y-135673809D01*
X52361904Y-127271428D02*
X52361904Y-127766666D01*
X52666666Y-127500000D01*
X52666666Y-127614285D01*
X52704761Y-127690476D01*
X52742857Y-127728571D01*
X52819047Y-127766666D01*
X53009523Y-127766666D01*
X53085714Y-127728571D01*
X53123809Y-127690476D01*
X53161904Y-127614285D01*
X53161904Y-127385714D01*
X53123809Y-127309523D01*
X53085714Y-127271428D01*
X52361904Y-128033333D02*
X52361904Y-128528571D01*
X52666666Y-128261904D01*
X52666666Y-128376190D01*
X52704761Y-128452380D01*
X52742857Y-128490476D01*
X52819047Y-128528571D01*
X53009523Y-128528571D01*
X53085714Y-128490476D01*
X53123809Y-128452380D01*
X53161904Y-128376190D01*
X53161904Y-128147619D01*
X53123809Y-128071428D01*
X53085714Y-128033333D01*
X52361904Y-129023809D02*
X52361904Y-129100000D01*
X52400000Y-129176190D01*
X52438095Y-129214285D01*
X52514285Y-129252380D01*
X52666666Y-129290476D01*
X52857142Y-129290476D01*
X53009523Y-129252380D01*
X53085714Y-129214285D01*
X53123809Y-129176190D01*
X53161904Y-129100000D01*
X53161904Y-129023809D01*
X53123809Y-128947619D01*
X53085714Y-128909523D01*
X53009523Y-128871428D01*
X52857142Y-128833333D01*
X52666666Y-128833333D01*
X52514285Y-128871428D01*
X52438095Y-128909523D01*
X52400000Y-128947619D01*
X52361904Y-129023809D01*
X57261904Y-121023809D02*
X57261904Y-120566666D01*
X57261904Y-120795238D02*
X56461904Y-120795238D01*
X56576190Y-120719047D01*
X56652380Y-120642857D01*
X56690476Y-120566666D01*
X56461904Y-121519047D02*
X56461904Y-121595238D01*
X56500000Y-121671428D01*
X56538095Y-121709523D01*
X56614285Y-121747619D01*
X56766666Y-121785714D01*
X56957142Y-121785714D01*
X57109523Y-121747619D01*
X57185714Y-121709523D01*
X57223809Y-121671428D01*
X57261904Y-121595238D01*
X57261904Y-121519047D01*
X57223809Y-121442857D01*
X57185714Y-121404761D01*
X57109523Y-121366666D01*
X56957142Y-121328571D01*
X56766666Y-121328571D01*
X56614285Y-121366666D01*
X56538095Y-121404761D01*
X56500000Y-121442857D01*
X56461904Y-121519047D01*
X57261904Y-122128571D02*
X56461904Y-122128571D01*
X56957142Y-122204761D02*
X57261904Y-122433333D01*
X56728571Y-122433333D02*
X57033333Y-122128571D01*
X63611904Y-133921428D02*
X63611904Y-134416666D01*
X63916666Y-134150000D01*
X63916666Y-134264285D01*
X63954761Y-134340476D01*
X63992857Y-134378571D01*
X64069047Y-134416666D01*
X64259523Y-134416666D01*
X64335714Y-134378571D01*
X64373809Y-134340476D01*
X64411904Y-134264285D01*
X64411904Y-134035714D01*
X64373809Y-133959523D01*
X64335714Y-133921428D01*
X63611904Y-134683333D02*
X63611904Y-135178571D01*
X63916666Y-134911904D01*
X63916666Y-135026190D01*
X63954761Y-135102380D01*
X63992857Y-135140476D01*
X64069047Y-135178571D01*
X64259523Y-135178571D01*
X64335714Y-135140476D01*
X64373809Y-135102380D01*
X64411904Y-135026190D01*
X64411904Y-134797619D01*
X64373809Y-134721428D01*
X64335714Y-134683333D01*
X63611904Y-135673809D02*
X63611904Y-135750000D01*
X63650000Y-135826190D01*
X63688095Y-135864285D01*
X63764285Y-135902380D01*
X63916666Y-135940476D01*
X64107142Y-135940476D01*
X64259523Y-135902380D01*
X64335714Y-135864285D01*
X64373809Y-135826190D01*
X64411904Y-135750000D01*
X64411904Y-135673809D01*
X64373809Y-135597619D01*
X64335714Y-135559523D01*
X64259523Y-135521428D01*
X64107142Y-135483333D01*
X63916666Y-135483333D01*
X63764285Y-135521428D01*
X63688095Y-135559523D01*
X63650000Y-135597619D01*
X63611904Y-135673809D01*
X42195238Y-114711904D02*
X42652380Y-114711904D01*
X42423809Y-114711904D02*
X42423809Y-113911904D01*
X42500000Y-114026190D01*
X42576190Y-114102380D01*
X42652380Y-114140476D01*
X41852380Y-114711904D02*
X41852380Y-113911904D01*
X41776190Y-114407142D02*
X41547619Y-114711904D01*
X41547619Y-114178571D02*
X41852380Y-114483333D01*
X42195238Y-127161904D02*
X42652380Y-127161904D01*
X42423809Y-127161904D02*
X42423809Y-126361904D01*
X42500000Y-126476190D01*
X42576190Y-126552380D01*
X42652380Y-126590476D01*
X41852380Y-127161904D02*
X41852380Y-126361904D01*
X41776190Y-126857142D02*
X41547619Y-127161904D01*
X41547619Y-126628571D02*
X41852380Y-126933333D01*
X42633333Y-111011904D02*
X43090476Y-111011904D01*
X42861904Y-111011904D02*
X42861904Y-110211904D01*
X42938095Y-110326190D01*
X43014285Y-110402380D01*
X43090476Y-110440476D01*
X42138095Y-110211904D02*
X42061904Y-110211904D01*
X41985714Y-110250000D01*
X41947619Y-110288095D01*
X41909523Y-110364285D01*
X41871428Y-110516666D01*
X41871428Y-110707142D01*
X41909523Y-110859523D01*
X41947619Y-110935714D01*
X41985714Y-110973809D01*
X42061904Y-111011904D01*
X42138095Y-111011904D01*
X42214285Y-110973809D01*
X42252380Y-110935714D01*
X42290476Y-110859523D01*
X42328571Y-110707142D01*
X42328571Y-110516666D01*
X42290476Y-110364285D01*
X42252380Y-110288095D01*
X42214285Y-110250000D01*
X42138095Y-110211904D01*
X41376190Y-110211904D02*
X41300000Y-110211904D01*
X41223809Y-110250000D01*
X41185714Y-110288095D01*
X41147619Y-110364285D01*
X41109523Y-110516666D01*
X41109523Y-110707142D01*
X41147619Y-110859523D01*
X41185714Y-110935714D01*
X41223809Y-110973809D01*
X41300000Y-111011904D01*
X41376190Y-111011904D01*
X41452380Y-110973809D01*
X41490476Y-110935714D01*
X41528571Y-110859523D01*
X41566666Y-110707142D01*
X41566666Y-110516666D01*
X41528571Y-110364285D01*
X41490476Y-110288095D01*
X41452380Y-110250000D01*
X41376190Y-110211904D01*
X42633333Y-123511904D02*
X43090476Y-123511904D01*
X42861904Y-123511904D02*
X42861904Y-122711904D01*
X42938095Y-122826190D01*
X43014285Y-122902380D01*
X43090476Y-122940476D01*
X42138095Y-122711904D02*
X42061904Y-122711904D01*
X41985714Y-122750000D01*
X41947619Y-122788095D01*
X41909523Y-122864285D01*
X41871428Y-123016666D01*
X41871428Y-123207142D01*
X41909523Y-123359523D01*
X41947619Y-123435714D01*
X41985714Y-123473809D01*
X42061904Y-123511904D01*
X42138095Y-123511904D01*
X42214285Y-123473809D01*
X42252380Y-123435714D01*
X42290476Y-123359523D01*
X42328571Y-123207142D01*
X42328571Y-123016666D01*
X42290476Y-122864285D01*
X42252380Y-122788095D01*
X42214285Y-122750000D01*
X42138095Y-122711904D01*
X41376190Y-122711904D02*
X41300000Y-122711904D01*
X41223809Y-122750000D01*
X41185714Y-122788095D01*
X41147619Y-122864285D01*
X41109523Y-123016666D01*
X41109523Y-123207142D01*
X41147619Y-123359523D01*
X41185714Y-123435714D01*
X41223809Y-123473809D01*
X41300000Y-123511904D01*
X41376190Y-123511904D01*
X41452380Y-123473809D01*
X41490476Y-123435714D01*
X41528571Y-123359523D01*
X41566666Y-123207142D01*
X41566666Y-123016666D01*
X41528571Y-122864285D01*
X41490476Y-122788095D01*
X41452380Y-122750000D01*
X41376190Y-122711904D01*
X66761904Y-98673809D02*
X66761904Y-98216666D01*
X66761904Y-98445238D02*
X65961904Y-98445238D01*
X66076190Y-98369047D01*
X66152380Y-98292857D01*
X66190476Y-98216666D01*
X65961904Y-99169047D02*
X65961904Y-99245238D01*
X66000000Y-99321428D01*
X66038095Y-99359523D01*
X66114285Y-99397619D01*
X66266666Y-99435714D01*
X66457142Y-99435714D01*
X66609523Y-99397619D01*
X66685714Y-99359523D01*
X66723809Y-99321428D01*
X66761904Y-99245238D01*
X66761904Y-99169047D01*
X66723809Y-99092857D01*
X66685714Y-99054761D01*
X66609523Y-99016666D01*
X66457142Y-98978571D01*
X66266666Y-98978571D01*
X66114285Y-99016666D01*
X66038095Y-99054761D01*
X66000000Y-99092857D01*
X65961904Y-99169047D01*
X66761904Y-99778571D02*
X65961904Y-99778571D01*
X66457142Y-99854761D02*
X66761904Y-100083333D01*
X66228571Y-100083333D02*
X66533333Y-99778571D01*
X70761904Y-98673809D02*
X70761904Y-98216666D01*
X70761904Y-98445238D02*
X69961904Y-98445238D01*
X70076190Y-98369047D01*
X70152380Y-98292857D01*
X70190476Y-98216666D01*
X69961904Y-99169047D02*
X69961904Y-99245238D01*
X70000000Y-99321428D01*
X70038095Y-99359523D01*
X70114285Y-99397619D01*
X70266666Y-99435714D01*
X70457142Y-99435714D01*
X70609523Y-99397619D01*
X70685714Y-99359523D01*
X70723809Y-99321428D01*
X70761904Y-99245238D01*
X70761904Y-99169047D01*
X70723809Y-99092857D01*
X70685714Y-99054761D01*
X70609523Y-99016666D01*
X70457142Y-98978571D01*
X70266666Y-98978571D01*
X70114285Y-99016666D01*
X70038095Y-99054761D01*
X70000000Y-99092857D01*
X69961904Y-99169047D01*
X70761904Y-99778571D02*
X69961904Y-99778571D01*
X70457142Y-99854761D02*
X70761904Y-100083333D01*
X70228571Y-100083333D02*
X70533333Y-99778571D01*
X48595238Y-132211904D02*
X49052380Y-132211904D01*
X48823809Y-132211904D02*
X48823809Y-131411904D01*
X48900000Y-131526190D01*
X48976190Y-131602380D01*
X49052380Y-131640476D01*
X48252380Y-132211904D02*
X48252380Y-131411904D01*
X48176190Y-131907142D02*
X47947619Y-132211904D01*
X47947619Y-131678571D02*
X48252380Y-131983333D01*
X50795238Y-118511904D02*
X51252380Y-118511904D01*
X51023809Y-118511904D02*
X51023809Y-117711904D01*
X51100000Y-117826190D01*
X51176190Y-117902380D01*
X51252380Y-117940476D01*
X50452380Y-118511904D02*
X50452380Y-117711904D01*
X50376190Y-118207142D02*
X50147619Y-118511904D01*
X50147619Y-117978571D02*
X50452380Y-118283333D01*
X49445238Y-124561904D02*
X49902380Y-124561904D01*
X49673809Y-124561904D02*
X49673809Y-123761904D01*
X49750000Y-123876190D01*
X49826190Y-123952380D01*
X49902380Y-123990476D01*
X49102380Y-124561904D02*
X49102380Y-123761904D01*
X49026190Y-124257142D02*
X48797619Y-124561904D01*
X48797619Y-124028571D02*
X49102380Y-124333333D01*
X50745238Y-113211904D02*
X51202380Y-113211904D01*
X50973809Y-113211904D02*
X50973809Y-112411904D01*
X51050000Y-112526190D01*
X51126190Y-112602380D01*
X51202380Y-112640476D01*
X50402380Y-113211904D02*
X50402380Y-112411904D01*
X50326190Y-112907142D02*
X50097619Y-113211904D01*
X50097619Y-112678571D02*
X50402380Y-112983333D01*
X51683333Y-117111904D02*
X52140476Y-117111904D01*
X51911904Y-117111904D02*
X51911904Y-116311904D01*
X51988095Y-116426190D01*
X52064285Y-116502380D01*
X52140476Y-116540476D01*
X51188095Y-116311904D02*
X51111904Y-116311904D01*
X51035714Y-116350000D01*
X50997619Y-116388095D01*
X50959523Y-116464285D01*
X50921428Y-116616666D01*
X50921428Y-116807142D01*
X50959523Y-116959523D01*
X50997619Y-117035714D01*
X51035714Y-117073809D01*
X51111904Y-117111904D01*
X51188095Y-117111904D01*
X51264285Y-117073809D01*
X51302380Y-117035714D01*
X51340476Y-116959523D01*
X51378571Y-116807142D01*
X51378571Y-116616666D01*
X51340476Y-116464285D01*
X51302380Y-116388095D01*
X51264285Y-116350000D01*
X51188095Y-116311904D01*
X50426190Y-116311904D02*
X50350000Y-116311904D01*
X50273809Y-116350000D01*
X50235714Y-116388095D01*
X50197619Y-116464285D01*
X50159523Y-116616666D01*
X50159523Y-116807142D01*
X50197619Y-116959523D01*
X50235714Y-117035714D01*
X50273809Y-117073809D01*
X50350000Y-117111904D01*
X50426190Y-117111904D01*
X50502380Y-117073809D01*
X50540476Y-117035714D01*
X50578571Y-116959523D01*
X50616666Y-116807142D01*
X50616666Y-116616666D01*
X50578571Y-116464285D01*
X50540476Y-116388095D01*
X50502380Y-116350000D01*
X50426190Y-116311904D01*
X49033333Y-128311904D02*
X49490476Y-128311904D01*
X49261904Y-128311904D02*
X49261904Y-127511904D01*
X49338095Y-127626190D01*
X49414285Y-127702380D01*
X49490476Y-127740476D01*
X48538095Y-127511904D02*
X48461904Y-127511904D01*
X48385714Y-127550000D01*
X48347619Y-127588095D01*
X48309523Y-127664285D01*
X48271428Y-127816666D01*
X48271428Y-128007142D01*
X48309523Y-128159523D01*
X48347619Y-128235714D01*
X48385714Y-128273809D01*
X48461904Y-128311904D01*
X48538095Y-128311904D01*
X48614285Y-128273809D01*
X48652380Y-128235714D01*
X48690476Y-128159523D01*
X48728571Y-128007142D01*
X48728571Y-127816666D01*
X48690476Y-127664285D01*
X48652380Y-127588095D01*
X48614285Y-127550000D01*
X48538095Y-127511904D01*
X47776190Y-127511904D02*
X47700000Y-127511904D01*
X47623809Y-127550000D01*
X47585714Y-127588095D01*
X47547619Y-127664285D01*
X47509523Y-127816666D01*
X47509523Y-128007142D01*
X47547619Y-128159523D01*
X47585714Y-128235714D01*
X47623809Y-128273809D01*
X47700000Y-128311904D01*
X47776190Y-128311904D01*
X47852380Y-128273809D01*
X47890476Y-128235714D01*
X47928571Y-128159523D01*
X47966666Y-128007142D01*
X47966666Y-127816666D01*
X47928571Y-127664285D01*
X47890476Y-127588095D01*
X47852380Y-127550000D01*
X47776190Y-127511904D01*
X51683333Y-114611904D02*
X52140476Y-114611904D01*
X51911904Y-114611904D02*
X51911904Y-113811904D01*
X51988095Y-113926190D01*
X52064285Y-114002380D01*
X52140476Y-114040476D01*
X51188095Y-113811904D02*
X51111904Y-113811904D01*
X51035714Y-113850000D01*
X50997619Y-113888095D01*
X50959523Y-113964285D01*
X50921428Y-114116666D01*
X50921428Y-114307142D01*
X50959523Y-114459523D01*
X50997619Y-114535714D01*
X51035714Y-114573809D01*
X51111904Y-114611904D01*
X51188095Y-114611904D01*
X51264285Y-114573809D01*
X51302380Y-114535714D01*
X51340476Y-114459523D01*
X51378571Y-114307142D01*
X51378571Y-114116666D01*
X51340476Y-113964285D01*
X51302380Y-113888095D01*
X51264285Y-113850000D01*
X51188095Y-113811904D01*
X50426190Y-113811904D02*
X50350000Y-113811904D01*
X50273809Y-113850000D01*
X50235714Y-113888095D01*
X50197619Y-113964285D01*
X50159523Y-114116666D01*
X50159523Y-114307142D01*
X50197619Y-114459523D01*
X50235714Y-114535714D01*
X50273809Y-114573809D01*
X50350000Y-114611904D01*
X50426190Y-114611904D01*
X50502380Y-114573809D01*
X50540476Y-114535714D01*
X50578571Y-114459523D01*
X50616666Y-114307142D01*
X50616666Y-114116666D01*
X50578571Y-113964285D01*
X50540476Y-113888095D01*
X50502380Y-113850000D01*
X50426190Y-113811904D01*
X87321428Y-67811904D02*
X87702380Y-67811904D01*
X87740476Y-68192857D01*
X87702380Y-68154761D01*
X87626190Y-68116666D01*
X87435714Y-68116666D01*
X87359523Y-68154761D01*
X87321428Y-68192857D01*
X87283333Y-68269047D01*
X87283333Y-68459523D01*
X87321428Y-68535714D01*
X87359523Y-68573809D01*
X87435714Y-68611904D01*
X87626190Y-68611904D01*
X87702380Y-68573809D01*
X87740476Y-68535714D01*
X86521428Y-68611904D02*
X86978571Y-68611904D01*
X86750000Y-68611904D02*
X86750000Y-67811904D01*
X86826190Y-67926190D01*
X86902380Y-68002380D01*
X86978571Y-68040476D01*
X86026190Y-67811904D02*
X85950000Y-67811904D01*
X85873809Y-67850000D01*
X85835714Y-67888095D01*
X85797619Y-67964285D01*
X85759523Y-68116666D01*
X85759523Y-68307142D01*
X85797619Y-68459523D01*
X85835714Y-68535714D01*
X85873809Y-68573809D01*
X85950000Y-68611904D01*
X86026190Y-68611904D01*
X86102380Y-68573809D01*
X86140476Y-68535714D01*
X86178571Y-68459523D01*
X86216666Y-68307142D01*
X86216666Y-68116666D01*
X86178571Y-67964285D01*
X86140476Y-67888095D01*
X86102380Y-67850000D01*
X86026190Y-67811904D01*
X104045238Y-75152380D02*
X104616666Y-75152380D01*
X104330952Y-75152380D02*
X104330952Y-74152380D01*
X104426190Y-74295238D01*
X104521428Y-74390476D01*
X104616666Y-74438095D01*
X103426190Y-74152380D02*
X103330952Y-74152380D01*
X103235714Y-74200000D01*
X103188095Y-74247619D01*
X103140476Y-74342857D01*
X103092857Y-74533333D01*
X103092857Y-74771428D01*
X103140476Y-74961904D01*
X103188095Y-75057142D01*
X103235714Y-75104761D01*
X103330952Y-75152380D01*
X103426190Y-75152380D01*
X103521428Y-75104761D01*
X103569047Y-75057142D01*
X103616666Y-74961904D01*
X103664285Y-74771428D01*
X103664285Y-74533333D01*
X103616666Y-74342857D01*
X103569047Y-74247619D01*
X103521428Y-74200000D01*
X103426190Y-74152380D01*
X102664285Y-75152380D02*
X102664285Y-74152380D01*
X102569047Y-74771428D02*
X102283333Y-75152380D01*
X102283333Y-74485714D02*
X102664285Y-74866666D01*
X103895238Y-87732380D02*
X104466666Y-87732380D01*
X104180952Y-87732380D02*
X104180952Y-86732380D01*
X104276190Y-86875238D01*
X104371428Y-86970476D01*
X104466666Y-87018095D01*
X103276190Y-86732380D02*
X103180952Y-86732380D01*
X103085714Y-86780000D01*
X103038095Y-86827619D01*
X102990476Y-86922857D01*
X102942857Y-87113333D01*
X102942857Y-87351428D01*
X102990476Y-87541904D01*
X103038095Y-87637142D01*
X103085714Y-87684761D01*
X103180952Y-87732380D01*
X103276190Y-87732380D01*
X103371428Y-87684761D01*
X103419047Y-87637142D01*
X103466666Y-87541904D01*
X103514285Y-87351428D01*
X103514285Y-87113333D01*
X103466666Y-86922857D01*
X103419047Y-86827619D01*
X103371428Y-86780000D01*
X103276190Y-86732380D01*
X102514285Y-87732380D02*
X102514285Y-86732380D01*
X102419047Y-87351428D02*
X102133333Y-87732380D01*
X102133333Y-87065714D02*
X102514285Y-87446666D01*
X103895238Y-100082380D02*
X104466666Y-100082380D01*
X104180952Y-100082380D02*
X104180952Y-99082380D01*
X104276190Y-99225238D01*
X104371428Y-99320476D01*
X104466666Y-99368095D01*
X103276190Y-99082380D02*
X103180952Y-99082380D01*
X103085714Y-99130000D01*
X103038095Y-99177619D01*
X102990476Y-99272857D01*
X102942857Y-99463333D01*
X102942857Y-99701428D01*
X102990476Y-99891904D01*
X103038095Y-99987142D01*
X103085714Y-100034761D01*
X103180952Y-100082380D01*
X103276190Y-100082380D01*
X103371428Y-100034761D01*
X103419047Y-99987142D01*
X103466666Y-99891904D01*
X103514285Y-99701428D01*
X103514285Y-99463333D01*
X103466666Y-99272857D01*
X103419047Y-99177619D01*
X103371428Y-99130000D01*
X103276190Y-99082380D01*
X102514285Y-100082380D02*
X102514285Y-99082380D01*
X102419047Y-99701428D02*
X102133333Y-100082380D01*
X102133333Y-99415714D02*
X102514285Y-99796666D01*
X103945238Y-68952380D02*
X104516666Y-68952380D01*
X104230952Y-68952380D02*
X104230952Y-67952380D01*
X104326190Y-68095238D01*
X104421428Y-68190476D01*
X104516666Y-68238095D01*
X103326190Y-67952380D02*
X103230952Y-67952380D01*
X103135714Y-68000000D01*
X103088095Y-68047619D01*
X103040476Y-68142857D01*
X102992857Y-68333333D01*
X102992857Y-68571428D01*
X103040476Y-68761904D01*
X103088095Y-68857142D01*
X103135714Y-68904761D01*
X103230952Y-68952380D01*
X103326190Y-68952380D01*
X103421428Y-68904761D01*
X103469047Y-68857142D01*
X103516666Y-68761904D01*
X103564285Y-68571428D01*
X103564285Y-68333333D01*
X103516666Y-68142857D01*
X103469047Y-68047619D01*
X103421428Y-68000000D01*
X103326190Y-67952380D01*
X102564285Y-68952380D02*
X102564285Y-67952380D01*
X102469047Y-68571428D02*
X102183333Y-68952380D01*
X102183333Y-68285714D02*
X102564285Y-68666666D01*
X103945238Y-81582380D02*
X104516666Y-81582380D01*
X104230952Y-81582380D02*
X104230952Y-80582380D01*
X104326190Y-80725238D01*
X104421428Y-80820476D01*
X104516666Y-80868095D01*
X103326190Y-80582380D02*
X103230952Y-80582380D01*
X103135714Y-80630000D01*
X103088095Y-80677619D01*
X103040476Y-80772857D01*
X102992857Y-80963333D01*
X102992857Y-81201428D01*
X103040476Y-81391904D01*
X103088095Y-81487142D01*
X103135714Y-81534761D01*
X103230952Y-81582380D01*
X103326190Y-81582380D01*
X103421428Y-81534761D01*
X103469047Y-81487142D01*
X103516666Y-81391904D01*
X103564285Y-81201428D01*
X103564285Y-80963333D01*
X103516666Y-80772857D01*
X103469047Y-80677619D01*
X103421428Y-80630000D01*
X103326190Y-80582380D01*
X102564285Y-81582380D02*
X102564285Y-80582380D01*
X102469047Y-81201428D02*
X102183333Y-81582380D01*
X102183333Y-80915714D02*
X102564285Y-81296666D01*
X103895238Y-93882380D02*
X104466666Y-93882380D01*
X104180952Y-93882380D02*
X104180952Y-92882380D01*
X104276190Y-93025238D01*
X104371428Y-93120476D01*
X104466666Y-93168095D01*
X103276190Y-92882380D02*
X103180952Y-92882380D01*
X103085714Y-92930000D01*
X103038095Y-92977619D01*
X102990476Y-93072857D01*
X102942857Y-93263333D01*
X102942857Y-93501428D01*
X102990476Y-93691904D01*
X103038095Y-93787142D01*
X103085714Y-93834761D01*
X103180952Y-93882380D01*
X103276190Y-93882380D01*
X103371428Y-93834761D01*
X103419047Y-93787142D01*
X103466666Y-93691904D01*
X103514285Y-93501428D01*
X103514285Y-93263333D01*
X103466666Y-93072857D01*
X103419047Y-92977619D01*
X103371428Y-92930000D01*
X103276190Y-92882380D01*
X102514285Y-93882380D02*
X102514285Y-92882380D01*
X102419047Y-93501428D02*
X102133333Y-93882380D01*
X102133333Y-93215714D02*
X102514285Y-93596666D01*
X104373809Y-42588095D02*
X104335714Y-42550000D01*
X104259523Y-42511904D01*
X104069047Y-42511904D01*
X103992857Y-42550000D01*
X103954761Y-42588095D01*
X103916666Y-42664285D01*
X103916666Y-42740476D01*
X103954761Y-42854761D01*
X104411904Y-43311904D01*
X103916666Y-43311904D01*
X103573809Y-43235714D02*
X103535714Y-43273809D01*
X103573809Y-43311904D01*
X103611904Y-43273809D01*
X103573809Y-43235714D01*
X103573809Y-43311904D01*
X103230952Y-42588095D02*
X103192857Y-42550000D01*
X103116666Y-42511904D01*
X102926190Y-42511904D01*
X102850000Y-42550000D01*
X102811904Y-42588095D01*
X102773809Y-42664285D01*
X102773809Y-42740476D01*
X102811904Y-42854761D01*
X103269047Y-43311904D01*
X102773809Y-43311904D01*
X102430952Y-43311904D02*
X102430952Y-42511904D01*
X102354761Y-43007142D02*
X102126190Y-43311904D01*
X102126190Y-42778571D02*
X102430952Y-43083333D01*
X95871428Y-73811904D02*
X96252380Y-73811904D01*
X96290476Y-74192857D01*
X96252380Y-74154761D01*
X96176190Y-74116666D01*
X95985714Y-74116666D01*
X95909523Y-74154761D01*
X95871428Y-74192857D01*
X95833333Y-74269047D01*
X95833333Y-74459523D01*
X95871428Y-74535714D01*
X95909523Y-74573809D01*
X95985714Y-74611904D01*
X96176190Y-74611904D01*
X96252380Y-74573809D01*
X96290476Y-74535714D01*
X95071428Y-74611904D02*
X95528571Y-74611904D01*
X95300000Y-74611904D02*
X95300000Y-73811904D01*
X95376190Y-73926190D01*
X95452380Y-74002380D01*
X95528571Y-74040476D01*
X94576190Y-73811904D02*
X94500000Y-73811904D01*
X94423809Y-73850000D01*
X94385714Y-73888095D01*
X94347619Y-73964285D01*
X94309523Y-74116666D01*
X94309523Y-74307142D01*
X94347619Y-74459523D01*
X94385714Y-74535714D01*
X94423809Y-74573809D01*
X94500000Y-74611904D01*
X94576190Y-74611904D01*
X94652380Y-74573809D01*
X94690476Y-74535714D01*
X94728571Y-74459523D01*
X94766666Y-74307142D01*
X94766666Y-74116666D01*
X94728571Y-73964285D01*
X94690476Y-73888095D01*
X94652380Y-73850000D01*
X94576190Y-73811904D01*
X112916666Y-67192857D02*
X113183333Y-67192857D01*
X113183333Y-67611904D02*
X113183333Y-66811904D01*
X112802380Y-66811904D01*
X112497619Y-67611904D02*
X112497619Y-66811904D01*
X111735714Y-67611904D02*
X112116666Y-67611904D01*
X112116666Y-66811904D01*
X111583333Y-66811904D02*
X111126190Y-66811904D01*
X111354761Y-67611904D02*
X111354761Y-66811904D01*
X110859523Y-67192857D02*
X110592857Y-67192857D01*
X110478571Y-67611904D02*
X110859523Y-67611904D01*
X110859523Y-66811904D01*
X110478571Y-66811904D01*
X109678571Y-67611904D02*
X109945238Y-67230952D01*
X110135714Y-67611904D02*
X110135714Y-66811904D01*
X109830952Y-66811904D01*
X109754761Y-66850000D01*
X109716666Y-66888095D01*
X109678571Y-66964285D01*
X109678571Y-67078571D01*
X109716666Y-67154761D01*
X109754761Y-67192857D01*
X109830952Y-67230952D01*
X110135714Y-67230952D01*
X112966666Y-69942857D02*
X113233333Y-69942857D01*
X113233333Y-70361904D02*
X113233333Y-69561904D01*
X112852380Y-69561904D01*
X112547619Y-70361904D02*
X112547619Y-69561904D01*
X111785714Y-70361904D02*
X112166666Y-70361904D01*
X112166666Y-69561904D01*
X111633333Y-69561904D02*
X111176190Y-69561904D01*
X111404761Y-70361904D02*
X111404761Y-69561904D01*
X110909523Y-69942857D02*
X110642857Y-69942857D01*
X110528571Y-70361904D02*
X110909523Y-70361904D01*
X110909523Y-69561904D01*
X110528571Y-69561904D01*
X109728571Y-70361904D02*
X109995238Y-69980952D01*
X110185714Y-70361904D02*
X110185714Y-69561904D01*
X109880952Y-69561904D01*
X109804761Y-69600000D01*
X109766666Y-69638095D01*
X109728571Y-69714285D01*
X109728571Y-69828571D01*
X109766666Y-69904761D01*
X109804761Y-69942857D01*
X109880952Y-69980952D01*
X110185714Y-69980952D01*
X113016666Y-73292857D02*
X113283333Y-73292857D01*
X113283333Y-73711904D02*
X113283333Y-72911904D01*
X112902380Y-72911904D01*
X112597619Y-73711904D02*
X112597619Y-72911904D01*
X111835714Y-73711904D02*
X112216666Y-73711904D01*
X112216666Y-72911904D01*
X111683333Y-72911904D02*
X111226190Y-72911904D01*
X111454761Y-73711904D02*
X111454761Y-72911904D01*
X110959523Y-73292857D02*
X110692857Y-73292857D01*
X110578571Y-73711904D02*
X110959523Y-73711904D01*
X110959523Y-72911904D01*
X110578571Y-72911904D01*
X109778571Y-73711904D02*
X110045238Y-73330952D01*
X110235714Y-73711904D02*
X110235714Y-72911904D01*
X109930952Y-72911904D01*
X109854761Y-72950000D01*
X109816666Y-72988095D01*
X109778571Y-73064285D01*
X109778571Y-73178571D01*
X109816666Y-73254761D01*
X109854761Y-73292857D01*
X109930952Y-73330952D01*
X110235714Y-73330952D01*
X112966666Y-75892857D02*
X113233333Y-75892857D01*
X113233333Y-76311904D02*
X113233333Y-75511904D01*
X112852380Y-75511904D01*
X112547619Y-76311904D02*
X112547619Y-75511904D01*
X111785714Y-76311904D02*
X112166666Y-76311904D01*
X112166666Y-75511904D01*
X111633333Y-75511904D02*
X111176190Y-75511904D01*
X111404761Y-76311904D02*
X111404761Y-75511904D01*
X110909523Y-75892857D02*
X110642857Y-75892857D01*
X110528571Y-76311904D02*
X110909523Y-76311904D01*
X110909523Y-75511904D01*
X110528571Y-75511904D01*
X109728571Y-76311904D02*
X109995238Y-75930952D01*
X110185714Y-76311904D02*
X110185714Y-75511904D01*
X109880952Y-75511904D01*
X109804761Y-75550000D01*
X109766666Y-75588095D01*
X109728571Y-75664285D01*
X109728571Y-75778571D01*
X109766666Y-75854761D01*
X109804761Y-75892857D01*
X109880952Y-75930952D01*
X110185714Y-75930952D01*
X113016666Y-79542857D02*
X113283333Y-79542857D01*
X113283333Y-79961904D02*
X113283333Y-79161904D01*
X112902380Y-79161904D01*
X112597619Y-79961904D02*
X112597619Y-79161904D01*
X111835714Y-79961904D02*
X112216666Y-79961904D01*
X112216666Y-79161904D01*
X111683333Y-79161904D02*
X111226190Y-79161904D01*
X111454761Y-79961904D02*
X111454761Y-79161904D01*
X110959523Y-79542857D02*
X110692857Y-79542857D01*
X110578571Y-79961904D02*
X110959523Y-79961904D01*
X110959523Y-79161904D01*
X110578571Y-79161904D01*
X109778571Y-79961904D02*
X110045238Y-79580952D01*
X110235714Y-79961904D02*
X110235714Y-79161904D01*
X109930952Y-79161904D01*
X109854761Y-79200000D01*
X109816666Y-79238095D01*
X109778571Y-79314285D01*
X109778571Y-79428571D01*
X109816666Y-79504761D01*
X109854761Y-79542857D01*
X109930952Y-79580952D01*
X110235714Y-79580952D01*
X112966666Y-82192857D02*
X113233333Y-82192857D01*
X113233333Y-82611904D02*
X113233333Y-81811904D01*
X112852380Y-81811904D01*
X112547619Y-82611904D02*
X112547619Y-81811904D01*
X111785714Y-82611904D02*
X112166666Y-82611904D01*
X112166666Y-81811904D01*
X111633333Y-81811904D02*
X111176190Y-81811904D01*
X111404761Y-82611904D02*
X111404761Y-81811904D01*
X110909523Y-82192857D02*
X110642857Y-82192857D01*
X110528571Y-82611904D02*
X110909523Y-82611904D01*
X110909523Y-81811904D01*
X110528571Y-81811904D01*
X109728571Y-82611904D02*
X109995238Y-82230952D01*
X110185714Y-82611904D02*
X110185714Y-81811904D01*
X109880952Y-81811904D01*
X109804761Y-81850000D01*
X109766666Y-81888095D01*
X109728571Y-81964285D01*
X109728571Y-82078571D01*
X109766666Y-82154761D01*
X109804761Y-82192857D01*
X109880952Y-82230952D01*
X110185714Y-82230952D01*
X112966666Y-85592857D02*
X113233333Y-85592857D01*
X113233333Y-86011904D02*
X113233333Y-85211904D01*
X112852380Y-85211904D01*
X112547619Y-86011904D02*
X112547619Y-85211904D01*
X111785714Y-86011904D02*
X112166666Y-86011904D01*
X112166666Y-85211904D01*
X111633333Y-85211904D02*
X111176190Y-85211904D01*
X111404761Y-86011904D02*
X111404761Y-85211904D01*
X110909523Y-85592857D02*
X110642857Y-85592857D01*
X110528571Y-86011904D02*
X110909523Y-86011904D01*
X110909523Y-85211904D01*
X110528571Y-85211904D01*
X109728571Y-86011904D02*
X109995238Y-85630952D01*
X110185714Y-86011904D02*
X110185714Y-85211904D01*
X109880952Y-85211904D01*
X109804761Y-85250000D01*
X109766666Y-85288095D01*
X109728571Y-85364285D01*
X109728571Y-85478571D01*
X109766666Y-85554761D01*
X109804761Y-85592857D01*
X109880952Y-85630952D01*
X110185714Y-85630952D01*
X112966666Y-88092857D02*
X113233333Y-88092857D01*
X113233333Y-88511904D02*
X113233333Y-87711904D01*
X112852380Y-87711904D01*
X112547619Y-88511904D02*
X112547619Y-87711904D01*
X111785714Y-88511904D02*
X112166666Y-88511904D01*
X112166666Y-87711904D01*
X111633333Y-87711904D02*
X111176190Y-87711904D01*
X111404761Y-88511904D02*
X111404761Y-87711904D01*
X110909523Y-88092857D02*
X110642857Y-88092857D01*
X110528571Y-88511904D02*
X110909523Y-88511904D01*
X110909523Y-87711904D01*
X110528571Y-87711904D01*
X109728571Y-88511904D02*
X109995238Y-88130952D01*
X110185714Y-88511904D02*
X110185714Y-87711904D01*
X109880952Y-87711904D01*
X109804761Y-87750000D01*
X109766666Y-87788095D01*
X109728571Y-87864285D01*
X109728571Y-87978571D01*
X109766666Y-88054761D01*
X109804761Y-88092857D01*
X109880952Y-88130952D01*
X110185714Y-88130952D01*
X112966666Y-91792857D02*
X113233333Y-91792857D01*
X113233333Y-92211904D02*
X113233333Y-91411904D01*
X112852380Y-91411904D01*
X112547619Y-92211904D02*
X112547619Y-91411904D01*
X111785714Y-92211904D02*
X112166666Y-92211904D01*
X112166666Y-91411904D01*
X111633333Y-91411904D02*
X111176190Y-91411904D01*
X111404761Y-92211904D02*
X111404761Y-91411904D01*
X110909523Y-91792857D02*
X110642857Y-91792857D01*
X110528571Y-92211904D02*
X110909523Y-92211904D01*
X110909523Y-91411904D01*
X110528571Y-91411904D01*
X109728571Y-92211904D02*
X109995238Y-91830952D01*
X110185714Y-92211904D02*
X110185714Y-91411904D01*
X109880952Y-91411904D01*
X109804761Y-91450000D01*
X109766666Y-91488095D01*
X109728571Y-91564285D01*
X109728571Y-91678571D01*
X109766666Y-91754761D01*
X109804761Y-91792857D01*
X109880952Y-91830952D01*
X110185714Y-91830952D01*
X112966666Y-94342857D02*
X113233333Y-94342857D01*
X113233333Y-94761904D02*
X113233333Y-93961904D01*
X112852380Y-93961904D01*
X112547619Y-94761904D02*
X112547619Y-93961904D01*
X111785714Y-94761904D02*
X112166666Y-94761904D01*
X112166666Y-93961904D01*
X111633333Y-93961904D02*
X111176190Y-93961904D01*
X111404761Y-94761904D02*
X111404761Y-93961904D01*
X110909523Y-94342857D02*
X110642857Y-94342857D01*
X110528571Y-94761904D02*
X110909523Y-94761904D01*
X110909523Y-93961904D01*
X110528571Y-93961904D01*
X109728571Y-94761904D02*
X109995238Y-94380952D01*
X110185714Y-94761904D02*
X110185714Y-93961904D01*
X109880952Y-93961904D01*
X109804761Y-94000000D01*
X109766666Y-94038095D01*
X109728571Y-94114285D01*
X109728571Y-94228571D01*
X109766666Y-94304761D01*
X109804761Y-94342857D01*
X109880952Y-94380952D01*
X110185714Y-94380952D01*
X112966666Y-97842857D02*
X113233333Y-97842857D01*
X113233333Y-98261904D02*
X113233333Y-97461904D01*
X112852380Y-97461904D01*
X112547619Y-98261904D02*
X112547619Y-97461904D01*
X111785714Y-98261904D02*
X112166666Y-98261904D01*
X112166666Y-97461904D01*
X111633333Y-97461904D02*
X111176190Y-97461904D01*
X111404761Y-98261904D02*
X111404761Y-97461904D01*
X110909523Y-97842857D02*
X110642857Y-97842857D01*
X110528571Y-98261904D02*
X110909523Y-98261904D01*
X110909523Y-97461904D01*
X110528571Y-97461904D01*
X109728571Y-98261904D02*
X109995238Y-97880952D01*
X110185714Y-98261904D02*
X110185714Y-97461904D01*
X109880952Y-97461904D01*
X109804761Y-97500000D01*
X109766666Y-97538095D01*
X109728571Y-97614285D01*
X109728571Y-97728571D01*
X109766666Y-97804761D01*
X109804761Y-97842857D01*
X109880952Y-97880952D01*
X110185714Y-97880952D01*
X112966666Y-100337856D02*
X113233333Y-100337856D01*
X113233333Y-100756903D02*
X113233333Y-99956903D01*
X112852380Y-99956903D01*
X112547619Y-100756903D02*
X112547619Y-99956903D01*
X111785714Y-100756903D02*
X112166666Y-100756903D01*
X112166666Y-99956903D01*
X111633333Y-99956903D02*
X111176190Y-99956903D01*
X111404761Y-100756903D02*
X111404761Y-99956903D01*
X110909523Y-100337856D02*
X110642857Y-100337856D01*
X110528571Y-100756903D02*
X110909523Y-100756903D01*
X110909523Y-99956903D01*
X110528571Y-99956903D01*
X109728571Y-100756903D02*
X109995238Y-100375951D01*
X110185714Y-100756903D02*
X110185714Y-99956903D01*
X109880952Y-99956903D01*
X109804761Y-99994999D01*
X109766666Y-100033094D01*
X109728571Y-100109284D01*
X109728571Y-100223570D01*
X109766666Y-100299760D01*
X109804761Y-100337856D01*
X109880952Y-100375951D01*
X110185714Y-100375951D01*
X80454761Y-62717619D02*
X80407142Y-62670000D01*
X80311904Y-62622380D01*
X80073809Y-62622380D01*
X79978571Y-62670000D01*
X79930952Y-62717619D01*
X79883333Y-62812857D01*
X79883333Y-62908095D01*
X79930952Y-63050952D01*
X80502380Y-63622380D01*
X79883333Y-63622380D01*
X79454761Y-63527142D02*
X79407142Y-63574761D01*
X79454761Y-63622380D01*
X79502380Y-63574761D01*
X79454761Y-63527142D01*
X79454761Y-63622380D01*
X79026190Y-62717619D02*
X78978571Y-62670000D01*
X78883333Y-62622380D01*
X78645238Y-62622380D01*
X78550000Y-62670000D01*
X78502380Y-62717619D01*
X78454761Y-62812857D01*
X78454761Y-62908095D01*
X78502380Y-63050952D01*
X79073809Y-63622380D01*
X78454761Y-63622380D01*
X78026190Y-63622380D02*
X78026190Y-62622380D01*
X77930952Y-63241428D02*
X77645238Y-63622380D01*
X77645238Y-62955714D02*
X78026190Y-63336666D01*
X99526190Y-46411904D02*
X99983333Y-46411904D01*
X99754761Y-46411904D02*
X99754761Y-45611904D01*
X99830952Y-45726190D01*
X99907142Y-45802380D01*
X99983333Y-45840476D01*
X99030952Y-45611904D02*
X98954761Y-45611904D01*
X98878571Y-45650000D01*
X98840476Y-45688095D01*
X98802380Y-45764285D01*
X98764285Y-45916666D01*
X98764285Y-46107142D01*
X98802380Y-46259523D01*
X98840476Y-46335714D01*
X98878571Y-46373809D01*
X98954761Y-46411904D01*
X99030952Y-46411904D01*
X99107142Y-46373809D01*
X99145238Y-46335714D01*
X99183333Y-46259523D01*
X99221428Y-46107142D01*
X99221428Y-45916666D01*
X99183333Y-45764285D01*
X99145238Y-45688095D01*
X99107142Y-45650000D01*
X99030952Y-45611904D01*
X98421428Y-46411904D02*
X98421428Y-45611904D01*
X98345238Y-46107142D02*
X98116666Y-46411904D01*
X98116666Y-45878571D02*
X98421428Y-46183333D01*
X93576190Y-46911904D02*
X94033333Y-46911904D01*
X93804761Y-46911904D02*
X93804761Y-46111904D01*
X93880952Y-46226190D01*
X93957142Y-46302380D01*
X94033333Y-46340476D01*
X93080952Y-46111904D02*
X93004761Y-46111904D01*
X92928571Y-46150000D01*
X92890476Y-46188095D01*
X92852380Y-46264285D01*
X92814285Y-46416666D01*
X92814285Y-46607142D01*
X92852380Y-46759523D01*
X92890476Y-46835714D01*
X92928571Y-46873809D01*
X93004761Y-46911904D01*
X93080952Y-46911904D01*
X93157142Y-46873809D01*
X93195238Y-46835714D01*
X93233333Y-46759523D01*
X93271428Y-46607142D01*
X93271428Y-46416666D01*
X93233333Y-46264285D01*
X93195238Y-46188095D01*
X93157142Y-46150000D01*
X93080952Y-46111904D01*
X92471428Y-46911904D02*
X92471428Y-46111904D01*
X92395238Y-46607142D02*
X92166666Y-46911904D01*
X92166666Y-46378571D02*
X92471428Y-46683333D01*
X103895238Y-112382380D02*
X104466666Y-112382380D01*
X104180952Y-112382380D02*
X104180952Y-111382380D01*
X104276190Y-111525238D01*
X104371428Y-111620476D01*
X104466666Y-111668095D01*
X103276190Y-111382380D02*
X103180952Y-111382380D01*
X103085714Y-111430000D01*
X103038095Y-111477619D01*
X102990476Y-111572857D01*
X102942857Y-111763333D01*
X102942857Y-112001428D01*
X102990476Y-112191904D01*
X103038095Y-112287142D01*
X103085714Y-112334761D01*
X103180952Y-112382380D01*
X103276190Y-112382380D01*
X103371428Y-112334761D01*
X103419047Y-112287142D01*
X103466666Y-112191904D01*
X103514285Y-112001428D01*
X103514285Y-111763333D01*
X103466666Y-111572857D01*
X103419047Y-111477619D01*
X103371428Y-111430000D01*
X103276190Y-111382380D01*
X102514285Y-112382380D02*
X102514285Y-111382380D01*
X102419047Y-112001428D02*
X102133333Y-112382380D01*
X102133333Y-111715714D02*
X102514285Y-112096666D01*
X103595238Y-124732380D02*
X104166666Y-124732380D01*
X103880952Y-124732380D02*
X103880952Y-123732380D01*
X103976190Y-123875238D01*
X104071428Y-123970476D01*
X104166666Y-124018095D01*
X102976190Y-123732380D02*
X102880952Y-123732380D01*
X102785714Y-123780000D01*
X102738095Y-123827619D01*
X102690476Y-123922857D01*
X102642857Y-124113333D01*
X102642857Y-124351428D01*
X102690476Y-124541904D01*
X102738095Y-124637142D01*
X102785714Y-124684761D01*
X102880952Y-124732380D01*
X102976190Y-124732380D01*
X103071428Y-124684761D01*
X103119047Y-124637142D01*
X103166666Y-124541904D01*
X103214285Y-124351428D01*
X103214285Y-124113333D01*
X103166666Y-123922857D01*
X103119047Y-123827619D01*
X103071428Y-123780000D01*
X102976190Y-123732380D01*
X102214285Y-124732380D02*
X102214285Y-123732380D01*
X102119047Y-124351428D02*
X101833333Y-124732380D01*
X101833333Y-124065714D02*
X102214285Y-124446666D01*
X103895238Y-137032380D02*
X104466666Y-137032380D01*
X104180952Y-137032380D02*
X104180952Y-136032380D01*
X104276190Y-136175238D01*
X104371428Y-136270476D01*
X104466666Y-136318095D01*
X103276190Y-136032380D02*
X103180952Y-136032380D01*
X103085714Y-136080000D01*
X103038095Y-136127619D01*
X102990476Y-136222857D01*
X102942857Y-136413333D01*
X102942857Y-136651428D01*
X102990476Y-136841904D01*
X103038095Y-136937142D01*
X103085714Y-136984761D01*
X103180952Y-137032380D01*
X103276190Y-137032380D01*
X103371428Y-136984761D01*
X103419047Y-136937142D01*
X103466666Y-136841904D01*
X103514285Y-136651428D01*
X103514285Y-136413333D01*
X103466666Y-136222857D01*
X103419047Y-136127619D01*
X103371428Y-136080000D01*
X103276190Y-136032380D01*
X102514285Y-137032380D02*
X102514285Y-136032380D01*
X102419047Y-136651428D02*
X102133333Y-137032380D01*
X102133333Y-136365714D02*
X102514285Y-136746666D01*
X103895238Y-106132380D02*
X104466666Y-106132380D01*
X104180952Y-106132380D02*
X104180952Y-105132380D01*
X104276190Y-105275238D01*
X104371428Y-105370476D01*
X104466666Y-105418095D01*
X103276190Y-105132380D02*
X103180952Y-105132380D01*
X103085714Y-105180000D01*
X103038095Y-105227619D01*
X102990476Y-105322857D01*
X102942857Y-105513333D01*
X102942857Y-105751428D01*
X102990476Y-105941904D01*
X103038095Y-106037142D01*
X103085714Y-106084761D01*
X103180952Y-106132380D01*
X103276190Y-106132380D01*
X103371428Y-106084761D01*
X103419047Y-106037142D01*
X103466666Y-105941904D01*
X103514285Y-105751428D01*
X103514285Y-105513333D01*
X103466666Y-105322857D01*
X103419047Y-105227619D01*
X103371428Y-105180000D01*
X103276190Y-105132380D01*
X102514285Y-106132380D02*
X102514285Y-105132380D01*
X102419047Y-105751428D02*
X102133333Y-106132380D01*
X102133333Y-105465714D02*
X102514285Y-105846666D01*
X103695238Y-118532380D02*
X104266666Y-118532380D01*
X103980952Y-118532380D02*
X103980952Y-117532380D01*
X104076190Y-117675238D01*
X104171428Y-117770476D01*
X104266666Y-117818095D01*
X103076190Y-117532380D02*
X102980952Y-117532380D01*
X102885714Y-117580000D01*
X102838095Y-117627619D01*
X102790476Y-117722857D01*
X102742857Y-117913333D01*
X102742857Y-118151428D01*
X102790476Y-118341904D01*
X102838095Y-118437142D01*
X102885714Y-118484761D01*
X102980952Y-118532380D01*
X103076190Y-118532380D01*
X103171428Y-118484761D01*
X103219047Y-118437142D01*
X103266666Y-118341904D01*
X103314285Y-118151428D01*
X103314285Y-117913333D01*
X103266666Y-117722857D01*
X103219047Y-117627619D01*
X103171428Y-117580000D01*
X103076190Y-117532380D01*
X102314285Y-118532380D02*
X102314285Y-117532380D01*
X102219047Y-118151428D02*
X101933333Y-118532380D01*
X101933333Y-117865714D02*
X102314285Y-118246666D01*
X103845238Y-130882380D02*
X104416666Y-130882380D01*
X104130952Y-130882380D02*
X104130952Y-129882380D01*
X104226190Y-130025238D01*
X104321428Y-130120476D01*
X104416666Y-130168095D01*
X103226190Y-129882380D02*
X103130952Y-129882380D01*
X103035714Y-129930000D01*
X102988095Y-129977619D01*
X102940476Y-130072857D01*
X102892857Y-130263333D01*
X102892857Y-130501428D01*
X102940476Y-130691904D01*
X102988095Y-130787142D01*
X103035714Y-130834761D01*
X103130952Y-130882380D01*
X103226190Y-130882380D01*
X103321428Y-130834761D01*
X103369047Y-130787142D01*
X103416666Y-130691904D01*
X103464285Y-130501428D01*
X103464285Y-130263333D01*
X103416666Y-130072857D01*
X103369047Y-129977619D01*
X103321428Y-129930000D01*
X103226190Y-129882380D01*
X102464285Y-130882380D02*
X102464285Y-129882380D01*
X102369047Y-130501428D02*
X102083333Y-130882380D01*
X102083333Y-130215714D02*
X102464285Y-130596666D01*
X112966666Y-103992857D02*
X113233333Y-103992857D01*
X113233333Y-104411904D02*
X113233333Y-103611904D01*
X112852380Y-103611904D01*
X112547619Y-104411904D02*
X112547619Y-103611904D01*
X111785714Y-104411904D02*
X112166666Y-104411904D01*
X112166666Y-103611904D01*
X111633333Y-103611904D02*
X111176190Y-103611904D01*
X111404761Y-104411904D02*
X111404761Y-103611904D01*
X110909523Y-103992857D02*
X110642857Y-103992857D01*
X110528571Y-104411904D02*
X110909523Y-104411904D01*
X110909523Y-103611904D01*
X110528571Y-103611904D01*
X109728571Y-104411904D02*
X109995238Y-104030952D01*
X110185714Y-104411904D02*
X110185714Y-103611904D01*
X109880952Y-103611904D01*
X109804761Y-103650000D01*
X109766666Y-103688095D01*
X109728571Y-103764285D01*
X109728571Y-103878571D01*
X109766666Y-103954761D01*
X109804761Y-103992857D01*
X109880952Y-104030952D01*
X110185714Y-104030952D01*
X112966666Y-106592857D02*
X113233333Y-106592857D01*
X113233333Y-107011904D02*
X113233333Y-106211904D01*
X112852380Y-106211904D01*
X112547619Y-107011904D02*
X112547619Y-106211904D01*
X111785714Y-107011904D02*
X112166666Y-107011904D01*
X112166666Y-106211904D01*
X111633333Y-106211904D02*
X111176190Y-106211904D01*
X111404761Y-107011904D02*
X111404761Y-106211904D01*
X110909523Y-106592857D02*
X110642857Y-106592857D01*
X110528571Y-107011904D02*
X110909523Y-107011904D01*
X110909523Y-106211904D01*
X110528571Y-106211904D01*
X109728571Y-107011904D02*
X109995238Y-106630952D01*
X110185714Y-107011904D02*
X110185714Y-106211904D01*
X109880952Y-106211904D01*
X109804761Y-106250000D01*
X109766666Y-106288095D01*
X109728571Y-106364285D01*
X109728571Y-106478571D01*
X109766666Y-106554761D01*
X109804761Y-106592857D01*
X109880952Y-106630952D01*
X110185714Y-106630952D01*
X112966666Y-110192857D02*
X113233333Y-110192857D01*
X113233333Y-110611904D02*
X113233333Y-109811904D01*
X112852380Y-109811904D01*
X112547619Y-110611904D02*
X112547619Y-109811904D01*
X111785714Y-110611904D02*
X112166666Y-110611904D01*
X112166666Y-109811904D01*
X111633333Y-109811904D02*
X111176190Y-109811904D01*
X111404761Y-110611904D02*
X111404761Y-109811904D01*
X110909523Y-110192857D02*
X110642857Y-110192857D01*
X110528571Y-110611904D02*
X110909523Y-110611904D01*
X110909523Y-109811904D01*
X110528571Y-109811904D01*
X109728571Y-110611904D02*
X109995238Y-110230952D01*
X110185714Y-110611904D02*
X110185714Y-109811904D01*
X109880952Y-109811904D01*
X109804761Y-109850000D01*
X109766666Y-109888095D01*
X109728571Y-109964285D01*
X109728571Y-110078571D01*
X109766666Y-110154761D01*
X109804761Y-110192857D01*
X109880952Y-110230952D01*
X110185714Y-110230952D01*
X112966666Y-112842857D02*
X113233333Y-112842857D01*
X113233333Y-113261904D02*
X113233333Y-112461904D01*
X112852380Y-112461904D01*
X112547619Y-113261904D02*
X112547619Y-112461904D01*
X111785714Y-113261904D02*
X112166666Y-113261904D01*
X112166666Y-112461904D01*
X111633333Y-112461904D02*
X111176190Y-112461904D01*
X111404761Y-113261904D02*
X111404761Y-112461904D01*
X110909523Y-112842857D02*
X110642857Y-112842857D01*
X110528571Y-113261904D02*
X110909523Y-113261904D01*
X110909523Y-112461904D01*
X110528571Y-112461904D01*
X109728571Y-113261904D02*
X109995238Y-112880952D01*
X110185714Y-113261904D02*
X110185714Y-112461904D01*
X109880952Y-112461904D01*
X109804761Y-112500000D01*
X109766666Y-112538095D01*
X109728571Y-112614285D01*
X109728571Y-112728571D01*
X109766666Y-112804761D01*
X109804761Y-112842857D01*
X109880952Y-112880952D01*
X110185714Y-112880952D01*
X112966666Y-116442857D02*
X113233333Y-116442857D01*
X113233333Y-116861904D02*
X113233333Y-116061904D01*
X112852380Y-116061904D01*
X112547619Y-116861904D02*
X112547619Y-116061904D01*
X111785714Y-116861904D02*
X112166666Y-116861904D01*
X112166666Y-116061904D01*
X111633333Y-116061904D02*
X111176190Y-116061904D01*
X111404761Y-116861904D02*
X111404761Y-116061904D01*
X110909523Y-116442857D02*
X110642857Y-116442857D01*
X110528571Y-116861904D02*
X110909523Y-116861904D01*
X110909523Y-116061904D01*
X110528571Y-116061904D01*
X109728571Y-116861904D02*
X109995238Y-116480952D01*
X110185714Y-116861904D02*
X110185714Y-116061904D01*
X109880952Y-116061904D01*
X109804761Y-116100000D01*
X109766666Y-116138095D01*
X109728571Y-116214285D01*
X109728571Y-116328571D01*
X109766666Y-116404761D01*
X109804761Y-116442857D01*
X109880952Y-116480952D01*
X110185714Y-116480952D01*
X112966666Y-119007856D02*
X113233333Y-119007856D01*
X113233333Y-119426903D02*
X113233333Y-118626903D01*
X112852380Y-118626903D01*
X112547619Y-119426903D02*
X112547619Y-118626903D01*
X111785714Y-119426903D02*
X112166666Y-119426903D01*
X112166666Y-118626903D01*
X111633333Y-118626903D02*
X111176190Y-118626903D01*
X111404761Y-119426903D02*
X111404761Y-118626903D01*
X110909523Y-119007856D02*
X110642857Y-119007856D01*
X110528571Y-119426903D02*
X110909523Y-119426903D01*
X110909523Y-118626903D01*
X110528571Y-118626903D01*
X109728571Y-119426903D02*
X109995238Y-119045951D01*
X110185714Y-119426903D02*
X110185714Y-118626903D01*
X109880952Y-118626903D01*
X109804761Y-118664999D01*
X109766666Y-118703094D01*
X109728571Y-118779284D01*
X109728571Y-118893570D01*
X109766666Y-118969760D01*
X109804761Y-119007856D01*
X109880952Y-119045951D01*
X110185714Y-119045951D01*
X112966666Y-122592857D02*
X113233333Y-122592857D01*
X113233333Y-123011904D02*
X113233333Y-122211904D01*
X112852380Y-122211904D01*
X112547619Y-123011904D02*
X112547619Y-122211904D01*
X111785714Y-123011904D02*
X112166666Y-123011904D01*
X112166666Y-122211904D01*
X111633333Y-122211904D02*
X111176190Y-122211904D01*
X111404761Y-123011904D02*
X111404761Y-122211904D01*
X110909523Y-122592857D02*
X110642857Y-122592857D01*
X110528571Y-123011904D02*
X110909523Y-123011904D01*
X110909523Y-122211904D01*
X110528571Y-122211904D01*
X109728571Y-123011904D02*
X109995238Y-122630952D01*
X110185714Y-123011904D02*
X110185714Y-122211904D01*
X109880952Y-122211904D01*
X109804761Y-122250000D01*
X109766666Y-122288095D01*
X109728571Y-122364285D01*
X109728571Y-122478571D01*
X109766666Y-122554761D01*
X109804761Y-122592857D01*
X109880952Y-122630952D01*
X110185714Y-122630952D01*
X112966666Y-125142857D02*
X113233333Y-125142857D01*
X113233333Y-125561904D02*
X113233333Y-124761904D01*
X112852380Y-124761904D01*
X112547619Y-125561904D02*
X112547619Y-124761904D01*
X111785714Y-125561904D02*
X112166666Y-125561904D01*
X112166666Y-124761904D01*
X111633333Y-124761904D02*
X111176190Y-124761904D01*
X111404761Y-125561904D02*
X111404761Y-124761904D01*
X110909523Y-125142857D02*
X110642857Y-125142857D01*
X110528571Y-125561904D02*
X110909523Y-125561904D01*
X110909523Y-124761904D01*
X110528571Y-124761904D01*
X109728571Y-125561904D02*
X109995238Y-125180952D01*
X110185714Y-125561904D02*
X110185714Y-124761904D01*
X109880952Y-124761904D01*
X109804761Y-124800000D01*
X109766666Y-124838095D01*
X109728571Y-124914285D01*
X109728571Y-125028571D01*
X109766666Y-125104761D01*
X109804761Y-125142857D01*
X109880952Y-125180952D01*
X110185714Y-125180952D01*
X112966666Y-128792857D02*
X113233333Y-128792857D01*
X113233333Y-129211904D02*
X113233333Y-128411904D01*
X112852380Y-128411904D01*
X112547619Y-129211904D02*
X112547619Y-128411904D01*
X111785714Y-129211904D02*
X112166666Y-129211904D01*
X112166666Y-128411904D01*
X111633333Y-128411904D02*
X111176190Y-128411904D01*
X111404761Y-129211904D02*
X111404761Y-128411904D01*
X110909523Y-128792857D02*
X110642857Y-128792857D01*
X110528571Y-129211904D02*
X110909523Y-129211904D01*
X110909523Y-128411904D01*
X110528571Y-128411904D01*
X109728571Y-129211904D02*
X109995238Y-128830952D01*
X110185714Y-129211904D02*
X110185714Y-128411904D01*
X109880952Y-128411904D01*
X109804761Y-128450000D01*
X109766666Y-128488095D01*
X109728571Y-128564285D01*
X109728571Y-128678571D01*
X109766666Y-128754761D01*
X109804761Y-128792857D01*
X109880952Y-128830952D01*
X110185714Y-128830952D01*
X112966666Y-131292857D02*
X113233333Y-131292857D01*
X113233333Y-131711904D02*
X113233333Y-130911904D01*
X112852380Y-130911904D01*
X112547619Y-131711904D02*
X112547619Y-130911904D01*
X111785714Y-131711904D02*
X112166666Y-131711904D01*
X112166666Y-130911904D01*
X111633333Y-130911904D02*
X111176190Y-130911904D01*
X111404761Y-131711904D02*
X111404761Y-130911904D01*
X110909523Y-131292857D02*
X110642857Y-131292857D01*
X110528571Y-131711904D02*
X110909523Y-131711904D01*
X110909523Y-130911904D01*
X110528571Y-130911904D01*
X109728571Y-131711904D02*
X109995238Y-131330952D01*
X110185714Y-131711904D02*
X110185714Y-130911904D01*
X109880952Y-130911904D01*
X109804761Y-130950000D01*
X109766666Y-130988095D01*
X109728571Y-131064285D01*
X109728571Y-131178571D01*
X109766666Y-131254761D01*
X109804761Y-131292857D01*
X109880952Y-131330952D01*
X110185714Y-131330952D01*
X112966666Y-134892857D02*
X113233333Y-134892857D01*
X113233333Y-135311904D02*
X113233333Y-134511904D01*
X112852380Y-134511904D01*
X112547619Y-135311904D02*
X112547619Y-134511904D01*
X111785714Y-135311904D02*
X112166666Y-135311904D01*
X112166666Y-134511904D01*
X111633333Y-134511904D02*
X111176190Y-134511904D01*
X111404761Y-135311904D02*
X111404761Y-134511904D01*
X110909523Y-134892857D02*
X110642857Y-134892857D01*
X110528571Y-135311904D02*
X110909523Y-135311904D01*
X110909523Y-134511904D01*
X110528571Y-134511904D01*
X109728571Y-135311904D02*
X109995238Y-134930952D01*
X110185714Y-135311904D02*
X110185714Y-134511904D01*
X109880952Y-134511904D01*
X109804761Y-134550000D01*
X109766666Y-134588095D01*
X109728571Y-134664285D01*
X109728571Y-134778571D01*
X109766666Y-134854761D01*
X109804761Y-134892857D01*
X109880952Y-134930952D01*
X110185714Y-134930952D01*
X112966666Y-137442857D02*
X113233333Y-137442857D01*
X113233333Y-137861904D02*
X113233333Y-137061904D01*
X112852380Y-137061904D01*
X112547619Y-137861904D02*
X112547619Y-137061904D01*
X111785714Y-137861904D02*
X112166666Y-137861904D01*
X112166666Y-137061904D01*
X111633333Y-137061904D02*
X111176190Y-137061904D01*
X111404761Y-137861904D02*
X111404761Y-137061904D01*
X110909523Y-137442857D02*
X110642857Y-137442857D01*
X110528571Y-137861904D02*
X110909523Y-137861904D01*
X110909523Y-137061904D01*
X110528571Y-137061904D01*
X109728571Y-137861904D02*
X109995238Y-137480952D01*
X110185714Y-137861904D02*
X110185714Y-137061904D01*
X109880952Y-137061904D01*
X109804761Y-137100000D01*
X109766666Y-137138095D01*
X109728571Y-137214285D01*
X109728571Y-137328571D01*
X109766666Y-137404761D01*
X109804761Y-137442857D01*
X109880952Y-137480952D01*
X110185714Y-137480952D01*
X57014285Y-58383333D02*
X56633333Y-58383333D01*
X57090476Y-58611904D02*
X56823809Y-57811904D01*
X56557142Y-58611904D01*
X56290476Y-58611904D02*
X56290476Y-57811904D01*
X55985714Y-57811904D01*
X55909523Y-57850000D01*
X55871428Y-57888095D01*
X55833333Y-57964285D01*
X55833333Y-58078571D01*
X55871428Y-58154761D01*
X55909523Y-58192857D01*
X55985714Y-58230952D01*
X56290476Y-58230952D01*
X55566666Y-57811904D02*
X55071428Y-57811904D01*
X55338095Y-58116666D01*
X55223809Y-58116666D01*
X55147619Y-58154761D01*
X55109523Y-58192857D01*
X55071428Y-58269047D01*
X55071428Y-58459523D01*
X55109523Y-58535714D01*
X55147619Y-58573809D01*
X55223809Y-58611904D01*
X55452380Y-58611904D01*
X55528571Y-58573809D01*
X55566666Y-58535714D01*
X54766666Y-57888095D02*
X54728571Y-57850000D01*
X54652380Y-57811904D01*
X54461904Y-57811904D01*
X54385714Y-57850000D01*
X54347619Y-57888095D01*
X54309523Y-57964285D01*
X54309523Y-58040476D01*
X54347619Y-58154761D01*
X54804761Y-58611904D01*
X54309523Y-58611904D01*
X53547619Y-58611904D02*
X54004761Y-58611904D01*
X53776190Y-58611904D02*
X53776190Y-57811904D01*
X53852380Y-57926190D01*
X53928571Y-58002380D01*
X54004761Y-58040476D01*
X52785714Y-58611904D02*
X53242857Y-58611904D01*
X53014285Y-58611904D02*
X53014285Y-57811904D01*
X53090476Y-57926190D01*
X53166666Y-58002380D01*
X53242857Y-58040476D01*
X65233333Y-63235714D02*
X65233333Y-63616666D01*
X65461904Y-63159523D02*
X64661904Y-63426190D01*
X65461904Y-63692857D01*
X64661904Y-63883333D02*
X64661904Y-64416666D01*
X65461904Y-63883333D01*
X65461904Y-64416666D01*
X65461904Y-65140476D02*
X65461904Y-64683333D01*
X65461904Y-64911904D02*
X64661904Y-64911904D01*
X64776190Y-64835714D01*
X64852380Y-64759523D01*
X64890476Y-64683333D01*
X64661904Y-65635714D02*
X64661904Y-65711904D01*
X64700000Y-65788095D01*
X64738095Y-65826190D01*
X64814285Y-65864285D01*
X64966666Y-65902380D01*
X65157142Y-65902380D01*
X65309523Y-65864285D01*
X65385714Y-65826190D01*
X65423809Y-65788095D01*
X65461904Y-65711904D01*
X65461904Y-65635714D01*
X65423809Y-65559523D01*
X65385714Y-65521428D01*
X65309523Y-65483333D01*
X65157142Y-65445238D01*
X64966666Y-65445238D01*
X64814285Y-65483333D01*
X64738095Y-65521428D01*
X64700000Y-65559523D01*
X64661904Y-65635714D01*
X65004761Y-66359523D02*
X64966666Y-66283333D01*
X64928571Y-66245238D01*
X64852380Y-66207142D01*
X64814285Y-66207142D01*
X64738095Y-66245238D01*
X64700000Y-66283333D01*
X64661904Y-66359523D01*
X64661904Y-66511904D01*
X64700000Y-66588095D01*
X64738095Y-66626190D01*
X64814285Y-66664285D01*
X64852380Y-66664285D01*
X64928571Y-66626190D01*
X64966666Y-66588095D01*
X65004761Y-66511904D01*
X65004761Y-66359523D01*
X65042857Y-66283333D01*
X65080952Y-66245238D01*
X65157142Y-66207142D01*
X65309523Y-66207142D01*
X65385714Y-66245238D01*
X65423809Y-66283333D01*
X65461904Y-66359523D01*
X65461904Y-66511904D01*
X65423809Y-66588095D01*
X65385714Y-66626190D01*
X65309523Y-66664285D01*
X65157142Y-66664285D01*
X65080952Y-66626190D01*
X65042857Y-66588095D01*
X65004761Y-66511904D01*
X64661904Y-67350000D02*
X64661904Y-67197619D01*
X64700000Y-67121428D01*
X64738095Y-67083333D01*
X64852380Y-67007142D01*
X65004761Y-66969047D01*
X65309523Y-66969047D01*
X65385714Y-67007142D01*
X65423809Y-67045238D01*
X65461904Y-67121428D01*
X65461904Y-67273809D01*
X65423809Y-67350000D01*
X65385714Y-67388095D01*
X65309523Y-67426190D01*
X65119047Y-67426190D01*
X65042857Y-67388095D01*
X65004761Y-67350000D01*
X64966666Y-67273809D01*
X64966666Y-67121428D01*
X65004761Y-67045238D01*
X65042857Y-67007142D01*
X65119047Y-66969047D01*
X65461904Y-67769047D02*
X64661904Y-67769047D01*
X65042857Y-67769047D02*
X65042857Y-68226190D01*
X65461904Y-68226190D02*
X64661904Y-68226190D01*
X84442857Y-61833333D02*
X84480952Y-61947619D01*
X84519047Y-61985714D01*
X84595238Y-62023809D01*
X84709523Y-62023809D01*
X84785714Y-61985714D01*
X84823809Y-61947619D01*
X84861904Y-61871428D01*
X84861904Y-61566666D01*
X84061904Y-61566666D01*
X84061904Y-61833333D01*
X84100000Y-61909523D01*
X84138095Y-61947619D01*
X84214285Y-61985714D01*
X84290476Y-61985714D01*
X84366666Y-61947619D01*
X84404761Y-61909523D01*
X84442857Y-61833333D01*
X84442857Y-61566666D01*
X84861904Y-62366666D02*
X84061904Y-62366666D01*
X84061904Y-62557142D01*
X84100000Y-62671428D01*
X84176190Y-62747619D01*
X84252380Y-62785714D01*
X84404761Y-62823809D01*
X84519047Y-62823809D01*
X84671428Y-62785714D01*
X84747619Y-62747619D01*
X84823809Y-62671428D01*
X84861904Y-62557142D01*
X84861904Y-62366666D01*
X84861904Y-63204761D02*
X84861904Y-63357142D01*
X84823809Y-63433333D01*
X84785714Y-63471428D01*
X84671428Y-63547619D01*
X84519047Y-63585714D01*
X84214285Y-63585714D01*
X84138095Y-63547619D01*
X84100000Y-63509523D01*
X84061904Y-63433333D01*
X84061904Y-63280952D01*
X84100000Y-63204761D01*
X84138095Y-63166666D01*
X84214285Y-63128571D01*
X84404761Y-63128571D01*
X84480952Y-63166666D01*
X84519047Y-63204761D01*
X84557142Y-63280952D01*
X84557142Y-63433333D01*
X84519047Y-63509523D01*
X84480952Y-63547619D01*
X84404761Y-63585714D01*
X84100000Y-64347619D02*
X84061904Y-64271428D01*
X84061904Y-64157142D01*
X84100000Y-64042857D01*
X84176190Y-63966666D01*
X84252380Y-63928571D01*
X84404761Y-63890476D01*
X84519047Y-63890476D01*
X84671428Y-63928571D01*
X84747619Y-63966666D01*
X84823809Y-64042857D01*
X84861904Y-64157142D01*
X84861904Y-64233333D01*
X84823809Y-64347619D01*
X84785714Y-64385714D01*
X84519047Y-64385714D01*
X84519047Y-64233333D01*
X84861904Y-65147619D02*
X84861904Y-64690476D01*
X84861904Y-64919047D02*
X84061904Y-64919047D01*
X84176190Y-64842857D01*
X84252380Y-64766666D01*
X84290476Y-64690476D01*
X84061904Y-65642857D02*
X84061904Y-65719047D01*
X84100000Y-65795238D01*
X84138095Y-65833333D01*
X84214285Y-65871428D01*
X84366666Y-65909523D01*
X84557142Y-65909523D01*
X84709523Y-65871428D01*
X84785714Y-65833333D01*
X84823809Y-65795238D01*
X84861904Y-65719047D01*
X84861904Y-65642857D01*
X84823809Y-65566666D01*
X84785714Y-65528571D01*
X84709523Y-65490476D01*
X84557142Y-65452380D01*
X84366666Y-65452380D01*
X84214285Y-65490476D01*
X84138095Y-65528571D01*
X84100000Y-65566666D01*
X84061904Y-65642857D01*
X84861904Y-66671428D02*
X84861904Y-66214285D01*
X84861904Y-66442857D02*
X84061904Y-66442857D01*
X84176190Y-66366666D01*
X84252380Y-66290476D01*
X84290476Y-66214285D01*
X84100000Y-67433333D02*
X84061904Y-67357142D01*
X84061904Y-67242857D01*
X84100000Y-67128571D01*
X84176190Y-67052380D01*
X84252380Y-67014285D01*
X84404761Y-66976190D01*
X84519047Y-66976190D01*
X84671428Y-67014285D01*
X84747619Y-67052380D01*
X84823809Y-67128571D01*
X84861904Y-67242857D01*
X84861904Y-67319047D01*
X84823809Y-67433333D01*
X84785714Y-67471428D01*
X84519047Y-67471428D01*
X84519047Y-67319047D01*
X99530952Y-74508571D02*
X99530952Y-75041904D01*
X99721428Y-74203809D02*
X99911904Y-74775238D01*
X99416666Y-74775238D01*
X99111904Y-74965714D02*
X99073809Y-75003809D01*
X99111904Y-75041904D01*
X99150000Y-75003809D01*
X99111904Y-74965714D01*
X99111904Y-75041904D01*
X98807142Y-74241904D02*
X98273809Y-74241904D01*
X98616666Y-75041904D01*
X97626190Y-74508571D02*
X97626190Y-75041904D01*
X97969047Y-74508571D02*
X97969047Y-74927619D01*
X97930952Y-75003809D01*
X97854761Y-75041904D01*
X97740476Y-75041904D01*
X97664285Y-75003809D01*
X97626190Y-74965714D01*
X98966666Y-67331904D02*
X99423809Y-67331904D01*
X99195238Y-67331904D02*
X99195238Y-66531904D01*
X99271428Y-66646190D01*
X99347619Y-66722380D01*
X99423809Y-66760476D01*
X98623809Y-67255714D02*
X98585714Y-67293809D01*
X98623809Y-67331904D01*
X98661904Y-67293809D01*
X98623809Y-67255714D01*
X98623809Y-67331904D01*
X98280952Y-66608095D02*
X98242857Y-66570000D01*
X98166666Y-66531904D01*
X97976190Y-66531904D01*
X97900000Y-66570000D01*
X97861904Y-66608095D01*
X97823809Y-66684285D01*
X97823809Y-66760476D01*
X97861904Y-66874761D01*
X98319047Y-67331904D01*
X97823809Y-67331904D01*
X97480952Y-67331904D02*
X97480952Y-66531904D01*
X97404761Y-67027142D02*
X97176190Y-67331904D01*
X97176190Y-66798571D02*
X97480952Y-67103333D01*
X96836905Y-67565475D02*
X96836905Y-68098808D01*
X97636905Y-67755951D01*
X97179762Y-68517856D02*
X97141667Y-68441665D01*
X97103572Y-68403570D01*
X97027381Y-68365475D01*
X96989286Y-68365475D01*
X96913096Y-68403570D01*
X96875001Y-68441665D01*
X96836905Y-68517856D01*
X96836905Y-68670237D01*
X96875001Y-68746427D01*
X96913096Y-68784522D01*
X96989286Y-68822618D01*
X97027381Y-68822618D01*
X97103572Y-68784522D01*
X97141667Y-68746427D01*
X97179762Y-68670237D01*
X97179762Y-68517856D01*
X97217858Y-68441665D01*
X97255953Y-68403570D01*
X97332143Y-68365475D01*
X97484524Y-68365475D01*
X97560715Y-68403570D01*
X97598810Y-68441665D01*
X97636905Y-68517856D01*
X97636905Y-68670237D01*
X97598810Y-68746427D01*
X97560715Y-68784522D01*
X97484524Y-68822618D01*
X97332143Y-68822618D01*
X97255953Y-68784522D01*
X97217858Y-68746427D01*
X97179762Y-68670237D01*
X96836905Y-69317856D02*
X96836905Y-69394046D01*
X96875001Y-69470237D01*
X96913096Y-69508332D01*
X96989286Y-69546427D01*
X97141667Y-69584522D01*
X97332143Y-69584522D01*
X97484524Y-69546427D01*
X97560715Y-69508332D01*
X97598810Y-69470237D01*
X97636905Y-69394046D01*
X97636905Y-69317856D01*
X97598810Y-69241665D01*
X97560715Y-69203570D01*
X97484524Y-69165475D01*
X97332143Y-69127379D01*
X97141667Y-69127379D01*
X96989286Y-69165475D01*
X96913096Y-69203570D01*
X96875001Y-69241665D01*
X96836905Y-69317856D01*
X96836905Y-70308332D02*
X96836905Y-69927379D01*
X97217858Y-69889284D01*
X97179762Y-69927379D01*
X97141667Y-70003570D01*
X97141667Y-70194046D01*
X97179762Y-70270237D01*
X97217858Y-70308332D01*
X97294048Y-70346427D01*
X97484524Y-70346427D01*
X97560715Y-70308332D01*
X97598810Y-70270237D01*
X97636905Y-70194046D01*
X97636905Y-70003570D01*
X97598810Y-69927379D01*
X97560715Y-69889284D01*
X62861904Y-58485714D02*
X62861904Y-58028571D01*
X62861904Y-58257142D02*
X62061904Y-58257142D01*
X62176190Y-58180952D01*
X62252380Y-58104761D01*
X62290476Y-58028571D01*
X62061904Y-58980952D02*
X62061904Y-59057142D01*
X62100000Y-59133333D01*
X62138095Y-59171428D01*
X62214285Y-59209523D01*
X62366666Y-59247619D01*
X62557142Y-59247619D01*
X62709523Y-59209523D01*
X62785714Y-59171428D01*
X62823809Y-59133333D01*
X62861904Y-59057142D01*
X62861904Y-58980952D01*
X62823809Y-58904761D01*
X62785714Y-58866666D01*
X62709523Y-58828571D01*
X62557142Y-58790476D01*
X62366666Y-58790476D01*
X62214285Y-58828571D01*
X62138095Y-58866666D01*
X62100000Y-58904761D01*
X62061904Y-58980952D01*
X62328571Y-59933333D02*
X62861904Y-59933333D01*
X62328571Y-59590476D02*
X62747619Y-59590476D01*
X62823809Y-59628571D01*
X62861904Y-59704761D01*
X62861904Y-59819047D01*
X62823809Y-59895238D01*
X62785714Y-59933333D01*
X46711904Y-57785714D02*
X45911904Y-57785714D01*
X46483333Y-58052380D01*
X45911904Y-58319047D01*
X46711904Y-58319047D01*
X46483333Y-58661904D02*
X46483333Y-59042857D01*
X46711904Y-58585714D02*
X45911904Y-58852380D01*
X46711904Y-59119047D01*
X45911904Y-59309523D02*
X46711904Y-59842857D01*
X45911904Y-59842857D02*
X46711904Y-59309523D01*
X45911904Y-60071428D02*
X45911904Y-60566666D01*
X46216666Y-60300000D01*
X46216666Y-60414285D01*
X46254761Y-60490476D01*
X46292857Y-60528571D01*
X46369047Y-60566666D01*
X46559523Y-60566666D01*
X46635714Y-60528571D01*
X46673809Y-60490476D01*
X46711904Y-60414285D01*
X46711904Y-60185714D01*
X46673809Y-60109523D01*
X46635714Y-60071428D01*
X45911904Y-61061904D02*
X45911904Y-61138095D01*
X45950000Y-61214285D01*
X45988095Y-61252380D01*
X46064285Y-61290476D01*
X46216666Y-61328571D01*
X46407142Y-61328571D01*
X46559523Y-61290476D01*
X46635714Y-61252380D01*
X46673809Y-61214285D01*
X46711904Y-61138095D01*
X46711904Y-61061904D01*
X46673809Y-60985714D01*
X46635714Y-60947619D01*
X46559523Y-60909523D01*
X46407142Y-60871428D01*
X46216666Y-60871428D01*
X46064285Y-60909523D01*
X45988095Y-60947619D01*
X45950000Y-60985714D01*
X45911904Y-61061904D01*
X45911904Y-62052380D02*
X45911904Y-61671428D01*
X46292857Y-61633333D01*
X46254761Y-61671428D01*
X46216666Y-61747619D01*
X46216666Y-61938095D01*
X46254761Y-62014285D01*
X46292857Y-62052380D01*
X46369047Y-62090476D01*
X46559523Y-62090476D01*
X46635714Y-62052380D01*
X46673809Y-62014285D01*
X46711904Y-61938095D01*
X46711904Y-61747619D01*
X46673809Y-61671428D01*
X46635714Y-61633333D01*
X46711904Y-62852380D02*
X46711904Y-62395238D01*
X46711904Y-62623809D02*
X45911904Y-62623809D01*
X46026190Y-62547619D01*
X46102380Y-62471428D01*
X46140476Y-62395238D01*
X43106903Y-44911665D02*
X43106903Y-44454522D01*
X43106903Y-44683094D02*
X42306903Y-44683094D01*
X42421189Y-44606903D01*
X42497379Y-44530713D01*
X42535475Y-44454522D01*
X42383094Y-45216427D02*
X42344999Y-45254522D01*
X42306903Y-45330713D01*
X42306903Y-45521189D01*
X42344999Y-45597379D01*
X42383094Y-45635475D01*
X42459284Y-45673570D01*
X42535475Y-45673570D01*
X42649760Y-45635475D01*
X43106903Y-45178332D01*
X43106903Y-45673570D01*
X42306903Y-46168808D02*
X42306903Y-46244999D01*
X42344999Y-46321189D01*
X42383094Y-46359284D01*
X42459284Y-46397379D01*
X42611665Y-46435475D01*
X42802141Y-46435475D01*
X42954522Y-46397379D01*
X43030713Y-46359284D01*
X43068808Y-46321189D01*
X43106903Y-46244999D01*
X43106903Y-46168808D01*
X43068808Y-46092618D01*
X43030713Y-46054522D01*
X42954522Y-46016427D01*
X42802141Y-45978332D01*
X42611665Y-45978332D01*
X42459284Y-46016427D01*
X42383094Y-46054522D01*
X42344999Y-46092618D01*
X42306903Y-46168808D01*
X45397619Y-55811904D02*
X45130952Y-56611904D01*
X44864285Y-55811904D01*
X44635714Y-56383333D02*
X44254761Y-56383333D01*
X44711904Y-56611904D02*
X44445238Y-55811904D01*
X44178571Y-56611904D01*
X43530952Y-56611904D02*
X43911904Y-56611904D01*
X43911904Y-55811904D01*
X43378571Y-55811904D02*
X43111904Y-56611904D01*
X42845238Y-55811904D01*
X42578571Y-56192857D02*
X42311904Y-56192857D01*
X42197619Y-56611904D02*
X42578571Y-56611904D01*
X42578571Y-55811904D01*
X42197619Y-55811904D01*
X42045238Y-56688095D02*
X41435714Y-56688095D01*
X41016666Y-55811904D02*
X41016666Y-56383333D01*
X41054761Y-56497619D01*
X41130952Y-56573809D01*
X41245238Y-56611904D01*
X41321428Y-56611904D01*
X40635714Y-56611904D02*
X40635714Y-55811904D01*
X40330952Y-55811904D01*
X40254761Y-55850000D01*
X40216666Y-55888095D01*
X40178571Y-55964285D01*
X40178571Y-56078571D01*
X40216666Y-56154761D01*
X40254761Y-56192857D01*
X40330952Y-56230952D01*
X40635714Y-56230952D01*
X65911904Y-121628571D02*
X65911904Y-121704761D01*
X65950000Y-121780952D01*
X65988095Y-121819047D01*
X66064285Y-121857142D01*
X66216666Y-121895238D01*
X66407142Y-121895238D01*
X66559523Y-121857142D01*
X66635714Y-121819047D01*
X66673809Y-121780952D01*
X66711904Y-121704761D01*
X66711904Y-121628571D01*
X66673809Y-121552380D01*
X66635714Y-121514285D01*
X66559523Y-121476190D01*
X66407142Y-121438095D01*
X66216666Y-121438095D01*
X66064285Y-121476190D01*
X65988095Y-121514285D01*
X65950000Y-121552380D01*
X65911904Y-121628571D01*
X66635714Y-122238095D02*
X66673809Y-122276190D01*
X66711904Y-122238095D01*
X66673809Y-122200000D01*
X66635714Y-122238095D01*
X66711904Y-122238095D01*
X66711904Y-123038095D02*
X66711904Y-122580952D01*
X66711904Y-122809523D02*
X65911904Y-122809523D01*
X66026190Y-122733333D01*
X66102380Y-122657142D01*
X66140476Y-122580952D01*
X66178571Y-123723809D02*
X66711904Y-123723809D01*
X66178571Y-123380952D02*
X66597619Y-123380952D01*
X66673809Y-123419047D01*
X66711904Y-123495238D01*
X66711904Y-123609523D01*
X66673809Y-123685714D01*
X66635714Y-123723809D01*
X82711904Y-125216666D02*
X82711904Y-124759523D01*
X82711904Y-124988095D02*
X81911904Y-124988095D01*
X82026190Y-124911904D01*
X82102380Y-124835714D01*
X82140476Y-124759523D01*
X82178571Y-125902380D02*
X82711904Y-125902380D01*
X82178571Y-125559523D02*
X82597619Y-125559523D01*
X82673809Y-125597619D01*
X82711904Y-125673809D01*
X82711904Y-125788095D01*
X82673809Y-125864285D01*
X82635714Y-125902380D01*
X72551904Y-114398571D02*
X72551904Y-114474761D01*
X72590000Y-114550952D01*
X72628095Y-114589047D01*
X72704285Y-114627142D01*
X72856666Y-114665238D01*
X73047142Y-114665238D01*
X73199523Y-114627142D01*
X73275714Y-114589047D01*
X73313809Y-114550952D01*
X73351904Y-114474761D01*
X73351904Y-114398571D01*
X73313809Y-114322380D01*
X73275714Y-114284285D01*
X73199523Y-114246190D01*
X73047142Y-114208095D01*
X72856666Y-114208095D01*
X72704285Y-114246190D01*
X72628095Y-114284285D01*
X72590000Y-114322380D01*
X72551904Y-114398571D01*
X73275714Y-115008095D02*
X73313809Y-115046190D01*
X73351904Y-115008095D01*
X73313809Y-114970000D01*
X73275714Y-115008095D01*
X73351904Y-115008095D01*
X73351904Y-115808095D02*
X73351904Y-115350952D01*
X73351904Y-115579523D02*
X72551904Y-115579523D01*
X72666190Y-115503333D01*
X72742380Y-115427142D01*
X72780476Y-115350952D01*
X72818571Y-116493809D02*
X73351904Y-116493809D01*
X72818571Y-116150952D02*
X73237619Y-116150952D01*
X73313809Y-116189047D01*
X73351904Y-116265238D01*
X73351904Y-116379523D01*
X73313809Y-116455714D01*
X73275714Y-116493809D01*
X78221428Y-133111904D02*
X78145238Y-133111904D01*
X78069047Y-133150000D01*
X78030952Y-133188095D01*
X77992857Y-133264285D01*
X77954761Y-133416666D01*
X77954761Y-133607142D01*
X77992857Y-133759523D01*
X78030952Y-133835714D01*
X78069047Y-133873809D01*
X78145238Y-133911904D01*
X78221428Y-133911904D01*
X78297619Y-133873809D01*
X78335714Y-133835714D01*
X78373809Y-133759523D01*
X78411904Y-133607142D01*
X78411904Y-133416666D01*
X78373809Y-133264285D01*
X78335714Y-133188095D01*
X78297619Y-133150000D01*
X78221428Y-133111904D01*
X77611904Y-133835714D02*
X77573809Y-133873809D01*
X77611904Y-133911904D01*
X77650000Y-133873809D01*
X77611904Y-133835714D01*
X77611904Y-133911904D01*
X76811904Y-133911904D02*
X77269047Y-133911904D01*
X77040476Y-133911904D02*
X77040476Y-133111904D01*
X77116666Y-133226190D01*
X77192857Y-133302380D01*
X77269047Y-133340476D01*
X76126190Y-133378571D02*
X76126190Y-133911904D01*
X76469047Y-133378571D02*
X76469047Y-133797619D01*
X76430952Y-133873809D01*
X76354761Y-133911904D01*
X76240476Y-133911904D01*
X76164285Y-133873809D01*
X76126190Y-133835714D01*
X75926190Y-135361904D02*
X76383333Y-135361904D01*
X76154761Y-135361904D02*
X76154761Y-134561904D01*
X76230952Y-134676190D01*
X76307142Y-134752380D01*
X76383333Y-134790476D01*
X75430952Y-134561904D02*
X75354761Y-134561904D01*
X75278571Y-134600000D01*
X75240476Y-134638095D01*
X75202380Y-134714285D01*
X75164285Y-134866666D01*
X75164285Y-135057142D01*
X75202380Y-135209523D01*
X75240476Y-135285714D01*
X75278571Y-135323809D01*
X75354761Y-135361904D01*
X75430952Y-135361904D01*
X75507142Y-135323809D01*
X75545238Y-135285714D01*
X75583333Y-135209523D01*
X75621428Y-135057142D01*
X75621428Y-134866666D01*
X75583333Y-134714285D01*
X75545238Y-134638095D01*
X75507142Y-134600000D01*
X75430952Y-134561904D01*
X74821428Y-135361904D02*
X74821428Y-134561904D01*
X74745238Y-135057142D02*
X74516666Y-135361904D01*
X74516666Y-134828571D02*
X74821428Y-135133333D01*
X88278571Y-130811904D02*
X87783333Y-130811904D01*
X88050000Y-131116666D01*
X87935714Y-131116666D01*
X87859523Y-131154761D01*
X87821428Y-131192857D01*
X87783333Y-131269047D01*
X87783333Y-131459523D01*
X87821428Y-131535714D01*
X87859523Y-131573809D01*
X87935714Y-131611904D01*
X88164285Y-131611904D01*
X88240476Y-131573809D01*
X88278571Y-131535714D01*
X87516666Y-130811904D02*
X87021428Y-130811904D01*
X87288095Y-131116666D01*
X87173809Y-131116666D01*
X87097619Y-131154761D01*
X87059523Y-131192857D01*
X87021428Y-131269047D01*
X87021428Y-131459523D01*
X87059523Y-131535714D01*
X87097619Y-131573809D01*
X87173809Y-131611904D01*
X87402380Y-131611904D01*
X87478571Y-131573809D01*
X87516666Y-131535714D01*
X86526190Y-130811904D02*
X86450000Y-130811904D01*
X86373809Y-130850000D01*
X86335714Y-130888095D01*
X86297619Y-130964285D01*
X86259523Y-131116666D01*
X86259523Y-131307142D01*
X86297619Y-131459523D01*
X86335714Y-131535714D01*
X86373809Y-131573809D01*
X86450000Y-131611904D01*
X86526190Y-131611904D01*
X86602380Y-131573809D01*
X86640476Y-131535714D01*
X86678571Y-131459523D01*
X86716666Y-131307142D01*
X86716666Y-131116666D01*
X86678571Y-130964285D01*
X86640476Y-130888095D01*
X86602380Y-130850000D01*
X86526190Y-130811904D01*
X88278571Y-132311904D02*
X87783333Y-132311904D01*
X88050000Y-132616666D01*
X87935714Y-132616666D01*
X87859523Y-132654761D01*
X87821428Y-132692857D01*
X87783333Y-132769047D01*
X87783333Y-132959523D01*
X87821428Y-133035714D01*
X87859523Y-133073809D01*
X87935714Y-133111904D01*
X88164285Y-133111904D01*
X88240476Y-133073809D01*
X88278571Y-133035714D01*
X87516666Y-132311904D02*
X87021428Y-132311904D01*
X87288095Y-132616666D01*
X87173809Y-132616666D01*
X87097619Y-132654761D01*
X87059523Y-132692857D01*
X87021428Y-132769047D01*
X87021428Y-132959523D01*
X87059523Y-133035714D01*
X87097619Y-133073809D01*
X87173809Y-133111904D01*
X87402380Y-133111904D01*
X87478571Y-133073809D01*
X87516666Y-133035714D01*
X86526190Y-132311904D02*
X86450000Y-132311904D01*
X86373809Y-132350000D01*
X86335714Y-132388095D01*
X86297619Y-132464285D01*
X86259523Y-132616666D01*
X86259523Y-132807142D01*
X86297619Y-132959523D01*
X86335714Y-133035714D01*
X86373809Y-133073809D01*
X86450000Y-133111904D01*
X86526190Y-133111904D01*
X86602380Y-133073809D01*
X86640476Y-133035714D01*
X86678571Y-132959523D01*
X86716666Y-132807142D01*
X86716666Y-132616666D01*
X86678571Y-132464285D01*
X86640476Y-132388095D01*
X86602380Y-132350000D01*
X86526190Y-132311904D01*
X78714285Y-126411904D02*
X78714285Y-125611904D01*
X78409523Y-125611904D01*
X78333333Y-125650000D01*
X78295238Y-125688095D01*
X78257142Y-125764285D01*
X78257142Y-125878571D01*
X78295238Y-125954761D01*
X78333333Y-125992857D01*
X78409523Y-126030952D01*
X78714285Y-126030952D01*
X77914285Y-126411904D02*
X77914285Y-125611904D01*
X77076190Y-126335714D02*
X77114285Y-126373809D01*
X77228571Y-126411904D01*
X77304761Y-126411904D01*
X77419047Y-126373809D01*
X77495238Y-126297619D01*
X77533333Y-126221428D01*
X77571428Y-126069047D01*
X77571428Y-125954761D01*
X77533333Y-125802380D01*
X77495238Y-125726190D01*
X77419047Y-125650000D01*
X77304761Y-125611904D01*
X77228571Y-125611904D01*
X77114285Y-125650000D01*
X77076190Y-125688095D01*
X76771428Y-125688095D02*
X76733333Y-125650000D01*
X76657142Y-125611904D01*
X76466666Y-125611904D01*
X76390476Y-125650000D01*
X76352380Y-125688095D01*
X76314285Y-125764285D01*
X76314285Y-125840476D01*
X76352380Y-125954761D01*
X76809523Y-126411904D01*
X76314285Y-126411904D01*
X75628571Y-125878571D02*
X75628571Y-126411904D01*
X75819047Y-125573809D02*
X76009523Y-126145238D01*
X75514285Y-126145238D01*
X74942857Y-125992857D02*
X75209523Y-125992857D01*
X75209523Y-126411904D02*
X75209523Y-125611904D01*
X74828571Y-125611904D01*
X74295238Y-125611904D02*
X74295238Y-126183333D01*
X74333333Y-126297619D01*
X74409523Y-126373809D01*
X74523809Y-126411904D01*
X74600000Y-126411904D01*
X73990476Y-125611904D02*
X73495238Y-125611904D01*
X73761904Y-125916666D01*
X73647619Y-125916666D01*
X73571428Y-125954761D01*
X73533333Y-125992857D01*
X73495238Y-126069047D01*
X73495238Y-126259523D01*
X73533333Y-126335714D01*
X73571428Y-126373809D01*
X73647619Y-126411904D01*
X73876190Y-126411904D01*
X73952380Y-126373809D01*
X73990476Y-126335714D01*
X73190476Y-125688095D02*
X73152380Y-125650000D01*
X73076190Y-125611904D01*
X72885714Y-125611904D01*
X72809523Y-125650000D01*
X72771428Y-125688095D01*
X72733333Y-125764285D01*
X72733333Y-125840476D01*
X72771428Y-125954761D01*
X73228571Y-126411904D01*
X72733333Y-126411904D01*
X71971428Y-125650000D02*
X72047619Y-125611904D01*
X72161904Y-125611904D01*
X72276190Y-125650000D01*
X72352380Y-125726190D01*
X72390476Y-125802380D01*
X72428571Y-125954761D01*
X72428571Y-126069047D01*
X72390476Y-126221428D01*
X72352380Y-126297619D01*
X72276190Y-126373809D01*
X72161904Y-126411904D01*
X72085714Y-126411904D01*
X71971428Y-126373809D01*
X71933333Y-126335714D01*
X71933333Y-126069047D01*
X72085714Y-126069047D01*
X71323809Y-125992857D02*
X71209523Y-126030952D01*
X71171428Y-126069047D01*
X71133333Y-126145238D01*
X71133333Y-126259523D01*
X71171428Y-126335714D01*
X71209523Y-126373809D01*
X71285714Y-126411904D01*
X71590476Y-126411904D01*
X71590476Y-125611904D01*
X71323809Y-125611904D01*
X71247619Y-125650000D01*
X71209523Y-125688095D01*
X71171428Y-125764285D01*
X71171428Y-125840476D01*
X71209523Y-125916666D01*
X71247619Y-125954761D01*
X71323809Y-125992857D01*
X71590476Y-125992857D01*
X70638095Y-125611904D02*
X70561904Y-125611904D01*
X70485714Y-125650000D01*
X70447619Y-125688095D01*
X70409523Y-125764285D01*
X70371428Y-125916666D01*
X70371428Y-126107142D01*
X70409523Y-126259523D01*
X70447619Y-126335714D01*
X70485714Y-126373809D01*
X70561904Y-126411904D01*
X70638095Y-126411904D01*
X70714285Y-126373809D01*
X70752380Y-126335714D01*
X70790476Y-126259523D01*
X70828571Y-126107142D01*
X70828571Y-125916666D01*
X70790476Y-125764285D01*
X70752380Y-125688095D01*
X70714285Y-125650000D01*
X70638095Y-125611904D01*
X69876190Y-125611904D02*
X69800000Y-125611904D01*
X69723809Y-125650000D01*
X69685714Y-125688095D01*
X69647619Y-125764285D01*
X69609523Y-125916666D01*
X69609523Y-126107142D01*
X69647619Y-126259523D01*
X69685714Y-126335714D01*
X69723809Y-126373809D01*
X69800000Y-126411904D01*
X69876190Y-126411904D01*
X69952380Y-126373809D01*
X69990476Y-126335714D01*
X70028571Y-126259523D01*
X70066666Y-126107142D01*
X70066666Y-125916666D01*
X70028571Y-125764285D01*
X69990476Y-125688095D01*
X69952380Y-125650000D01*
X69876190Y-125611904D01*
X68923809Y-125878571D02*
X68923809Y-126411904D01*
X69114285Y-125573809D02*
X69304761Y-126145238D01*
X68809523Y-126145238D01*
X79061904Y-119423809D02*
X79061904Y-118966666D01*
X79061904Y-119195238D02*
X78261904Y-119195238D01*
X78376190Y-119119047D01*
X78452380Y-119042857D01*
X78490476Y-118966666D01*
X78261904Y-119919047D02*
X78261904Y-119995238D01*
X78300000Y-120071428D01*
X78338095Y-120109523D01*
X78414285Y-120147619D01*
X78566666Y-120185714D01*
X78757142Y-120185714D01*
X78909523Y-120147619D01*
X78985714Y-120109523D01*
X79023809Y-120071428D01*
X79061904Y-119995238D01*
X79061904Y-119919047D01*
X79023809Y-119842857D01*
X78985714Y-119804761D01*
X78909523Y-119766666D01*
X78757142Y-119728571D01*
X78566666Y-119728571D01*
X78414285Y-119766666D01*
X78338095Y-119804761D01*
X78300000Y-119842857D01*
X78261904Y-119919047D01*
X79061904Y-120528571D02*
X78261904Y-120528571D01*
X78757142Y-120604761D02*
X79061904Y-120833333D01*
X78528571Y-120833333D02*
X78833333Y-120528571D01*
X52311904Y-103623809D02*
X52311904Y-103166666D01*
X52311904Y-103395238D02*
X51511904Y-103395238D01*
X51626190Y-103319047D01*
X51702380Y-103242857D01*
X51740476Y-103166666D01*
X51511904Y-104119047D02*
X51511904Y-104195238D01*
X51550000Y-104271428D01*
X51588095Y-104309523D01*
X51664285Y-104347619D01*
X51816666Y-104385714D01*
X52007142Y-104385714D01*
X52159523Y-104347619D01*
X52235714Y-104309523D01*
X52273809Y-104271428D01*
X52311904Y-104195238D01*
X52311904Y-104119047D01*
X52273809Y-104042857D01*
X52235714Y-104004761D01*
X52159523Y-103966666D01*
X52007142Y-103928571D01*
X51816666Y-103928571D01*
X51664285Y-103966666D01*
X51588095Y-104004761D01*
X51550000Y-104042857D01*
X51511904Y-104119047D01*
X52311904Y-104728571D02*
X51511904Y-104728571D01*
X52007142Y-104804761D02*
X52311904Y-105033333D01*
X51778571Y-105033333D02*
X52083333Y-104728571D01*
X58011904Y-103623809D02*
X58011904Y-103166666D01*
X58011904Y-103395238D02*
X57211904Y-103395238D01*
X57326190Y-103319047D01*
X57402380Y-103242857D01*
X57440476Y-103166666D01*
X57211904Y-104119047D02*
X57211904Y-104195238D01*
X57250000Y-104271428D01*
X57288095Y-104309523D01*
X57364285Y-104347619D01*
X57516666Y-104385714D01*
X57707142Y-104385714D01*
X57859523Y-104347619D01*
X57935714Y-104309523D01*
X57973809Y-104271428D01*
X58011904Y-104195238D01*
X58011904Y-104119047D01*
X57973809Y-104042857D01*
X57935714Y-104004761D01*
X57859523Y-103966666D01*
X57707142Y-103928571D01*
X57516666Y-103928571D01*
X57364285Y-103966666D01*
X57288095Y-104004761D01*
X57250000Y-104042857D01*
X57211904Y-104119047D01*
X58011904Y-104728571D02*
X57211904Y-104728571D01*
X57707142Y-104804761D02*
X58011904Y-105033333D01*
X57478571Y-105033333D02*
X57783333Y-104728571D01*
X58006903Y-107223809D02*
X58006903Y-106766666D01*
X58006903Y-106995238D02*
X57206903Y-106995238D01*
X57321189Y-106919047D01*
X57397379Y-106842857D01*
X57435475Y-106766666D01*
X57206903Y-107719047D02*
X57206903Y-107795238D01*
X57244999Y-107871428D01*
X57283094Y-107909523D01*
X57359284Y-107947619D01*
X57511665Y-107985714D01*
X57702141Y-107985714D01*
X57854522Y-107947619D01*
X57930713Y-107909523D01*
X57968808Y-107871428D01*
X58006903Y-107795238D01*
X58006903Y-107719047D01*
X57968808Y-107642857D01*
X57930713Y-107604761D01*
X57854522Y-107566666D01*
X57702141Y-107528571D01*
X57511665Y-107528571D01*
X57359284Y-107566666D01*
X57283094Y-107604761D01*
X57244999Y-107642857D01*
X57206903Y-107719047D01*
X58006903Y-108328571D02*
X57206903Y-108328571D01*
X57702141Y-108404761D02*
X58006903Y-108633333D01*
X57473570Y-108633333D02*
X57778332Y-108328571D01*
X52261904Y-107273809D02*
X52261904Y-106816666D01*
X52261904Y-107045238D02*
X51461904Y-107045238D01*
X51576190Y-106969047D01*
X51652380Y-106892857D01*
X51690476Y-106816666D01*
X51461904Y-107769047D02*
X51461904Y-107845238D01*
X51500000Y-107921428D01*
X51538095Y-107959523D01*
X51614285Y-107997619D01*
X51766666Y-108035714D01*
X51957142Y-108035714D01*
X52109523Y-107997619D01*
X52185714Y-107959523D01*
X52223809Y-107921428D01*
X52261904Y-107845238D01*
X52261904Y-107769047D01*
X52223809Y-107692857D01*
X52185714Y-107654761D01*
X52109523Y-107616666D01*
X51957142Y-107578571D01*
X51766666Y-107578571D01*
X51614285Y-107616666D01*
X51538095Y-107654761D01*
X51500000Y-107692857D01*
X51461904Y-107769047D01*
X52261904Y-108378571D02*
X51461904Y-108378571D01*
X51957142Y-108454761D02*
X52261904Y-108683333D01*
X51728571Y-108683333D02*
X52033333Y-108378571D01*
M02*
