M48
; DRILL file {KiCad (5.1.4)-1} date 2019/12/17 13:06:04
; FORMAT={-:-/ absolute / metric / decimal}
; #@! TF.CreationDate,2019-12-17T13:06:04+09:00
; #@! TF.GenerationSoftware,Kicad,Pcbnew,(5.1.4)-1
; #@! TF.FileFunction,Plated,1,2,PTH
FMAT,2
METRIC
T1C0.300
T2C0.400
T3C0.600
T4C0.700
T5C0.762
T6C0.800
T7C0.813
T8C0.900
T9C0.920
T10C1.000
T11C1.200
T12C1.350
T13C1.400
T14C1.500
T15C2.500
T16C2.540
T17C3.000
T18C4.500
%
G90
G05
T1
X43.59Y-118.1
X43.841Y-107.45
X44.34Y-117.83
X44.408Y-119.947
X45.035Y-119.585
X45.061Y-107.142
X45.23Y-102.39
X45.68Y-101.754
X46.007Y-104.523
X46.495Y-133.035
X46.724Y-104.426
X46.785Y-101.12
X47.325Y-103.36
X47.325Y-104.06
X47.95Y-61.55
X47.95Y-99.69
X48.47Y-92.18
X48.616Y-99.475
X48.8Y-98.12
X48.91Y-93.4
X48.96Y-110.41
X49.3Y-71.45
X49.45Y-65.85
X49.68Y-107.04
X49.71Y-105.65
X49.8Y-68.7
X49.8Y-69.8
X49.89Y-74.61
X50.05Y-63.9
X50.105Y-119.483
X50.17Y-89.32
X50.238Y-118.642
X50.25Y-60.0
X50.31Y-77.13
X50.335Y-97.672
X50.35Y-83.28
X50.35Y-62.7
X50.67Y-123.07
X50.675Y-121.583
X50.7Y-106.925
X50.725Y-101.175
X50.725Y-103.325
X50.96Y-99.75
X50.97Y-96.9
X50.971Y-91.921
X51.15Y-111.0
X51.15Y-116.75
X51.21Y-88.49
X51.21Y-121.0
X51.52Y-123.08
X51.6Y-49.012
X51.625Y-101.86
X51.64Y-97.55
X51.725Y-111.955
X52.042Y-121.518
X52.083Y-88.643
X52.22Y-120.37
X52.3Y-111.35
X52.66Y-106.33
X52.72Y-122.15
X52.8Y-131.588
X52.965Y-100.904
X53.15Y-99.9
X53.34Y-106.74
X53.6Y-114.41
X53.737Y-107.345
X53.78Y-130.81
X53.86Y-122.11
X54.339Y-105.592
X54.412Y-66.9
X54.412Y-69.75
X54.438Y-66.9
X54.438Y-68.35
X54.55Y-79.3
X54.62Y-102.49
X54.925Y-106.15
X55.468Y-82.673
X55.54Y-105.7
X55.55Y-69.5
X56.425Y-106.925
X56.45Y-103.325
X56.52Y-115.37
X56.76Y-98.43
X57.057Y-82.057
X57.11Y-102.05
X57.239Y-91.519
X57.3Y-130.35
X57.466Y-98.311
X57.54Y-105.43
X57.573Y-83.468
X57.65Y-101.508
X57.715Y-82.653
X57.79Y-84.711
X57.808Y-97.701
X58.02Y-74.276
X58.05Y-120.712
X58.057Y-81.357
X58.309Y-84.208
X58.42Y-74.851
X58.457Y-91.677
X58.59Y-92.42
X58.63Y-93.21
X58.67Y-99.46
X58.93Y-75.33
X59.0Y-131.4
X59.057Y-80.057
X59.11Y-94.845
X59.32Y-124.275
X59.65Y-82.36
X59.86Y-80.99
X59.932Y-83.032
X60.009Y-94.772
X60.02Y-86.63
X60.062Y-83.719
X60.374Y-87.234
X60.59Y-124.275
X60.627Y-71.13
X60.735Y-70.425
X61.04Y-80.46
X61.12Y-72.292
X61.15Y-77.85
X61.53Y-88.47
X61.57Y-72.93
X61.577Y-93.507
X61.71Y-105.75
X61.72Y-103.77
X62.028Y-71.717
X62.125Y-92.99
X62.23Y-121.461
X62.58Y-84.995
X62.59Y-107.075
X62.8Y-75.9
X62.93Y-121.44
X63.18Y-106.5
X63.507Y-90.007
X64.05Y-133.162
X64.05Y-134.737
X64.538Y-91.942
X64.75Y-74.2
X65.35Y-75.5
X65.35Y-76.2
X65.8Y-133.162
X66.23Y-81.172
X66.805Y-80.525
X67.018Y-118.878
X67.396Y-81.78
X67.82Y-118.89
X67.983Y-93.967
X68.138Y-58.7
X68.71Y-94.12
X69.515Y-94.085
X69.741Y-95.301
X69.76Y-86.448
X69.89Y-72.79
X70.06Y-92.18
X70.728Y-84.745
X70.841Y-85.445
X70.88Y-98.78
X70.9Y-129.6
X70.95Y-130.45
X70.99Y-100.96
X71.032Y-99.51
X71.032Y-100.22
X71.487Y-118.825
X72.08Y-92.19
X72.31Y-133.01
X72.488Y-94.726
X72.51Y-92.825
X72.635Y-98.19
X72.65Y-77.95
X72.758Y-94.08
X73.0Y-134.213
X73.05Y-77.2
X73.118Y-83.137
X73.4Y-70.562
X73.52Y-97.87
X73.82Y-103.86
X74.607Y-103.833
X74.726Y-87.261
X74.78Y-134.53
X75.16Y-86.686
X75.2Y-93.8
X75.2Y-94.5
X75.272Y-103.445
X75.826Y-102.87
X76.35Y-94.15
X76.46Y-79.82
X76.65Y-89.312
X77.24Y-79.57
X77.45Y-94.08
X77.933Y-79.293
X77.95Y-89.46
X78.064Y-93.45
X78.263Y-64.6
X78.45Y-90.09
X78.5Y-91.05
X78.68Y-86.905
X78.724Y-93.157
X79.26Y-86.4
X79.31Y-95.2
X79.318Y-97.399
X79.65Y-133.625
X79.669Y-85.832
X79.95Y-120.688
X79.96Y-97.12
X79.973Y-95.426
X80.244Y-85.331
X80.25Y-133.05
X80.251Y-102.938
X80.52Y-78.728
X80.66Y-97.12
X80.662Y-95.55
X80.746Y-102.443
X81.162Y-85.75
X81.36Y-97.12
X81.362Y-95.55
X81.7Y-75.6
X81.72Y-76.84
X81.94Y-99.1
X82.0Y-86.6
X82.063Y-77.523
X82.07Y-125.38
X82.143Y-95.55
X82.15Y-76.175
X82.417Y-99.793
X82.544Y-117.936
X82.575Y-78.81
X82.718Y-118.614
X82.89Y-95.55
X83.045Y-117.15
X83.328Y-77.486
X83.59Y-95.55
X83.712Y-131.25
X84.1Y-105.23
X84.18Y-96.13
X84.7Y-110.555
X84.805Y-104.065
X84.84Y-109.13
X84.99Y-97.38
X85.018Y-103.058
X85.45Y-108.65
X85.75Y-117.54
X85.78Y-116.25
X85.84Y-95.19
X85.962Y-67.0
X86.688Y-60.75
X91.8Y-75.575
X91.8Y-76.845
X91.8Y-78.115
X91.8Y-79.385
X91.8Y-80.655
X91.8Y-81.925
X91.8Y-111.825
X91.8Y-113.095
X91.8Y-114.365
X91.8Y-115.635
X91.8Y-116.905
X91.8Y-118.175
X92.075Y-73.375
X93.037Y-134.25
X93.037Y-137.0
X93.5Y-74.287
X97.587Y-68.45
X100.762Y-46.05
X102.212Y-122.85
X102.312Y-116.65
X102.375Y-121.565
X102.375Y-127.715
X102.375Y-133.865
X102.425Y-66.065
X102.425Y-70.945
X102.425Y-72.215
X102.425Y-77.145
X102.425Y-78.415
X102.425Y-84.565
X102.425Y-90.715
X102.425Y-96.865
X102.425Y-103.015
X102.425Y-109.215
X102.425Y-115.415
X102.462Y-44.1
X102.462Y-129.0
X102.512Y-85.85
X102.512Y-92.0
X102.512Y-98.2
X102.512Y-104.25
X102.512Y-110.5
X102.512Y-135.15
X102.562Y-67.3
X102.562Y-79.7
X102.662Y-73.5
X102.8Y-49.2
X102.938Y-47.35
X103.812Y-120.4
X103.862Y-114.25
X104.062Y-126.6
X104.062Y-132.75
X104.112Y-64.9
X104.112Y-77.25
X104.112Y-83.4
X104.112Y-89.55
X104.112Y-95.7
X104.112Y-101.85
X104.112Y-108.05
X104.212Y-71.05
X107.325Y-120.295
X107.325Y-121.565
X107.325Y-124.105
X107.325Y-126.445
X107.325Y-127.715
X107.325Y-130.255
X107.325Y-132.595
X107.325Y-133.865
X107.325Y-136.405
X107.375Y-64.795
X107.375Y-66.065
X107.375Y-68.605
X107.375Y-70.945
X107.375Y-72.215
X107.375Y-74.755
X107.375Y-77.145
X107.375Y-78.415
X107.375Y-80.955
X107.375Y-83.295
X107.375Y-84.565
X107.375Y-87.105
X107.375Y-89.445
X107.375Y-90.715
X107.375Y-93.255
X107.375Y-95.595
X107.375Y-96.865
X107.375Y-99.405
X107.375Y-101.745
X107.375Y-103.015
X107.375Y-105.555
X107.375Y-107.945
X107.375Y-109.215
X107.375Y-111.755
X107.375Y-114.145
X107.375Y-115.415
X107.375Y-117.955
X109.2Y-122.487
X109.2Y-128.637
X109.2Y-134.787
X109.25Y-66.987
X109.25Y-73.138
X109.25Y-79.388
X109.25Y-85.487
X109.25Y-91.638
X109.25Y-97.787
X109.25Y-103.938
X109.25Y-110.137
X109.25Y-116.387
X113.205Y-64.895
X113.45Y-70.45
X113.45Y-76.7
X113.45Y-82.7
X113.45Y-107.4
X113.45Y-119.75
X113.45Y-125.95
X113.45Y-132.05
X113.708Y-64.895
X113.708Y-66.165
X113.708Y-68.705
X113.708Y-70.895
X113.708Y-72.165
X113.708Y-74.705
X113.708Y-77.145
X113.708Y-78.415
X113.708Y-80.955
X113.708Y-83.145
X113.708Y-84.415
X113.708Y-86.955
X113.708Y-90.665
X113.708Y-93.205
X113.708Y-96.665
X113.708Y-99.205
X113.708Y-102.915
X113.708Y-105.455
X113.708Y-107.845
X113.708Y-109.115
X113.708Y-111.655
X113.708Y-115.315
X113.708Y-117.855
X113.708Y-120.195
X113.708Y-121.465
X113.708Y-124.005
X113.708Y-126.395
X113.708Y-127.665
X113.708Y-130.205
X113.708Y-132.495
X113.708Y-133.765
X113.708Y-136.305
X113.95Y-70.45
X113.95Y-76.7
X113.95Y-82.7
X113.95Y-107.4
X113.95Y-119.75
X113.95Y-125.95
X113.95Y-132.05
X114.2Y-64.9
X114.2Y-70.9
X114.2Y-77.15
X114.2Y-83.15
X114.2Y-107.85
X114.2Y-120.2
X114.2Y-126.4
X114.2Y-132.5
T2
X36.75Y-129.5
X36.75Y-131.75
X37.2Y-114.262
X37.2Y-126.762
X38.5Y-118.25
X38.5Y-120.0
X40.0Y-118.25
X40.0Y-120.0
X40.288Y-79.6
X41.25Y-132.0
X41.55Y-57.75
X41.75Y-61.5
X41.75Y-63.75
X41.75Y-66.5
X41.75Y-69.0
X41.75Y-71.5
X41.75Y-74.0
X41.75Y-76.5
X41.75Y-83.5
X41.75Y-85.75
X41.75Y-88.25
X41.75Y-91.0
X41.75Y-93.5
X41.75Y-96.0
X41.75Y-98.5
X41.75Y-101.0
X42.5Y-137.25
X42.7Y-134.8
X42.887Y-107.9
X42.887Y-113.15
X42.887Y-125.6
X42.938Y-120.35
X42.996Y-126.75
X43.15Y-48.75
X44.055Y-105.9
X44.75Y-83.5
X44.75Y-85.75
X45.25Y-132.0
X46.3Y-80.18
X47.5Y-44.9
X47.95Y-49.887
X48.29Y-135.64
X49.287Y-125.35
X49.287Y-130.65
X49.337Y-112.85
X49.387Y-118.15
X50.67Y-72.97
X53.71Y-82.07
X54.38Y-133.5
X54.6Y-126.2
X54.75Y-137.0
X55.3Y-64.8
X55.88Y-121.66
X55.987Y-68.35
X57.7Y-66.0
X57.8Y-127.65
X58.15Y-63.8
X58.5Y-137.0
X59.49Y-73.43
X60.0Y-65.812
X60.385Y-127.05
X60.75Y-55.362
X62.25Y-137.0
X62.45Y-133.35
X63.548Y-64.444
X63.55Y-77.01
X64.77Y-104.99
X64.92Y-72.03
X66.0Y-137.0
X67.0Y-134.0
X67.388Y-105.0
X68.5Y-132.75
X68.75Y-137.0
X68.793Y-72.743
X69.75Y-127.0
X70.47Y-123.08
X70.75Y-125.0
X72.5Y-137.0
X72.75Y-127.25
X72.75Y-130.25
X72.95Y-69.15
X74.015Y-123.085
X74.75Y-127.25
X75.0Y-130.25
X75.66Y-80.69
X76.2Y-123.4
X76.25Y-137.0
X76.65Y-90.888
X76.764Y-93.186
X77.0Y-83.76
X77.24Y-96.42
X77.75Y-130.25
X78.0Y-125.5
X78.13Y-117.6
X78.864Y-120.133
X79.5Y-132.25
X79.5Y-134.55
X79.5Y-137.0
X82.5Y-134.5
X82.5Y-137.0
X82.65Y-132.1
X82.873Y-119.45
X83.0Y-74.287
X84.65Y-101.6
X85.5Y-134.5
X85.5Y-137.0
X87.537Y-65.5
X99.064Y-66.925
X107.55Y-49.6
X110.0Y-49.6
X113.35Y-113.65
X113.5Y-89.05
X113.5Y-101.2
X113.55Y-94.95
X113.75Y-114.15
X113.9Y-89.5
X113.9Y-101.75
X113.95Y-95.45
X114.15Y-113.65
X114.3Y-89.05
X114.3Y-101.2
X114.35Y-94.95
X115.5Y-67.4
X115.5Y-68.2
X115.5Y-69.0
X115.5Y-73.4
X115.5Y-74.2
X115.5Y-75.0
X115.55Y-79.75
X115.55Y-80.55
X115.55Y-81.35
X115.55Y-85.75
X115.55Y-86.55
X115.55Y-87.35
X115.55Y-92.05
X115.55Y-92.85
X115.55Y-93.65
X115.6Y-98.0
X115.6Y-98.8
X115.6Y-99.6
X115.6Y-104.1
X115.6Y-104.9
X115.6Y-105.7
X115.6Y-110.25
X115.6Y-111.05
X115.6Y-111.85
X115.6Y-116.45
X115.6Y-117.25
X115.6Y-118.05
X115.6Y-122.55
X115.6Y-123.35
X115.6Y-124.15
X115.6Y-128.75
X115.6Y-129.55
X115.6Y-130.35
X115.6Y-134.9
X115.6Y-135.7
X115.6Y-136.5
X116.3Y-67.4
X116.3Y-68.2
X116.3Y-69.0
X116.3Y-73.4
X116.3Y-74.2
X116.3Y-75.0
X116.35Y-79.75
X116.35Y-80.55
X116.35Y-81.35
X116.35Y-85.75
X116.35Y-86.55
X116.35Y-87.35
X116.35Y-92.05
X116.35Y-92.85
X116.35Y-93.65
X116.4Y-98.0
X116.4Y-98.8
X116.4Y-99.6
X116.4Y-104.1
X116.4Y-104.9
X116.4Y-105.7
X116.4Y-110.25
X116.4Y-111.05
X116.4Y-111.85
X116.4Y-116.45
X116.4Y-117.25
X116.4Y-118.05
X116.4Y-122.55
X116.4Y-123.35
X116.4Y-124.15
X116.4Y-128.75
X116.4Y-129.55
X116.4Y-130.35
X116.4Y-134.9
X116.4Y-135.7
X116.4Y-136.5
X117.1Y-67.4
X117.1Y-68.2
X117.1Y-69.0
X117.1Y-73.4
X117.1Y-74.2
X117.1Y-75.0
X117.15Y-79.75
X117.15Y-80.55
X117.15Y-81.35
X117.15Y-85.75
X117.15Y-86.55
X117.15Y-87.35
X117.15Y-92.05
X117.15Y-92.85
X117.15Y-93.65
X117.2Y-98.0
X117.2Y-98.8
X117.2Y-99.6
X117.2Y-104.1
X117.2Y-104.85
X117.2Y-105.65
X117.2Y-110.25
X117.2Y-111.05
X117.2Y-111.85
X117.2Y-116.45
X117.2Y-117.25
X117.2Y-118.05
X117.2Y-122.55
X117.2Y-123.35
X117.2Y-124.15
X117.2Y-128.75
X117.2Y-129.55
X117.2Y-130.35
X117.2Y-134.9
X117.2Y-135.7
X117.2Y-136.5
X117.9Y-67.4
X117.9Y-68.2
X117.9Y-69.0
X117.9Y-73.4
X117.9Y-74.2
X117.9Y-75.0
X117.95Y-79.75
X117.95Y-80.55
X117.95Y-81.35
X117.95Y-85.75
X117.95Y-86.55
X117.95Y-87.35
X117.95Y-92.05
X117.95Y-92.85
X117.95Y-93.65
X118.0Y-98.0
X118.0Y-98.8
X118.0Y-99.6
X118.0Y-104.1
X118.0Y-104.85
X118.0Y-105.65
X118.0Y-110.25
X118.0Y-111.05
X118.0Y-111.85
X118.0Y-116.45
X118.0Y-117.25
X118.0Y-118.05
X118.0Y-122.55
X118.0Y-123.35
X118.0Y-124.15
X118.0Y-128.75
X118.0Y-129.55
X118.0Y-130.35
X118.0Y-134.9
X118.0Y-135.7
X118.0Y-136.5
X118.7Y-67.4
X118.7Y-68.2
X118.7Y-69.0
X118.7Y-73.4
X118.7Y-74.2
X118.7Y-75.0
X118.75Y-79.75
X118.75Y-80.55
X118.75Y-81.35
X118.75Y-85.75
X118.75Y-86.55
X118.75Y-87.35
X118.75Y-92.05
X118.75Y-92.85
X118.75Y-93.65
X118.8Y-98.0
X118.8Y-98.8
X118.8Y-99.6
X118.8Y-104.1
X118.8Y-104.85
X118.8Y-105.65
X118.8Y-110.25
X118.8Y-111.05
X118.8Y-111.85
X118.8Y-116.45
X118.8Y-117.25
X118.8Y-118.05
X118.8Y-122.55
X118.8Y-123.35
X118.8Y-124.15
X118.8Y-128.75
X118.8Y-129.55
X118.8Y-130.35
X118.8Y-134.9
X118.8Y-135.7
X118.8Y-136.5
X119.5Y-67.4
X119.5Y-68.2
X119.5Y-69.0
X119.5Y-73.4
X119.5Y-74.2
X119.5Y-75.0
X119.55Y-79.75
X119.55Y-80.55
X119.55Y-81.35
X119.55Y-85.75
X119.55Y-86.55
X119.55Y-87.35
X119.55Y-92.05
X119.55Y-92.85
X119.55Y-93.65
X119.6Y-98.0
X119.6Y-98.8
X119.6Y-99.6
X119.6Y-104.05
X119.6Y-104.85
X119.6Y-105.65
X119.6Y-110.25
X119.6Y-111.05
X119.6Y-111.85
X119.6Y-116.45
X119.6Y-117.25
X119.6Y-118.05
X119.6Y-122.55
X119.6Y-123.35
X119.6Y-124.15
X119.6Y-128.75
X119.6Y-129.55
X119.6Y-130.35
X119.6Y-134.9
X119.6Y-135.7
X119.6Y-136.5
T3
X80.0Y-47.75
X80.0Y-54.5
X84.25Y-47.75
X85.0Y-54.5
X90.0Y-45.0
X90.0Y-49.5
X90.0Y-54.5
X91.0Y-66.75
X91.0Y-67.75
X91.0Y-68.75
X91.0Y-69.75
X91.0Y-70.75
X92.0Y-66.75
X92.0Y-67.75
X92.0Y-68.75
X92.0Y-69.75
X92.0Y-70.75
X93.0Y-66.75
X93.0Y-67.75
X93.0Y-68.75
X93.0Y-69.75
X93.0Y-70.75
X94.0Y-66.75
X94.0Y-67.75
X94.0Y-68.75
X94.0Y-69.75
X94.0Y-70.75
X94.0Y-71.75
X95.0Y-51.25
X95.0Y-54.5
X95.0Y-66.75
X95.0Y-67.75
X95.0Y-68.75
X95.0Y-69.75
X95.0Y-70.75
X95.0Y-71.75
X96.0Y-66.75
X96.0Y-67.75
X96.0Y-68.75
X96.0Y-69.75
X96.0Y-70.75
X96.0Y-71.75
X97.75Y-51.25
X100.0Y-54.5
X105.0Y-54.5
X128.75Y-46.0
X128.75Y-47.5
X128.75Y-49.0
X128.75Y-50.5
X128.75Y-52.0
X128.75Y-53.5
X128.75Y-55.0
X128.75Y-56.5
X128.75Y-58.0
X128.75Y-59.5
X129.5Y-45.25
X129.5Y-46.75
X129.5Y-51.25
X129.5Y-52.75
X129.5Y-54.25
X129.5Y-58.75
X130.25Y-46.0
X130.25Y-52.0
X130.25Y-53.5
X131.0Y-45.25
X131.0Y-51.25
X131.0Y-52.75
X131.0Y-54.25
X131.75Y-46.0
X131.75Y-52.0
X131.75Y-53.5
X132.5Y-45.25
X132.5Y-51.25
X132.5Y-52.75
X132.5Y-54.25
X133.25Y-46.0
X133.25Y-52.0
X133.25Y-53.5
X134.0Y-45.25
X134.0Y-46.75
X134.0Y-48.25
X134.0Y-49.75
X134.0Y-51.25
X134.0Y-52.75
X134.0Y-54.25
X134.0Y-55.75
X134.0Y-57.25
X134.0Y-58.75
X134.75Y-46.0
X134.75Y-47.5
X134.75Y-49.0
X134.75Y-50.5
X134.75Y-52.0
X134.75Y-53.5
X134.75Y-55.0
X134.75Y-56.5
X134.75Y-58.0
X134.75Y-59.5
T4
X64.35Y-121.8
X64.35Y-123.3
X64.35Y-124.8
X64.35Y-126.3
X64.35Y-127.8
X64.35Y-129.3
T5
X53.315Y-115.86
X53.315Y-118.4
X53.315Y-120.94
X60.935Y-115.86
X60.935Y-118.4
X60.935Y-120.94
T6
X82.75Y-62.75
X82.75Y-65.25
X58.64Y-96.66
X60.14Y-96.66
X61.64Y-96.66
X63.14Y-96.66
X64.64Y-96.66
X66.14Y-96.66
X67.64Y-96.66
X69.14Y-96.66
X70.64Y-96.66
X84.0Y-40.5
X84.0Y-44.0
X50.53Y-40.29
X50.53Y-42.79
T7
X100.46Y-39.475
X103.0Y-39.475
X105.54Y-39.475
X52.65Y-59.61
X52.65Y-62.15
X52.65Y-64.69
T8
X107.42Y-55.03
X114.02Y-47.53
T9
X84.9Y-121.9
X84.9Y-123.9
X84.9Y-125.9
X84.9Y-127.9
T10
X39.25Y-109.25
X39.25Y-111.75
X39.25Y-114.25
X39.25Y-116.75
X39.1Y-47.5
X39.1Y-50.0
X39.1Y-52.5
X39.1Y-55.0
X44.35Y-40.06
X44.35Y-42.6
X77.05Y-72.95
X79.55Y-72.95
X42.9Y-60.02
X42.9Y-62.56
X42.9Y-65.1
X42.9Y-67.64
X42.9Y-70.18
X42.9Y-72.72
X42.9Y-75.26
X42.9Y-77.8
X37.75Y-60.0
X37.75Y-62.54
X37.75Y-65.08
X37.75Y-67.62
X37.75Y-70.16
X37.75Y-72.7
X37.75Y-75.24
X37.75Y-77.78
X40.29Y-60.0
X40.29Y-62.54
X40.29Y-65.08
X40.29Y-67.62
X40.29Y-70.16
X40.29Y-72.7
X40.29Y-75.24
X40.29Y-77.78
X108.6Y-39.285
X108.6Y-41.825
X133.15Y-68.25
X133.15Y-70.75
X64.9Y-102.8
X67.4Y-102.8
X69.9Y-102.8
X72.4Y-102.8
X51.0Y-125.09
X51.0Y-127.63
X51.0Y-130.17
X51.0Y-132.71
X51.0Y-135.25
X45.75Y-109.25
X45.75Y-111.75
X45.75Y-114.25
X45.75Y-116.75
X42.95Y-82.04
X42.95Y-84.58
X42.95Y-87.12
X42.95Y-89.66
X42.95Y-92.2
X42.95Y-94.74
X42.95Y-97.28
X42.95Y-99.82
X42.95Y-102.36
X42.95Y-104.9
X39.25Y-121.75
X39.25Y-124.25
X39.25Y-126.75
X39.25Y-129.25
X45.7Y-47.4
X45.7Y-49.9
X45.7Y-52.4
X45.7Y-54.9
X37.76Y-82.04
X37.76Y-84.58
X37.76Y-87.12
X37.76Y-89.66
X37.76Y-92.2
X37.76Y-94.74
X37.76Y-97.28
X37.76Y-99.82
X37.76Y-102.36
X37.76Y-104.9
X40.3Y-82.04
X40.3Y-84.58
X40.3Y-87.12
X40.3Y-89.66
X40.3Y-92.2
X40.3Y-94.74
X40.3Y-97.28
X40.3Y-99.82
X40.3Y-102.36
X40.3Y-104.9
X45.75Y-121.75
X45.75Y-124.25
X45.75Y-126.75
X45.75Y-129.25
T11
X88.77Y-43.25
X91.32Y-43.25
X93.85Y-43.25
X96.39Y-43.25
X98.93Y-43.25
X64.75Y-107.245
X64.75Y-109.785
X64.75Y-112.325
X64.75Y-114.855
X64.75Y-117.405
X79.95Y-107.245
X79.95Y-109.785
X79.95Y-112.325
X79.95Y-114.855
X79.95Y-117.405
X69.8Y-107.245
X69.8Y-109.785
X69.8Y-112.325
X69.8Y-114.855
X69.8Y-117.405
X74.85Y-107.245
X74.85Y-109.785
X74.85Y-112.325
X74.85Y-114.855
X74.85Y-117.405
T12
X82.18Y-121.63
X82.18Y-128.63
X87.62Y-121.63
X87.62Y-128.63
T13
X56.69Y-40.44
X56.69Y-50.6
X56.69Y-60.76
X77.01Y-48.06
X77.01Y-53.14
X77.01Y-60.76
T14
X114.62Y-54.53
X117.62Y-46.53
X117.62Y-54.53
T15
X127.0Y-117.3
X127.0Y-104.75
X127.0Y-109.75
X127.0Y-68.1
X127.0Y-73.1
X127.0Y-80.35
X127.0Y-85.35
X127.0Y-129.55
X127.0Y-134.55
X127.0Y-92.8
X127.0Y-97.8
X127.0Y-122.3
T16
X112.89Y-40.65
X117.97Y-40.65
X122.03Y-40.65
X127.11Y-40.65
T17
X39.0Y-41.0
X39.0Y-135.0
X133.0Y-41.0
X133.0Y-135.0
T18
X124.5Y-57.0
X131.5Y-57.0
X124.5Y-48.75
X131.5Y-48.75
T0
M30
