G04 #@! TF.GenerationSoftware,KiCad,Pcbnew,(6.0.4)*
G04 #@! TF.CreationDate,2022-06-13T17:00:01+09:00*
G04 #@! TF.ProjectId,Main,4d61696e-2e6b-4696-9361-645f70636258,rev?*
G04 #@! TF.SameCoordinates,Original*
G04 #@! TF.FileFunction,Soldermask,Bot*
G04 #@! TF.FilePolarity,Negative*
%FSLAX46Y46*%
G04 Gerber Fmt 4.6, Leading zero omitted, Abs format (unit mm)*
G04 Created by KiCad (PCBNEW (6.0.4)) date 2022-06-13 17:00:01*
%MOMM*%
%LPD*%
G01*
G04 APERTURE LIST*
G04 Aperture macros list*
%AMRoundRect*
0 Rectangle with rounded corners*
0 $1 Rounding radius*
0 $2 $3 $4 $5 $6 $7 $8 $9 X,Y pos of 4 corners*
0 Add a 4 corners polygon primitive as box body*
4,1,4,$2,$3,$4,$5,$6,$7,$8,$9,$2,$3,0*
0 Add four circle primitives for the rounded corners*
1,1,$1+$1,$2,$3*
1,1,$1+$1,$4,$5*
1,1,$1+$1,$6,$7*
1,1,$1+$1,$8,$9*
0 Add four rect primitives between the rounded corners*
20,1,$1+$1,$2,$3,$4,$5,0*
20,1,$1+$1,$4,$5,$6,$7,0*
20,1,$1+$1,$6,$7,$8,$9,0*
20,1,$1+$1,$8,$9,$2,$3,0*%
%AMFreePoly0*
4,1,37,0.586062,0.786062,0.601000,0.750000,0.601000,-0.750000,0.586062,-0.786062,0.550000,-0.801000,0.000000,-0.801000,-0.012525,-0.795812,-0.080875,-0.794559,-0.095149,-0.792248,-0.230464,-0.749973,-0.243516,-0.743747,-0.361526,-0.665192,-0.372306,-0.655554,-0.463526,-0.547035,-0.471167,-0.534759,-0.528262,-0.405000,-0.532150,-0.391073,-0.549733,-0.256613,-0.548336,-0.256430,-0.551000,-0.250000,
-0.551000,0.250000,-0.550512,0.251179,-0.550356,0.263956,-0.528545,0.404033,-0.524317,0.417860,-0.464069,0.546185,-0.456130,0.558271,-0.362286,0.664529,-0.351274,0.673901,-0.231379,0.749549,-0.218180,0.755454,-0.081873,0.794411,-0.067546,0.796373,-0.011990,0.796033,0.000000,0.801000,0.550000,0.801000,0.586062,0.786062,0.586062,0.786062,$1*%
%AMFreePoly1*
4,1,37,0.012349,0.795885,0.074216,0.795507,0.088518,0.793370,0.224339,0.752751,0.237465,0.746685,0.356427,0.669578,0.367324,0.660073,0.459862,0.552676,0.467652,0.540494,0.526329,0.411442,0.530388,0.397563,0.550485,0.257230,0.551000,0.250000,0.551000,-0.250000,0.550996,-0.250622,0.550847,-0.262838,0.550144,-0.270677,0.526624,-0.410478,0.522228,-0.424254,0.460416,-0.551833,
0.452330,-0.563821,0.357195,-0.668925,0.346069,-0.678161,0.225259,-0.752338,0.211989,-0.758081,0.075216,-0.795370,0.060866,-0.797157,0.011464,-0.796251,0.000000,-0.801000,-0.550000,-0.801000,-0.586062,-0.786062,-0.601000,-0.750000,-0.601000,0.750000,-0.586062,0.786062,-0.550000,0.801000,0.000000,0.801000,0.012349,0.795885,0.012349,0.795885,$1*%
G04 Aperture macros list end*
%ADD10RoundRect,0.051000X-0.800000X0.800000X-0.800000X-0.800000X0.800000X-0.800000X0.800000X0.800000X0*%
%ADD11C,1.702000*%
%ADD12RoundRect,0.051000X-0.850000X-0.850000X0.850000X-0.850000X0.850000X0.850000X-0.850000X0.850000X0*%
%ADD13O,1.802000X1.802000*%
%ADD14RoundRect,0.051000X0.850000X0.850000X-0.850000X0.850000X-0.850000X-0.850000X0.850000X-0.850000X0*%
%ADD15O,2.602000X1.602000*%
%ADD16O,1.602000X2.602000*%
%ADD17C,4.602000*%
%ADD18C,6.102000*%
%ADD19C,2.102000*%
%ADD20C,3.942000*%
%ADD21C,1.602000*%
%ADD22C,2.602000*%
%ADD23RoundRect,0.051000X-0.698500X-0.698500X0.698500X-0.698500X0.698500X0.698500X-0.698500X0.698500X0*%
%ADD24C,1.499000*%
%ADD25RoundRect,0.051000X0.800000X-0.800000X0.800000X0.800000X-0.800000X0.800000X-0.800000X-0.800000X0*%
%ADD26RoundRect,0.051000X0.698500X-0.698500X0.698500X0.698500X-0.698500X0.698500X-0.698500X-0.698500X0*%
%ADD27C,1.626000*%
%ADD28C,1.722000*%
%ADD29C,1.952000*%
%ADD30O,1.302000X2.102000*%
%ADD31O,1.626000X1.102000*%
%ADD32RoundRect,0.269750X0.256250X-0.218750X0.256250X0.218750X-0.256250X0.218750X-0.256250X-0.218750X0*%
%ADD33RoundRect,0.269750X0.218750X0.256250X-0.218750X0.256250X-0.218750X-0.256250X0.218750X-0.256250X0*%
%ADD34RoundRect,0.269750X-0.256250X0.218750X-0.256250X-0.218750X0.256250X-0.218750X0.256250X0.218750X0*%
%ADD35RoundRect,0.269750X-0.218750X-0.256250X0.218750X-0.256250X0.218750X0.256250X-0.218750X0.256250X0*%
%ADD36RoundRect,0.269750X0.335876X0.026517X0.026517X0.335876X-0.335876X-0.026517X-0.026517X-0.335876X0*%
%ADD37RoundRect,0.301000X-0.450000X0.325000X-0.450000X-0.325000X0.450000X-0.325000X0.450000X0.325000X0*%
%ADD38RoundRect,0.269750X-0.026517X0.335876X-0.335876X0.026517X0.026517X-0.335876X0.335876X-0.026517X0*%
%ADD39RoundRect,0.269750X0.026517X-0.335876X0.335876X-0.026517X-0.026517X0.335876X-0.335876X0.026517X0*%
%ADD40RoundRect,0.051000X0.450000X0.600000X-0.450000X0.600000X-0.450000X-0.600000X0.450000X-0.600000X0*%
%ADD41RoundRect,0.051000X0.600000X-0.450000X0.600000X0.450000X-0.600000X0.450000X-0.600000X-0.450000X0*%
%ADD42RoundRect,0.051000X-0.600000X0.450000X-0.600000X-0.450000X0.600000X-0.450000X0.600000X0.450000X0*%
%ADD43RoundRect,0.051000X-0.482600X0.635000X-0.482600X-0.635000X0.482600X-0.635000X0.482600X0.635000X0*%
%ADD44RoundRect,0.051000X-2.100000X1.200000X-2.100000X-1.200000X2.100000X-1.200000X2.100000X1.200000X0*%
%ADD45RoundRect,0.051000X0.350000X0.255000X-0.350000X0.255000X-0.350000X-0.255000X0.350000X-0.255000X0*%
%ADD46RoundRect,0.051000X0.255000X-0.350000X0.255000X0.350000X-0.255000X0.350000X-0.255000X-0.350000X0*%
%ADD47RoundRect,0.051000X1.100000X0.600000X-1.100000X0.600000X-1.100000X-0.600000X1.100000X-0.600000X0*%
%ADD48RoundRect,0.051000X3.200000X2.900000X-3.200000X2.900000X-3.200000X-2.900000X3.200000X-2.900000X0*%
%ADD49RoundRect,0.051000X-1.200000X-2.100000X1.200000X-2.100000X1.200000X2.100000X-1.200000X2.100000X0*%
%ADD50RoundRect,0.051000X-1.000000X-0.750000X1.000000X-0.750000X1.000000X0.750000X-1.000000X0.750000X0*%
%ADD51RoundRect,0.051000X-1.000000X-1.900000X1.000000X-1.900000X1.000000X1.900000X-1.000000X1.900000X0*%
%ADD52RoundRect,0.294750X-0.456250X0.243750X-0.456250X-0.243750X0.456250X-0.243750X0.456250X0.243750X0*%
%ADD53RoundRect,0.051000X-1.150000X-1.150000X1.150000X-1.150000X1.150000X1.150000X-1.150000X1.150000X0*%
%ADD54FreePoly0,0.000000*%
%ADD55RoundRect,0.051000X-0.500000X-0.750000X0.500000X-0.750000X0.500000X0.750000X-0.500000X0.750000X0*%
%ADD56FreePoly1,0.000000*%
%ADD57RoundRect,0.051000X0.500000X0.200000X-0.500000X0.200000X-0.500000X-0.200000X0.500000X-0.200000X0*%
%ADD58RoundRect,0.051000X1.250000X0.900000X-1.250000X0.900000X-1.250000X-0.900000X1.250000X-0.900000X0*%
%ADD59RoundRect,0.188500X0.600000X0.137500X-0.600000X0.137500X-0.600000X-0.137500X0.600000X-0.137500X0*%
%ADD60RoundRect,0.188500X0.137500X0.600000X-0.137500X0.600000X-0.137500X-0.600000X0.137500X-0.600000X0*%
%ADD61RoundRect,0.051000X-0.350000X0.500000X-0.350000X-0.500000X0.350000X-0.500000X0.350000X0.500000X0*%
%ADD62RoundRect,0.051000X-0.500000X-0.350000X0.500000X-0.350000X0.500000X0.350000X-0.500000X0.350000X0*%
%ADD63RoundRect,0.051000X0.200000X-0.530000X0.200000X0.530000X-0.200000X0.530000X-0.200000X-0.530000X0*%
%ADD64RoundRect,0.188500X-0.662500X-0.137500X0.662500X-0.137500X0.662500X0.137500X-0.662500X0.137500X0*%
%ADD65RoundRect,0.051000X0.400000X-0.450000X0.400000X0.450000X-0.400000X0.450000X-0.400000X-0.450000X0*%
G04 APERTURE END LIST*
D10*
X82750000Y-62750000D03*
D11*
X82750000Y-65250000D03*
D12*
X42950000Y-82040000D03*
D13*
X42950000Y-84580000D03*
X42950000Y-87120000D03*
X42950000Y-89660000D03*
X42950000Y-92200000D03*
X42950000Y-94740000D03*
X42950000Y-97280000D03*
X42950000Y-99820000D03*
X42950000Y-102360000D03*
X42950000Y-104900000D03*
D14*
X51000000Y-135250000D03*
D13*
X51000000Y-132710000D03*
X51000000Y-130170000D03*
X51000000Y-127630000D03*
X51000000Y-125090000D03*
D14*
X40300000Y-104900000D03*
D13*
X37760000Y-104900000D03*
X40300000Y-102360000D03*
X37760000Y-102360000D03*
X40300000Y-99820000D03*
X37760000Y-99820000D03*
X40300000Y-97280000D03*
X37760000Y-97280000D03*
X40300000Y-94740000D03*
X37760000Y-94740000D03*
X40300000Y-92200000D03*
X37760000Y-92200000D03*
X40300000Y-89660000D03*
X37760000Y-89660000D03*
X40300000Y-87120000D03*
X37760000Y-87120000D03*
X40300000Y-84580000D03*
X37760000Y-84580000D03*
X40300000Y-82040000D03*
X37760000Y-82040000D03*
D12*
X42900000Y-60020000D03*
D13*
X42900000Y-62560000D03*
X42900000Y-65100000D03*
X42900000Y-67640000D03*
X42900000Y-70180000D03*
X42900000Y-72720000D03*
X42900000Y-75260000D03*
X42900000Y-77800000D03*
D14*
X40290000Y-77780000D03*
D13*
X37750000Y-77780000D03*
X40290000Y-75240000D03*
X37750000Y-75240000D03*
X40290000Y-72700000D03*
X37750000Y-72700000D03*
X40290000Y-70160000D03*
X37750000Y-70160000D03*
X40290000Y-67620000D03*
X37750000Y-67620000D03*
X40290000Y-65080000D03*
X37750000Y-65080000D03*
X40290000Y-62540000D03*
X37750000Y-62540000D03*
X40290000Y-60000000D03*
X37750000Y-60000000D03*
D15*
X39250000Y-116750000D03*
X39250000Y-114250000D03*
X39250000Y-111750000D03*
X39250000Y-109250000D03*
X39250000Y-129250000D03*
X39250000Y-126750000D03*
X39250000Y-124250000D03*
X39250000Y-121750000D03*
X45750000Y-121750000D03*
X45750000Y-124250000D03*
X45750000Y-126750000D03*
X45750000Y-129250000D03*
X45750000Y-109250000D03*
X45750000Y-111750000D03*
X45750000Y-114250000D03*
X45750000Y-116750000D03*
D16*
X77050000Y-72950000D03*
X79550000Y-72950000D03*
D15*
X133150000Y-68250000D03*
X133150000Y-70750000D03*
D17*
X127000000Y-92800000D03*
X127000000Y-97800000D03*
X127000000Y-104750000D03*
X127000000Y-109750000D03*
X127000000Y-117300000D03*
X127000000Y-122300000D03*
X127000000Y-129550000D03*
X127000000Y-134550000D03*
D18*
X131500000Y-57000000D03*
X124500000Y-57000000D03*
X131500000Y-48750000D03*
X124500000Y-48750000D03*
D19*
X77010000Y-60760000D03*
X77010000Y-53140000D03*
X77010000Y-48060000D03*
X56690000Y-60760000D03*
X56690000Y-50600000D03*
X56690000Y-40440000D03*
D20*
X127110000Y-40650000D03*
X122030000Y-40650000D03*
X117970000Y-40650000D03*
X112890000Y-40650000D03*
D21*
X114020000Y-47530000D03*
X107420000Y-55030000D03*
D22*
X117620000Y-54530000D03*
X117620000Y-46530000D03*
X114620000Y-54530000D03*
D23*
X100460000Y-39475000D03*
D24*
X103000000Y-39475000D03*
X105540000Y-39475000D03*
D25*
X84000000Y-44000000D03*
D11*
X84000000Y-40500000D03*
D19*
X69800000Y-107245000D03*
X69800000Y-117405000D03*
X69800000Y-109785000D03*
X69800000Y-112325000D03*
X69800000Y-114855000D03*
X74850000Y-107245000D03*
X74850000Y-117405000D03*
X74850000Y-109785000D03*
X74850000Y-112325000D03*
X74850000Y-114855000D03*
X79950000Y-117405000D03*
X79950000Y-107245000D03*
X79950000Y-109785000D03*
X79950000Y-112325000D03*
X79950000Y-114855000D03*
X64750000Y-117405000D03*
X64750000Y-107245000D03*
X64750000Y-109785000D03*
X64750000Y-112325000D03*
X64750000Y-114855000D03*
D15*
X45700000Y-47400000D03*
X45700000Y-49900000D03*
X45700000Y-52400000D03*
X45700000Y-54900000D03*
X39100000Y-55000000D03*
X39100000Y-52500000D03*
X39100000Y-50000000D03*
X39100000Y-47500000D03*
D14*
X44350000Y-42600000D03*
D13*
X44350000Y-40060000D03*
D17*
X127000000Y-68100000D03*
X127000000Y-73100000D03*
X127000000Y-80350000D03*
X127000000Y-85350000D03*
D16*
X64900000Y-102800000D03*
X67400000Y-102800000D03*
X69900000Y-102800000D03*
X72400000Y-102800000D03*
D26*
X52650000Y-64690000D03*
D24*
X52650000Y-62150000D03*
X52650000Y-59610000D03*
D27*
X53315000Y-115860000D03*
X53315000Y-118400000D03*
X53315000Y-120940000D03*
X60935000Y-120940000D03*
X60935000Y-118400000D03*
X60935000Y-115860000D03*
D28*
X84900000Y-127900000D03*
X84900000Y-125900000D03*
X84900000Y-123900000D03*
X84900000Y-121900000D03*
D29*
X87620000Y-128630000D03*
X87620000Y-121630000D03*
X82180000Y-121630000D03*
X82180000Y-128630000D03*
D30*
X58640000Y-96660000D03*
X60140000Y-96660000D03*
X61640000Y-96660000D03*
X63140000Y-96660000D03*
X64640000Y-96660000D03*
X66140000Y-96660000D03*
X67640000Y-96660000D03*
X69140000Y-96660000D03*
X70640000Y-96660000D03*
D10*
X50530000Y-40290000D03*
D11*
X50530000Y-42790000D03*
D19*
X98880000Y-43200000D03*
X88720000Y-43200000D03*
X91260000Y-43200000D03*
X93800000Y-43200000D03*
X96330000Y-43200000D03*
D16*
X64350000Y-134900000D03*
X61850000Y-134900000D03*
X59350000Y-134900000D03*
X56850000Y-134900000D03*
D31*
X64350000Y-129300000D03*
X64350000Y-127800000D03*
X64350000Y-126300000D03*
X64350000Y-124800000D03*
X64350000Y-123300000D03*
X64350000Y-121800000D03*
D32*
X46420000Y-134647500D03*
X46420000Y-133072500D03*
D33*
X48537500Y-63000000D03*
X46962500Y-63000000D03*
D34*
X41500000Y-52462500D03*
X41500000Y-54037500D03*
D35*
X38662500Y-106850000D03*
X40237500Y-106850000D03*
D34*
X60750000Y-55362500D03*
X60750000Y-56937500D03*
D33*
X67387500Y-105000000D03*
X65812500Y-105000000D03*
D32*
X47950000Y-49887500D03*
X47950000Y-48312500D03*
D36*
X58056847Y-81056847D03*
X56943153Y-79943153D03*
D35*
X38712500Y-79600000D03*
X40287500Y-79600000D03*
X54312500Y-53400000D03*
X55887500Y-53400000D03*
D36*
X57056847Y-82056847D03*
X55943153Y-80943153D03*
D37*
X52200000Y-54975000D03*
X52200000Y-57025000D03*
D36*
X59056847Y-80056847D03*
X57943153Y-78943153D03*
X56056847Y-83056847D03*
X54943153Y-81943153D03*
D35*
X61912500Y-132700000D03*
X63487500Y-132700000D03*
D38*
X64406847Y-91243153D03*
X63293153Y-92356847D03*
D32*
X37200000Y-115837500D03*
X37200000Y-114262500D03*
X37200000Y-128337500D03*
X37200000Y-126762500D03*
D35*
X73212500Y-82750000D03*
X74787500Y-82750000D03*
D33*
X66137500Y-94650000D03*
X64562500Y-94650000D03*
D34*
X60150000Y-98412500D03*
X60150000Y-99987500D03*
D35*
X61612500Y-94650000D03*
X63187500Y-94650000D03*
D39*
X64643153Y-74206847D03*
X65756847Y-73093153D03*
D36*
X62806847Y-75906847D03*
X61693153Y-74793153D03*
X63506847Y-90006847D03*
X62393153Y-88893153D03*
D34*
X48000000Y-122312500D03*
X48000000Y-123887500D03*
D33*
X84637500Y-110600000D03*
X83062500Y-110600000D03*
D32*
X98875000Y-60787500D03*
X98875000Y-59212500D03*
D40*
X60900000Y-129000000D03*
X57600000Y-129000000D03*
D41*
X49750000Y-54850000D03*
X49750000Y-51550000D03*
X47500000Y-44900000D03*
X47500000Y-41600000D03*
X89275000Y-61025000D03*
X89275000Y-57725000D03*
D33*
X105687500Y-64900000D03*
X104112500Y-64900000D03*
X105687500Y-77250000D03*
X104112500Y-77250000D03*
X105687500Y-83400000D03*
X104112500Y-83400000D03*
D40*
X102600000Y-62500000D03*
X99300000Y-62500000D03*
D33*
X105687500Y-101850000D03*
X104112500Y-101850000D03*
X105687500Y-108050000D03*
X104112500Y-108050000D03*
X105437500Y-114250000D03*
X103862500Y-114250000D03*
X105387500Y-120400000D03*
X103812500Y-120400000D03*
X105637500Y-126600000D03*
X104062500Y-126600000D03*
X105637500Y-132750000D03*
X104062500Y-132750000D03*
D42*
X110000000Y-49600000D03*
X110000000Y-52900000D03*
D43*
X54365000Y-129000000D03*
X55635000Y-129000000D03*
D44*
X60550000Y-48450000D03*
X60550000Y-52950000D03*
D35*
X73412500Y-70550000D03*
X74987500Y-70550000D03*
D33*
X68137500Y-58700000D03*
X66562500Y-58700000D03*
D35*
X54412500Y-69750000D03*
X55987500Y-69750000D03*
D34*
X51600000Y-49012500D03*
X51600000Y-50587500D03*
D35*
X54412500Y-66900000D03*
X55987500Y-66900000D03*
X54412500Y-68350000D03*
X55987500Y-68350000D03*
D34*
X59250000Y-55362500D03*
X59250000Y-56937500D03*
D32*
X57750000Y-56937500D03*
X57750000Y-55362500D03*
D33*
X42887500Y-107900000D03*
X41312500Y-107900000D03*
X42937500Y-120350000D03*
X41362500Y-120350000D03*
X42887500Y-113150000D03*
X41312500Y-113150000D03*
X42887500Y-125600000D03*
X41312500Y-125600000D03*
X42887500Y-109200000D03*
X41312500Y-109200000D03*
X42937500Y-121750000D03*
X41362500Y-121750000D03*
X42887500Y-111750000D03*
X41312500Y-111750000D03*
X42887500Y-124250000D03*
X41312500Y-124250000D03*
D34*
X67650000Y-98362500D03*
X67650000Y-99937500D03*
X69150000Y-98362500D03*
X69150000Y-99937500D03*
D33*
X49287500Y-130650000D03*
X47712500Y-130650000D03*
X49387500Y-118150000D03*
X47812500Y-118150000D03*
X49287500Y-125350000D03*
X47712500Y-125350000D03*
X49337500Y-112850000D03*
X47762500Y-112850000D03*
X49287500Y-129250000D03*
X47712500Y-129250000D03*
X49387500Y-116750000D03*
X47812500Y-116750000D03*
X49287500Y-126750000D03*
X47712500Y-126750000D03*
X49387500Y-114250000D03*
X47812500Y-114250000D03*
X104237500Y-73500000D03*
X102662500Y-73500000D03*
X104087500Y-85850000D03*
X102512500Y-85850000D03*
X104087500Y-98200000D03*
X102512500Y-98200000D03*
X104137500Y-67300000D03*
X102562500Y-67300000D03*
X104137500Y-79700000D03*
X102562500Y-79700000D03*
X104087500Y-92000000D03*
X102512500Y-92000000D03*
D35*
X102462500Y-44100000D03*
X104037500Y-44100000D03*
X91962500Y-74250000D03*
X93537500Y-74250000D03*
D33*
X112287500Y-68750000D03*
X110712500Y-68750000D03*
X112337500Y-72150000D03*
X110762500Y-72150000D03*
X112287500Y-74750000D03*
X110712500Y-74750000D03*
X112337500Y-78400000D03*
X110762500Y-78400000D03*
X112287500Y-81000000D03*
X110712500Y-81000000D03*
X112287500Y-84450000D03*
X110712500Y-84450000D03*
X112287500Y-86950000D03*
X110712500Y-86950000D03*
X112287500Y-90650000D03*
X110712500Y-90650000D03*
X112287500Y-93200000D03*
X110712500Y-93200000D03*
X112287500Y-99200000D03*
X110712500Y-99200000D03*
D35*
X78262500Y-64600000D03*
X79837500Y-64600000D03*
D33*
X102337500Y-46050000D03*
X100762500Y-46050000D03*
X93887500Y-45350000D03*
X92312500Y-45350000D03*
X104087500Y-110500000D03*
X102512500Y-110500000D03*
X103787500Y-122850000D03*
X102212500Y-122850000D03*
X104087500Y-135150000D03*
X102512500Y-135150000D03*
X104087500Y-104250000D03*
X102512500Y-104250000D03*
X103887500Y-116650000D03*
X102312500Y-116650000D03*
X104037500Y-129000000D03*
X102462500Y-129000000D03*
X112287500Y-102900000D03*
X110712500Y-102900000D03*
X112287500Y-105450000D03*
X110712500Y-105450000D03*
X112287500Y-111700000D03*
X110712500Y-111700000D03*
X112287500Y-115300000D03*
X110712500Y-115300000D03*
X112287500Y-117850000D03*
X110712500Y-117850000D03*
X112287500Y-121450000D03*
X110712500Y-121450000D03*
X112287500Y-124000000D03*
X110712500Y-124000000D03*
X112287500Y-127650000D03*
X110712500Y-127650000D03*
X112287500Y-130150000D03*
X110712500Y-130150000D03*
X112287500Y-133750000D03*
X110712500Y-133750000D03*
X112287500Y-136300000D03*
X110712500Y-136300000D03*
D45*
X56260000Y-55050000D03*
X56260000Y-56000000D03*
X56260000Y-56950000D03*
X53940000Y-56950000D03*
X53940000Y-56000000D03*
X53940000Y-55050000D03*
D46*
X87700000Y-64410000D03*
X86750000Y-64410000D03*
X85800000Y-64410000D03*
X85800000Y-62090000D03*
X86750000Y-62090000D03*
X87700000Y-62090000D03*
D33*
X105787500Y-71050000D03*
X104212500Y-71050000D03*
X105687500Y-95700000D03*
X104112500Y-95700000D03*
X99537500Y-73250000D03*
X97962500Y-73250000D03*
D35*
X97512500Y-68400000D03*
X99087500Y-68400000D03*
D47*
X99700000Y-66720000D03*
D48*
X93400000Y-69000000D03*
D47*
X99700000Y-71280000D03*
D33*
X105687500Y-89550000D03*
X104112500Y-89550000D03*
X112237500Y-66050000D03*
X110662500Y-66050000D03*
D49*
X91925000Y-59050000D03*
X96425000Y-59050000D03*
D35*
X86052500Y-67200000D03*
X87627500Y-67200000D03*
D34*
X89250000Y-62462500D03*
X89250000Y-64037500D03*
D33*
X86687500Y-60750000D03*
X85112500Y-60750000D03*
X87627500Y-65740000D03*
X86052500Y-65740000D03*
D41*
X54300000Y-51600000D03*
X54300000Y-48300000D03*
D34*
X60000000Y-65812500D03*
X60000000Y-67387500D03*
D32*
X60000000Y-63387500D03*
X60000000Y-61812500D03*
D50*
X62000000Y-68050000D03*
D51*
X68300000Y-65750000D03*
D50*
X62000000Y-65750000D03*
X62000000Y-63450000D03*
D41*
X64650000Y-58700000D03*
X64650000Y-55400000D03*
D40*
X67950000Y-60750000D03*
X64650000Y-60750000D03*
D52*
X62500000Y-55362500D03*
X62500000Y-57237500D03*
D34*
X41500000Y-44662500D03*
X41500000Y-46237500D03*
D53*
X74700000Y-96250000D03*
X74700000Y-89650000D03*
X81300000Y-89650000D03*
D36*
X61306847Y-77806847D03*
X60193153Y-76693153D03*
D33*
X112287500Y-96700000D03*
X110712500Y-96700000D03*
X112287500Y-109100000D03*
X110712500Y-109100000D03*
D54*
X38950000Y-57750000D03*
D55*
X40250000Y-57750000D03*
D56*
X41550000Y-57750000D03*
D57*
X50950000Y-66900000D03*
X50950000Y-67550000D03*
X50950000Y-68200000D03*
X50950000Y-68850000D03*
X50950000Y-69500000D03*
X50950000Y-70150000D03*
X50950000Y-70800000D03*
X50950000Y-71450000D03*
X50950000Y-72100000D03*
X45550000Y-72100000D03*
X45550000Y-71450000D03*
X45550000Y-70800000D03*
X45550000Y-70150000D03*
X45550000Y-69500000D03*
X45550000Y-68850000D03*
X45550000Y-68200000D03*
X45550000Y-67550000D03*
X45550000Y-66900000D03*
D34*
X48000000Y-109712500D03*
X48000000Y-111287500D03*
D58*
X111000000Y-45500000D03*
X107000000Y-45500000D03*
D32*
X66350000Y-126087500D03*
X66350000Y-124512500D03*
X81100000Y-126137500D03*
X81100000Y-124562500D03*
D35*
X73812500Y-133550000D03*
X75387500Y-133550000D03*
X83712500Y-131250000D03*
X85287500Y-131250000D03*
X83712500Y-132750000D03*
X85287500Y-132750000D03*
D59*
X79462500Y-122050000D03*
X79462500Y-122850000D03*
X79462500Y-123650000D03*
X79462500Y-124450000D03*
X79462500Y-125250000D03*
X79462500Y-126050000D03*
X79462500Y-126850000D03*
X79462500Y-127650000D03*
X79462500Y-128450000D03*
X79462500Y-129250000D03*
X79462500Y-130050000D03*
D60*
X77800000Y-131712500D03*
X77000000Y-131712500D03*
X76200000Y-131712500D03*
X75400000Y-131712500D03*
X74600000Y-131712500D03*
X73800000Y-131712500D03*
X73000000Y-131712500D03*
X72200000Y-131712500D03*
X71400000Y-131712500D03*
X70600000Y-131712500D03*
X69800000Y-131712500D03*
D59*
X68137500Y-130050000D03*
X68137500Y-129250000D03*
X68137500Y-128450000D03*
X68137500Y-127650000D03*
X68137500Y-126850000D03*
X68137500Y-126050000D03*
X68137500Y-125250000D03*
X68137500Y-124450000D03*
X68137500Y-123650000D03*
X68137500Y-122850000D03*
X68137500Y-122050000D03*
D60*
X69800000Y-120387500D03*
X70600000Y-120387500D03*
X71400000Y-120387500D03*
X72200000Y-120387500D03*
X73000000Y-120387500D03*
X73800000Y-120387500D03*
X74600000Y-120387500D03*
X75400000Y-120387500D03*
X76200000Y-120387500D03*
X77000000Y-120387500D03*
X77800000Y-120387500D03*
D32*
X72980000Y-118807500D03*
X72980000Y-117232500D03*
D35*
X72212500Y-135000000D03*
X73787500Y-135000000D03*
D32*
X79950000Y-120687500D03*
X79950000Y-119112500D03*
D34*
X50750000Y-103312500D03*
X50750000Y-104887500D03*
X56450000Y-103312500D03*
X56450000Y-104887500D03*
X56450000Y-106912500D03*
X56450000Y-108487500D03*
X50700000Y-106962500D03*
X50700000Y-108537500D03*
D61*
X102100000Y-47500000D03*
X104000000Y-47500000D03*
X103050000Y-49900000D03*
D62*
X55800000Y-64700000D03*
X55800000Y-62800000D03*
X58200000Y-63750000D03*
D61*
X93900000Y-47900000D03*
X95800000Y-47900000D03*
X94850000Y-50300000D03*
D34*
X123750000Y-69712500D03*
X123750000Y-71287500D03*
X123750000Y-81712500D03*
X123750000Y-83287500D03*
X123750000Y-94712500D03*
X123750000Y-96287500D03*
X124250000Y-106962500D03*
X124250000Y-108537500D03*
X124250000Y-119212500D03*
X124250000Y-120787500D03*
X124250000Y-131212500D03*
X124250000Y-132787500D03*
D35*
X90462500Y-47750000D03*
X92037500Y-47750000D03*
D34*
X92700000Y-53962500D03*
X92700000Y-55537500D03*
D40*
X88900000Y-46500000D03*
X85600000Y-46500000D03*
D34*
X54250000Y-60962500D03*
X54250000Y-62537500D03*
D63*
X49880000Y-61400000D03*
X49230000Y-61400000D03*
X48570000Y-61400000D03*
X47920000Y-61400000D03*
X47920000Y-59200000D03*
X48570000Y-59200000D03*
X49230000Y-59200000D03*
X49880000Y-59200000D03*
D47*
X90550000Y-49470000D03*
D48*
X84250000Y-51750000D03*
D47*
X90550000Y-54030000D03*
D34*
X117600000Y-58012500D03*
X117600000Y-59587500D03*
X66900000Y-52612500D03*
X66900000Y-54187500D03*
D64*
X68750000Y-56735000D03*
X68750000Y-55465000D03*
X75250000Y-55465000D03*
X75250000Y-56735000D03*
D65*
X115940000Y-59590000D03*
X114040000Y-59590000D03*
X114990000Y-57590000D03*
G36*
X116442121Y-64270002D02*
G01*
X116488614Y-64323658D01*
X116500000Y-64376000D01*
X116500000Y-68181885D01*
X116504475Y-68197124D01*
X116505865Y-68198329D01*
X116513548Y-68200000D01*
X116628000Y-68200000D01*
X116696121Y-68220002D01*
X116742614Y-68273658D01*
X116754000Y-68326000D01*
X116754000Y-68496912D01*
X116753848Y-68503094D01*
X116753081Y-68518709D01*
X116751869Y-68531015D01*
X116750028Y-68543426D01*
X116747616Y-68555552D01*
X116744565Y-68567733D01*
X116740976Y-68579565D01*
X116736752Y-68591371D01*
X116732019Y-68602798D01*
X116726654Y-68614141D01*
X116720822Y-68625052D01*
X116714373Y-68635810D01*
X116707511Y-68646079D01*
X116700033Y-68656163D01*
X116692179Y-68665733D01*
X116683756Y-68675025D01*
X116675025Y-68683756D01*
X116665733Y-68692179D01*
X116656163Y-68700033D01*
X116646079Y-68707511D01*
X116635810Y-68714373D01*
X116625052Y-68720822D01*
X116614141Y-68726654D01*
X116602798Y-68732019D01*
X116591371Y-68736752D01*
X116579565Y-68740976D01*
X116567733Y-68744565D01*
X116555552Y-68747616D01*
X116543426Y-68750028D01*
X116531015Y-68751869D01*
X116518709Y-68753081D01*
X116503094Y-68753848D01*
X116496912Y-68754000D01*
X115226000Y-68754000D01*
X115157879Y-68733998D01*
X115111386Y-68680342D01*
X115100000Y-68628000D01*
X115100000Y-65368115D01*
X115095525Y-65352876D01*
X115094135Y-65351671D01*
X115086452Y-65350000D01*
X113376000Y-65350000D01*
X113307879Y-65329998D01*
X113261386Y-65276342D01*
X113250000Y-65224000D01*
X113250000Y-64376000D01*
X113270002Y-64307879D01*
X113323658Y-64261386D01*
X113376000Y-64250000D01*
X116374000Y-64250000D01*
X116442121Y-64270002D01*
G37*
G36*
X116442121Y-70520002D02*
G01*
X116488614Y-70573658D01*
X116500000Y-70626000D01*
X116500000Y-74181885D01*
X116504475Y-74197124D01*
X116505865Y-74198329D01*
X116513548Y-74200000D01*
X116602615Y-74200000D01*
X116670736Y-74220002D01*
X116717229Y-74273658D01*
X116727333Y-74343932D01*
X116703818Y-74401060D01*
X116700028Y-74406170D01*
X116692179Y-74415733D01*
X116683756Y-74425025D01*
X116675025Y-74433756D01*
X116665733Y-74442179D01*
X116656163Y-74450033D01*
X116646079Y-74457511D01*
X116635810Y-74464373D01*
X116625052Y-74470822D01*
X116614141Y-74476654D01*
X116602798Y-74482019D01*
X116591371Y-74486752D01*
X116579565Y-74490976D01*
X116567733Y-74494565D01*
X116555552Y-74497616D01*
X116543426Y-74500028D01*
X116531015Y-74501869D01*
X116518709Y-74503081D01*
X116503094Y-74503848D01*
X116496912Y-74504000D01*
X115226000Y-74504000D01*
X115157879Y-74483998D01*
X115111386Y-74430342D01*
X115100000Y-74378000D01*
X115100000Y-71268115D01*
X115095525Y-71252876D01*
X115094135Y-71251671D01*
X115086452Y-71250000D01*
X113376000Y-71250000D01*
X113307879Y-71229998D01*
X113261386Y-71176342D01*
X113250000Y-71124000D01*
X113250000Y-70626000D01*
X113270002Y-70557879D01*
X113323658Y-70511386D01*
X113376000Y-70500000D01*
X116374000Y-70500000D01*
X116442121Y-70520002D01*
G37*
G36*
X116442121Y-76520002D02*
G01*
X116488614Y-76573658D01*
X116500000Y-76626000D01*
X116500000Y-80381885D01*
X116504475Y-80397124D01*
X116505865Y-80398329D01*
X116513548Y-80400000D01*
X116628000Y-80400000D01*
X116696121Y-80420002D01*
X116742614Y-80473658D01*
X116754000Y-80526000D01*
X116754000Y-80746912D01*
X116753848Y-80753094D01*
X116753081Y-80768709D01*
X116751869Y-80781015D01*
X116750028Y-80793426D01*
X116747616Y-80805552D01*
X116744565Y-80817733D01*
X116740976Y-80829565D01*
X116736752Y-80841371D01*
X116732019Y-80852798D01*
X116726654Y-80864141D01*
X116720822Y-80875052D01*
X116714373Y-80885810D01*
X116707511Y-80896079D01*
X116700033Y-80906163D01*
X116692179Y-80915733D01*
X116683756Y-80925025D01*
X116675025Y-80933756D01*
X116665733Y-80942179D01*
X116656163Y-80950033D01*
X116646079Y-80957511D01*
X116635810Y-80964373D01*
X116625052Y-80970822D01*
X116614141Y-80976654D01*
X116602798Y-80982019D01*
X116591371Y-80986752D01*
X116579565Y-80990976D01*
X116567733Y-80994565D01*
X116555552Y-80997616D01*
X116543426Y-81000028D01*
X116531015Y-81001869D01*
X116518709Y-81003081D01*
X116503094Y-81003848D01*
X116496912Y-81004000D01*
X115226000Y-81004000D01*
X115157879Y-80983998D01*
X115111386Y-80930342D01*
X115100000Y-80878000D01*
X115100000Y-77518115D01*
X115095525Y-77502876D01*
X115094135Y-77501671D01*
X115086452Y-77500000D01*
X113376000Y-77500000D01*
X113307879Y-77479998D01*
X113261386Y-77426342D01*
X113250000Y-77374000D01*
X113250000Y-76626000D01*
X113270002Y-76557879D01*
X113323658Y-76511386D01*
X113376000Y-76500000D01*
X116374000Y-76500000D01*
X116442121Y-76520002D01*
G37*
G36*
X116442121Y-82520002D02*
G01*
X116488614Y-82573658D01*
X116500000Y-82626000D01*
X116500000Y-86381885D01*
X116504475Y-86397124D01*
X116505865Y-86398329D01*
X116513548Y-86400000D01*
X116628000Y-86400000D01*
X116696121Y-86420002D01*
X116742614Y-86473658D01*
X116754000Y-86526000D01*
X116754000Y-86746912D01*
X116753848Y-86753094D01*
X116753081Y-86768709D01*
X116751869Y-86781015D01*
X116750028Y-86793426D01*
X116747616Y-86805552D01*
X116744565Y-86817733D01*
X116740976Y-86829565D01*
X116736752Y-86841371D01*
X116732019Y-86852798D01*
X116726654Y-86864141D01*
X116720822Y-86875052D01*
X116714373Y-86885810D01*
X116707511Y-86896079D01*
X116700033Y-86906163D01*
X116692179Y-86915733D01*
X116683756Y-86925025D01*
X116675025Y-86933756D01*
X116665733Y-86942179D01*
X116656163Y-86950033D01*
X116646079Y-86957511D01*
X116635810Y-86964373D01*
X116625052Y-86970822D01*
X116614141Y-86976654D01*
X116602798Y-86982019D01*
X116591371Y-86986752D01*
X116579565Y-86990976D01*
X116567733Y-86994565D01*
X116555552Y-86997616D01*
X116543426Y-87000028D01*
X116531015Y-87001869D01*
X116518709Y-87003081D01*
X116503094Y-87003848D01*
X116496912Y-87004000D01*
X115226000Y-87004000D01*
X115157879Y-86983998D01*
X115111386Y-86930342D01*
X115100000Y-86878000D01*
X115100000Y-83518115D01*
X115095525Y-83502876D01*
X115094135Y-83501671D01*
X115086452Y-83500000D01*
X113376000Y-83500000D01*
X113307879Y-83479998D01*
X113261386Y-83426342D01*
X113250000Y-83374000D01*
X113250000Y-82626000D01*
X113270002Y-82557879D01*
X113323658Y-82511386D01*
X113376000Y-82500000D01*
X116374000Y-82500000D01*
X116442121Y-82520002D01*
G37*
G36*
X116442121Y-88770002D02*
G01*
X116488614Y-88823658D01*
X116500000Y-88876000D01*
X116500000Y-92831885D01*
X116504475Y-92847124D01*
X116505865Y-92848329D01*
X116513548Y-92850000D01*
X116628000Y-92850000D01*
X116696121Y-92870002D01*
X116742614Y-92923658D01*
X116754000Y-92976000D01*
X116754000Y-92996912D01*
X116753848Y-93003094D01*
X116753081Y-93018709D01*
X116751869Y-93031015D01*
X116750028Y-93043426D01*
X116747616Y-93055552D01*
X116744565Y-93067733D01*
X116740976Y-93079565D01*
X116736752Y-93091371D01*
X116732019Y-93102798D01*
X116726654Y-93114141D01*
X116720822Y-93125052D01*
X116714373Y-93135810D01*
X116707511Y-93146079D01*
X116700033Y-93156163D01*
X116692179Y-93165733D01*
X116683756Y-93175025D01*
X116675025Y-93183756D01*
X116665733Y-93192179D01*
X116656163Y-93200033D01*
X116646079Y-93207511D01*
X116635810Y-93214373D01*
X116625052Y-93220822D01*
X116614141Y-93226654D01*
X116602798Y-93232019D01*
X116591371Y-93236752D01*
X116579565Y-93240976D01*
X116567733Y-93244565D01*
X116555552Y-93247616D01*
X116543426Y-93250028D01*
X116531015Y-93251869D01*
X116518709Y-93253081D01*
X116503094Y-93253848D01*
X116496912Y-93254000D01*
X115226000Y-93254000D01*
X115157879Y-93233998D01*
X115111386Y-93180342D01*
X115100000Y-93128000D01*
X115100000Y-89718115D01*
X115095525Y-89702876D01*
X115094135Y-89701671D01*
X115086452Y-89700000D01*
X113376000Y-89700000D01*
X113307879Y-89679998D01*
X113261386Y-89626342D01*
X113250000Y-89574000D01*
X113250000Y-88876000D01*
X113270002Y-88807879D01*
X113323658Y-88761386D01*
X113376000Y-88750000D01*
X116374000Y-88750000D01*
X116442121Y-88770002D01*
G37*
G36*
X116442121Y-94770002D02*
G01*
X116488614Y-94823658D01*
X116500000Y-94876000D01*
X116500000Y-98831885D01*
X116504475Y-98847124D01*
X116505865Y-98848329D01*
X116513548Y-98850000D01*
X116628000Y-98850000D01*
X116696121Y-98870002D01*
X116742614Y-98923658D01*
X116754000Y-98976000D01*
X116754000Y-98996912D01*
X116753848Y-99003094D01*
X116753081Y-99018709D01*
X116751869Y-99031015D01*
X116750028Y-99043426D01*
X116747616Y-99055552D01*
X116744565Y-99067733D01*
X116740976Y-99079565D01*
X116736752Y-99091371D01*
X116732019Y-99102798D01*
X116726654Y-99114141D01*
X116720822Y-99125052D01*
X116714373Y-99135810D01*
X116707511Y-99146079D01*
X116700033Y-99156163D01*
X116692179Y-99165733D01*
X116683756Y-99175025D01*
X116675025Y-99183756D01*
X116665733Y-99192179D01*
X116656163Y-99200033D01*
X116646079Y-99207511D01*
X116635810Y-99214373D01*
X116625052Y-99220822D01*
X116614141Y-99226654D01*
X116602798Y-99232019D01*
X116591371Y-99236752D01*
X116579565Y-99240976D01*
X116567733Y-99244565D01*
X116555552Y-99247616D01*
X116543426Y-99250028D01*
X116531015Y-99251869D01*
X116518709Y-99253081D01*
X116503094Y-99253848D01*
X116496912Y-99254000D01*
X115226000Y-99254000D01*
X115157879Y-99233998D01*
X115111386Y-99180342D01*
X115100000Y-99128000D01*
X115100000Y-95718115D01*
X115095525Y-95702876D01*
X115094135Y-95701671D01*
X115086452Y-95700000D01*
X113376000Y-95700000D01*
X113307879Y-95679998D01*
X113261386Y-95626342D01*
X113250000Y-95574000D01*
X113250000Y-94876000D01*
X113270002Y-94807879D01*
X113323658Y-94761386D01*
X113376000Y-94750000D01*
X116374000Y-94750000D01*
X116442121Y-94770002D01*
G37*
G36*
X116442121Y-101020002D02*
G01*
X116488614Y-101073658D01*
X116500000Y-101126000D01*
X116500000Y-104881885D01*
X116504475Y-104897124D01*
X116505865Y-104898329D01*
X116513548Y-104900000D01*
X116628000Y-104900000D01*
X116696121Y-104920002D01*
X116742614Y-104973658D01*
X116754000Y-105026000D01*
X116754000Y-105246912D01*
X116753848Y-105253094D01*
X116753081Y-105268709D01*
X116751869Y-105281015D01*
X116750028Y-105293426D01*
X116747616Y-105305552D01*
X116744565Y-105317733D01*
X116740976Y-105329565D01*
X116736752Y-105341371D01*
X116732019Y-105352798D01*
X116726654Y-105364141D01*
X116720822Y-105375052D01*
X116714373Y-105385810D01*
X116707511Y-105396079D01*
X116700033Y-105406163D01*
X116692179Y-105415733D01*
X116683756Y-105425025D01*
X116675025Y-105433756D01*
X116665733Y-105442179D01*
X116656163Y-105450033D01*
X116646079Y-105457511D01*
X116635810Y-105464373D01*
X116625052Y-105470822D01*
X116614141Y-105476654D01*
X116602798Y-105482019D01*
X116591371Y-105486752D01*
X116579565Y-105490976D01*
X116567733Y-105494565D01*
X116555552Y-105497616D01*
X116543426Y-105500028D01*
X116531015Y-105501869D01*
X116518709Y-105503081D01*
X116503094Y-105503848D01*
X116496912Y-105504000D01*
X115226000Y-105504000D01*
X115157879Y-105483998D01*
X115111386Y-105430342D01*
X115100000Y-105378000D01*
X115100000Y-101968115D01*
X115095525Y-101952876D01*
X115094135Y-101951671D01*
X115086452Y-101950000D01*
X113376000Y-101950000D01*
X113307879Y-101929998D01*
X113261386Y-101876342D01*
X113250000Y-101824000D01*
X113250000Y-101126000D01*
X113270002Y-101057879D01*
X113323658Y-101011386D01*
X113376000Y-101000000D01*
X116374000Y-101000000D01*
X116442121Y-101020002D01*
G37*
G36*
X116442121Y-107270002D02*
G01*
X116488614Y-107323658D01*
X116500000Y-107376000D01*
X116500000Y-110881885D01*
X116504475Y-110897124D01*
X116505865Y-110898329D01*
X116513548Y-110900000D01*
X116628000Y-110900000D01*
X116696121Y-110920002D01*
X116742614Y-110973658D01*
X116754000Y-111026000D01*
X116754000Y-111046912D01*
X116753848Y-111053094D01*
X116753081Y-111068709D01*
X116751869Y-111081015D01*
X116750028Y-111093426D01*
X116747616Y-111105552D01*
X116744565Y-111117733D01*
X116740976Y-111129565D01*
X116736752Y-111141371D01*
X116732019Y-111152798D01*
X116726654Y-111164141D01*
X116720822Y-111175052D01*
X116714373Y-111185810D01*
X116707511Y-111196079D01*
X116700033Y-111206163D01*
X116692179Y-111215733D01*
X116683756Y-111225025D01*
X116675025Y-111233756D01*
X116665733Y-111242179D01*
X116656163Y-111250033D01*
X116646079Y-111257511D01*
X116635810Y-111264373D01*
X116625052Y-111270822D01*
X116614141Y-111276654D01*
X116602798Y-111282019D01*
X116591371Y-111286752D01*
X116579565Y-111290976D01*
X116567733Y-111294565D01*
X116555552Y-111297616D01*
X116543426Y-111300028D01*
X116531015Y-111301869D01*
X116518709Y-111303081D01*
X116503094Y-111303848D01*
X116496912Y-111304000D01*
X115226000Y-111304000D01*
X115157879Y-111283998D01*
X115111386Y-111230342D01*
X115100000Y-111178000D01*
X115100000Y-108118115D01*
X115095525Y-108102876D01*
X115094135Y-108101671D01*
X115086452Y-108100000D01*
X113376000Y-108100000D01*
X113307879Y-108079998D01*
X113261386Y-108026342D01*
X113250000Y-107974000D01*
X113250000Y-107376000D01*
X113270002Y-107307879D01*
X113323658Y-107261386D01*
X113376000Y-107250000D01*
X116374000Y-107250000D01*
X116442121Y-107270002D01*
G37*
G36*
X116442121Y-113520002D02*
G01*
X116488614Y-113573658D01*
X116500000Y-113626000D01*
X116500000Y-117331885D01*
X116504475Y-117347124D01*
X116505865Y-117348329D01*
X116513548Y-117350000D01*
X116628000Y-117350000D01*
X116696121Y-117370002D01*
X116742614Y-117423658D01*
X116754000Y-117476000D01*
X116754000Y-117746912D01*
X116753848Y-117753094D01*
X116753081Y-117768709D01*
X116751869Y-117781015D01*
X116750028Y-117793426D01*
X116747616Y-117805552D01*
X116744565Y-117817733D01*
X116740976Y-117829565D01*
X116736752Y-117841371D01*
X116732019Y-117852798D01*
X116726654Y-117864141D01*
X116720822Y-117875052D01*
X116714373Y-117885810D01*
X116707511Y-117896079D01*
X116700033Y-117906163D01*
X116692179Y-117915733D01*
X116683756Y-117925025D01*
X116675025Y-117933756D01*
X116665733Y-117942179D01*
X116656163Y-117950033D01*
X116646079Y-117957511D01*
X116635810Y-117964373D01*
X116625052Y-117970822D01*
X116614141Y-117976654D01*
X116602798Y-117982019D01*
X116591371Y-117986752D01*
X116579565Y-117990976D01*
X116567733Y-117994565D01*
X116555552Y-117997616D01*
X116543426Y-118000028D01*
X116531015Y-118001869D01*
X116518709Y-118003081D01*
X116503094Y-118003848D01*
X116496912Y-118004000D01*
X115226000Y-118004000D01*
X115157879Y-117983998D01*
X115111386Y-117930342D01*
X115100000Y-117878000D01*
X115100000Y-114418115D01*
X115095525Y-114402876D01*
X115094135Y-114401671D01*
X115086452Y-114400000D01*
X113376000Y-114400000D01*
X113307879Y-114379998D01*
X113261386Y-114326342D01*
X113250000Y-114274000D01*
X113250000Y-113626000D01*
X113270002Y-113557879D01*
X113323658Y-113511386D01*
X113376000Y-113500000D01*
X116374000Y-113500000D01*
X116442121Y-113520002D01*
G37*
G36*
X116442121Y-119270002D02*
G01*
X116488614Y-119323658D01*
X116500000Y-119376000D01*
X116500000Y-123331885D01*
X116504475Y-123347124D01*
X116505865Y-123348329D01*
X116513548Y-123350000D01*
X116628000Y-123350000D01*
X116696121Y-123370002D01*
X116742614Y-123423658D01*
X116754000Y-123476000D01*
X116754000Y-123746912D01*
X116753848Y-123753094D01*
X116753081Y-123768709D01*
X116751869Y-123781015D01*
X116750028Y-123793426D01*
X116747616Y-123805552D01*
X116744565Y-123817733D01*
X116740976Y-123829565D01*
X116736752Y-123841371D01*
X116732019Y-123852798D01*
X116726654Y-123864141D01*
X116720822Y-123875052D01*
X116714373Y-123885810D01*
X116707511Y-123896079D01*
X116700033Y-123906163D01*
X116692179Y-123915733D01*
X116683756Y-123925025D01*
X116675025Y-123933756D01*
X116665733Y-123942179D01*
X116656163Y-123950033D01*
X116646079Y-123957511D01*
X116635810Y-123964373D01*
X116625052Y-123970822D01*
X116614141Y-123976654D01*
X116602798Y-123982019D01*
X116591371Y-123986752D01*
X116579565Y-123990976D01*
X116567733Y-123994565D01*
X116555552Y-123997616D01*
X116543426Y-124000028D01*
X116531015Y-124001869D01*
X116518709Y-124003081D01*
X116503094Y-124003848D01*
X116496912Y-124004000D01*
X115226000Y-124004000D01*
X115157879Y-123983998D01*
X115111386Y-123930342D01*
X115100000Y-123878000D01*
X115100000Y-120468115D01*
X115095525Y-120452876D01*
X115094135Y-120451671D01*
X115086452Y-120450000D01*
X113376000Y-120450000D01*
X113307879Y-120429998D01*
X113261386Y-120376342D01*
X113250000Y-120324000D01*
X113250000Y-119376000D01*
X113270002Y-119307879D01*
X113323658Y-119261386D01*
X113376000Y-119250000D01*
X116374000Y-119250000D01*
X116442121Y-119270002D01*
G37*
G36*
X116442121Y-125770002D02*
G01*
X116488614Y-125823658D01*
X116500000Y-125876000D01*
X116500000Y-129531885D01*
X116504475Y-129547124D01*
X116505865Y-129548329D01*
X116513548Y-129550000D01*
X116625126Y-129550000D01*
X116693247Y-129570002D01*
X116739740Y-129623658D01*
X116749844Y-129693932D01*
X116747350Y-129706614D01*
X116744565Y-129717733D01*
X116740976Y-129729565D01*
X116736752Y-129741371D01*
X116732019Y-129752798D01*
X116726654Y-129764141D01*
X116720822Y-129775052D01*
X116714373Y-129785810D01*
X116707511Y-129796079D01*
X116700033Y-129806163D01*
X116692179Y-129815733D01*
X116683756Y-129825025D01*
X116675025Y-129833756D01*
X116665733Y-129842179D01*
X116656163Y-129850033D01*
X116646079Y-129857511D01*
X116635810Y-129864373D01*
X116625052Y-129870822D01*
X116614141Y-129876654D01*
X116602798Y-129882019D01*
X116591371Y-129886752D01*
X116579565Y-129890976D01*
X116567733Y-129894565D01*
X116555552Y-129897616D01*
X116543426Y-129900028D01*
X116531015Y-129901869D01*
X116518709Y-129903081D01*
X116503094Y-129903848D01*
X116496912Y-129904000D01*
X115226000Y-129904000D01*
X115157879Y-129883998D01*
X115111386Y-129830342D01*
X115100000Y-129778000D01*
X115100000Y-126718115D01*
X115095525Y-126702876D01*
X115094135Y-126701671D01*
X115086452Y-126700000D01*
X113376000Y-126700000D01*
X113307879Y-126679998D01*
X113261386Y-126626342D01*
X113250000Y-126574000D01*
X113250000Y-125876000D01*
X113270002Y-125807879D01*
X113323658Y-125761386D01*
X113376000Y-125750000D01*
X116374000Y-125750000D01*
X116442121Y-125770002D01*
G37*
G36*
X116442121Y-131520002D02*
G01*
X116488614Y-131573658D01*
X116500000Y-131626000D01*
X116500000Y-135531885D01*
X116504475Y-135547124D01*
X116505865Y-135548329D01*
X116513548Y-135550000D01*
X116628000Y-135550000D01*
X116696121Y-135570002D01*
X116742614Y-135623658D01*
X116754000Y-135676000D01*
X116754000Y-135996912D01*
X116753848Y-136003094D01*
X116753081Y-136018709D01*
X116751869Y-136031015D01*
X116750028Y-136043426D01*
X116747616Y-136055552D01*
X116744565Y-136067733D01*
X116740976Y-136079565D01*
X116736752Y-136091371D01*
X116732019Y-136102798D01*
X116726654Y-136114141D01*
X116720822Y-136125052D01*
X116714373Y-136135810D01*
X116707511Y-136146079D01*
X116700033Y-136156163D01*
X116692179Y-136165733D01*
X116683756Y-136175025D01*
X116675025Y-136183756D01*
X116665733Y-136192179D01*
X116656163Y-136200033D01*
X116646079Y-136207511D01*
X116635810Y-136214373D01*
X116625052Y-136220822D01*
X116614141Y-136226654D01*
X116602798Y-136232019D01*
X116591371Y-136236752D01*
X116579565Y-136240976D01*
X116567733Y-136244565D01*
X116555552Y-136247616D01*
X116543426Y-136250028D01*
X116531015Y-136251869D01*
X116518709Y-136253081D01*
X116503094Y-136253848D01*
X116496912Y-136254000D01*
X115226000Y-136254000D01*
X115157879Y-136233998D01*
X115111386Y-136180342D01*
X115100000Y-136128000D01*
X115100000Y-132818115D01*
X115095525Y-132802876D01*
X115094135Y-132801671D01*
X115086452Y-132800000D01*
X113376000Y-132800000D01*
X113307879Y-132779998D01*
X113261386Y-132726342D01*
X113250000Y-132674000D01*
X113250000Y-131626000D01*
X113270002Y-131557879D01*
X113323658Y-131511386D01*
X113376000Y-131500000D01*
X116374000Y-131500000D01*
X116442121Y-131520002D01*
G37*
G36*
X116442121Y-129316002D02*
G01*
X116488614Y-129369658D01*
X116500000Y-129422000D01*
X116500000Y-129531885D01*
X116504475Y-129547124D01*
X116505865Y-129548329D01*
X116513548Y-129550000D01*
X126824000Y-129550000D01*
X126892121Y-129570002D01*
X126938614Y-129623658D01*
X126950000Y-129676000D01*
X126950000Y-130674000D01*
X126929998Y-130742121D01*
X126876342Y-130788614D01*
X126824000Y-130800000D01*
X115226000Y-130800000D01*
X115157879Y-130779998D01*
X115111386Y-130726342D01*
X115100000Y-130674000D01*
X115100000Y-129422000D01*
X115120002Y-129353879D01*
X115173658Y-129307386D01*
X115226000Y-129296000D01*
X116374000Y-129296000D01*
X116442121Y-129316002D01*
G37*
G36*
X116442121Y-135316002D02*
G01*
X116488614Y-135369658D01*
X116500000Y-135422000D01*
X116500000Y-135531885D01*
X116504475Y-135547124D01*
X116505865Y-135548329D01*
X116513548Y-135550000D01*
X126824000Y-135550000D01*
X126892121Y-135570002D01*
X126938614Y-135623658D01*
X126950000Y-135676000D01*
X126950000Y-136624000D01*
X126929998Y-136692121D01*
X126876342Y-136738614D01*
X126824000Y-136750000D01*
X115226000Y-136750000D01*
X115157879Y-136729998D01*
X115111386Y-136676342D01*
X115100000Y-136624000D01*
X115100000Y-135422000D01*
X115120002Y-135353879D01*
X115173658Y-135307386D01*
X115226000Y-135296000D01*
X116374000Y-135296000D01*
X116442121Y-135316002D01*
G37*
G36*
X116442121Y-123116002D02*
G01*
X116488614Y-123169658D01*
X116500000Y-123222000D01*
X116500000Y-123331885D01*
X116504475Y-123347124D01*
X116505865Y-123348329D01*
X116513548Y-123350000D01*
X126824000Y-123350000D01*
X126892121Y-123370002D01*
X126938614Y-123423658D01*
X126950000Y-123476000D01*
X126950000Y-124424000D01*
X126929998Y-124492121D01*
X126876342Y-124538614D01*
X126824000Y-124550000D01*
X115226000Y-124550000D01*
X115157879Y-124529998D01*
X115111386Y-124476342D01*
X115100000Y-124424000D01*
X115100000Y-123222000D01*
X115120002Y-123153879D01*
X115173658Y-123107386D01*
X115226000Y-123096000D01*
X116374000Y-123096000D01*
X116442121Y-123116002D01*
G37*
G36*
X116442121Y-117116002D02*
G01*
X116488614Y-117169658D01*
X116500000Y-117222000D01*
X116500000Y-117331885D01*
X116504475Y-117347124D01*
X116505865Y-117348329D01*
X116513548Y-117350000D01*
X126824000Y-117350000D01*
X126892121Y-117370002D01*
X126938614Y-117423658D01*
X126950000Y-117476000D01*
X126950000Y-118474000D01*
X126929998Y-118542121D01*
X126876342Y-118588614D01*
X126824000Y-118600000D01*
X115226000Y-118600000D01*
X115157879Y-118579998D01*
X115111386Y-118526342D01*
X115100000Y-118474000D01*
X115100000Y-117222000D01*
X115120002Y-117153879D01*
X115173658Y-117107386D01*
X115226000Y-117096000D01*
X116374000Y-117096000D01*
X116442121Y-117116002D01*
G37*
G36*
X116442121Y-104666002D02*
G01*
X116488614Y-104719658D01*
X116500000Y-104772000D01*
X116500000Y-104881885D01*
X116504475Y-104897124D01*
X116505865Y-104898329D01*
X116513548Y-104900000D01*
X126824000Y-104900000D01*
X126892121Y-104920002D01*
X126938614Y-104973658D01*
X126950000Y-105026000D01*
X126950000Y-106024000D01*
X126929998Y-106092121D01*
X126876342Y-106138614D01*
X126824000Y-106150000D01*
X115226000Y-106150000D01*
X115157879Y-106129998D01*
X115111386Y-106076342D01*
X115100000Y-106024000D01*
X115100000Y-104772000D01*
X115120002Y-104703879D01*
X115173658Y-104657386D01*
X115226000Y-104646000D01*
X116374000Y-104646000D01*
X116442121Y-104666002D01*
G37*
G36*
X116442121Y-110666002D02*
G01*
X116488614Y-110719658D01*
X116500000Y-110772000D01*
X116500000Y-110881885D01*
X116504475Y-110897124D01*
X116505865Y-110898329D01*
X116513548Y-110900000D01*
X126824000Y-110900000D01*
X126892121Y-110920002D01*
X126938614Y-110973658D01*
X126950000Y-111026000D01*
X126950000Y-111974000D01*
X126929998Y-112042121D01*
X126876342Y-112088614D01*
X126824000Y-112100000D01*
X115226000Y-112100000D01*
X115157879Y-112079998D01*
X115111386Y-112026342D01*
X115100000Y-111974000D01*
X115100000Y-110772000D01*
X115120002Y-110703879D01*
X115173658Y-110657386D01*
X115226000Y-110646000D01*
X116374000Y-110646000D01*
X116442121Y-110666002D01*
G37*
G36*
X116442121Y-98616002D02*
G01*
X116488614Y-98669658D01*
X116500000Y-98722000D01*
X116500000Y-98831885D01*
X116504475Y-98847124D01*
X116505865Y-98848329D01*
X116513548Y-98850000D01*
X126824000Y-98850000D01*
X126892121Y-98870002D01*
X126938614Y-98923658D01*
X126950000Y-98976000D01*
X126950000Y-99924000D01*
X126929998Y-99992121D01*
X126876342Y-100038614D01*
X126824000Y-100050000D01*
X115226000Y-100050000D01*
X115157879Y-100029998D01*
X115111386Y-99976342D01*
X115100000Y-99924000D01*
X115100000Y-98722000D01*
X115120002Y-98653879D01*
X115173658Y-98607386D01*
X115226000Y-98596000D01*
X116374000Y-98596000D01*
X116442121Y-98616002D01*
G37*
G36*
X116442121Y-92616002D02*
G01*
X116488614Y-92669658D01*
X116500000Y-92722000D01*
X116500000Y-92831885D01*
X116504475Y-92847124D01*
X116505865Y-92848329D01*
X116513548Y-92850000D01*
X126824000Y-92850000D01*
X126892121Y-92870002D01*
X126938614Y-92923658D01*
X126950000Y-92976000D01*
X126950000Y-93974000D01*
X126929998Y-94042121D01*
X126876342Y-94088614D01*
X126824000Y-94100000D01*
X115226000Y-94100000D01*
X115157879Y-94079998D01*
X115111386Y-94026342D01*
X115100000Y-93974000D01*
X115100000Y-92722000D01*
X115120002Y-92653879D01*
X115173658Y-92607386D01*
X115226000Y-92596000D01*
X116374000Y-92596000D01*
X116442121Y-92616002D01*
G37*
G36*
X116442121Y-86166002D02*
G01*
X116488614Y-86219658D01*
X116500000Y-86272000D01*
X116500000Y-86381885D01*
X116504475Y-86397124D01*
X116505865Y-86398329D01*
X116513548Y-86400000D01*
X126824000Y-86400000D01*
X126892121Y-86420002D01*
X126938614Y-86473658D01*
X126950000Y-86526000D01*
X126950000Y-87474000D01*
X126929998Y-87542121D01*
X126876342Y-87588614D01*
X126824000Y-87600000D01*
X115226000Y-87600000D01*
X115157879Y-87579998D01*
X115111386Y-87526342D01*
X115100000Y-87474000D01*
X115100000Y-86272000D01*
X115120002Y-86203879D01*
X115173658Y-86157386D01*
X115226000Y-86146000D01*
X116374000Y-86146000D01*
X116442121Y-86166002D01*
G37*
G36*
X116442121Y-80166002D02*
G01*
X116488614Y-80219658D01*
X116500000Y-80272000D01*
X116500000Y-80381885D01*
X116504475Y-80397124D01*
X116505865Y-80398329D01*
X116513548Y-80400000D01*
X126824000Y-80400000D01*
X126892121Y-80420002D01*
X126938614Y-80473658D01*
X126950000Y-80526000D01*
X126950000Y-81524000D01*
X126929998Y-81592121D01*
X126876342Y-81638614D01*
X126824000Y-81650000D01*
X115226000Y-81650000D01*
X115157879Y-81629998D01*
X115111386Y-81576342D01*
X115100000Y-81524000D01*
X115100000Y-80272000D01*
X115120002Y-80203879D01*
X115173658Y-80157386D01*
X115226000Y-80146000D01*
X116374000Y-80146000D01*
X116442121Y-80166002D01*
G37*
G36*
X116442121Y-67966002D02*
G01*
X116488614Y-68019658D01*
X116500000Y-68072000D01*
X116500000Y-68181885D01*
X116504475Y-68197124D01*
X116505865Y-68198329D01*
X116513548Y-68200000D01*
X126824000Y-68200000D01*
X126892121Y-68220002D01*
X126938614Y-68273658D01*
X126950000Y-68326000D01*
X126950000Y-69324000D01*
X126929998Y-69392121D01*
X126876342Y-69438614D01*
X126824000Y-69450000D01*
X115226000Y-69450000D01*
X115157879Y-69429998D01*
X115111386Y-69376342D01*
X115100000Y-69324000D01*
X115100000Y-68072000D01*
X115120002Y-68003879D01*
X115173658Y-67957386D01*
X115226000Y-67946000D01*
X116374000Y-67946000D01*
X116442121Y-67966002D01*
G37*
G36*
X116442121Y-73966002D02*
G01*
X116488614Y-74019658D01*
X116500000Y-74072000D01*
X116500000Y-74181885D01*
X116504475Y-74197124D01*
X116505865Y-74198329D01*
X116513548Y-74200000D01*
X126824000Y-74200000D01*
X126892121Y-74220002D01*
X126938614Y-74273658D01*
X126950000Y-74326000D01*
X126950000Y-75274000D01*
X126929998Y-75342121D01*
X126876342Y-75388614D01*
X126824000Y-75400000D01*
X115226000Y-75400000D01*
X115157879Y-75379998D01*
X115111386Y-75326342D01*
X115100000Y-75274000D01*
X115100000Y-74072000D01*
X115120002Y-74003879D01*
X115173658Y-73957386D01*
X115226000Y-73946000D01*
X116374000Y-73946000D01*
X116442121Y-73966002D01*
G37*
G36*
X118692121Y-42270002D02*
G01*
X118738614Y-42323658D01*
X118750000Y-42376000D01*
X118750000Y-45874000D01*
X118729998Y-45942121D01*
X118676342Y-45988614D01*
X118624000Y-46000000D01*
X116626000Y-46000000D01*
X116557879Y-45979998D01*
X116511386Y-45926342D01*
X116500000Y-45874000D01*
X116500000Y-44518115D01*
X116495525Y-44502876D01*
X116494135Y-44501671D01*
X116486452Y-44500000D01*
X112876000Y-44500000D01*
X112807879Y-44479998D01*
X112761386Y-44426342D01*
X112750000Y-44374000D01*
X112750000Y-42376000D01*
X112770002Y-42307879D01*
X112823658Y-42261386D01*
X112876000Y-42250000D01*
X118624000Y-42250000D01*
X118692121Y-42270002D01*
G37*
G36*
X128942121Y-41020002D02*
G01*
X128988614Y-41073658D01*
X129000000Y-41126000D01*
X129000000Y-43124000D01*
X128979998Y-43192121D01*
X128926342Y-43238614D01*
X128874000Y-43250000D01*
X125518115Y-43250000D01*
X125492470Y-43257530D01*
X124012812Y-44737188D01*
X124000000Y-44760650D01*
X124000000Y-59374000D01*
X123979998Y-59442121D01*
X123926342Y-59488614D01*
X123874000Y-59500000D01*
X121752190Y-59500000D01*
X121684069Y-59479998D01*
X121663095Y-59463095D01*
X120536905Y-58336905D01*
X120502879Y-58274593D01*
X120500000Y-58247810D01*
X120500000Y-41126000D01*
X120520002Y-41057879D01*
X120573658Y-41011386D01*
X120626000Y-41000000D01*
X128874000Y-41000000D01*
X128942121Y-41020002D01*
G37*
G36*
X116482590Y-131493081D02*
G01*
X116499620Y-131498081D01*
X116500185Y-131498673D01*
X116501000Y-131498673D01*
X116501512Y-131499095D01*
X116504403Y-131502432D01*
X116504845Y-131503317D01*
X116506954Y-131513013D01*
X116507000Y-131513438D01*
X116507000Y-135419714D01*
X116526596Y-135486453D01*
X116578999Y-135531859D01*
X116630213Y-135543000D01*
X124736580Y-135543000D01*
X124803319Y-135523404D01*
X124848674Y-135471061D01*
X124858561Y-135402298D01*
X124853819Y-135381909D01*
X124815607Y-135264305D01*
X124816023Y-135262349D01*
X124817925Y-135261731D01*
X124819403Y-135263044D01*
X124876004Y-135429786D01*
X124934851Y-135549115D01*
X124934720Y-135551111D01*
X124933057Y-135552000D01*
X116500000Y-135552000D01*
X116498268Y-135551000D01*
X116498000Y-135550000D01*
X116498000Y-131502000D01*
X113252000Y-131502000D01*
X113252000Y-132798000D01*
X115100000Y-132798000D01*
X115101732Y-132799000D01*
X115102000Y-132800000D01*
X115102000Y-136748000D01*
X126337894Y-136748000D01*
X126338537Y-136748106D01*
X126361413Y-136755871D01*
X126362732Y-136757375D01*
X126362089Y-136759269D01*
X126360519Y-136759749D01*
X126338755Y-136757000D01*
X115117973Y-136757000D01*
X115117410Y-136756919D01*
X115100380Y-136751919D01*
X115099815Y-136751327D01*
X115099000Y-136751327D01*
X115098488Y-136750905D01*
X115095597Y-136747568D01*
X115095155Y-136746683D01*
X115093046Y-136736987D01*
X115093000Y-136736562D01*
X115093000Y-132930286D01*
X115073404Y-132863547D01*
X115021001Y-132818141D01*
X114969787Y-132807000D01*
X113267973Y-132807000D01*
X113267410Y-132806919D01*
X113250380Y-132801919D01*
X113249815Y-132801327D01*
X113249000Y-132801327D01*
X113248488Y-132800905D01*
X113245597Y-132797568D01*
X113245155Y-132796683D01*
X113243046Y-132786987D01*
X113243000Y-132786562D01*
X113243000Y-131517973D01*
X113243081Y-131517410D01*
X113248081Y-131500380D01*
X113248673Y-131499815D01*
X113248673Y-131499000D01*
X113249095Y-131498488D01*
X113252432Y-131495597D01*
X113253317Y-131495155D01*
X113263013Y-131493046D01*
X113263438Y-131493000D01*
X116482027Y-131493000D01*
X116482590Y-131493081D01*
G37*
G36*
X75685769Y-130998098D02*
G01*
X75706316Y-131018645D01*
X75707152Y-131018421D01*
X75708135Y-131019031D01*
X75734372Y-131048828D01*
X75800976Y-131067812D01*
X75867279Y-131047771D01*
X75892024Y-131019213D01*
X75893694Y-131018635D01*
X75914231Y-130998098D01*
X75916163Y-130997580D01*
X75917577Y-130998994D01*
X75917308Y-131000623D01*
X75890234Y-131041143D01*
X75876000Y-131112699D01*
X75876000Y-132312301D01*
X75890234Y-132383857D01*
X75917308Y-132424377D01*
X75917439Y-132426373D01*
X75915776Y-132427484D01*
X75914231Y-132426902D01*
X75893684Y-132406355D01*
X75892848Y-132406579D01*
X75891865Y-132405969D01*
X75865628Y-132376172D01*
X75799024Y-132357188D01*
X75732721Y-132377229D01*
X75707976Y-132405787D01*
X75706306Y-132406365D01*
X75685769Y-132426902D01*
X75683837Y-132427420D01*
X75682423Y-132426006D01*
X75682692Y-132424377D01*
X75709766Y-132383857D01*
X75724000Y-132312301D01*
X75724000Y-131112699D01*
X75709766Y-131041143D01*
X75682692Y-131000623D01*
X75682561Y-130998627D01*
X75684224Y-130997516D01*
X75685769Y-130998098D01*
G37*
G36*
X73285769Y-130998098D02*
G01*
X73306316Y-131018645D01*
X73307152Y-131018421D01*
X73308135Y-131019031D01*
X73334372Y-131048828D01*
X73400976Y-131067812D01*
X73467279Y-131047771D01*
X73492024Y-131019213D01*
X73493694Y-131018635D01*
X73514231Y-130998098D01*
X73516163Y-130997580D01*
X73517577Y-130998994D01*
X73517308Y-131000623D01*
X73490234Y-131041143D01*
X73476000Y-131112699D01*
X73476000Y-132312301D01*
X73490234Y-132383857D01*
X73517308Y-132424377D01*
X73517439Y-132426373D01*
X73515776Y-132427484D01*
X73514231Y-132426902D01*
X73493684Y-132406355D01*
X73492848Y-132406579D01*
X73491865Y-132405969D01*
X73465628Y-132376172D01*
X73399024Y-132357188D01*
X73332721Y-132377229D01*
X73307976Y-132405787D01*
X73306306Y-132406365D01*
X73285769Y-132426902D01*
X73283837Y-132427420D01*
X73282423Y-132426006D01*
X73282692Y-132424377D01*
X73309766Y-132383857D01*
X73324000Y-132312301D01*
X73324000Y-131112699D01*
X73309766Y-131041143D01*
X73282692Y-131000623D01*
X73282561Y-130998627D01*
X73284224Y-130997516D01*
X73285769Y-130998098D01*
G37*
G36*
X70885769Y-130998098D02*
G01*
X70906316Y-131018645D01*
X70907152Y-131018421D01*
X70908135Y-131019031D01*
X70934372Y-131048828D01*
X71000976Y-131067812D01*
X71067279Y-131047771D01*
X71092024Y-131019213D01*
X71093694Y-131018635D01*
X71114231Y-130998098D01*
X71116163Y-130997580D01*
X71117577Y-130998994D01*
X71117308Y-131000623D01*
X71090234Y-131041143D01*
X71076000Y-131112699D01*
X71076000Y-132312301D01*
X71090234Y-132383857D01*
X71117308Y-132424377D01*
X71117439Y-132426373D01*
X71115776Y-132427484D01*
X71114231Y-132426902D01*
X71093684Y-132406355D01*
X71092848Y-132406579D01*
X71091865Y-132405969D01*
X71065628Y-132376172D01*
X70999024Y-132357188D01*
X70932721Y-132377229D01*
X70907976Y-132405787D01*
X70906306Y-132406365D01*
X70885769Y-132426902D01*
X70883837Y-132427420D01*
X70882423Y-132426006D01*
X70882692Y-132424377D01*
X70909766Y-132383857D01*
X70924000Y-132312301D01*
X70924000Y-131112699D01*
X70909766Y-131041143D01*
X70882692Y-131000623D01*
X70882561Y-130998627D01*
X70884224Y-130997516D01*
X70885769Y-130998098D01*
G37*
G36*
X71685769Y-130998098D02*
G01*
X71706316Y-131018645D01*
X71707152Y-131018421D01*
X71708135Y-131019031D01*
X71734372Y-131048828D01*
X71800976Y-131067812D01*
X71867279Y-131047771D01*
X71892024Y-131019213D01*
X71893694Y-131018635D01*
X71914231Y-130998098D01*
X71916163Y-130997580D01*
X71917577Y-130998994D01*
X71917308Y-131000623D01*
X71890234Y-131041143D01*
X71876000Y-131112699D01*
X71876000Y-132312301D01*
X71890234Y-132383857D01*
X71917308Y-132424377D01*
X71917439Y-132426373D01*
X71915776Y-132427484D01*
X71914231Y-132426902D01*
X71893684Y-132406355D01*
X71892848Y-132406579D01*
X71891865Y-132405969D01*
X71865628Y-132376172D01*
X71799024Y-132357188D01*
X71732721Y-132377229D01*
X71707976Y-132405787D01*
X71706306Y-132406365D01*
X71685769Y-132426902D01*
X71683837Y-132427420D01*
X71682423Y-132426006D01*
X71682692Y-132424377D01*
X71709766Y-132383857D01*
X71724000Y-132312301D01*
X71724000Y-131112699D01*
X71709766Y-131041143D01*
X71682692Y-131000623D01*
X71682561Y-130998627D01*
X71684224Y-130997516D01*
X71685769Y-130998098D01*
G37*
G36*
X77285769Y-130998098D02*
G01*
X77306316Y-131018645D01*
X77307152Y-131018421D01*
X77308135Y-131019031D01*
X77334372Y-131048828D01*
X77400976Y-131067812D01*
X77467279Y-131047771D01*
X77492024Y-131019213D01*
X77493694Y-131018635D01*
X77514231Y-130998098D01*
X77516163Y-130997580D01*
X77517577Y-130998994D01*
X77517308Y-131000623D01*
X77490234Y-131041143D01*
X77476000Y-131112699D01*
X77476000Y-132312301D01*
X77490234Y-132383857D01*
X77517308Y-132424377D01*
X77517439Y-132426373D01*
X77515776Y-132427484D01*
X77514231Y-132426902D01*
X77493684Y-132406355D01*
X77492848Y-132406579D01*
X77491865Y-132405969D01*
X77465628Y-132376172D01*
X77399024Y-132357188D01*
X77332721Y-132377229D01*
X77307976Y-132405787D01*
X77306306Y-132406365D01*
X77285769Y-132426902D01*
X77283837Y-132427420D01*
X77282423Y-132426006D01*
X77282692Y-132424377D01*
X77309766Y-132383857D01*
X77324000Y-132312301D01*
X77324000Y-131112699D01*
X77309766Y-131041143D01*
X77282692Y-131000623D01*
X77282561Y-130998627D01*
X77284224Y-130997516D01*
X77285769Y-130998098D01*
G37*
G36*
X74885769Y-130998098D02*
G01*
X74906316Y-131018645D01*
X74907152Y-131018421D01*
X74908135Y-131019031D01*
X74934372Y-131048828D01*
X75000976Y-131067812D01*
X75067279Y-131047771D01*
X75092024Y-131019213D01*
X75093694Y-131018635D01*
X75114231Y-130998098D01*
X75116163Y-130997580D01*
X75117577Y-130998994D01*
X75117308Y-131000623D01*
X75090234Y-131041143D01*
X75076000Y-131112699D01*
X75076000Y-132312301D01*
X75090234Y-132383857D01*
X75117308Y-132424377D01*
X75117439Y-132426373D01*
X75115776Y-132427484D01*
X75114231Y-132426902D01*
X75093684Y-132406355D01*
X75092848Y-132406579D01*
X75091865Y-132405969D01*
X75065628Y-132376172D01*
X74999024Y-132357188D01*
X74932721Y-132377229D01*
X74907976Y-132405787D01*
X74906306Y-132406365D01*
X74885769Y-132426902D01*
X74883837Y-132427420D01*
X74882423Y-132426006D01*
X74882692Y-132424377D01*
X74909766Y-132383857D01*
X74924000Y-132312301D01*
X74924000Y-131112699D01*
X74909766Y-131041143D01*
X74882692Y-131000623D01*
X74882561Y-130998627D01*
X74884224Y-130997516D01*
X74885769Y-130998098D01*
G37*
G36*
X74085769Y-130998098D02*
G01*
X74106316Y-131018645D01*
X74107152Y-131018421D01*
X74108135Y-131019031D01*
X74134372Y-131048828D01*
X74200976Y-131067812D01*
X74267279Y-131047771D01*
X74292024Y-131019213D01*
X74293694Y-131018635D01*
X74314231Y-130998098D01*
X74316163Y-130997580D01*
X74317577Y-130998994D01*
X74317308Y-131000623D01*
X74290234Y-131041143D01*
X74276000Y-131112699D01*
X74276000Y-132312301D01*
X74290234Y-132383857D01*
X74317308Y-132424377D01*
X74317439Y-132426373D01*
X74315776Y-132427484D01*
X74314231Y-132426902D01*
X74293684Y-132406355D01*
X74292848Y-132406579D01*
X74291865Y-132405969D01*
X74265628Y-132376172D01*
X74199024Y-132357188D01*
X74132721Y-132377229D01*
X74107976Y-132405787D01*
X74106306Y-132406365D01*
X74085769Y-132426902D01*
X74083837Y-132427420D01*
X74082423Y-132426006D01*
X74082692Y-132424377D01*
X74109766Y-132383857D01*
X74124000Y-132312301D01*
X74124000Y-131112699D01*
X74109766Y-131041143D01*
X74082692Y-131000623D01*
X74082561Y-130998627D01*
X74084224Y-130997516D01*
X74085769Y-130998098D01*
G37*
G36*
X76485769Y-130998098D02*
G01*
X76506316Y-131018645D01*
X76507152Y-131018421D01*
X76508135Y-131019031D01*
X76534372Y-131048828D01*
X76600976Y-131067812D01*
X76667279Y-131047771D01*
X76692024Y-131019213D01*
X76693694Y-131018635D01*
X76714231Y-130998098D01*
X76716163Y-130997580D01*
X76717577Y-130998994D01*
X76717308Y-131000623D01*
X76690234Y-131041143D01*
X76676000Y-131112699D01*
X76676000Y-132312301D01*
X76690234Y-132383857D01*
X76717308Y-132424377D01*
X76717439Y-132426373D01*
X76715776Y-132427484D01*
X76714231Y-132426902D01*
X76693684Y-132406355D01*
X76692848Y-132406579D01*
X76691865Y-132405969D01*
X76665628Y-132376172D01*
X76599024Y-132357188D01*
X76532721Y-132377229D01*
X76507976Y-132405787D01*
X76506306Y-132406365D01*
X76485769Y-132426902D01*
X76483837Y-132427420D01*
X76482423Y-132426006D01*
X76482692Y-132424377D01*
X76509766Y-132383857D01*
X76524000Y-132312301D01*
X76524000Y-131112699D01*
X76509766Y-131041143D01*
X76482692Y-131000623D01*
X76482561Y-130998627D01*
X76484224Y-130997516D01*
X76485769Y-130998098D01*
G37*
G36*
X72485769Y-130998098D02*
G01*
X72506316Y-131018645D01*
X72507152Y-131018421D01*
X72508135Y-131019031D01*
X72534372Y-131048828D01*
X72600976Y-131067812D01*
X72667279Y-131047771D01*
X72692024Y-131019213D01*
X72693694Y-131018635D01*
X72714231Y-130998098D01*
X72716163Y-130997580D01*
X72717577Y-130998994D01*
X72717308Y-131000623D01*
X72690234Y-131041143D01*
X72676000Y-131112699D01*
X72676000Y-132312301D01*
X72690234Y-132383857D01*
X72717308Y-132424377D01*
X72717439Y-132426373D01*
X72715776Y-132427484D01*
X72714231Y-132426902D01*
X72693684Y-132406355D01*
X72692848Y-132406579D01*
X72691865Y-132405969D01*
X72665628Y-132376172D01*
X72599024Y-132357188D01*
X72532721Y-132377229D01*
X72507976Y-132405787D01*
X72506306Y-132406365D01*
X72485769Y-132426902D01*
X72483837Y-132427420D01*
X72482423Y-132426006D01*
X72482692Y-132424377D01*
X72509766Y-132383857D01*
X72524000Y-132312301D01*
X72524000Y-131112699D01*
X72509766Y-131041143D01*
X72482692Y-131000623D01*
X72482561Y-130998627D01*
X72484224Y-130997516D01*
X72485769Y-130998098D01*
G37*
G36*
X70085769Y-130998098D02*
G01*
X70106316Y-131018645D01*
X70107152Y-131018421D01*
X70108135Y-131019031D01*
X70134372Y-131048828D01*
X70200976Y-131067812D01*
X70267279Y-131047771D01*
X70292024Y-131019213D01*
X70293694Y-131018635D01*
X70314231Y-130998098D01*
X70316163Y-130997580D01*
X70317577Y-130998994D01*
X70317308Y-131000623D01*
X70290234Y-131041143D01*
X70276000Y-131112699D01*
X70276000Y-132312301D01*
X70290234Y-132383857D01*
X70317308Y-132424377D01*
X70317439Y-132426373D01*
X70315776Y-132427484D01*
X70314231Y-132426902D01*
X70293684Y-132406355D01*
X70292848Y-132406579D01*
X70291865Y-132405969D01*
X70265628Y-132376172D01*
X70199024Y-132357188D01*
X70132721Y-132377229D01*
X70107976Y-132405787D01*
X70106306Y-132406365D01*
X70085769Y-132426902D01*
X70083837Y-132427420D01*
X70082423Y-132426006D01*
X70082692Y-132424377D01*
X70109766Y-132383857D01*
X70124000Y-132312301D01*
X70124000Y-131112699D01*
X70109766Y-131041143D01*
X70082692Y-131000623D01*
X70082561Y-130998627D01*
X70084224Y-130997516D01*
X70085769Y-130998098D01*
G37*
G36*
X116482590Y-125743081D02*
G01*
X116499620Y-125748081D01*
X116500185Y-125748673D01*
X116501000Y-125748673D01*
X116501512Y-125749095D01*
X116504403Y-125752432D01*
X116504845Y-125753317D01*
X116506954Y-125763013D01*
X116507000Y-125763438D01*
X116507000Y-129419714D01*
X116526596Y-129486453D01*
X116578999Y-129531859D01*
X116630213Y-129543000D01*
X124581893Y-129543000D01*
X124648632Y-129523404D01*
X124694059Y-129470977D01*
X124704947Y-129427542D01*
X124715393Y-129261516D01*
X124715424Y-129261267D01*
X124716202Y-129257189D01*
X124717509Y-129255675D01*
X124719474Y-129256050D01*
X124720163Y-129257695D01*
X124700996Y-129550131D01*
X124699885Y-129551794D01*
X124699000Y-129552000D01*
X116500000Y-129552000D01*
X116498268Y-129551000D01*
X116498000Y-129550000D01*
X116498000Y-125752000D01*
X113252000Y-125752000D01*
X113252000Y-126698000D01*
X115100000Y-126698000D01*
X115101732Y-126699000D01*
X115102000Y-126700000D01*
X115102000Y-130798000D01*
X123807510Y-130798000D01*
X123809242Y-130799000D01*
X123809242Y-130801000D01*
X123808621Y-130801663D01*
X123804450Y-130804450D01*
X123746418Y-130891300D01*
X123733609Y-130955695D01*
X123732290Y-130957199D01*
X123730328Y-130956809D01*
X123729672Y-130954992D01*
X123730538Y-130949527D01*
X123721622Y-130880539D01*
X123677025Y-130827562D01*
X123608803Y-130807000D01*
X115117973Y-130807000D01*
X115117410Y-130806919D01*
X115100380Y-130801919D01*
X115099815Y-130801327D01*
X115099000Y-130801327D01*
X115098488Y-130800905D01*
X115095597Y-130797568D01*
X115095155Y-130796683D01*
X115093046Y-130786987D01*
X115093000Y-130786562D01*
X115093000Y-126830286D01*
X115073404Y-126763547D01*
X115021001Y-126718141D01*
X114969787Y-126707000D01*
X113267973Y-126707000D01*
X113267410Y-126706919D01*
X113250380Y-126701919D01*
X113249815Y-126701327D01*
X113249000Y-126701327D01*
X113248488Y-126700905D01*
X113245597Y-126697568D01*
X113245155Y-126696683D01*
X113243046Y-126686987D01*
X113243000Y-126686562D01*
X113243000Y-125767973D01*
X113243081Y-125767410D01*
X113248081Y-125750380D01*
X113248673Y-125749815D01*
X113248673Y-125749000D01*
X113249095Y-125748488D01*
X113252432Y-125745597D01*
X113253317Y-125745155D01*
X113263013Y-125743046D01*
X113263438Y-125743000D01*
X116482027Y-125743000D01*
X116482590Y-125743081D01*
G37*
G36*
X125075423Y-130798889D02*
G01*
X125158480Y-130923194D01*
X125158611Y-130925190D01*
X125156948Y-130926301D01*
X125155276Y-130925580D01*
X125137113Y-130903624D01*
X125136965Y-130903421D01*
X125112158Y-130864333D01*
X125059796Y-130818437D01*
X125007936Y-130807000D01*
X124891188Y-130807000D01*
X124824449Y-130826596D01*
X124779099Y-130878934D01*
X124769463Y-130949534D01*
X124770323Y-130954967D01*
X124769607Y-130956834D01*
X124767631Y-130957147D01*
X124766386Y-130955670D01*
X124753582Y-130891300D01*
X124695550Y-130804450D01*
X124691379Y-130801663D01*
X124690494Y-130799869D01*
X124691605Y-130798206D01*
X124692490Y-130798000D01*
X125073760Y-130798000D01*
X125075423Y-130798889D01*
G37*
G36*
X67425623Y-129532692D02*
G01*
X67466143Y-129559766D01*
X67537699Y-129574000D01*
X68737301Y-129574000D01*
X68808857Y-129559766D01*
X68849377Y-129532692D01*
X68851373Y-129532561D01*
X68852484Y-129534224D01*
X68851902Y-129535769D01*
X68831355Y-129556316D01*
X68831579Y-129557152D01*
X68830969Y-129558135D01*
X68801172Y-129584372D01*
X68782188Y-129650976D01*
X68802229Y-129717279D01*
X68830787Y-129742024D01*
X68831365Y-129743694D01*
X68851902Y-129764231D01*
X68852420Y-129766163D01*
X68851006Y-129767577D01*
X68849377Y-129767308D01*
X68808857Y-129740234D01*
X68737301Y-129726000D01*
X67537699Y-129726000D01*
X67466143Y-129740234D01*
X67425623Y-129767308D01*
X67423627Y-129767439D01*
X67422516Y-129765776D01*
X67423098Y-129764231D01*
X67443645Y-129743684D01*
X67443421Y-129742848D01*
X67444031Y-129741865D01*
X67473828Y-129715628D01*
X67492812Y-129649024D01*
X67472771Y-129582721D01*
X67444213Y-129557976D01*
X67443635Y-129556306D01*
X67423098Y-129535769D01*
X67422580Y-129533837D01*
X67423994Y-129532423D01*
X67425623Y-129532692D01*
G37*
G36*
X78750623Y-129532692D02*
G01*
X78791143Y-129559766D01*
X78862699Y-129574000D01*
X80062301Y-129574000D01*
X80133857Y-129559766D01*
X80174377Y-129532692D01*
X80176373Y-129532561D01*
X80177484Y-129534224D01*
X80176902Y-129535769D01*
X80156355Y-129556316D01*
X80156579Y-129557152D01*
X80155969Y-129558135D01*
X80126172Y-129584372D01*
X80107188Y-129650976D01*
X80127229Y-129717279D01*
X80155787Y-129742024D01*
X80156365Y-129743694D01*
X80176902Y-129764231D01*
X80177420Y-129766163D01*
X80176006Y-129767577D01*
X80174377Y-129767308D01*
X80133857Y-129740234D01*
X80062301Y-129726000D01*
X78862699Y-129726000D01*
X78791143Y-129740234D01*
X78750623Y-129767308D01*
X78748627Y-129767439D01*
X78747516Y-129765776D01*
X78748098Y-129764231D01*
X78768645Y-129743684D01*
X78768421Y-129742848D01*
X78769031Y-129741865D01*
X78798828Y-129715628D01*
X78817812Y-129649024D01*
X78797771Y-129582721D01*
X78769213Y-129557976D01*
X78768635Y-129556306D01*
X78748098Y-129535769D01*
X78747580Y-129533837D01*
X78748994Y-129532423D01*
X78750623Y-129532692D01*
G37*
G36*
X55105850Y-128350754D02*
G01*
X55106019Y-128352030D01*
X55103400Y-128365199D01*
X55103400Y-129634801D01*
X55106019Y-129647970D01*
X55105376Y-129649864D01*
X55103414Y-129650254D01*
X55102672Y-129649683D01*
X55102650Y-129649709D01*
X55049055Y-129604919D01*
X54980339Y-129596288D01*
X54917709Y-129626252D01*
X54897660Y-129649389D01*
X54897607Y-129649469D01*
X54897579Y-129649483D01*
X54897578Y-129649484D01*
X54895814Y-129650356D01*
X54894150Y-129649246D01*
X54893981Y-129647970D01*
X54896600Y-129634801D01*
X54896600Y-128365199D01*
X54893981Y-128352030D01*
X54894624Y-128350136D01*
X54896586Y-128349746D01*
X54897328Y-128350317D01*
X54897350Y-128350291D01*
X54950945Y-128395081D01*
X55019661Y-128403712D01*
X55082291Y-128373748D01*
X55102340Y-128350611D01*
X55102393Y-128350531D01*
X55102421Y-128350517D01*
X55102422Y-128350516D01*
X55104186Y-128349644D01*
X55105850Y-128350754D01*
G37*
G36*
X47243315Y-128903988D02*
G01*
X47243600Y-128905467D01*
X47226000Y-128993949D01*
X47226000Y-129506051D01*
X47243600Y-129594533D01*
X47242957Y-129596427D01*
X47240995Y-129596817D01*
X47239856Y-129595831D01*
X47236902Y-129590034D01*
X47236709Y-129589439D01*
X47232336Y-129561827D01*
X47202542Y-129498973D01*
X47143749Y-129462363D01*
X47074498Y-129463352D01*
X47016645Y-129501708D01*
X46998384Y-129530882D01*
X46991806Y-129545656D01*
X46990188Y-129546832D01*
X46988361Y-129546019D01*
X46988095Y-129544172D01*
X47027877Y-129432450D01*
X47048967Y-129255577D01*
X47030348Y-129078429D01*
X46990287Y-128960750D01*
X46990675Y-128958788D01*
X46992568Y-128958143D01*
X46994007Y-128959291D01*
X46998323Y-128968983D01*
X47043370Y-129021981D01*
X47109635Y-129042127D01*
X47176269Y-129023249D01*
X47222223Y-128971225D01*
X47232312Y-128938320D01*
X47236709Y-128910561D01*
X47236902Y-128909966D01*
X47239856Y-128904169D01*
X47241533Y-128903080D01*
X47243315Y-128903988D01*
G37*
G36*
X78750623Y-128732692D02*
G01*
X78791143Y-128759766D01*
X78862699Y-128774000D01*
X80062301Y-128774000D01*
X80133857Y-128759766D01*
X80174377Y-128732692D01*
X80176373Y-128732561D01*
X80177484Y-128734224D01*
X80176902Y-128735769D01*
X80156355Y-128756316D01*
X80156579Y-128757152D01*
X80155969Y-128758135D01*
X80126172Y-128784372D01*
X80107188Y-128850976D01*
X80127229Y-128917279D01*
X80155787Y-128942024D01*
X80156365Y-128943694D01*
X80176902Y-128964231D01*
X80177420Y-128966163D01*
X80176006Y-128967577D01*
X80174377Y-128967308D01*
X80133857Y-128940234D01*
X80062301Y-128926000D01*
X78862699Y-128926000D01*
X78791143Y-128940234D01*
X78750623Y-128967308D01*
X78748627Y-128967439D01*
X78747516Y-128965776D01*
X78748098Y-128964231D01*
X78768645Y-128943684D01*
X78768421Y-128942848D01*
X78769031Y-128941865D01*
X78798828Y-128915628D01*
X78817812Y-128849024D01*
X78797771Y-128782721D01*
X78769213Y-128757976D01*
X78768635Y-128756306D01*
X78748098Y-128735769D01*
X78747580Y-128733837D01*
X78748994Y-128732423D01*
X78750623Y-128732692D01*
G37*
G36*
X67425623Y-128732692D02*
G01*
X67466143Y-128759766D01*
X67537699Y-128774000D01*
X68737301Y-128774000D01*
X68808857Y-128759766D01*
X68849377Y-128732692D01*
X68851373Y-128732561D01*
X68852484Y-128734224D01*
X68851902Y-128735769D01*
X68831355Y-128756316D01*
X68831579Y-128757152D01*
X68830969Y-128758135D01*
X68801172Y-128784372D01*
X68782188Y-128850976D01*
X68802229Y-128917279D01*
X68830787Y-128942024D01*
X68831365Y-128943694D01*
X68851902Y-128964231D01*
X68852420Y-128966163D01*
X68851006Y-128967577D01*
X68849377Y-128967308D01*
X68808857Y-128940234D01*
X68737301Y-128926000D01*
X67537699Y-128926000D01*
X67466143Y-128940234D01*
X67425623Y-128967308D01*
X67423627Y-128967439D01*
X67422516Y-128965776D01*
X67423098Y-128964231D01*
X67443645Y-128943684D01*
X67443421Y-128942848D01*
X67444031Y-128941865D01*
X67473828Y-128915628D01*
X67492812Y-128849024D01*
X67472771Y-128782721D01*
X67444213Y-128757976D01*
X67443635Y-128756306D01*
X67423098Y-128735769D01*
X67422580Y-128733837D01*
X67423994Y-128732423D01*
X67425623Y-128732692D01*
G37*
G36*
X78750623Y-127932692D02*
G01*
X78791143Y-127959766D01*
X78862699Y-127974000D01*
X80062301Y-127974000D01*
X80133857Y-127959766D01*
X80174377Y-127932692D01*
X80176373Y-127932561D01*
X80177484Y-127934224D01*
X80176902Y-127935769D01*
X80156355Y-127956316D01*
X80156579Y-127957152D01*
X80155969Y-127958135D01*
X80126172Y-127984372D01*
X80107188Y-128050976D01*
X80127229Y-128117279D01*
X80155787Y-128142024D01*
X80156365Y-128143694D01*
X80176902Y-128164231D01*
X80177420Y-128166163D01*
X80176006Y-128167577D01*
X80174377Y-128167308D01*
X80133857Y-128140234D01*
X80062301Y-128126000D01*
X78862699Y-128126000D01*
X78791143Y-128140234D01*
X78750623Y-128167308D01*
X78748627Y-128167439D01*
X78747516Y-128165776D01*
X78748098Y-128164231D01*
X78768645Y-128143684D01*
X78768421Y-128142848D01*
X78769031Y-128141865D01*
X78798828Y-128115628D01*
X78817812Y-128049024D01*
X78797771Y-127982721D01*
X78769213Y-127957976D01*
X78768635Y-127956306D01*
X78748098Y-127935769D01*
X78747580Y-127933837D01*
X78748994Y-127932423D01*
X78750623Y-127932692D01*
G37*
G36*
X67425623Y-127932692D02*
G01*
X67466143Y-127959766D01*
X67537699Y-127974000D01*
X68737301Y-127974000D01*
X68808857Y-127959766D01*
X68849377Y-127932692D01*
X68851373Y-127932561D01*
X68852484Y-127934224D01*
X68851902Y-127935769D01*
X68831355Y-127956316D01*
X68831579Y-127957152D01*
X68830969Y-127958135D01*
X68801172Y-127984372D01*
X68782188Y-128050976D01*
X68802229Y-128117279D01*
X68830787Y-128142024D01*
X68831365Y-128143694D01*
X68851902Y-128164231D01*
X68852420Y-128166163D01*
X68851006Y-128167577D01*
X68849377Y-128167308D01*
X68808857Y-128140234D01*
X68737301Y-128126000D01*
X67537699Y-128126000D01*
X67466143Y-128140234D01*
X67425623Y-128167308D01*
X67423627Y-128167439D01*
X67422516Y-128165776D01*
X67423098Y-128164231D01*
X67443645Y-128143684D01*
X67443421Y-128142848D01*
X67444031Y-128141865D01*
X67473828Y-128115628D01*
X67492812Y-128049024D01*
X67472771Y-127982721D01*
X67444213Y-127957976D01*
X67443635Y-127956306D01*
X67423098Y-127935769D01*
X67422580Y-127933837D01*
X67423994Y-127932423D01*
X67425623Y-127932692D01*
G37*
G36*
X78750623Y-127132692D02*
G01*
X78791143Y-127159766D01*
X78862699Y-127174000D01*
X80062301Y-127174000D01*
X80133857Y-127159766D01*
X80174377Y-127132692D01*
X80176373Y-127132561D01*
X80177484Y-127134224D01*
X80176902Y-127135769D01*
X80156355Y-127156316D01*
X80156579Y-127157152D01*
X80155969Y-127158135D01*
X80126172Y-127184372D01*
X80107188Y-127250976D01*
X80127229Y-127317279D01*
X80155787Y-127342024D01*
X80156365Y-127343694D01*
X80176902Y-127364231D01*
X80177420Y-127366163D01*
X80176006Y-127367577D01*
X80174377Y-127367308D01*
X80133857Y-127340234D01*
X80062301Y-127326000D01*
X78862699Y-127326000D01*
X78791143Y-127340234D01*
X78750623Y-127367308D01*
X78748627Y-127367439D01*
X78747516Y-127365776D01*
X78748098Y-127364231D01*
X78768645Y-127343684D01*
X78768421Y-127342848D01*
X78769031Y-127341865D01*
X78798828Y-127315628D01*
X78817812Y-127249024D01*
X78797771Y-127182721D01*
X78769213Y-127157976D01*
X78768635Y-127156306D01*
X78748098Y-127135769D01*
X78747580Y-127133837D01*
X78748994Y-127132423D01*
X78750623Y-127132692D01*
G37*
G36*
X67425623Y-127132692D02*
G01*
X67466143Y-127159766D01*
X67537699Y-127174000D01*
X68737301Y-127174000D01*
X68808857Y-127159766D01*
X68849377Y-127132692D01*
X68851373Y-127132561D01*
X68852484Y-127134224D01*
X68851902Y-127135769D01*
X68831355Y-127156316D01*
X68831579Y-127157152D01*
X68830969Y-127158135D01*
X68801172Y-127184372D01*
X68782188Y-127250976D01*
X68802229Y-127317279D01*
X68830787Y-127342024D01*
X68831365Y-127343694D01*
X68851902Y-127364231D01*
X68852420Y-127366163D01*
X68851006Y-127367577D01*
X68849377Y-127367308D01*
X68808857Y-127340234D01*
X68737301Y-127326000D01*
X67537699Y-127326000D01*
X67466143Y-127340234D01*
X67425623Y-127367308D01*
X67423627Y-127367439D01*
X67422516Y-127365776D01*
X67423098Y-127364231D01*
X67443645Y-127343684D01*
X67443421Y-127342848D01*
X67444031Y-127341865D01*
X67473828Y-127315628D01*
X67492812Y-127249024D01*
X67472771Y-127182721D01*
X67444213Y-127157976D01*
X67443635Y-127156306D01*
X67423098Y-127135769D01*
X67422580Y-127133837D01*
X67423994Y-127132423D01*
X67425623Y-127132692D01*
G37*
G36*
X47243315Y-126403988D02*
G01*
X47243600Y-126405467D01*
X47226000Y-126493949D01*
X47226000Y-127006051D01*
X47243600Y-127094533D01*
X47242957Y-127096427D01*
X47240995Y-127096817D01*
X47239856Y-127095831D01*
X47236902Y-127090034D01*
X47236709Y-127089439D01*
X47232336Y-127061827D01*
X47202542Y-126998973D01*
X47143749Y-126962363D01*
X47074498Y-126963352D01*
X47016645Y-127001708D01*
X46998384Y-127030882D01*
X46991806Y-127045656D01*
X46990188Y-127046832D01*
X46988361Y-127046019D01*
X46988095Y-127044172D01*
X47027877Y-126932450D01*
X47048967Y-126755577D01*
X47030348Y-126578429D01*
X46990287Y-126460750D01*
X46990675Y-126458788D01*
X46992568Y-126458143D01*
X46994007Y-126459291D01*
X46998323Y-126468983D01*
X47043370Y-126521981D01*
X47109635Y-126542127D01*
X47176269Y-126523249D01*
X47222223Y-126471225D01*
X47232312Y-126438320D01*
X47236709Y-126410561D01*
X47236902Y-126409966D01*
X47239856Y-126404169D01*
X47241533Y-126403080D01*
X47243315Y-126403988D01*
G37*
G36*
X37727975Y-126553280D02*
G01*
X37729200Y-126561017D01*
X37729469Y-126560974D01*
X37731337Y-126561691D01*
X37731701Y-126562386D01*
X37747595Y-126616515D01*
X37799938Y-126661870D01*
X37868491Y-126671727D01*
X37931489Y-126642956D01*
X37965642Y-126589814D01*
X37967420Y-126588897D01*
X37969103Y-126589979D01*
X37969311Y-126591132D01*
X37951033Y-126744423D01*
X37968580Y-126911380D01*
X37967767Y-126913207D01*
X37965778Y-126913416D01*
X37964831Y-126912539D01*
X37938325Y-126863442D01*
X37877698Y-126829962D01*
X37808593Y-126834574D01*
X37752953Y-126875813D01*
X37728349Y-126940833D01*
X37727999Y-126950017D01*
X37726933Y-126951710D01*
X37724935Y-126951634D01*
X37724000Y-126949941D01*
X37724000Y-126553593D01*
X37725000Y-126551861D01*
X37727000Y-126551861D01*
X37727975Y-126553280D01*
G37*
G36*
X78750623Y-126332692D02*
G01*
X78791143Y-126359766D01*
X78862699Y-126374000D01*
X80062301Y-126374000D01*
X80133857Y-126359766D01*
X80174377Y-126332692D01*
X80176373Y-126332561D01*
X80177484Y-126334224D01*
X80176902Y-126335769D01*
X80156355Y-126356316D01*
X80156579Y-126357152D01*
X80155969Y-126358135D01*
X80126172Y-126384372D01*
X80107188Y-126450976D01*
X80127229Y-126517279D01*
X80155787Y-126542024D01*
X80156365Y-126543694D01*
X80176902Y-126564231D01*
X80177420Y-126566163D01*
X80176006Y-126567577D01*
X80174377Y-126567308D01*
X80133857Y-126540234D01*
X80062301Y-126526000D01*
X78862699Y-126526000D01*
X78791143Y-126540234D01*
X78750623Y-126567308D01*
X78748627Y-126567439D01*
X78747516Y-126565776D01*
X78748098Y-126564231D01*
X78768645Y-126543684D01*
X78768421Y-126542848D01*
X78769031Y-126541865D01*
X78798828Y-126515628D01*
X78817812Y-126449024D01*
X78797771Y-126382721D01*
X78769213Y-126357976D01*
X78768635Y-126356306D01*
X78748098Y-126335769D01*
X78747580Y-126333837D01*
X78748994Y-126332423D01*
X78750623Y-126332692D01*
G37*
G36*
X67425623Y-126332692D02*
G01*
X67466143Y-126359766D01*
X67537699Y-126374000D01*
X68737301Y-126374000D01*
X68808857Y-126359766D01*
X68849377Y-126332692D01*
X68851373Y-126332561D01*
X68852484Y-126334224D01*
X68851902Y-126335769D01*
X68831355Y-126356316D01*
X68831579Y-126357152D01*
X68830969Y-126358135D01*
X68801172Y-126384372D01*
X68782188Y-126450976D01*
X68802229Y-126517279D01*
X68830787Y-126542024D01*
X68831365Y-126543694D01*
X68851902Y-126564231D01*
X68852420Y-126566163D01*
X68851006Y-126567577D01*
X68849377Y-126567308D01*
X68808857Y-126540234D01*
X68737301Y-126526000D01*
X67537699Y-126526000D01*
X67466143Y-126540234D01*
X67425623Y-126567308D01*
X67423627Y-126567439D01*
X67422516Y-126565776D01*
X67423098Y-126564231D01*
X67443645Y-126543684D01*
X67443421Y-126542848D01*
X67444031Y-126541865D01*
X67473828Y-126515628D01*
X67492812Y-126449024D01*
X67472771Y-126382721D01*
X67444213Y-126357976D01*
X67443635Y-126356306D01*
X67423098Y-126335769D01*
X67422580Y-126333837D01*
X67423994Y-126332423D01*
X67425623Y-126332692D01*
G37*
G36*
X67425623Y-125532692D02*
G01*
X67466143Y-125559766D01*
X67537699Y-125574000D01*
X68737301Y-125574000D01*
X68808857Y-125559766D01*
X68849377Y-125532692D01*
X68851373Y-125532561D01*
X68852484Y-125534224D01*
X68851902Y-125535769D01*
X68831355Y-125556316D01*
X68831579Y-125557152D01*
X68830969Y-125558135D01*
X68801172Y-125584372D01*
X68782188Y-125650976D01*
X68802229Y-125717279D01*
X68830787Y-125742024D01*
X68831365Y-125743694D01*
X68851902Y-125764231D01*
X68852420Y-125766163D01*
X68851006Y-125767577D01*
X68849377Y-125767308D01*
X68808857Y-125740234D01*
X68737301Y-125726000D01*
X67537699Y-125726000D01*
X67466143Y-125740234D01*
X67425623Y-125767308D01*
X67423627Y-125767439D01*
X67422516Y-125765776D01*
X67423098Y-125764231D01*
X67443645Y-125743684D01*
X67443421Y-125742848D01*
X67444031Y-125741865D01*
X67473828Y-125715628D01*
X67492812Y-125649024D01*
X67472771Y-125582721D01*
X67444213Y-125557976D01*
X67443635Y-125556306D01*
X67423098Y-125535769D01*
X67422580Y-125533837D01*
X67423994Y-125532423D01*
X67425623Y-125532692D01*
G37*
G36*
X78750623Y-125532692D02*
G01*
X78791143Y-125559766D01*
X78862699Y-125574000D01*
X80062301Y-125574000D01*
X80133857Y-125559766D01*
X80174377Y-125532692D01*
X80176373Y-125532561D01*
X80177484Y-125534224D01*
X80176902Y-125535769D01*
X80156355Y-125556316D01*
X80156579Y-125557152D01*
X80155969Y-125558135D01*
X80126172Y-125584372D01*
X80107188Y-125650976D01*
X80127229Y-125717279D01*
X80155787Y-125742024D01*
X80156365Y-125743694D01*
X80176902Y-125764231D01*
X80177420Y-125766163D01*
X80176006Y-125767577D01*
X80174377Y-125767308D01*
X80133857Y-125740234D01*
X80062301Y-125726000D01*
X78862699Y-125726000D01*
X78791143Y-125740234D01*
X78750623Y-125767308D01*
X78748627Y-125767439D01*
X78747516Y-125765776D01*
X78748098Y-125764231D01*
X78768645Y-125743684D01*
X78768421Y-125742848D01*
X78769031Y-125741865D01*
X78798828Y-125715628D01*
X78817812Y-125649024D01*
X78797771Y-125582721D01*
X78769213Y-125557976D01*
X78768635Y-125556306D01*
X78748098Y-125535769D01*
X78747580Y-125533837D01*
X78748994Y-125532423D01*
X78750623Y-125532692D01*
G37*
G36*
X67425623Y-124732692D02*
G01*
X67466143Y-124759766D01*
X67537699Y-124774000D01*
X68737301Y-124774000D01*
X68808857Y-124759766D01*
X68849377Y-124732692D01*
X68851373Y-124732561D01*
X68852484Y-124734224D01*
X68851902Y-124735769D01*
X68831355Y-124756316D01*
X68831579Y-124757152D01*
X68830969Y-124758135D01*
X68801172Y-124784372D01*
X68782188Y-124850976D01*
X68802229Y-124917279D01*
X68830787Y-124942024D01*
X68831365Y-124943694D01*
X68851902Y-124964231D01*
X68852420Y-124966163D01*
X68851006Y-124967577D01*
X68849377Y-124967308D01*
X68808857Y-124940234D01*
X68737301Y-124926000D01*
X67537699Y-124926000D01*
X67466143Y-124940234D01*
X67425623Y-124967308D01*
X67423627Y-124967439D01*
X67422516Y-124965776D01*
X67423098Y-124964231D01*
X67443645Y-124943684D01*
X67443421Y-124942848D01*
X67444031Y-124941865D01*
X67473828Y-124915628D01*
X67492812Y-124849024D01*
X67472771Y-124782721D01*
X67444213Y-124757976D01*
X67443635Y-124756306D01*
X67423098Y-124735769D01*
X67422580Y-124733837D01*
X67423994Y-124732423D01*
X67425623Y-124732692D01*
G37*
G36*
X78750623Y-124732692D02*
G01*
X78791143Y-124759766D01*
X78862699Y-124774000D01*
X80062301Y-124774000D01*
X80133857Y-124759766D01*
X80174377Y-124732692D01*
X80176373Y-124732561D01*
X80177484Y-124734224D01*
X80176902Y-124735769D01*
X80156355Y-124756316D01*
X80156579Y-124757152D01*
X80155969Y-124758135D01*
X80126172Y-124784372D01*
X80107188Y-124850976D01*
X80127229Y-124917279D01*
X80155787Y-124942024D01*
X80156365Y-124943694D01*
X80176902Y-124964231D01*
X80177420Y-124966163D01*
X80176006Y-124967577D01*
X80174377Y-124967308D01*
X80133857Y-124940234D01*
X80062301Y-124926000D01*
X78862699Y-124926000D01*
X78791143Y-124940234D01*
X78750623Y-124967308D01*
X78748627Y-124967439D01*
X78747516Y-124965776D01*
X78748098Y-124964231D01*
X78768645Y-124943684D01*
X78768421Y-124942848D01*
X78769031Y-124941865D01*
X78798828Y-124915628D01*
X78817812Y-124849024D01*
X78797771Y-124782721D01*
X78769213Y-124757976D01*
X78768635Y-124756306D01*
X78748098Y-124735769D01*
X78747580Y-124733837D01*
X78748994Y-124732423D01*
X78750623Y-124732692D01*
G37*
G36*
X116482590Y-119243081D02*
G01*
X116499620Y-119248081D01*
X116500185Y-119248673D01*
X116501000Y-119248673D01*
X116501512Y-119249095D01*
X116504403Y-119252432D01*
X116504845Y-119253317D01*
X116506954Y-119263013D01*
X116507000Y-119263438D01*
X116507000Y-123219714D01*
X116526596Y-123286453D01*
X116578999Y-123331859D01*
X116630213Y-123343000D01*
X124756749Y-123343000D01*
X124823488Y-123323404D01*
X124868843Y-123271061D01*
X124878720Y-123202363D01*
X124872533Y-123181730D01*
X124872994Y-123179784D01*
X124874909Y-123179210D01*
X124876243Y-123180271D01*
X124959509Y-123349115D01*
X124959378Y-123351111D01*
X124957715Y-123352000D01*
X116500000Y-123352000D01*
X116498268Y-123351000D01*
X116498000Y-123350000D01*
X116498000Y-119252000D01*
X113252000Y-119252000D01*
X113252000Y-120448000D01*
X115100000Y-120448000D01*
X115101732Y-120449000D01*
X115102000Y-120450000D01*
X115102000Y-124548000D01*
X126542230Y-124548000D01*
X126542620Y-124548038D01*
X126634011Y-124566217D01*
X126635515Y-124567536D01*
X126635125Y-124569498D01*
X126633370Y-124570163D01*
X126568634Y-124561985D01*
X126568388Y-124561938D01*
X126564327Y-124560895D01*
X126533492Y-124557000D01*
X115117973Y-124557000D01*
X115117410Y-124556919D01*
X115100380Y-124551919D01*
X115099815Y-124551327D01*
X115099000Y-124551327D01*
X115098488Y-124550905D01*
X115095597Y-124547568D01*
X115095155Y-124546683D01*
X115093046Y-124536987D01*
X115093000Y-124536562D01*
X115093000Y-120580286D01*
X115073404Y-120513547D01*
X115021001Y-120468141D01*
X114969787Y-120457000D01*
X113267973Y-120457000D01*
X113267410Y-120456919D01*
X113250380Y-120451919D01*
X113249815Y-120451327D01*
X113249000Y-120451327D01*
X113248488Y-120450905D01*
X113245597Y-120447568D01*
X113245155Y-120446683D01*
X113243046Y-120436987D01*
X113243000Y-120436562D01*
X113243000Y-119267973D01*
X113243081Y-119267410D01*
X113248081Y-119250380D01*
X113248673Y-119249815D01*
X113248673Y-119249000D01*
X113249095Y-119248488D01*
X113252432Y-119245597D01*
X113253317Y-119245155D01*
X113263013Y-119243046D01*
X113263438Y-119243000D01*
X116482027Y-119243000D01*
X116482590Y-119243081D01*
G37*
G36*
X67425623Y-123932692D02*
G01*
X67466143Y-123959766D01*
X67537699Y-123974000D01*
X68737301Y-123974000D01*
X68808857Y-123959766D01*
X68849377Y-123932692D01*
X68851373Y-123932561D01*
X68852484Y-123934224D01*
X68851902Y-123935769D01*
X68831355Y-123956316D01*
X68831579Y-123957152D01*
X68830969Y-123958135D01*
X68801172Y-123984372D01*
X68782188Y-124050976D01*
X68802229Y-124117279D01*
X68830787Y-124142024D01*
X68831365Y-124143694D01*
X68851902Y-124164231D01*
X68852420Y-124166163D01*
X68851006Y-124167577D01*
X68849377Y-124167308D01*
X68808857Y-124140234D01*
X68737301Y-124126000D01*
X67537699Y-124126000D01*
X67466143Y-124140234D01*
X67425623Y-124167308D01*
X67423627Y-124167439D01*
X67422516Y-124165776D01*
X67423098Y-124164231D01*
X67443645Y-124143684D01*
X67443421Y-124142848D01*
X67444031Y-124141865D01*
X67473828Y-124115628D01*
X67492812Y-124049024D01*
X67472771Y-123982721D01*
X67444213Y-123957976D01*
X67443635Y-123956306D01*
X67423098Y-123935769D01*
X67422580Y-123933837D01*
X67423994Y-123932423D01*
X67425623Y-123932692D01*
G37*
G36*
X78750623Y-123932692D02*
G01*
X78791143Y-123959766D01*
X78862699Y-123974000D01*
X80062301Y-123974000D01*
X80133857Y-123959766D01*
X80174377Y-123932692D01*
X80176373Y-123932561D01*
X80177484Y-123934224D01*
X80176902Y-123935769D01*
X80156355Y-123956316D01*
X80156579Y-123957152D01*
X80155969Y-123958135D01*
X80126172Y-123984372D01*
X80107188Y-124050976D01*
X80127229Y-124117279D01*
X80155787Y-124142024D01*
X80156365Y-124143694D01*
X80176902Y-124164231D01*
X80177420Y-124166163D01*
X80176006Y-124167577D01*
X80174377Y-124167308D01*
X80133857Y-124140234D01*
X80062301Y-124126000D01*
X78862699Y-124126000D01*
X78791143Y-124140234D01*
X78750623Y-124167308D01*
X78748627Y-124167439D01*
X78747516Y-124165776D01*
X78748098Y-124164231D01*
X78768645Y-124143684D01*
X78768421Y-124142848D01*
X78769031Y-124141865D01*
X78798828Y-124115628D01*
X78817812Y-124049024D01*
X78797771Y-123982721D01*
X78769213Y-123957976D01*
X78768635Y-123956306D01*
X78748098Y-123935769D01*
X78747580Y-123933837D01*
X78748994Y-123932423D01*
X78750623Y-123932692D01*
G37*
G36*
X67425623Y-123132692D02*
G01*
X67466143Y-123159766D01*
X67537699Y-123174000D01*
X68737301Y-123174000D01*
X68808857Y-123159766D01*
X68849377Y-123132692D01*
X68851373Y-123132561D01*
X68852484Y-123134224D01*
X68851902Y-123135769D01*
X68831355Y-123156316D01*
X68831579Y-123157152D01*
X68830969Y-123158135D01*
X68801172Y-123184372D01*
X68782188Y-123250976D01*
X68802229Y-123317279D01*
X68830787Y-123342024D01*
X68831365Y-123343694D01*
X68851902Y-123364231D01*
X68852420Y-123366163D01*
X68851006Y-123367577D01*
X68849377Y-123367308D01*
X68808857Y-123340234D01*
X68737301Y-123326000D01*
X67537699Y-123326000D01*
X67466143Y-123340234D01*
X67425623Y-123367308D01*
X67423627Y-123367439D01*
X67422516Y-123365776D01*
X67423098Y-123364231D01*
X67443645Y-123343684D01*
X67443421Y-123342848D01*
X67444031Y-123341865D01*
X67473828Y-123315628D01*
X67492812Y-123249024D01*
X67472771Y-123182721D01*
X67444213Y-123157976D01*
X67443635Y-123156306D01*
X67423098Y-123135769D01*
X67422580Y-123133837D01*
X67423994Y-123132423D01*
X67425623Y-123132692D01*
G37*
G36*
X78750623Y-123132692D02*
G01*
X78791143Y-123159766D01*
X78862699Y-123174000D01*
X80062301Y-123174000D01*
X80133857Y-123159766D01*
X80174377Y-123132692D01*
X80176373Y-123132561D01*
X80177484Y-123134224D01*
X80176902Y-123135769D01*
X80156355Y-123156316D01*
X80156579Y-123157152D01*
X80155969Y-123158135D01*
X80126172Y-123184372D01*
X80107188Y-123250976D01*
X80127229Y-123317279D01*
X80155787Y-123342024D01*
X80156365Y-123343694D01*
X80176902Y-123364231D01*
X80177420Y-123366163D01*
X80176006Y-123367577D01*
X80174377Y-123367308D01*
X80133857Y-123340234D01*
X80062301Y-123326000D01*
X78862699Y-123326000D01*
X78791143Y-123340234D01*
X78750623Y-123367308D01*
X78748627Y-123367439D01*
X78747516Y-123365776D01*
X78748098Y-123364231D01*
X78768645Y-123343684D01*
X78768421Y-123342848D01*
X78769031Y-123341865D01*
X78798828Y-123315628D01*
X78817812Y-123249024D01*
X78797771Y-123182721D01*
X78769213Y-123157976D01*
X78768635Y-123156306D01*
X78748098Y-123135769D01*
X78747580Y-123133837D01*
X78748994Y-123132423D01*
X78750623Y-123132692D01*
G37*
G36*
X67425623Y-122332692D02*
G01*
X67466143Y-122359766D01*
X67537699Y-122374000D01*
X68737301Y-122374000D01*
X68808857Y-122359766D01*
X68849377Y-122332692D01*
X68851373Y-122332561D01*
X68852484Y-122334224D01*
X68851902Y-122335769D01*
X68831355Y-122356316D01*
X68831579Y-122357152D01*
X68830969Y-122358135D01*
X68801172Y-122384372D01*
X68782188Y-122450976D01*
X68802229Y-122517279D01*
X68830787Y-122542024D01*
X68831365Y-122543694D01*
X68851902Y-122564231D01*
X68852420Y-122566163D01*
X68851006Y-122567577D01*
X68849377Y-122567308D01*
X68808857Y-122540234D01*
X68737301Y-122526000D01*
X67537699Y-122526000D01*
X67466143Y-122540234D01*
X67425623Y-122567308D01*
X67423627Y-122567439D01*
X67422516Y-122565776D01*
X67423098Y-122564231D01*
X67443645Y-122543684D01*
X67443421Y-122542848D01*
X67444031Y-122541865D01*
X67473828Y-122515628D01*
X67492812Y-122449024D01*
X67472771Y-122382721D01*
X67444213Y-122357976D01*
X67443635Y-122356306D01*
X67423098Y-122335769D01*
X67422580Y-122333837D01*
X67423994Y-122332423D01*
X67425623Y-122332692D01*
G37*
G36*
X78750623Y-122332692D02*
G01*
X78791143Y-122359766D01*
X78862699Y-122374000D01*
X80062301Y-122374000D01*
X80133857Y-122359766D01*
X80174377Y-122332692D01*
X80176373Y-122332561D01*
X80177484Y-122334224D01*
X80176902Y-122335769D01*
X80156355Y-122356316D01*
X80156579Y-122357152D01*
X80155969Y-122358135D01*
X80126172Y-122384372D01*
X80107188Y-122450976D01*
X80127229Y-122517279D01*
X80155787Y-122542024D01*
X80156365Y-122543694D01*
X80176902Y-122564231D01*
X80177420Y-122566163D01*
X80176006Y-122567577D01*
X80174377Y-122567308D01*
X80133857Y-122540234D01*
X80062301Y-122526000D01*
X78862699Y-122526000D01*
X78791143Y-122540234D01*
X78750623Y-122567308D01*
X78748627Y-122567439D01*
X78747516Y-122565776D01*
X78748098Y-122564231D01*
X78768645Y-122543684D01*
X78768421Y-122542848D01*
X78769031Y-122541865D01*
X78798828Y-122515628D01*
X78817812Y-122449024D01*
X78797771Y-122382721D01*
X78769213Y-122357976D01*
X78768635Y-122356306D01*
X78748098Y-122335769D01*
X78747580Y-122333837D01*
X78748994Y-122332423D01*
X78750623Y-122332692D01*
G37*
G36*
X77285769Y-119673098D02*
G01*
X77306316Y-119693645D01*
X77307152Y-119693421D01*
X77308135Y-119694031D01*
X77334372Y-119723828D01*
X77400976Y-119742812D01*
X77467279Y-119722771D01*
X77492024Y-119694213D01*
X77493694Y-119693635D01*
X77514231Y-119673098D01*
X77516163Y-119672580D01*
X77517577Y-119673994D01*
X77517308Y-119675623D01*
X77490234Y-119716143D01*
X77476000Y-119787699D01*
X77476000Y-120987301D01*
X77490234Y-121058857D01*
X77517308Y-121099377D01*
X77517439Y-121101373D01*
X77515776Y-121102484D01*
X77514231Y-121101902D01*
X77493684Y-121081355D01*
X77492848Y-121081579D01*
X77491865Y-121080969D01*
X77465628Y-121051172D01*
X77399024Y-121032188D01*
X77332721Y-121052229D01*
X77307976Y-121080787D01*
X77306306Y-121081365D01*
X77285769Y-121101902D01*
X77283837Y-121102420D01*
X77282423Y-121101006D01*
X77282692Y-121099377D01*
X77309766Y-121058857D01*
X77324000Y-120987301D01*
X77324000Y-119787699D01*
X77309766Y-119716143D01*
X77282692Y-119675623D01*
X77282561Y-119673627D01*
X77284224Y-119672516D01*
X77285769Y-119673098D01*
G37*
G36*
X73285769Y-119673098D02*
G01*
X73306316Y-119693645D01*
X73307152Y-119693421D01*
X73308135Y-119694031D01*
X73334372Y-119723828D01*
X73400976Y-119742812D01*
X73467279Y-119722771D01*
X73492024Y-119694213D01*
X73493694Y-119693635D01*
X73514231Y-119673098D01*
X73516163Y-119672580D01*
X73517577Y-119673994D01*
X73517308Y-119675623D01*
X73490234Y-119716143D01*
X73476000Y-119787699D01*
X73476000Y-120987301D01*
X73490234Y-121058857D01*
X73517308Y-121099377D01*
X73517439Y-121101373D01*
X73515776Y-121102484D01*
X73514231Y-121101902D01*
X73493684Y-121081355D01*
X73492848Y-121081579D01*
X73491865Y-121080969D01*
X73465628Y-121051172D01*
X73399024Y-121032188D01*
X73332721Y-121052229D01*
X73307976Y-121080787D01*
X73306306Y-121081365D01*
X73285769Y-121101902D01*
X73283837Y-121102420D01*
X73282423Y-121101006D01*
X73282692Y-121099377D01*
X73309766Y-121058857D01*
X73324000Y-120987301D01*
X73324000Y-119787699D01*
X73309766Y-119716143D01*
X73282692Y-119675623D01*
X73282561Y-119673627D01*
X73284224Y-119672516D01*
X73285769Y-119673098D01*
G37*
G36*
X70885769Y-119673098D02*
G01*
X70906316Y-119693645D01*
X70907152Y-119693421D01*
X70908135Y-119694031D01*
X70934372Y-119723828D01*
X71000976Y-119742812D01*
X71067279Y-119722771D01*
X71092024Y-119694213D01*
X71093694Y-119693635D01*
X71114231Y-119673098D01*
X71116163Y-119672580D01*
X71117577Y-119673994D01*
X71117308Y-119675623D01*
X71090234Y-119716143D01*
X71076000Y-119787699D01*
X71076000Y-120987301D01*
X71090234Y-121058857D01*
X71117308Y-121099377D01*
X71117439Y-121101373D01*
X71115776Y-121102484D01*
X71114231Y-121101902D01*
X71093684Y-121081355D01*
X71092848Y-121081579D01*
X71091865Y-121080969D01*
X71065628Y-121051172D01*
X70999024Y-121032188D01*
X70932721Y-121052229D01*
X70907976Y-121080787D01*
X70906306Y-121081365D01*
X70885769Y-121101902D01*
X70883837Y-121102420D01*
X70882423Y-121101006D01*
X70882692Y-121099377D01*
X70909766Y-121058857D01*
X70924000Y-120987301D01*
X70924000Y-119787699D01*
X70909766Y-119716143D01*
X70882692Y-119675623D01*
X70882561Y-119673627D01*
X70884224Y-119672516D01*
X70885769Y-119673098D01*
G37*
G36*
X76485769Y-119673098D02*
G01*
X76506316Y-119693645D01*
X76507152Y-119693421D01*
X76508135Y-119694031D01*
X76534372Y-119723828D01*
X76600976Y-119742812D01*
X76667279Y-119722771D01*
X76692024Y-119694213D01*
X76693694Y-119693635D01*
X76714231Y-119673098D01*
X76716163Y-119672580D01*
X76717577Y-119673994D01*
X76717308Y-119675623D01*
X76690234Y-119716143D01*
X76676000Y-119787699D01*
X76676000Y-120987301D01*
X76690234Y-121058857D01*
X76717308Y-121099377D01*
X76717439Y-121101373D01*
X76715776Y-121102484D01*
X76714231Y-121101902D01*
X76693684Y-121081355D01*
X76692848Y-121081579D01*
X76691865Y-121080969D01*
X76665628Y-121051172D01*
X76599024Y-121032188D01*
X76532721Y-121052229D01*
X76507976Y-121080787D01*
X76506306Y-121081365D01*
X76485769Y-121101902D01*
X76483837Y-121102420D01*
X76482423Y-121101006D01*
X76482692Y-121099377D01*
X76509766Y-121058857D01*
X76524000Y-120987301D01*
X76524000Y-119787699D01*
X76509766Y-119716143D01*
X76482692Y-119675623D01*
X76482561Y-119673627D01*
X76484224Y-119672516D01*
X76485769Y-119673098D01*
G37*
G36*
X75685769Y-119673098D02*
G01*
X75706316Y-119693645D01*
X75707152Y-119693421D01*
X75708135Y-119694031D01*
X75734372Y-119723828D01*
X75800976Y-119742812D01*
X75867279Y-119722771D01*
X75892024Y-119694213D01*
X75893694Y-119693635D01*
X75914231Y-119673098D01*
X75916163Y-119672580D01*
X75917577Y-119673994D01*
X75917308Y-119675623D01*
X75890234Y-119716143D01*
X75876000Y-119787699D01*
X75876000Y-120987301D01*
X75890234Y-121058857D01*
X75917308Y-121099377D01*
X75917439Y-121101373D01*
X75915776Y-121102484D01*
X75914231Y-121101902D01*
X75893684Y-121081355D01*
X75892848Y-121081579D01*
X75891865Y-121080969D01*
X75865628Y-121051172D01*
X75799024Y-121032188D01*
X75732721Y-121052229D01*
X75707976Y-121080787D01*
X75706306Y-121081365D01*
X75685769Y-121101902D01*
X75683837Y-121102420D01*
X75682423Y-121101006D01*
X75682692Y-121099377D01*
X75709766Y-121058857D01*
X75724000Y-120987301D01*
X75724000Y-119787699D01*
X75709766Y-119716143D01*
X75682692Y-119675623D01*
X75682561Y-119673627D01*
X75684224Y-119672516D01*
X75685769Y-119673098D01*
G37*
G36*
X74885769Y-119673098D02*
G01*
X74906316Y-119693645D01*
X74907152Y-119693421D01*
X74908135Y-119694031D01*
X74934372Y-119723828D01*
X75000976Y-119742812D01*
X75067279Y-119722771D01*
X75092024Y-119694213D01*
X75093694Y-119693635D01*
X75114231Y-119673098D01*
X75116163Y-119672580D01*
X75117577Y-119673994D01*
X75117308Y-119675623D01*
X75090234Y-119716143D01*
X75076000Y-119787699D01*
X75076000Y-120987301D01*
X75090234Y-121058857D01*
X75117308Y-121099377D01*
X75117439Y-121101373D01*
X75115776Y-121102484D01*
X75114231Y-121101902D01*
X75093684Y-121081355D01*
X75092848Y-121081579D01*
X75091865Y-121080969D01*
X75065628Y-121051172D01*
X74999024Y-121032188D01*
X74932721Y-121052229D01*
X74907976Y-121080787D01*
X74906306Y-121081365D01*
X74885769Y-121101902D01*
X74883837Y-121102420D01*
X74882423Y-121101006D01*
X74882692Y-121099377D01*
X74909766Y-121058857D01*
X74924000Y-120987301D01*
X74924000Y-119787699D01*
X74909766Y-119716143D01*
X74882692Y-119675623D01*
X74882561Y-119673627D01*
X74884224Y-119672516D01*
X74885769Y-119673098D01*
G37*
G36*
X74085769Y-119673098D02*
G01*
X74106316Y-119693645D01*
X74107152Y-119693421D01*
X74108135Y-119694031D01*
X74134372Y-119723828D01*
X74200976Y-119742812D01*
X74267279Y-119722771D01*
X74292024Y-119694213D01*
X74293694Y-119693635D01*
X74314231Y-119673098D01*
X74316163Y-119672580D01*
X74317577Y-119673994D01*
X74317308Y-119675623D01*
X74290234Y-119716143D01*
X74276000Y-119787699D01*
X74276000Y-120987301D01*
X74290234Y-121058857D01*
X74317308Y-121099377D01*
X74317439Y-121101373D01*
X74315776Y-121102484D01*
X74314231Y-121101902D01*
X74293684Y-121081355D01*
X74292848Y-121081579D01*
X74291865Y-121080969D01*
X74265628Y-121051172D01*
X74199024Y-121032188D01*
X74132721Y-121052229D01*
X74107976Y-121080787D01*
X74106306Y-121081365D01*
X74085769Y-121101902D01*
X74083837Y-121102420D01*
X74082423Y-121101006D01*
X74082692Y-121099377D01*
X74109766Y-121058857D01*
X74124000Y-120987301D01*
X74124000Y-119787699D01*
X74109766Y-119716143D01*
X74082692Y-119675623D01*
X74082561Y-119673627D01*
X74084224Y-119672516D01*
X74085769Y-119673098D01*
G37*
G36*
X70085769Y-119673098D02*
G01*
X70106316Y-119693645D01*
X70107152Y-119693421D01*
X70108135Y-119694031D01*
X70134372Y-119723828D01*
X70200976Y-119742812D01*
X70267279Y-119722771D01*
X70292024Y-119694213D01*
X70293694Y-119693635D01*
X70314231Y-119673098D01*
X70316163Y-119672580D01*
X70317577Y-119673994D01*
X70317308Y-119675623D01*
X70290234Y-119716143D01*
X70276000Y-119787699D01*
X70276000Y-120987301D01*
X70290234Y-121058857D01*
X70317308Y-121099377D01*
X70317439Y-121101373D01*
X70315776Y-121102484D01*
X70314231Y-121101902D01*
X70293684Y-121081355D01*
X70292848Y-121081579D01*
X70291865Y-121080969D01*
X70265628Y-121051172D01*
X70199024Y-121032188D01*
X70132721Y-121052229D01*
X70107976Y-121080787D01*
X70106306Y-121081365D01*
X70085769Y-121101902D01*
X70083837Y-121102420D01*
X70082423Y-121101006D01*
X70082692Y-121099377D01*
X70109766Y-121058857D01*
X70124000Y-120987301D01*
X70124000Y-119787699D01*
X70109766Y-119716143D01*
X70082692Y-119675623D01*
X70082561Y-119673627D01*
X70084224Y-119672516D01*
X70085769Y-119673098D01*
G37*
G36*
X72485769Y-119673098D02*
G01*
X72506316Y-119693645D01*
X72507152Y-119693421D01*
X72508135Y-119694031D01*
X72534372Y-119723828D01*
X72600976Y-119742812D01*
X72667279Y-119722771D01*
X72692024Y-119694213D01*
X72693694Y-119693635D01*
X72714231Y-119673098D01*
X72716163Y-119672580D01*
X72717577Y-119673994D01*
X72717308Y-119675623D01*
X72690234Y-119716143D01*
X72676000Y-119787699D01*
X72676000Y-120987301D01*
X72690234Y-121058857D01*
X72717308Y-121099377D01*
X72717439Y-121101373D01*
X72715776Y-121102484D01*
X72714231Y-121101902D01*
X72693684Y-121081355D01*
X72692848Y-121081579D01*
X72691865Y-121080969D01*
X72665628Y-121051172D01*
X72599024Y-121032188D01*
X72532721Y-121052229D01*
X72507976Y-121080787D01*
X72506306Y-121081365D01*
X72485769Y-121101902D01*
X72483837Y-121102420D01*
X72482423Y-121101006D01*
X72482692Y-121099377D01*
X72509766Y-121058857D01*
X72524000Y-120987301D01*
X72524000Y-119787699D01*
X72509766Y-119716143D01*
X72482692Y-119675623D01*
X72482561Y-119673627D01*
X72484224Y-119672516D01*
X72485769Y-119673098D01*
G37*
G36*
X71685769Y-119673098D02*
G01*
X71706316Y-119693645D01*
X71707152Y-119693421D01*
X71708135Y-119694031D01*
X71734372Y-119723828D01*
X71800976Y-119742812D01*
X71867279Y-119722771D01*
X71892024Y-119694213D01*
X71893694Y-119693635D01*
X71914231Y-119673098D01*
X71916163Y-119672580D01*
X71917577Y-119673994D01*
X71917308Y-119675623D01*
X71890234Y-119716143D01*
X71876000Y-119787699D01*
X71876000Y-120987301D01*
X71890234Y-121058857D01*
X71917308Y-121099377D01*
X71917439Y-121101373D01*
X71915776Y-121102484D01*
X71914231Y-121101902D01*
X71893684Y-121081355D01*
X71892848Y-121081579D01*
X71891865Y-121080969D01*
X71865628Y-121051172D01*
X71799024Y-121032188D01*
X71732721Y-121052229D01*
X71707976Y-121080787D01*
X71706306Y-121081365D01*
X71685769Y-121101902D01*
X71683837Y-121102420D01*
X71682423Y-121101006D01*
X71682692Y-121099377D01*
X71709766Y-121058857D01*
X71724000Y-120987301D01*
X71724000Y-119787699D01*
X71709766Y-119716143D01*
X71682692Y-119675623D01*
X71682561Y-119673627D01*
X71684224Y-119672516D01*
X71685769Y-119673098D01*
G37*
G36*
X116482590Y-113493081D02*
G01*
X116499620Y-113498081D01*
X116500185Y-113498673D01*
X116501000Y-113498673D01*
X116501512Y-113499095D01*
X116504403Y-113502432D01*
X116504845Y-113503317D01*
X116506954Y-113513013D01*
X116507000Y-113513438D01*
X116507000Y-117219714D01*
X116526596Y-117286453D01*
X116578999Y-117331859D01*
X116630213Y-117343000D01*
X124578747Y-117343000D01*
X124645486Y-117323404D01*
X124690913Y-117270977D01*
X124701769Y-117227673D01*
X124703160Y-117226236D01*
X124705100Y-117226722D01*
X124705705Y-117228290D01*
X124701005Y-117300000D01*
X124704273Y-117349869D01*
X124703388Y-117351663D01*
X124702277Y-117352000D01*
X116500000Y-117352000D01*
X116498268Y-117351000D01*
X116498000Y-117350000D01*
X116498000Y-113502000D01*
X113252000Y-113502000D01*
X113252000Y-114398000D01*
X115100000Y-114398000D01*
X115101732Y-114399000D01*
X115102000Y-114400000D01*
X115102000Y-118598000D01*
X125107168Y-118598000D01*
X125108831Y-118598889D01*
X125158485Y-118673200D01*
X125158616Y-118675196D01*
X125156953Y-118676307D01*
X125155281Y-118675586D01*
X125135617Y-118651817D01*
X125077861Y-118612806D01*
X125040509Y-118607000D01*
X124794173Y-118607000D01*
X124727434Y-118626596D01*
X124682079Y-118678939D01*
X124672222Y-118747492D01*
X124696487Y-118800624D01*
X124696297Y-118802615D01*
X124694478Y-118803446D01*
X124693557Y-118803118D01*
X124608700Y-118746418D01*
X124506051Y-118726000D01*
X123993949Y-118726000D01*
X123891300Y-118746418D01*
X123804451Y-118804449D01*
X123804076Y-118805010D01*
X123802282Y-118805894D01*
X123800619Y-118804782D01*
X123800658Y-118802940D01*
X123826219Y-118756127D01*
X123821279Y-118687045D01*
X123779774Y-118631601D01*
X123714636Y-118607305D01*
X123706071Y-118607000D01*
X115117973Y-118607000D01*
X115117410Y-118606919D01*
X115100380Y-118601919D01*
X115099815Y-118601327D01*
X115099000Y-118601327D01*
X115098488Y-118600905D01*
X115095597Y-118597568D01*
X115095155Y-118596683D01*
X115093046Y-118586987D01*
X115093000Y-118586562D01*
X115093000Y-114530286D01*
X115073404Y-114463547D01*
X115021001Y-114418141D01*
X114969787Y-114407000D01*
X113267973Y-114407000D01*
X113267410Y-114406919D01*
X113250380Y-114401919D01*
X113249815Y-114401327D01*
X113249000Y-114401327D01*
X113248488Y-114400905D01*
X113245597Y-114397568D01*
X113245155Y-114396683D01*
X113243046Y-114386987D01*
X113243000Y-114386562D01*
X113243000Y-113517973D01*
X113243081Y-113517410D01*
X113248081Y-113500380D01*
X113248673Y-113499815D01*
X113248673Y-113499000D01*
X113249095Y-113498488D01*
X113252432Y-113495597D01*
X113253317Y-113495155D01*
X113263013Y-113493046D01*
X113263438Y-113493000D01*
X116482027Y-113493000D01*
X116482590Y-113493081D01*
G37*
G36*
X79724743Y-118429520D02*
G01*
X79928033Y-118453760D01*
X80132156Y-118438054D01*
X80274949Y-118398185D01*
X80276886Y-118398682D01*
X80277424Y-118400608D01*
X80276637Y-118401747D01*
X80221993Y-118440171D01*
X80195871Y-118504313D01*
X80208573Y-118572396D01*
X80256143Y-118622884D01*
X80277392Y-118630479D01*
X80277627Y-118630580D01*
X80295832Y-118639856D01*
X80296921Y-118641533D01*
X80296013Y-118643315D01*
X80294534Y-118643600D01*
X80206051Y-118626000D01*
X79693949Y-118626000D01*
X79605467Y-118643600D01*
X79603573Y-118642957D01*
X79603183Y-118640995D01*
X79604169Y-118639856D01*
X79625824Y-118628822D01*
X79624731Y-118626677D01*
X79624836Y-118624680D01*
X79625656Y-118623962D01*
X79655708Y-118609714D01*
X79692313Y-118550920D01*
X79691320Y-118481667D01*
X79652964Y-118423824D01*
X79622313Y-118404917D01*
X79579518Y-118386530D01*
X79578321Y-118384927D01*
X79579110Y-118383089D01*
X79580925Y-118382790D01*
X79724743Y-118429520D01*
G37*
G36*
X37727975Y-114053280D02*
G01*
X37729200Y-114061017D01*
X37729469Y-114060974D01*
X37731337Y-114061691D01*
X37731701Y-114062386D01*
X37747595Y-114116515D01*
X37799938Y-114161870D01*
X37868491Y-114171727D01*
X37931489Y-114142956D01*
X37965642Y-114089814D01*
X37967420Y-114088897D01*
X37969103Y-114089979D01*
X37969311Y-114091132D01*
X37951033Y-114244423D01*
X37968580Y-114411380D01*
X37967767Y-114413207D01*
X37965778Y-114413416D01*
X37964831Y-114412539D01*
X37938325Y-114363442D01*
X37877698Y-114329962D01*
X37808593Y-114334574D01*
X37752953Y-114375813D01*
X37728349Y-114440833D01*
X37727999Y-114450017D01*
X37726933Y-114451710D01*
X37724935Y-114451634D01*
X37724000Y-114449941D01*
X37724000Y-114053593D01*
X37725000Y-114051861D01*
X37727000Y-114051861D01*
X37727975Y-114053280D01*
G37*
G36*
X116482590Y-107243081D02*
G01*
X116499620Y-107248081D01*
X116500185Y-107248673D01*
X116501000Y-107248673D01*
X116501512Y-107249095D01*
X116504403Y-107252432D01*
X116504845Y-107253317D01*
X116506954Y-107263013D01*
X116507000Y-107263438D01*
X116507000Y-110769714D01*
X116526596Y-110836453D01*
X116578999Y-110881859D01*
X116630213Y-110893000D01*
X124803805Y-110893000D01*
X124870544Y-110873404D01*
X124915899Y-110821061D01*
X124925776Y-110752363D01*
X124916087Y-110720047D01*
X124916548Y-110718101D01*
X124918463Y-110717527D01*
X124919797Y-110718588D01*
X125008823Y-110899115D01*
X125008692Y-110901111D01*
X125007029Y-110902000D01*
X116500000Y-110902000D01*
X116498268Y-110901000D01*
X116498000Y-110900000D01*
X116498000Y-107252000D01*
X113252000Y-107252000D01*
X113252000Y-108098000D01*
X115100000Y-108098000D01*
X115101732Y-108099000D01*
X115102000Y-108100000D01*
X115102000Y-112098000D01*
X126948000Y-112098000D01*
X126948000Y-112047723D01*
X126949000Y-112045991D01*
X126950131Y-112045727D01*
X127000000Y-112048995D01*
X127053921Y-112045461D01*
X127055715Y-112046346D01*
X127055846Y-112048342D01*
X127054615Y-112049376D01*
X126991621Y-112067873D01*
X126977684Y-112078306D01*
X126951310Y-112101160D01*
X126951172Y-112101187D01*
X126950904Y-112101511D01*
X126947568Y-112104402D01*
X126946683Y-112104845D01*
X126936987Y-112106954D01*
X126936562Y-112107000D01*
X115117973Y-112107000D01*
X115117410Y-112106919D01*
X115100380Y-112101919D01*
X115099815Y-112101327D01*
X115099000Y-112101327D01*
X115098488Y-112100905D01*
X115095597Y-112097568D01*
X115095155Y-112096683D01*
X115093046Y-112086987D01*
X115093000Y-112086562D01*
X115093000Y-108230286D01*
X115073404Y-108163547D01*
X115021001Y-108118141D01*
X114969787Y-108107000D01*
X113267973Y-108107000D01*
X113267410Y-108106919D01*
X113250380Y-108101919D01*
X113249815Y-108101327D01*
X113249000Y-108101327D01*
X113248488Y-108100905D01*
X113245597Y-108097568D01*
X113245155Y-108096683D01*
X113243046Y-108086987D01*
X113243000Y-108086562D01*
X113243000Y-107267973D01*
X113243081Y-107267410D01*
X113248081Y-107250380D01*
X113248673Y-107249815D01*
X113248673Y-107249000D01*
X113249095Y-107248488D01*
X113252432Y-107245597D01*
X113253317Y-107245155D01*
X113263013Y-107243046D01*
X113263438Y-107243000D01*
X116482027Y-107243000D01*
X116482590Y-107243081D01*
G37*
G36*
X124777919Y-108538289D02*
G01*
X124797596Y-108605303D01*
X124849939Y-108650658D01*
X124918493Y-108660515D01*
X124981627Y-108631682D01*
X124999448Y-108610996D01*
X125001336Y-108610336D01*
X125002851Y-108611641D01*
X125002757Y-108613186D01*
X124876004Y-108870214D01*
X124781353Y-109149049D01*
X124779849Y-109150368D01*
X124777955Y-109149725D01*
X124777460Y-109148349D01*
X124779296Y-109084031D01*
X124743530Y-109024721D01*
X124681378Y-108994164D01*
X124618859Y-109001338D01*
X124617024Y-109000542D01*
X124616796Y-108998555D01*
X124617520Y-108997688D01*
X124695550Y-108945550D01*
X124753582Y-108858700D01*
X124774000Y-108756051D01*
X124774000Y-108538852D01*
X124775000Y-108537120D01*
X124777000Y-108537120D01*
X124777919Y-108538289D01*
G37*
G36*
X41523137Y-108425000D02*
G01*
X41523137Y-108427000D01*
X41521718Y-108427975D01*
X41518600Y-108428469D01*
X41455746Y-108458263D01*
X41419136Y-108517056D01*
X41420125Y-108586307D01*
X41458404Y-108644044D01*
X41518583Y-108671527D01*
X41521729Y-108672025D01*
X41523283Y-108673283D01*
X41522970Y-108675259D01*
X41521416Y-108676000D01*
X41103595Y-108676000D01*
X41101863Y-108675000D01*
X41101863Y-108673000D01*
X41103282Y-108672025D01*
X41106400Y-108671531D01*
X41169254Y-108641737D01*
X41205864Y-108582944D01*
X41204875Y-108513693D01*
X41166596Y-108455956D01*
X41106417Y-108428473D01*
X41103271Y-108427975D01*
X41101717Y-108426717D01*
X41102030Y-108424741D01*
X41103584Y-108424000D01*
X41521405Y-108424000D01*
X41523137Y-108425000D01*
G37*
G36*
X43098137Y-108425000D02*
G01*
X43098137Y-108427000D01*
X43096718Y-108427975D01*
X43093600Y-108428469D01*
X43030746Y-108458263D01*
X42994136Y-108517056D01*
X42995125Y-108586307D01*
X43033404Y-108644044D01*
X43093583Y-108671527D01*
X43096729Y-108672025D01*
X43098283Y-108673283D01*
X43097970Y-108675259D01*
X43096416Y-108676000D01*
X42678595Y-108676000D01*
X42676863Y-108675000D01*
X42676863Y-108673000D01*
X42678282Y-108672025D01*
X42681400Y-108671531D01*
X42744254Y-108641737D01*
X42780864Y-108582944D01*
X42779875Y-108513693D01*
X42741596Y-108455956D01*
X42681417Y-108428473D01*
X42678271Y-108427975D01*
X42676717Y-108426717D01*
X42677030Y-108424741D01*
X42678584Y-108424000D01*
X43096405Y-108424000D01*
X43098137Y-108425000D01*
G37*
G36*
X116482590Y-100993081D02*
G01*
X116499620Y-100998081D01*
X116500185Y-100998673D01*
X116501000Y-100998673D01*
X116501512Y-100999095D01*
X116504403Y-101002432D01*
X116504845Y-101003317D01*
X116506954Y-101013013D01*
X116507000Y-101013438D01*
X116507000Y-104769714D01*
X116526596Y-104836453D01*
X116578999Y-104881859D01*
X116630213Y-104893000D01*
X124574972Y-104893000D01*
X124641711Y-104873404D01*
X124687094Y-104821028D01*
X124697886Y-104762646D01*
X124699185Y-104761125D01*
X124701151Y-104761489D01*
X124701849Y-104762879D01*
X124710827Y-104899869D01*
X124709942Y-104901663D01*
X124708831Y-104902000D01*
X116500000Y-104902000D01*
X116498268Y-104901000D01*
X116498000Y-104900000D01*
X116498000Y-101002000D01*
X113252000Y-101002000D01*
X113252000Y-101948000D01*
X115100000Y-101948000D01*
X115101732Y-101949000D01*
X115102000Y-101950000D01*
X115102000Y-106148000D01*
X125173986Y-106148000D01*
X125175649Y-106148889D01*
X125176082Y-106149537D01*
X125216928Y-106196113D01*
X125217318Y-106198075D01*
X125215814Y-106199394D01*
X125214305Y-106199089D01*
X125160588Y-106162806D01*
X125123236Y-106157000D01*
X115117973Y-106157000D01*
X115117410Y-106156919D01*
X115100380Y-106151919D01*
X115099815Y-106151327D01*
X115099000Y-106151327D01*
X115098488Y-106150905D01*
X115095597Y-106147568D01*
X115095155Y-106146683D01*
X115093046Y-106136987D01*
X115093000Y-106136562D01*
X115093000Y-102080286D01*
X115073404Y-102013547D01*
X115021001Y-101968141D01*
X114969787Y-101957000D01*
X113267973Y-101957000D01*
X113267410Y-101956919D01*
X113250380Y-101951919D01*
X113249815Y-101951327D01*
X113249000Y-101951327D01*
X113248488Y-101950905D01*
X113245597Y-101947568D01*
X113245155Y-101946683D01*
X113243046Y-101936987D01*
X113243000Y-101936562D01*
X113243000Y-101017973D01*
X113243081Y-101017410D01*
X113248081Y-101000380D01*
X113248673Y-100999815D01*
X113248673Y-100999000D01*
X113249095Y-100998488D01*
X113252432Y-100995597D01*
X113253317Y-100995155D01*
X113263013Y-100993046D01*
X113263438Y-100993000D01*
X116482027Y-100993000D01*
X116482590Y-100993081D01*
G37*
G36*
X116482590Y-94743081D02*
G01*
X116499620Y-94748081D01*
X116500185Y-94748673D01*
X116501000Y-94748673D01*
X116501512Y-94749095D01*
X116504403Y-94752432D01*
X116504845Y-94753317D01*
X116506954Y-94763013D01*
X116507000Y-94763438D01*
X116507000Y-98719714D01*
X116526596Y-98786453D01*
X116578999Y-98831859D01*
X116630213Y-98843000D01*
X124756749Y-98843000D01*
X124823488Y-98823404D01*
X124868843Y-98771061D01*
X124878720Y-98702363D01*
X124872533Y-98681730D01*
X124872994Y-98679784D01*
X124874909Y-98679210D01*
X124876243Y-98680271D01*
X124959509Y-98849115D01*
X124959378Y-98851111D01*
X124957715Y-98852000D01*
X116500000Y-98852000D01*
X116498268Y-98851000D01*
X116498000Y-98850000D01*
X116498000Y-94752000D01*
X113252000Y-94752000D01*
X113252000Y-95698000D01*
X115100000Y-95698000D01*
X115101732Y-95699000D01*
X115102000Y-95700000D01*
X115102000Y-100048000D01*
X126542230Y-100048000D01*
X126542620Y-100048038D01*
X126634011Y-100066217D01*
X126635515Y-100067536D01*
X126635125Y-100069498D01*
X126633370Y-100070163D01*
X126568634Y-100061985D01*
X126568388Y-100061938D01*
X126564327Y-100060895D01*
X126533492Y-100057000D01*
X115117973Y-100057000D01*
X115117410Y-100056919D01*
X115100380Y-100051919D01*
X115099815Y-100051327D01*
X115099000Y-100051327D01*
X115098488Y-100050905D01*
X115095597Y-100047568D01*
X115095155Y-100046683D01*
X115093046Y-100036987D01*
X115093000Y-100036562D01*
X115093000Y-95830286D01*
X115073404Y-95763547D01*
X115021001Y-95718141D01*
X114969787Y-95707000D01*
X113267973Y-95707000D01*
X113267410Y-95706919D01*
X113250380Y-95701919D01*
X113249815Y-95701327D01*
X113249000Y-95701327D01*
X113248488Y-95700905D01*
X113245597Y-95697568D01*
X113245155Y-95696683D01*
X113243046Y-95686987D01*
X113243000Y-95686562D01*
X113243000Y-94767973D01*
X113243081Y-94767410D01*
X113248081Y-94750380D01*
X113248673Y-94749815D01*
X113248673Y-94749000D01*
X113249095Y-94748488D01*
X113252432Y-94745597D01*
X113253317Y-94745155D01*
X113263013Y-94743046D01*
X113263438Y-94743000D01*
X116482027Y-94743000D01*
X116482590Y-94743081D01*
G37*
G36*
X60365477Y-97664791D02*
G01*
X60366095Y-97666693D01*
X60364784Y-97668170D01*
X60322774Y-97682471D01*
X60265910Y-97722531D01*
X60239843Y-97786695D01*
X60252605Y-97854769D01*
X60300158Y-97905151D01*
X60362663Y-97922069D01*
X60364073Y-97923487D01*
X60363551Y-97925418D01*
X60362140Y-97926000D01*
X59916482Y-97926000D01*
X59914750Y-97925000D01*
X59914750Y-97923000D01*
X59915919Y-97922081D01*
X59982931Y-97902405D01*
X60028286Y-97850062D01*
X60038143Y-97781509D01*
X60009359Y-97718482D01*
X59960585Y-97685154D01*
X59959719Y-97683351D01*
X59960847Y-97681700D01*
X59962088Y-97681538D01*
X60099252Y-97707703D01*
X60261608Y-97697489D01*
X60363521Y-97664375D01*
X60365477Y-97664791D01*
G37*
G36*
X67439453Y-97677220D02*
G01*
X67599252Y-97707703D01*
X67761608Y-97697489D01*
X67913418Y-97648162D01*
X67915374Y-97648578D01*
X67915992Y-97650480D01*
X67915084Y-97651767D01*
X67910055Y-97654861D01*
X67863480Y-97706521D01*
X67852276Y-97774869D01*
X67879802Y-97838421D01*
X67937503Y-97877129D01*
X67955100Y-97881271D01*
X67989439Y-97886709D01*
X67990034Y-97886902D01*
X67995831Y-97889856D01*
X67996920Y-97891533D01*
X67996012Y-97893315D01*
X67994533Y-97893600D01*
X67906051Y-97876000D01*
X67393949Y-97876000D01*
X67305467Y-97893600D01*
X67303573Y-97892957D01*
X67303183Y-97890995D01*
X67304169Y-97889856D01*
X67309966Y-97886902D01*
X67310561Y-97886709D01*
X67331246Y-97883433D01*
X67394100Y-97853639D01*
X67430710Y-97794846D01*
X67429721Y-97725595D01*
X67391388Y-97667776D01*
X67356617Y-97647826D01*
X67356540Y-97647780D01*
X67325015Y-97627774D01*
X67324089Y-97626001D01*
X67325160Y-97624313D01*
X67326939Y-97624275D01*
X67439453Y-97677220D01*
G37*
G36*
X68939453Y-97677220D02*
G01*
X69099252Y-97707703D01*
X69261608Y-97697489D01*
X69413418Y-97648162D01*
X69415374Y-97648578D01*
X69415992Y-97650480D01*
X69415084Y-97651767D01*
X69410055Y-97654861D01*
X69363480Y-97706521D01*
X69352276Y-97774869D01*
X69379802Y-97838421D01*
X69437503Y-97877129D01*
X69455100Y-97881271D01*
X69489439Y-97886709D01*
X69490034Y-97886902D01*
X69495831Y-97889856D01*
X69496920Y-97891533D01*
X69496012Y-97893315D01*
X69494533Y-97893600D01*
X69406051Y-97876000D01*
X68893949Y-97876000D01*
X68805467Y-97893600D01*
X68803573Y-97892957D01*
X68803183Y-97890995D01*
X68804169Y-97889856D01*
X68809966Y-97886902D01*
X68810561Y-97886709D01*
X68831246Y-97883433D01*
X68894100Y-97853639D01*
X68930710Y-97794846D01*
X68929721Y-97725595D01*
X68891388Y-97667776D01*
X68856617Y-97647826D01*
X68856540Y-97647780D01*
X68825015Y-97627774D01*
X68824089Y-97626001D01*
X68825160Y-97624313D01*
X68826939Y-97624275D01*
X68939453Y-97677220D01*
G37*
G36*
X61024569Y-96064552D02*
G01*
X61024974Y-96066335D01*
X60996117Y-96178721D01*
X60991000Y-96260062D01*
X60991000Y-97059874D01*
X61010044Y-97210630D01*
X61009269Y-97212474D01*
X61007285Y-97212725D01*
X61006433Y-97212044D01*
X60966316Y-97155933D01*
X60901970Y-97130315D01*
X60833988Y-97143552D01*
X60783802Y-97191587D01*
X60774907Y-97210710D01*
X60758842Y-97254846D01*
X60757310Y-97256132D01*
X60755431Y-97255448D01*
X60755026Y-97253665D01*
X60783883Y-97141279D01*
X60789000Y-97059931D01*
X60789000Y-96260124D01*
X60769956Y-96109370D01*
X60770731Y-96107526D01*
X60772715Y-96107275D01*
X60773567Y-96107956D01*
X60813684Y-96164067D01*
X60878030Y-96189685D01*
X60946012Y-96176448D01*
X60996198Y-96128413D01*
X61005093Y-96109290D01*
X61021158Y-96065154D01*
X61022690Y-96063868D01*
X61024569Y-96064552D01*
G37*
G36*
X64024569Y-96064552D02*
G01*
X64024974Y-96066335D01*
X63996117Y-96178721D01*
X63991000Y-96260062D01*
X63991000Y-97059874D01*
X64010044Y-97210630D01*
X64009269Y-97212474D01*
X64007285Y-97212725D01*
X64006433Y-97212044D01*
X63966316Y-97155933D01*
X63901970Y-97130315D01*
X63833988Y-97143552D01*
X63783802Y-97191587D01*
X63774907Y-97210710D01*
X63758842Y-97254846D01*
X63757310Y-97256132D01*
X63755431Y-97255448D01*
X63755026Y-97253665D01*
X63783883Y-97141279D01*
X63789000Y-97059931D01*
X63789000Y-96260124D01*
X63769956Y-96109370D01*
X63770731Y-96107526D01*
X63772715Y-96107275D01*
X63773567Y-96107956D01*
X63813684Y-96164067D01*
X63878030Y-96189685D01*
X63946012Y-96176448D01*
X63996198Y-96128413D01*
X64005093Y-96109290D01*
X64021158Y-96065154D01*
X64022690Y-96063868D01*
X64024569Y-96064552D01*
G37*
G36*
X67024569Y-96064552D02*
G01*
X67024974Y-96066335D01*
X66996117Y-96178721D01*
X66991000Y-96260062D01*
X66991000Y-97059874D01*
X67010044Y-97210630D01*
X67009269Y-97212474D01*
X67007285Y-97212725D01*
X67006433Y-97212044D01*
X66966316Y-97155933D01*
X66901970Y-97130315D01*
X66833988Y-97143552D01*
X66783802Y-97191587D01*
X66774907Y-97210710D01*
X66758842Y-97254846D01*
X66757310Y-97256132D01*
X66755431Y-97255448D01*
X66755026Y-97253665D01*
X66783883Y-97141279D01*
X66789000Y-97059931D01*
X66789000Y-96260124D01*
X66769956Y-96109370D01*
X66770731Y-96107526D01*
X66772715Y-96107275D01*
X66773567Y-96107956D01*
X66813684Y-96164067D01*
X66878030Y-96189685D01*
X66946012Y-96176448D01*
X66996198Y-96128413D01*
X67005093Y-96109290D01*
X67021158Y-96065154D01*
X67022690Y-96063868D01*
X67024569Y-96064552D01*
G37*
G36*
X62524569Y-96064552D02*
G01*
X62524974Y-96066335D01*
X62496117Y-96178721D01*
X62491000Y-96260062D01*
X62491000Y-97059874D01*
X62510044Y-97210630D01*
X62509269Y-97212474D01*
X62507285Y-97212725D01*
X62506433Y-97212044D01*
X62466316Y-97155933D01*
X62401970Y-97130315D01*
X62333988Y-97143552D01*
X62283802Y-97191587D01*
X62274907Y-97210710D01*
X62258842Y-97254846D01*
X62257310Y-97256132D01*
X62255431Y-97255448D01*
X62255026Y-97253665D01*
X62283883Y-97141279D01*
X62289000Y-97059931D01*
X62289000Y-96260124D01*
X62269956Y-96109370D01*
X62270731Y-96107526D01*
X62272715Y-96107275D01*
X62273567Y-96107956D01*
X62313684Y-96164067D01*
X62378030Y-96189685D01*
X62446012Y-96176448D01*
X62496198Y-96128413D01*
X62505093Y-96109290D01*
X62521158Y-96065154D01*
X62522690Y-96063868D01*
X62524569Y-96064552D01*
G37*
G36*
X65524569Y-96064552D02*
G01*
X65524974Y-96066335D01*
X65496117Y-96178721D01*
X65491000Y-96260062D01*
X65491000Y-97059874D01*
X65510044Y-97210630D01*
X65509269Y-97212474D01*
X65507285Y-97212725D01*
X65506433Y-97212044D01*
X65466316Y-97155933D01*
X65401970Y-97130315D01*
X65333988Y-97143552D01*
X65283802Y-97191587D01*
X65274907Y-97210710D01*
X65258842Y-97254846D01*
X65257310Y-97256132D01*
X65255431Y-97255448D01*
X65255026Y-97253665D01*
X65283883Y-97141279D01*
X65289000Y-97059931D01*
X65289000Y-96260124D01*
X65269956Y-96109370D01*
X65270731Y-96107526D01*
X65272715Y-96107275D01*
X65273567Y-96107956D01*
X65313684Y-96164067D01*
X65378030Y-96189685D01*
X65446012Y-96176448D01*
X65496198Y-96128413D01*
X65505093Y-96109290D01*
X65521158Y-96065154D01*
X65522690Y-96063868D01*
X65524569Y-96064552D01*
G37*
G36*
X59524569Y-96064552D02*
G01*
X59524974Y-96066335D01*
X59496117Y-96178721D01*
X59491000Y-96260062D01*
X59491000Y-97059874D01*
X59510044Y-97210630D01*
X59509269Y-97212474D01*
X59507285Y-97212725D01*
X59506433Y-97212044D01*
X59466316Y-97155933D01*
X59401970Y-97130315D01*
X59333988Y-97143552D01*
X59283802Y-97191587D01*
X59274907Y-97210710D01*
X59258842Y-97254846D01*
X59257310Y-97256132D01*
X59255431Y-97255448D01*
X59255026Y-97253665D01*
X59283883Y-97141279D01*
X59289000Y-97059931D01*
X59289000Y-96260124D01*
X59269956Y-96109370D01*
X59270731Y-96107526D01*
X59272715Y-96107275D01*
X59273567Y-96107956D01*
X59313684Y-96164067D01*
X59378030Y-96189685D01*
X59446012Y-96176448D01*
X59496198Y-96128413D01*
X59505093Y-96109290D01*
X59521158Y-96065154D01*
X59522690Y-96063868D01*
X59524569Y-96064552D01*
G37*
G36*
X68524569Y-96064552D02*
G01*
X68524974Y-96066335D01*
X68496117Y-96178721D01*
X68491000Y-96260062D01*
X68491000Y-97059874D01*
X68510044Y-97210630D01*
X68509269Y-97212474D01*
X68507285Y-97212725D01*
X68506433Y-97212044D01*
X68466316Y-97155933D01*
X68401970Y-97130315D01*
X68333988Y-97143552D01*
X68283802Y-97191587D01*
X68274907Y-97210710D01*
X68258842Y-97254846D01*
X68257310Y-97256132D01*
X68255431Y-97255448D01*
X68255026Y-97253665D01*
X68283883Y-97141279D01*
X68289000Y-97059931D01*
X68289000Y-96260124D01*
X68269956Y-96109370D01*
X68270731Y-96107526D01*
X68272715Y-96107275D01*
X68273567Y-96107956D01*
X68313684Y-96164067D01*
X68378030Y-96189685D01*
X68446012Y-96176448D01*
X68496198Y-96128413D01*
X68505093Y-96109290D01*
X68521158Y-96065154D01*
X68522690Y-96063868D01*
X68524569Y-96064552D01*
G37*
G36*
X70024569Y-96064552D02*
G01*
X70024974Y-96066335D01*
X69996117Y-96178721D01*
X69991000Y-96260062D01*
X69991000Y-97059874D01*
X70010044Y-97210630D01*
X70009269Y-97212474D01*
X70007285Y-97212725D01*
X70006433Y-97212044D01*
X69966316Y-97155933D01*
X69901970Y-97130315D01*
X69833988Y-97143552D01*
X69783802Y-97191587D01*
X69774907Y-97210710D01*
X69758842Y-97254846D01*
X69757310Y-97256132D01*
X69755431Y-97255448D01*
X69755026Y-97253665D01*
X69783883Y-97141279D01*
X69789000Y-97059931D01*
X69789000Y-96260124D01*
X69769956Y-96109370D01*
X69770731Y-96107526D01*
X69772715Y-96107275D01*
X69773567Y-96107956D01*
X69813684Y-96164067D01*
X69878030Y-96189685D01*
X69946012Y-96176448D01*
X69996198Y-96128413D01*
X70005093Y-96109290D01*
X70021158Y-96065154D01*
X70022690Y-96063868D01*
X70024569Y-96064552D01*
G37*
G36*
X116482590Y-88743081D02*
G01*
X116499620Y-88748081D01*
X116500185Y-88748673D01*
X116501000Y-88748673D01*
X116501512Y-88749095D01*
X116504403Y-88752432D01*
X116504845Y-88753317D01*
X116506954Y-88763013D01*
X116507000Y-88763438D01*
X116507000Y-92719714D01*
X116526596Y-92786453D01*
X116578999Y-92831859D01*
X116630213Y-92843000D01*
X124578747Y-92843000D01*
X124645486Y-92823404D01*
X124690913Y-92770977D01*
X124701769Y-92727673D01*
X124703160Y-92726236D01*
X124705100Y-92726722D01*
X124705705Y-92728290D01*
X124701005Y-92800000D01*
X124704273Y-92849869D01*
X124703388Y-92851663D01*
X124702277Y-92852000D01*
X116500000Y-92852000D01*
X116498268Y-92851000D01*
X116498000Y-92850000D01*
X116498000Y-88752000D01*
X113252000Y-88752000D01*
X113252000Y-89698000D01*
X115100000Y-89698000D01*
X115101732Y-89699000D01*
X115102000Y-89700000D01*
X115102000Y-94098000D01*
X125107168Y-94098000D01*
X125108831Y-94098889D01*
X125158485Y-94173200D01*
X125158616Y-94175196D01*
X125156953Y-94176307D01*
X125155281Y-94175586D01*
X125135617Y-94151817D01*
X125077861Y-94112806D01*
X125040509Y-94107000D01*
X124294173Y-94107000D01*
X124227434Y-94126596D01*
X124182079Y-94178939D01*
X124172222Y-94247492D01*
X124196487Y-94300624D01*
X124196297Y-94302615D01*
X124194478Y-94303446D01*
X124193557Y-94303118D01*
X124108700Y-94246418D01*
X124006051Y-94226000D01*
X123493949Y-94226000D01*
X123391300Y-94246418D01*
X123304451Y-94304449D01*
X123304076Y-94305010D01*
X123302282Y-94305894D01*
X123300619Y-94304782D01*
X123300658Y-94302940D01*
X123326219Y-94256127D01*
X123321279Y-94187045D01*
X123279774Y-94131601D01*
X123214636Y-94107305D01*
X123206071Y-94107000D01*
X115117973Y-94107000D01*
X115117410Y-94106919D01*
X115100380Y-94101919D01*
X115099815Y-94101327D01*
X115099000Y-94101327D01*
X115098488Y-94100905D01*
X115095597Y-94097568D01*
X115095155Y-94096683D01*
X115093046Y-94086987D01*
X115093000Y-94086562D01*
X115093000Y-89830286D01*
X115073404Y-89763547D01*
X115021001Y-89718141D01*
X114969787Y-89707000D01*
X113267973Y-89707000D01*
X113267410Y-89706919D01*
X113250380Y-89701919D01*
X113249815Y-89701327D01*
X113249000Y-89701327D01*
X113248488Y-89700905D01*
X113245597Y-89697568D01*
X113245155Y-89696683D01*
X113243046Y-89686987D01*
X113243000Y-89686562D01*
X113243000Y-88767973D01*
X113243081Y-88767410D01*
X113248081Y-88750380D01*
X113248673Y-88749815D01*
X113248673Y-88749000D01*
X113249095Y-88748488D01*
X113252432Y-88745597D01*
X113253317Y-88745155D01*
X113263013Y-88743046D01*
X113263438Y-88743000D01*
X116482027Y-88743000D01*
X116482590Y-88743081D01*
G37*
G36*
X116482590Y-82493081D02*
G01*
X116499620Y-82498081D01*
X116500185Y-82498673D01*
X116501000Y-82498673D01*
X116501512Y-82499095D01*
X116504403Y-82502432D01*
X116504845Y-82503317D01*
X116506954Y-82513013D01*
X116507000Y-82513438D01*
X116507000Y-86269714D01*
X116526596Y-86336453D01*
X116578999Y-86381859D01*
X116630213Y-86393000D01*
X124756749Y-86393000D01*
X124823488Y-86373404D01*
X124868843Y-86321061D01*
X124878720Y-86252363D01*
X124872533Y-86231730D01*
X124872994Y-86229784D01*
X124874909Y-86229210D01*
X124876243Y-86230271D01*
X124959509Y-86399115D01*
X124959378Y-86401111D01*
X124957715Y-86402000D01*
X116500000Y-86402000D01*
X116498268Y-86401000D01*
X116498000Y-86400000D01*
X116498000Y-82502000D01*
X113252000Y-82502000D01*
X113252000Y-83498000D01*
X115100000Y-83498000D01*
X115101732Y-83499000D01*
X115102000Y-83500000D01*
X115102000Y-87598000D01*
X126542230Y-87598000D01*
X126542620Y-87598038D01*
X126634011Y-87616217D01*
X126635515Y-87617536D01*
X126635125Y-87619498D01*
X126633370Y-87620163D01*
X126568634Y-87611985D01*
X126568388Y-87611938D01*
X126564327Y-87610895D01*
X126533492Y-87607000D01*
X115117973Y-87607000D01*
X115117410Y-87606919D01*
X115100380Y-87601919D01*
X115099815Y-87601327D01*
X115099000Y-87601327D01*
X115098488Y-87600905D01*
X115095597Y-87597568D01*
X115095155Y-87596683D01*
X115093046Y-87586987D01*
X115093000Y-87586562D01*
X115093000Y-83630286D01*
X115073404Y-83563547D01*
X115021001Y-83518141D01*
X114969787Y-83507000D01*
X113267973Y-83507000D01*
X113267410Y-83506919D01*
X113250380Y-83501919D01*
X113249815Y-83501327D01*
X113249000Y-83501327D01*
X113248488Y-83500905D01*
X113245597Y-83497568D01*
X113245155Y-83496683D01*
X113243046Y-83486987D01*
X113243000Y-83486562D01*
X113243000Y-82517973D01*
X113243081Y-82517410D01*
X113248081Y-82500380D01*
X113248673Y-82499815D01*
X113248673Y-82499000D01*
X113249095Y-82498488D01*
X113252432Y-82495597D01*
X113253317Y-82495155D01*
X113263013Y-82493046D01*
X113263438Y-82493000D01*
X116482027Y-82493000D01*
X116482590Y-82493081D01*
G37*
G36*
X125108831Y-81648889D02*
G01*
X125158485Y-81723200D01*
X125158616Y-81725196D01*
X125156953Y-81726307D01*
X125155281Y-81725586D01*
X125135617Y-81701817D01*
X125077861Y-81662806D01*
X125040509Y-81657000D01*
X124401286Y-81657000D01*
X124334547Y-81676596D01*
X124289141Y-81728999D01*
X124277954Y-81780424D01*
X124276609Y-81781904D01*
X124274655Y-81781479D01*
X124274000Y-81779999D01*
X124274000Y-81650000D01*
X124275000Y-81648268D01*
X124276000Y-81648000D01*
X125107168Y-81648000D01*
X125108831Y-81648889D01*
G37*
G36*
X116482590Y-76493081D02*
G01*
X116499620Y-76498081D01*
X116500185Y-76498673D01*
X116501000Y-76498673D01*
X116501512Y-76499095D01*
X116504403Y-76502432D01*
X116504845Y-76503317D01*
X116506954Y-76513013D01*
X116507000Y-76513438D01*
X116507000Y-80269714D01*
X116526596Y-80336453D01*
X116578999Y-80381859D01*
X116630213Y-80393000D01*
X124578747Y-80393000D01*
X124645486Y-80373404D01*
X124690913Y-80320977D01*
X124701769Y-80277673D01*
X124703160Y-80276236D01*
X124705100Y-80276722D01*
X124705705Y-80278290D01*
X124701005Y-80350000D01*
X124704273Y-80399869D01*
X124703388Y-80401663D01*
X124702277Y-80402000D01*
X116500000Y-80402000D01*
X116498268Y-80401000D01*
X116498000Y-80400000D01*
X116498000Y-76502000D01*
X113252000Y-76502000D01*
X113252000Y-77498000D01*
X115100000Y-77498000D01*
X115101732Y-77499000D01*
X115102000Y-77500000D01*
X115102000Y-81648000D01*
X123224000Y-81648000D01*
X123225732Y-81649000D01*
X123226000Y-81650000D01*
X123226000Y-81779996D01*
X123225000Y-81781728D01*
X123223000Y-81781728D01*
X123222081Y-81780559D01*
X123202405Y-81713547D01*
X123150002Y-81668141D01*
X123098788Y-81657000D01*
X115117973Y-81657000D01*
X115117410Y-81656919D01*
X115100380Y-81651919D01*
X115099815Y-81651327D01*
X115099000Y-81651327D01*
X115098488Y-81650905D01*
X115095597Y-81647568D01*
X115095155Y-81646683D01*
X115093046Y-81636987D01*
X115093000Y-81636562D01*
X115093000Y-77630286D01*
X115073404Y-77563547D01*
X115021001Y-77518141D01*
X114969787Y-77507000D01*
X113267973Y-77507000D01*
X113267410Y-77506919D01*
X113250380Y-77501919D01*
X113249815Y-77501327D01*
X113249000Y-77501327D01*
X113248488Y-77500905D01*
X113245597Y-77497568D01*
X113245155Y-77496683D01*
X113243046Y-77486987D01*
X113243000Y-77486562D01*
X113243000Y-76517973D01*
X113243081Y-76517410D01*
X113248081Y-76500380D01*
X113248673Y-76499815D01*
X113248673Y-76499000D01*
X113249095Y-76498488D01*
X113252432Y-76495597D01*
X113253317Y-76495155D01*
X113263013Y-76493046D01*
X113263438Y-76493000D01*
X116482027Y-76493000D01*
X116482590Y-76493081D01*
G37*
G36*
X116482590Y-70493081D02*
G01*
X116499620Y-70498081D01*
X116500185Y-70498673D01*
X116501000Y-70498673D01*
X116501512Y-70499095D01*
X116504403Y-70502432D01*
X116504845Y-70503317D01*
X116506954Y-70513013D01*
X116507000Y-70513438D01*
X116507000Y-74069714D01*
X116526596Y-74136453D01*
X116578999Y-74181859D01*
X116630213Y-74193000D01*
X124780277Y-74193000D01*
X124847016Y-74173404D01*
X124892371Y-74121061D01*
X124902248Y-74052363D01*
X124894309Y-74025885D01*
X124894770Y-74023939D01*
X124896685Y-74023365D01*
X124898019Y-74024426D01*
X124984166Y-74199115D01*
X124984035Y-74201111D01*
X124982372Y-74202000D01*
X116500000Y-74202000D01*
X116498268Y-74201000D01*
X116498000Y-74200000D01*
X116498000Y-70502000D01*
X113252000Y-70502000D01*
X113252000Y-71248000D01*
X115100000Y-71248000D01*
X115101732Y-71249000D01*
X115102000Y-71250000D01*
X115102000Y-75398000D01*
X126948000Y-75398000D01*
X126948000Y-75397723D01*
X126949000Y-75395991D01*
X126950131Y-75395727D01*
X126966502Y-75396800D01*
X126968165Y-75397911D01*
X126968034Y-75399907D01*
X126966585Y-75400785D01*
X126964135Y-75401048D01*
X126936987Y-75406954D01*
X126936562Y-75407000D01*
X115117973Y-75407000D01*
X115117410Y-75406919D01*
X115100380Y-75401919D01*
X115099815Y-75401327D01*
X115099000Y-75401327D01*
X115098488Y-75400905D01*
X115095597Y-75397568D01*
X115095155Y-75396683D01*
X115093046Y-75386987D01*
X115093000Y-75386562D01*
X115093000Y-71380286D01*
X115073404Y-71313547D01*
X115021001Y-71268141D01*
X114969787Y-71257000D01*
X113267973Y-71257000D01*
X113267410Y-71256919D01*
X113250380Y-71251919D01*
X113249815Y-71251327D01*
X113249000Y-71251327D01*
X113248488Y-71250905D01*
X113245597Y-71247568D01*
X113245155Y-71246683D01*
X113243046Y-71236987D01*
X113243000Y-71236562D01*
X113243000Y-70517973D01*
X113243081Y-70517410D01*
X113248081Y-70500380D01*
X113248673Y-70499815D01*
X113248673Y-70499000D01*
X113249095Y-70498488D01*
X113252432Y-70495597D01*
X113253317Y-70495155D01*
X113263013Y-70493046D01*
X113263438Y-70493000D01*
X116482027Y-70493000D01*
X116482590Y-70493081D01*
G37*
G36*
X45020267Y-71687886D02*
G01*
X45031262Y-71695233D01*
X45050199Y-71699000D01*
X46049801Y-71699000D01*
X46068738Y-71695233D01*
X46079733Y-71687886D01*
X46081729Y-71687755D01*
X46082840Y-71689418D01*
X46082507Y-71690660D01*
X46073291Y-71704452D01*
X46075031Y-71705615D01*
X46075916Y-71707409D01*
X46075455Y-71708560D01*
X46060922Y-71725952D01*
X46052296Y-71794670D01*
X46075082Y-71842288D01*
X46074928Y-71844282D01*
X46074389Y-71844814D01*
X46073291Y-71845548D01*
X46082507Y-71859340D01*
X46082638Y-71861336D01*
X46080975Y-71862447D01*
X46079733Y-71862114D01*
X46068738Y-71854767D01*
X46049801Y-71851000D01*
X45050199Y-71851000D01*
X45031262Y-71854767D01*
X45020267Y-71862114D01*
X45018271Y-71862245D01*
X45017160Y-71860582D01*
X45017493Y-71859340D01*
X45026709Y-71845548D01*
X45024969Y-71844385D01*
X45024084Y-71842591D01*
X45024545Y-71841440D01*
X45039078Y-71824048D01*
X45047704Y-71755330D01*
X45024918Y-71707712D01*
X45025072Y-71705718D01*
X45025611Y-71705186D01*
X45026709Y-71704452D01*
X45017493Y-71690660D01*
X45017362Y-71688664D01*
X45019025Y-71687553D01*
X45020267Y-71687886D01*
G37*
G36*
X50420267Y-71687886D02*
G01*
X50431262Y-71695233D01*
X50450199Y-71699000D01*
X51449801Y-71699000D01*
X51468738Y-71695233D01*
X51479733Y-71687886D01*
X51481729Y-71687755D01*
X51482840Y-71689418D01*
X51482507Y-71690660D01*
X51473291Y-71704452D01*
X51475031Y-71705615D01*
X51475916Y-71707409D01*
X51475455Y-71708560D01*
X51460922Y-71725952D01*
X51452296Y-71794670D01*
X51475082Y-71842288D01*
X51474928Y-71844282D01*
X51474389Y-71844814D01*
X51473291Y-71845548D01*
X51482507Y-71859340D01*
X51482638Y-71861336D01*
X51480975Y-71862447D01*
X51479733Y-71862114D01*
X51468738Y-71854767D01*
X51449801Y-71851000D01*
X50450199Y-71851000D01*
X50431262Y-71854767D01*
X50420267Y-71862114D01*
X50418271Y-71862245D01*
X50417160Y-71860582D01*
X50417493Y-71859340D01*
X50426709Y-71845548D01*
X50424969Y-71844385D01*
X50424084Y-71842591D01*
X50424545Y-71841440D01*
X50439078Y-71824048D01*
X50447704Y-71755330D01*
X50424918Y-71707712D01*
X50425072Y-71705718D01*
X50425611Y-71705186D01*
X50426709Y-71704452D01*
X50417493Y-71690660D01*
X50417362Y-71688664D01*
X50419025Y-71687553D01*
X50420267Y-71687886D01*
G37*
G36*
X45020267Y-71037886D02*
G01*
X45031262Y-71045233D01*
X45050199Y-71049000D01*
X46049801Y-71049000D01*
X46068738Y-71045233D01*
X46079733Y-71037886D01*
X46081729Y-71037755D01*
X46082840Y-71039418D01*
X46082507Y-71040660D01*
X46073291Y-71054452D01*
X46075031Y-71055615D01*
X46075916Y-71057409D01*
X46075455Y-71058560D01*
X46060922Y-71075952D01*
X46052296Y-71144670D01*
X46075082Y-71192288D01*
X46074928Y-71194282D01*
X46074389Y-71194814D01*
X46073291Y-71195548D01*
X46082507Y-71209340D01*
X46082638Y-71211336D01*
X46080975Y-71212447D01*
X46079733Y-71212114D01*
X46068738Y-71204767D01*
X46049801Y-71201000D01*
X45050199Y-71201000D01*
X45031262Y-71204767D01*
X45020267Y-71212114D01*
X45018271Y-71212245D01*
X45017160Y-71210582D01*
X45017493Y-71209340D01*
X45026709Y-71195548D01*
X45024969Y-71194385D01*
X45024084Y-71192591D01*
X45024545Y-71191440D01*
X45039078Y-71174048D01*
X45047704Y-71105330D01*
X45024918Y-71057712D01*
X45025072Y-71055718D01*
X45025611Y-71055186D01*
X45026709Y-71054452D01*
X45017493Y-71040660D01*
X45017362Y-71038664D01*
X45019025Y-71037553D01*
X45020267Y-71037886D01*
G37*
G36*
X50420267Y-71037886D02*
G01*
X50431262Y-71045233D01*
X50450199Y-71049000D01*
X51449801Y-71049000D01*
X51468738Y-71045233D01*
X51479733Y-71037886D01*
X51481729Y-71037755D01*
X51482840Y-71039418D01*
X51482507Y-71040660D01*
X51473291Y-71054452D01*
X51475031Y-71055615D01*
X51475916Y-71057409D01*
X51475455Y-71058560D01*
X51460922Y-71075952D01*
X51452296Y-71144670D01*
X51475082Y-71192288D01*
X51474928Y-71194282D01*
X51474389Y-71194814D01*
X51473291Y-71195548D01*
X51482507Y-71209340D01*
X51482638Y-71211336D01*
X51480975Y-71212447D01*
X51479733Y-71212114D01*
X51468738Y-71204767D01*
X51449801Y-71201000D01*
X50450199Y-71201000D01*
X50431262Y-71204767D01*
X50420267Y-71212114D01*
X50418271Y-71212245D01*
X50417160Y-71210582D01*
X50417493Y-71209340D01*
X50426709Y-71195548D01*
X50424969Y-71194385D01*
X50424084Y-71192591D01*
X50424545Y-71191440D01*
X50439078Y-71174048D01*
X50447704Y-71105330D01*
X50424918Y-71057712D01*
X50425072Y-71055718D01*
X50425611Y-71055186D01*
X50426709Y-71054452D01*
X50417493Y-71040660D01*
X50417362Y-71038664D01*
X50419025Y-71037553D01*
X50420267Y-71037886D01*
G37*
G36*
X50420267Y-70387886D02*
G01*
X50431262Y-70395233D01*
X50450199Y-70399000D01*
X51449801Y-70399000D01*
X51468738Y-70395233D01*
X51479733Y-70387886D01*
X51481729Y-70387755D01*
X51482840Y-70389418D01*
X51482507Y-70390660D01*
X51473291Y-70404452D01*
X51475031Y-70405615D01*
X51475916Y-70407409D01*
X51475455Y-70408560D01*
X51460922Y-70425952D01*
X51452296Y-70494670D01*
X51475082Y-70542288D01*
X51474928Y-70544282D01*
X51474389Y-70544814D01*
X51473291Y-70545548D01*
X51482507Y-70559340D01*
X51482638Y-70561336D01*
X51480975Y-70562447D01*
X51479733Y-70562114D01*
X51468738Y-70554767D01*
X51449801Y-70551000D01*
X50450199Y-70551000D01*
X50431262Y-70554767D01*
X50420267Y-70562114D01*
X50418271Y-70562245D01*
X50417160Y-70560582D01*
X50417493Y-70559340D01*
X50426709Y-70545548D01*
X50424969Y-70544385D01*
X50424084Y-70542591D01*
X50424545Y-70541440D01*
X50439078Y-70524048D01*
X50447704Y-70455330D01*
X50424918Y-70407712D01*
X50425072Y-70405718D01*
X50425611Y-70405186D01*
X50426709Y-70404452D01*
X50417493Y-70390660D01*
X50417362Y-70388664D01*
X50419025Y-70387553D01*
X50420267Y-70387886D01*
G37*
G36*
X45020267Y-70387886D02*
G01*
X45031262Y-70395233D01*
X45050199Y-70399000D01*
X46049801Y-70399000D01*
X46068738Y-70395233D01*
X46079733Y-70387886D01*
X46081729Y-70387755D01*
X46082840Y-70389418D01*
X46082507Y-70390660D01*
X46073291Y-70404452D01*
X46075031Y-70405615D01*
X46075916Y-70407409D01*
X46075455Y-70408560D01*
X46060922Y-70425952D01*
X46052296Y-70494670D01*
X46075082Y-70542288D01*
X46074928Y-70544282D01*
X46074389Y-70544814D01*
X46073291Y-70545548D01*
X46082507Y-70559340D01*
X46082638Y-70561336D01*
X46080975Y-70562447D01*
X46079733Y-70562114D01*
X46068738Y-70554767D01*
X46049801Y-70551000D01*
X45050199Y-70551000D01*
X45031262Y-70554767D01*
X45020267Y-70562114D01*
X45018271Y-70562245D01*
X45017160Y-70560582D01*
X45017493Y-70559340D01*
X45026709Y-70545548D01*
X45024969Y-70544385D01*
X45024084Y-70542591D01*
X45024545Y-70541440D01*
X45039078Y-70524048D01*
X45047704Y-70455330D01*
X45024918Y-70407712D01*
X45025072Y-70405718D01*
X45025611Y-70405186D01*
X45026709Y-70404452D01*
X45017493Y-70390660D01*
X45017362Y-70388664D01*
X45019025Y-70387553D01*
X45020267Y-70387886D01*
G37*
G36*
X45020267Y-69737886D02*
G01*
X45031262Y-69745233D01*
X45050199Y-69749000D01*
X46049801Y-69749000D01*
X46068738Y-69745233D01*
X46079733Y-69737886D01*
X46081729Y-69737755D01*
X46082840Y-69739418D01*
X46082507Y-69740660D01*
X46073291Y-69754452D01*
X46075031Y-69755615D01*
X46075916Y-69757409D01*
X46075455Y-69758560D01*
X46060922Y-69775952D01*
X46052296Y-69844670D01*
X46075082Y-69892288D01*
X46074928Y-69894282D01*
X46074389Y-69894814D01*
X46073291Y-69895548D01*
X46082507Y-69909340D01*
X46082638Y-69911336D01*
X46080975Y-69912447D01*
X46079733Y-69912114D01*
X46068738Y-69904767D01*
X46049801Y-69901000D01*
X45050199Y-69901000D01*
X45031262Y-69904767D01*
X45020267Y-69912114D01*
X45018271Y-69912245D01*
X45017160Y-69910582D01*
X45017493Y-69909340D01*
X45026709Y-69895548D01*
X45024969Y-69894385D01*
X45024084Y-69892591D01*
X45024545Y-69891440D01*
X45039078Y-69874048D01*
X45047704Y-69805330D01*
X45024918Y-69757712D01*
X45025072Y-69755718D01*
X45025611Y-69755186D01*
X45026709Y-69754452D01*
X45017493Y-69740660D01*
X45017362Y-69738664D01*
X45019025Y-69737553D01*
X45020267Y-69737886D01*
G37*
G36*
X50420267Y-69737886D02*
G01*
X50431262Y-69745233D01*
X50450199Y-69749000D01*
X51449801Y-69749000D01*
X51468738Y-69745233D01*
X51479733Y-69737886D01*
X51481729Y-69737755D01*
X51482840Y-69739418D01*
X51482507Y-69740660D01*
X51473291Y-69754452D01*
X51475031Y-69755615D01*
X51475916Y-69757409D01*
X51475455Y-69758560D01*
X51460922Y-69775952D01*
X51452296Y-69844670D01*
X51475082Y-69892288D01*
X51474928Y-69894282D01*
X51474389Y-69894814D01*
X51473291Y-69895548D01*
X51482507Y-69909340D01*
X51482638Y-69911336D01*
X51480975Y-69912447D01*
X51479733Y-69912114D01*
X51468738Y-69904767D01*
X51449801Y-69901000D01*
X50450199Y-69901000D01*
X50431262Y-69904767D01*
X50420267Y-69912114D01*
X50418271Y-69912245D01*
X50417160Y-69910582D01*
X50417493Y-69909340D01*
X50426709Y-69895548D01*
X50424969Y-69894385D01*
X50424084Y-69892591D01*
X50424545Y-69891440D01*
X50439078Y-69874048D01*
X50447704Y-69805330D01*
X50424918Y-69757712D01*
X50425072Y-69755718D01*
X50425611Y-69755186D01*
X50426709Y-69754452D01*
X50417493Y-69740660D01*
X50417362Y-69738664D01*
X50419025Y-69737553D01*
X50420267Y-69737886D01*
G37*
G36*
X125142240Y-69448889D02*
G01*
X125172460Y-69494116D01*
X125172591Y-69496112D01*
X125170928Y-69497223D01*
X125169678Y-69496884D01*
X125119226Y-69462806D01*
X125081873Y-69457000D01*
X124401285Y-69457000D01*
X124334546Y-69476596D01*
X124289140Y-69528999D01*
X124277954Y-69580419D01*
X124276609Y-69581899D01*
X124274655Y-69581474D01*
X124274000Y-69579994D01*
X124274000Y-69493949D01*
X124265336Y-69450390D01*
X124265979Y-69448496D01*
X124267298Y-69448000D01*
X125140577Y-69448000D01*
X125142240Y-69448889D01*
G37*
G36*
X116482590Y-64243081D02*
G01*
X116499620Y-64248081D01*
X116500185Y-64248673D01*
X116501000Y-64248673D01*
X116501512Y-64249095D01*
X116504403Y-64252432D01*
X116504845Y-64253317D01*
X116506954Y-64263013D01*
X116507000Y-64263438D01*
X116507000Y-68069714D01*
X116526596Y-68136453D01*
X116578999Y-68181859D01*
X116630213Y-68193000D01*
X124575601Y-68193000D01*
X124642340Y-68173404D01*
X124687767Y-68120977D01*
X124698445Y-68078381D01*
X124699836Y-68076944D01*
X124701776Y-68077430D01*
X124702381Y-68078998D01*
X124701005Y-68100000D01*
X124707550Y-68199869D01*
X124706665Y-68201663D01*
X124705554Y-68202000D01*
X116500000Y-68202000D01*
X116498268Y-68201000D01*
X116498000Y-68200000D01*
X116498000Y-64252000D01*
X113252000Y-64252000D01*
X113252000Y-65348000D01*
X115100000Y-65348000D01*
X115101732Y-65349000D01*
X115102000Y-65350000D01*
X115102000Y-69448000D01*
X123232702Y-69448000D01*
X123234434Y-69449000D01*
X123234664Y-69450390D01*
X123226000Y-69493949D01*
X123226000Y-69579999D01*
X123225000Y-69581731D01*
X123223000Y-69581731D01*
X123222081Y-69580562D01*
X123202404Y-69513547D01*
X123150001Y-69468141D01*
X123098787Y-69457000D01*
X115117973Y-69457000D01*
X115117410Y-69456919D01*
X115100380Y-69451919D01*
X115099815Y-69451327D01*
X115099000Y-69451327D01*
X115098488Y-69450905D01*
X115095597Y-69447568D01*
X115095155Y-69446683D01*
X115093046Y-69436987D01*
X115093000Y-69436562D01*
X115093000Y-65480286D01*
X115073404Y-65413547D01*
X115021001Y-65368141D01*
X114969787Y-65357000D01*
X113267973Y-65357000D01*
X113267410Y-65356919D01*
X113250380Y-65351919D01*
X113249815Y-65351327D01*
X113249000Y-65351327D01*
X113248488Y-65350905D01*
X113245597Y-65347568D01*
X113245155Y-65346683D01*
X113243046Y-65336987D01*
X113243000Y-65336562D01*
X113243000Y-64267973D01*
X113243081Y-64267410D01*
X113248081Y-64250380D01*
X113248673Y-64249815D01*
X113248673Y-64249000D01*
X113249095Y-64248488D01*
X113252432Y-64245597D01*
X113253317Y-64245155D01*
X113263013Y-64243046D01*
X113263438Y-64243000D01*
X116482027Y-64243000D01*
X116482590Y-64243081D01*
G37*
G36*
X45020267Y-69087886D02*
G01*
X45031262Y-69095233D01*
X45050199Y-69099000D01*
X46049801Y-69099000D01*
X46068738Y-69095233D01*
X46079733Y-69087886D01*
X46081729Y-69087755D01*
X46082840Y-69089418D01*
X46082507Y-69090660D01*
X46073291Y-69104452D01*
X46075031Y-69105615D01*
X46075916Y-69107409D01*
X46075455Y-69108560D01*
X46060922Y-69125952D01*
X46052296Y-69194670D01*
X46075082Y-69242288D01*
X46074928Y-69244282D01*
X46074389Y-69244814D01*
X46073291Y-69245548D01*
X46082507Y-69259340D01*
X46082638Y-69261336D01*
X46080975Y-69262447D01*
X46079733Y-69262114D01*
X46068738Y-69254767D01*
X46049801Y-69251000D01*
X45050199Y-69251000D01*
X45031262Y-69254767D01*
X45020267Y-69262114D01*
X45018271Y-69262245D01*
X45017160Y-69260582D01*
X45017493Y-69259340D01*
X45026709Y-69245548D01*
X45024969Y-69244385D01*
X45024084Y-69242591D01*
X45024545Y-69241440D01*
X45039078Y-69224048D01*
X45047704Y-69155330D01*
X45024918Y-69107712D01*
X45025072Y-69105718D01*
X45025611Y-69105186D01*
X45026709Y-69104452D01*
X45017493Y-69090660D01*
X45017362Y-69088664D01*
X45019025Y-69087553D01*
X45020267Y-69087886D01*
G37*
G36*
X50420267Y-69087886D02*
G01*
X50431262Y-69095233D01*
X50450199Y-69099000D01*
X51449801Y-69099000D01*
X51468738Y-69095233D01*
X51479733Y-69087886D01*
X51481729Y-69087755D01*
X51482840Y-69089418D01*
X51482507Y-69090660D01*
X51473291Y-69104452D01*
X51475031Y-69105615D01*
X51475916Y-69107409D01*
X51475455Y-69108560D01*
X51460922Y-69125952D01*
X51452296Y-69194670D01*
X51475082Y-69242288D01*
X51474928Y-69244282D01*
X51474389Y-69244814D01*
X51473291Y-69245548D01*
X51482507Y-69259340D01*
X51482638Y-69261336D01*
X51480975Y-69262447D01*
X51479733Y-69262114D01*
X51468738Y-69254767D01*
X51449801Y-69251000D01*
X50450199Y-69251000D01*
X50431262Y-69254767D01*
X50420267Y-69262114D01*
X50418271Y-69262245D01*
X50417160Y-69260582D01*
X50417493Y-69259340D01*
X50426709Y-69245548D01*
X50424969Y-69244385D01*
X50424084Y-69242591D01*
X50424545Y-69241440D01*
X50439078Y-69224048D01*
X50447704Y-69155330D01*
X50424918Y-69107712D01*
X50425072Y-69105718D01*
X50425611Y-69105186D01*
X50426709Y-69104452D01*
X50417493Y-69090660D01*
X50417362Y-69088664D01*
X50419025Y-69087553D01*
X50420267Y-69087886D01*
G37*
G36*
X50420267Y-68437886D02*
G01*
X50431262Y-68445233D01*
X50450199Y-68449000D01*
X51449801Y-68449000D01*
X51468738Y-68445233D01*
X51479733Y-68437886D01*
X51481729Y-68437755D01*
X51482840Y-68439418D01*
X51482507Y-68440660D01*
X51473291Y-68454452D01*
X51475031Y-68455615D01*
X51475916Y-68457409D01*
X51475455Y-68458560D01*
X51460922Y-68475952D01*
X51452296Y-68544670D01*
X51475082Y-68592288D01*
X51474928Y-68594282D01*
X51474389Y-68594814D01*
X51473291Y-68595548D01*
X51482507Y-68609340D01*
X51482638Y-68611336D01*
X51480975Y-68612447D01*
X51479733Y-68612114D01*
X51468738Y-68604767D01*
X51449801Y-68601000D01*
X50450199Y-68601000D01*
X50431262Y-68604767D01*
X50420267Y-68612114D01*
X50418271Y-68612245D01*
X50417160Y-68610582D01*
X50417493Y-68609340D01*
X50426709Y-68595548D01*
X50424969Y-68594385D01*
X50424084Y-68592591D01*
X50424545Y-68591440D01*
X50439078Y-68574048D01*
X50447704Y-68505330D01*
X50424918Y-68457712D01*
X50425072Y-68455718D01*
X50425611Y-68455186D01*
X50426709Y-68454452D01*
X50417493Y-68440660D01*
X50417362Y-68438664D01*
X50419025Y-68437553D01*
X50420267Y-68437886D01*
G37*
G36*
X45020267Y-68437886D02*
G01*
X45031262Y-68445233D01*
X45050199Y-68449000D01*
X46049801Y-68449000D01*
X46068738Y-68445233D01*
X46079733Y-68437886D01*
X46081729Y-68437755D01*
X46082840Y-68439418D01*
X46082507Y-68440660D01*
X46073291Y-68454452D01*
X46075031Y-68455615D01*
X46075916Y-68457409D01*
X46075455Y-68458560D01*
X46060922Y-68475952D01*
X46052296Y-68544670D01*
X46075082Y-68592288D01*
X46074928Y-68594282D01*
X46074389Y-68594814D01*
X46073291Y-68595548D01*
X46082507Y-68609340D01*
X46082638Y-68611336D01*
X46080975Y-68612447D01*
X46079733Y-68612114D01*
X46068738Y-68604767D01*
X46049801Y-68601000D01*
X45050199Y-68601000D01*
X45031262Y-68604767D01*
X45020267Y-68612114D01*
X45018271Y-68612245D01*
X45017160Y-68610582D01*
X45017493Y-68609340D01*
X45026709Y-68595548D01*
X45024969Y-68594385D01*
X45024084Y-68592591D01*
X45024545Y-68591440D01*
X45039078Y-68574048D01*
X45047704Y-68505330D01*
X45024918Y-68457712D01*
X45025072Y-68455718D01*
X45025611Y-68455186D01*
X45026709Y-68454452D01*
X45017493Y-68440660D01*
X45017362Y-68438664D01*
X45019025Y-68437553D01*
X45020267Y-68437886D01*
G37*
G36*
X50420267Y-67787886D02*
G01*
X50431262Y-67795233D01*
X50450199Y-67799000D01*
X51449801Y-67799000D01*
X51468738Y-67795233D01*
X51479733Y-67787886D01*
X51481729Y-67787755D01*
X51482840Y-67789418D01*
X51482507Y-67790660D01*
X51473291Y-67804452D01*
X51475031Y-67805615D01*
X51475916Y-67807409D01*
X51475455Y-67808560D01*
X51460922Y-67825952D01*
X51452296Y-67894670D01*
X51475082Y-67942288D01*
X51474928Y-67944282D01*
X51474389Y-67944814D01*
X51473291Y-67945548D01*
X51482507Y-67959340D01*
X51482638Y-67961336D01*
X51480975Y-67962447D01*
X51479733Y-67962114D01*
X51468738Y-67954767D01*
X51449801Y-67951000D01*
X50450199Y-67951000D01*
X50431262Y-67954767D01*
X50420267Y-67962114D01*
X50418271Y-67962245D01*
X50417160Y-67960582D01*
X50417493Y-67959340D01*
X50426709Y-67945548D01*
X50424969Y-67944385D01*
X50424084Y-67942591D01*
X50424545Y-67941440D01*
X50439078Y-67924048D01*
X50447704Y-67855330D01*
X50424918Y-67807712D01*
X50425072Y-67805718D01*
X50425611Y-67805186D01*
X50426709Y-67804452D01*
X50417493Y-67790660D01*
X50417362Y-67788664D01*
X50419025Y-67787553D01*
X50420267Y-67787886D01*
G37*
G36*
X45020267Y-67787886D02*
G01*
X45031262Y-67795233D01*
X45050199Y-67799000D01*
X46049801Y-67799000D01*
X46068738Y-67795233D01*
X46079733Y-67787886D01*
X46081729Y-67787755D01*
X46082840Y-67789418D01*
X46082507Y-67790660D01*
X46073291Y-67804452D01*
X46075031Y-67805615D01*
X46075916Y-67807409D01*
X46075455Y-67808560D01*
X46060922Y-67825952D01*
X46052296Y-67894670D01*
X46075082Y-67942288D01*
X46074928Y-67944282D01*
X46074389Y-67944814D01*
X46073291Y-67945548D01*
X46082507Y-67959340D01*
X46082638Y-67961336D01*
X46080975Y-67962447D01*
X46079733Y-67962114D01*
X46068738Y-67954767D01*
X46049801Y-67951000D01*
X45050199Y-67951000D01*
X45031262Y-67954767D01*
X45020267Y-67962114D01*
X45018271Y-67962245D01*
X45017160Y-67960582D01*
X45017493Y-67959340D01*
X45026709Y-67945548D01*
X45024969Y-67944385D01*
X45024084Y-67942591D01*
X45024545Y-67941440D01*
X45039078Y-67924048D01*
X45047704Y-67855330D01*
X45024918Y-67807712D01*
X45025072Y-67805718D01*
X45025611Y-67805186D01*
X45026709Y-67804452D01*
X45017493Y-67790660D01*
X45017362Y-67788664D01*
X45019025Y-67787553D01*
X45020267Y-67787886D01*
G37*
G36*
X45020267Y-67137886D02*
G01*
X45031262Y-67145233D01*
X45050199Y-67149000D01*
X46049801Y-67149000D01*
X46068738Y-67145233D01*
X46079733Y-67137886D01*
X46081729Y-67137755D01*
X46082840Y-67139418D01*
X46082507Y-67140660D01*
X46073291Y-67154452D01*
X46075031Y-67155615D01*
X46075916Y-67157409D01*
X46075455Y-67158560D01*
X46060922Y-67175952D01*
X46052296Y-67244670D01*
X46075082Y-67292288D01*
X46074928Y-67294282D01*
X46074389Y-67294814D01*
X46073291Y-67295548D01*
X46082507Y-67309340D01*
X46082638Y-67311336D01*
X46080975Y-67312447D01*
X46079733Y-67312114D01*
X46068738Y-67304767D01*
X46049801Y-67301000D01*
X45050199Y-67301000D01*
X45031262Y-67304767D01*
X45020267Y-67312114D01*
X45018271Y-67312245D01*
X45017160Y-67310582D01*
X45017493Y-67309340D01*
X45026709Y-67295548D01*
X45024969Y-67294385D01*
X45024084Y-67292591D01*
X45024545Y-67291440D01*
X45039078Y-67274048D01*
X45047704Y-67205330D01*
X45024918Y-67157712D01*
X45025072Y-67155718D01*
X45025611Y-67155186D01*
X45026709Y-67154452D01*
X45017493Y-67140660D01*
X45017362Y-67138664D01*
X45019025Y-67137553D01*
X45020267Y-67137886D01*
G37*
G36*
X50420267Y-67137886D02*
G01*
X50431262Y-67145233D01*
X50450199Y-67149000D01*
X51449801Y-67149000D01*
X51468738Y-67145233D01*
X51479733Y-67137886D01*
X51481729Y-67137755D01*
X51482840Y-67139418D01*
X51482507Y-67140660D01*
X51473291Y-67154452D01*
X51475031Y-67155615D01*
X51475916Y-67157409D01*
X51475455Y-67158560D01*
X51460922Y-67175952D01*
X51452296Y-67244670D01*
X51475082Y-67292288D01*
X51474928Y-67294282D01*
X51474389Y-67294814D01*
X51473291Y-67295548D01*
X51482507Y-67309340D01*
X51482638Y-67311336D01*
X51480975Y-67312447D01*
X51479733Y-67312114D01*
X51468738Y-67304767D01*
X51449801Y-67301000D01*
X50450199Y-67301000D01*
X50431262Y-67304767D01*
X50420267Y-67312114D01*
X50418271Y-67312245D01*
X50417160Y-67310582D01*
X50417493Y-67309340D01*
X50426709Y-67295548D01*
X50424969Y-67294385D01*
X50424084Y-67292591D01*
X50424545Y-67291440D01*
X50439078Y-67274048D01*
X50447704Y-67205330D01*
X50424918Y-67157712D01*
X50425072Y-67155718D01*
X50425611Y-67155186D01*
X50426709Y-67154452D01*
X50417493Y-67140660D01*
X50417362Y-67138664D01*
X50419025Y-67137553D01*
X50420267Y-67137886D01*
G37*
G36*
X48810660Y-60837493D02*
G01*
X48824672Y-60846856D01*
X48825992Y-60846205D01*
X48827144Y-60846666D01*
X48850946Y-60866557D01*
X48919662Y-60875188D01*
X48982291Y-60845224D01*
X48988331Y-60838252D01*
X48988732Y-60837899D01*
X48989341Y-60837492D01*
X48991336Y-60837361D01*
X48992448Y-60839024D01*
X48992115Y-60840266D01*
X48984767Y-60851262D01*
X48981000Y-60870199D01*
X48981000Y-61929801D01*
X48984767Y-61948738D01*
X48992114Y-61959733D01*
X48992245Y-61961729D01*
X48990582Y-61962840D01*
X48989340Y-61962507D01*
X48975328Y-61953144D01*
X48974008Y-61953795D01*
X48972856Y-61953334D01*
X48949054Y-61933443D01*
X48880338Y-61924812D01*
X48817709Y-61954776D01*
X48811669Y-61961748D01*
X48811268Y-61962101D01*
X48810659Y-61962508D01*
X48808664Y-61962639D01*
X48807552Y-61960976D01*
X48807885Y-61959734D01*
X48815233Y-61948738D01*
X48819000Y-61929801D01*
X48819000Y-60870199D01*
X48815233Y-60851262D01*
X48807886Y-60840267D01*
X48807755Y-60838271D01*
X48809418Y-60837160D01*
X48810660Y-60837493D01*
G37*
G36*
X49470660Y-60837493D02*
G01*
X49484452Y-60846709D01*
X49485615Y-60844969D01*
X49487409Y-60844084D01*
X49488560Y-60844545D01*
X49505952Y-60859078D01*
X49574670Y-60867704D01*
X49622288Y-60844918D01*
X49624282Y-60845072D01*
X49624814Y-60845611D01*
X49625548Y-60846709D01*
X49639340Y-60837493D01*
X49641336Y-60837362D01*
X49642447Y-60839025D01*
X49642114Y-60840267D01*
X49634767Y-60851262D01*
X49631000Y-60870199D01*
X49631000Y-61929801D01*
X49634767Y-61948738D01*
X49642114Y-61959733D01*
X49642245Y-61961729D01*
X49640582Y-61962840D01*
X49639340Y-61962507D01*
X49625548Y-61953291D01*
X49624385Y-61955031D01*
X49622591Y-61955916D01*
X49621440Y-61955455D01*
X49604048Y-61940922D01*
X49535330Y-61932296D01*
X49487712Y-61955082D01*
X49485718Y-61954928D01*
X49485186Y-61954389D01*
X49484452Y-61953291D01*
X49470660Y-61962507D01*
X49468664Y-61962638D01*
X49467553Y-61960975D01*
X49467886Y-61959733D01*
X49475233Y-61948738D01*
X49479000Y-61929801D01*
X49479000Y-60870199D01*
X49475233Y-60851262D01*
X49467886Y-60840267D01*
X49467755Y-60838271D01*
X49469418Y-60837160D01*
X49470660Y-60837493D01*
G37*
G36*
X48160660Y-60837493D02*
G01*
X48174452Y-60846709D01*
X48175615Y-60844969D01*
X48177409Y-60844084D01*
X48178560Y-60844545D01*
X48195952Y-60859078D01*
X48264670Y-60867704D01*
X48312288Y-60844918D01*
X48314282Y-60845072D01*
X48314814Y-60845611D01*
X48315548Y-60846709D01*
X48329340Y-60837493D01*
X48331336Y-60837362D01*
X48332447Y-60839025D01*
X48332114Y-60840267D01*
X48324767Y-60851262D01*
X48321000Y-60870199D01*
X48321000Y-61929801D01*
X48324767Y-61948738D01*
X48332114Y-61959733D01*
X48332245Y-61961729D01*
X48330582Y-61962840D01*
X48329340Y-61962507D01*
X48315548Y-61953291D01*
X48314385Y-61955031D01*
X48312591Y-61955916D01*
X48311440Y-61955455D01*
X48294048Y-61940922D01*
X48225330Y-61932296D01*
X48177712Y-61955082D01*
X48175718Y-61954928D01*
X48175186Y-61954389D01*
X48174452Y-61953291D01*
X48160660Y-61962507D01*
X48158664Y-61962638D01*
X48157553Y-61960975D01*
X48157886Y-61959733D01*
X48165233Y-61948738D01*
X48169000Y-61929801D01*
X48169000Y-60870199D01*
X48165233Y-60851262D01*
X48157886Y-60840267D01*
X48157755Y-60838271D01*
X48159418Y-60837160D01*
X48160660Y-60837493D01*
G37*
G36*
X48160660Y-58637493D02*
G01*
X48174452Y-58646709D01*
X48175615Y-58644969D01*
X48177409Y-58644084D01*
X48178560Y-58644545D01*
X48195952Y-58659078D01*
X48264670Y-58667704D01*
X48312288Y-58644918D01*
X48314282Y-58645072D01*
X48314814Y-58645611D01*
X48315548Y-58646709D01*
X48329340Y-58637493D01*
X48331336Y-58637362D01*
X48332447Y-58639025D01*
X48332114Y-58640267D01*
X48324767Y-58651262D01*
X48321000Y-58670199D01*
X48321000Y-59729801D01*
X48324767Y-59748738D01*
X48332114Y-59759733D01*
X48332245Y-59761729D01*
X48330582Y-59762840D01*
X48329340Y-59762507D01*
X48315548Y-59753291D01*
X48314385Y-59755031D01*
X48312591Y-59755916D01*
X48311440Y-59755455D01*
X48294048Y-59740922D01*
X48225330Y-59732296D01*
X48177712Y-59755082D01*
X48175718Y-59754928D01*
X48175186Y-59754389D01*
X48174452Y-59753291D01*
X48160660Y-59762507D01*
X48158664Y-59762638D01*
X48157553Y-59760975D01*
X48157886Y-59759733D01*
X48165233Y-59748738D01*
X48169000Y-59729801D01*
X48169000Y-58670199D01*
X48165233Y-58651262D01*
X48157886Y-58640267D01*
X48157755Y-58638271D01*
X48159418Y-58637160D01*
X48160660Y-58637493D01*
G37*
G36*
X49470660Y-58637493D02*
G01*
X49484452Y-58646709D01*
X49485615Y-58644969D01*
X49487409Y-58644084D01*
X49488560Y-58644545D01*
X49505952Y-58659078D01*
X49574670Y-58667704D01*
X49622288Y-58644918D01*
X49624282Y-58645072D01*
X49624814Y-58645611D01*
X49625548Y-58646709D01*
X49639340Y-58637493D01*
X49641336Y-58637362D01*
X49642447Y-58639025D01*
X49642114Y-58640267D01*
X49634767Y-58651262D01*
X49631000Y-58670199D01*
X49631000Y-59729801D01*
X49634767Y-59748738D01*
X49642114Y-59759733D01*
X49642245Y-59761729D01*
X49640582Y-59762840D01*
X49639340Y-59762507D01*
X49625548Y-59753291D01*
X49624385Y-59755031D01*
X49622591Y-59755916D01*
X49621440Y-59755455D01*
X49604048Y-59740922D01*
X49535330Y-59732296D01*
X49487712Y-59755082D01*
X49485718Y-59754928D01*
X49485186Y-59754389D01*
X49484452Y-59753291D01*
X49470660Y-59762507D01*
X49468664Y-59762638D01*
X49467553Y-59760975D01*
X49467886Y-59759733D01*
X49475233Y-59748738D01*
X49479000Y-59729801D01*
X49479000Y-58670199D01*
X49475233Y-58651262D01*
X49467886Y-58640267D01*
X49467755Y-58638271D01*
X49469418Y-58637160D01*
X49470660Y-58637493D01*
G37*
G36*
X48810660Y-58637493D02*
G01*
X48824672Y-58646856D01*
X48825992Y-58646205D01*
X48827144Y-58646666D01*
X48850946Y-58666557D01*
X48919662Y-58675188D01*
X48982291Y-58645224D01*
X48988331Y-58638252D01*
X48988732Y-58637899D01*
X48989341Y-58637492D01*
X48991336Y-58637361D01*
X48992448Y-58639024D01*
X48992115Y-58640266D01*
X48984767Y-58651262D01*
X48981000Y-58670199D01*
X48981000Y-59729801D01*
X48984767Y-59748738D01*
X48992114Y-59759733D01*
X48992245Y-59761729D01*
X48990582Y-59762840D01*
X48989340Y-59762507D01*
X48975328Y-59753144D01*
X48974008Y-59753795D01*
X48972856Y-59753334D01*
X48949054Y-59733443D01*
X48880338Y-59724812D01*
X48817709Y-59754776D01*
X48811669Y-59761748D01*
X48811268Y-59762101D01*
X48810659Y-59762508D01*
X48808664Y-59762639D01*
X48807552Y-59760976D01*
X48807885Y-59759734D01*
X48815233Y-59748738D01*
X48819000Y-59729801D01*
X48819000Y-58670199D01*
X48815233Y-58651262D01*
X48807886Y-58640267D01*
X48807755Y-58638271D01*
X48809418Y-58637160D01*
X48810660Y-58637493D01*
G37*
G36*
X120398044Y-41743224D02*
G01*
X120493333Y-41881095D01*
X120501469Y-41889896D01*
X120502000Y-41891254D01*
X120502000Y-58299219D01*
X120502082Y-58299254D01*
X121700861Y-59498033D01*
X121700945Y-59498000D01*
X122757541Y-59498000D01*
X122758728Y-59498390D01*
X122798267Y-59527541D01*
X122799068Y-59529374D01*
X122797881Y-59530984D01*
X122796395Y-59531030D01*
X122731176Y-59507246D01*
X122723520Y-59507000D01*
X121717973Y-59507000D01*
X121717410Y-59506919D01*
X121700382Y-59501919D01*
X121700018Y-59501538D01*
X121699044Y-59501526D01*
X121689035Y-59498587D01*
X121688184Y-59498082D01*
X120507758Y-58317656D01*
X120507417Y-58317200D01*
X120498913Y-58301626D01*
X120498925Y-58301100D01*
X120498245Y-58300403D01*
X120493245Y-58291246D01*
X120493000Y-58290288D01*
X120493000Y-41926943D01*
X120471196Y-41856723D01*
X120394751Y-41745494D01*
X120394594Y-41743500D01*
X120396242Y-41742367D01*
X120398044Y-41743224D01*
G37*
G36*
X39540660Y-56967493D02*
G01*
X39554452Y-56976709D01*
X39555615Y-56974969D01*
X39557409Y-56974084D01*
X39558560Y-56974545D01*
X39575952Y-56989078D01*
X39644670Y-56997704D01*
X39692288Y-56974918D01*
X39694282Y-56975072D01*
X39694814Y-56975611D01*
X39695548Y-56976709D01*
X39709340Y-56967493D01*
X39711336Y-56967362D01*
X39712447Y-56969025D01*
X39712114Y-56970267D01*
X39704767Y-56981262D01*
X39701000Y-57000199D01*
X39701000Y-58499801D01*
X39704767Y-58518738D01*
X39712114Y-58529733D01*
X39712245Y-58531729D01*
X39710582Y-58532840D01*
X39709340Y-58532507D01*
X39695548Y-58523291D01*
X39694385Y-58525031D01*
X39692591Y-58525916D01*
X39691440Y-58525455D01*
X39674048Y-58510922D01*
X39605330Y-58502296D01*
X39557712Y-58525082D01*
X39555718Y-58524928D01*
X39555186Y-58524389D01*
X39554452Y-58523291D01*
X39540660Y-58532507D01*
X39538664Y-58532638D01*
X39537553Y-58530975D01*
X39537886Y-58529733D01*
X39545233Y-58518738D01*
X39549000Y-58499801D01*
X39549000Y-57000199D01*
X39545233Y-56981262D01*
X39537886Y-56970267D01*
X39537755Y-56968271D01*
X39539418Y-56967160D01*
X39540660Y-56967493D01*
G37*
G36*
X40790660Y-56967493D02*
G01*
X40804452Y-56976709D01*
X40805615Y-56974969D01*
X40807409Y-56974084D01*
X40808560Y-56974545D01*
X40825952Y-56989078D01*
X40894670Y-56997704D01*
X40942288Y-56974918D01*
X40944282Y-56975072D01*
X40944814Y-56975611D01*
X40945548Y-56976709D01*
X40959340Y-56967493D01*
X40961336Y-56967362D01*
X40962447Y-56969025D01*
X40962114Y-56970267D01*
X40954767Y-56981262D01*
X40951000Y-57000199D01*
X40951000Y-58499801D01*
X40954767Y-58518738D01*
X40962114Y-58529733D01*
X40962245Y-58531729D01*
X40960582Y-58532840D01*
X40959340Y-58532507D01*
X40945548Y-58523291D01*
X40944385Y-58525031D01*
X40942591Y-58525916D01*
X40941440Y-58525455D01*
X40924048Y-58510922D01*
X40855330Y-58502296D01*
X40807712Y-58525082D01*
X40805718Y-58524928D01*
X40805186Y-58524389D01*
X40804452Y-58523291D01*
X40790660Y-58532507D01*
X40788664Y-58532638D01*
X40787553Y-58530975D01*
X40787886Y-58529733D01*
X40795233Y-58518738D01*
X40799000Y-58499801D01*
X40799000Y-57000199D01*
X40795233Y-56981262D01*
X40787886Y-56970267D01*
X40787755Y-56968271D01*
X40789418Y-56967160D01*
X40790660Y-56967493D01*
G37*
G36*
X124096756Y-51772214D02*
G01*
X124139064Y-51775469D01*
X124140715Y-51776599D01*
X124140561Y-51778593D01*
X124139326Y-51779420D01*
X124071675Y-51793756D01*
X124022414Y-51842489D01*
X124007000Y-51902207D01*
X124007000Y-53847270D01*
X124026596Y-53914009D01*
X124078933Y-53959358D01*
X124149588Y-53968877D01*
X124151171Y-53970099D01*
X124150904Y-53972081D01*
X124149641Y-53972833D01*
X124000320Y-53997017D01*
X123998450Y-53996307D01*
X123998000Y-53995043D01*
X123998000Y-51755793D01*
X123999000Y-51754061D01*
X124000375Y-51753828D01*
X124096756Y-51772214D01*
G37*
G36*
X112750235Y-42611245D02*
G01*
X112751838Y-42612442D01*
X112752000Y-42613231D01*
X112752000Y-44498000D01*
X116500000Y-44498000D01*
X116501732Y-44499000D01*
X116502000Y-44500000D01*
X116502000Y-45869933D01*
X116501638Y-45871080D01*
X116495041Y-45880501D01*
X116409155Y-46064685D01*
X116407516Y-46065832D01*
X116405704Y-46064987D01*
X116405528Y-46062998D01*
X116481475Y-45899383D01*
X116493000Y-45847180D01*
X116493000Y-44630286D01*
X116473404Y-44563547D01*
X116421001Y-44518141D01*
X116369787Y-44507000D01*
X112767973Y-44507000D01*
X112767410Y-44506919D01*
X112750380Y-44501919D01*
X112749815Y-44501327D01*
X112749000Y-44501327D01*
X112748488Y-44500905D01*
X112745597Y-44497568D01*
X112745155Y-44496683D01*
X112743046Y-44486987D01*
X112743000Y-44486562D01*
X112743000Y-42724458D01*
X112723404Y-42657719D01*
X112670940Y-42612260D01*
X112638472Y-42602567D01*
X112623384Y-42600258D01*
X112621824Y-42599008D01*
X112622126Y-42597031D01*
X112623922Y-42596295D01*
X112750235Y-42611245D01*
G37*
G36*
X118894899Y-42385765D02*
G01*
X118895765Y-42387568D01*
X118894780Y-42389143D01*
X118847253Y-42416916D01*
X118847009Y-42417037D01*
X118833196Y-42422758D01*
X118779052Y-42466389D01*
X118757000Y-42536812D01*
X118757000Y-45863438D01*
X118767283Y-45912876D01*
X118806138Y-46002236D01*
X118805912Y-46004224D01*
X118804078Y-46005021D01*
X118802491Y-46003879D01*
X118748187Y-45887424D01*
X118748000Y-45886579D01*
X118748000Y-42456454D01*
X118749134Y-42454651D01*
X118892905Y-42385613D01*
X118894899Y-42385765D01*
G37*
G36*
X129017346Y-41133875D02*
G01*
X129017863Y-41135718D01*
X129010129Y-41169487D01*
X129007000Y-41197159D01*
X129007000Y-43232027D01*
X129006919Y-43232590D01*
X129001919Y-43249620D01*
X129001327Y-43250185D01*
X129001327Y-43251000D01*
X129000905Y-43251512D01*
X128997568Y-43254403D01*
X128996683Y-43254845D01*
X128986987Y-43256954D01*
X128986562Y-43257000D01*
X125554134Y-43257000D01*
X125487212Y-43276650D01*
X125466796Y-43293102D01*
X124043228Y-44716670D01*
X124009804Y-44777884D01*
X124007000Y-44803959D01*
X124007000Y-45597270D01*
X124026596Y-45664009D01*
X124078933Y-45709358D01*
X124149588Y-45718877D01*
X124151171Y-45720099D01*
X124150904Y-45722081D01*
X124149641Y-45722833D01*
X124000320Y-45747017D01*
X123998450Y-45746307D01*
X123998000Y-45745043D01*
X123998000Y-44750000D01*
X123998586Y-44748586D01*
X125498586Y-43248586D01*
X125500000Y-43248000D01*
X128998000Y-43248000D01*
X128998000Y-41191693D01*
X128998075Y-41191150D01*
X129013988Y-41134728D01*
X129015421Y-41133333D01*
X129017346Y-41133875D01*
G37*
G36*
X116516562Y-41971131D02*
G01*
X116622133Y-42085337D01*
X116822484Y-42248449D01*
X116823196Y-42250318D01*
X116821933Y-42251869D01*
X116821221Y-42252000D01*
X114034278Y-42252000D01*
X114032546Y-42251000D01*
X114032546Y-42249000D01*
X114033167Y-42248337D01*
X114096811Y-42205812D01*
X114281794Y-42040127D01*
X114283751Y-42039717D01*
X114285085Y-42041206D01*
X114284898Y-42042548D01*
X114256915Y-42095764D01*
X114262941Y-42164758D01*
X114305293Y-42219519D01*
X114377735Y-42243000D01*
X116480030Y-42243000D01*
X116546769Y-42223404D01*
X116592124Y-42171061D01*
X116601979Y-42102521D01*
X116571089Y-42036998D01*
X116513614Y-41973835D01*
X116513188Y-41971881D01*
X116514667Y-41970535D01*
X116516562Y-41971131D01*
G37*
G36*
X120149060Y-40071617D02*
G01*
X120149467Y-40073382D01*
X120090326Y-40311469D01*
X120061977Y-40588158D01*
X120072895Y-40866067D01*
X120121041Y-41129687D01*
X120120369Y-41131570D01*
X120118401Y-41131930D01*
X120117299Y-41130968D01*
X120087460Y-41073559D01*
X120027367Y-41039131D01*
X119958198Y-41042657D01*
X119901858Y-41083061D01*
X119879336Y-41130397D01*
X119877689Y-41131532D01*
X119875883Y-41130672D01*
X119875605Y-41128995D01*
X119898085Y-41049285D01*
X119935115Y-40773597D01*
X119938998Y-40650039D01*
X119919352Y-40372565D01*
X119863392Y-40112645D01*
X119864005Y-40110741D01*
X119865960Y-40110320D01*
X119867232Y-40111556D01*
X119869999Y-40119369D01*
X119870072Y-40119631D01*
X119879895Y-40167067D01*
X119912620Y-40228449D01*
X119973071Y-40262247D01*
X120042198Y-40257998D01*
X120098112Y-40217007D01*
X120120621Y-40168397D01*
X120135586Y-40099762D01*
X120135662Y-40099501D01*
X120145648Y-40072213D01*
X120147182Y-40070930D01*
X120149060Y-40071617D01*
G37*
G36*
X123986754Y-40858380D02*
G01*
X123987493Y-40859573D01*
X124000921Y-40926998D01*
X124049046Y-40976848D01*
X124110081Y-40993000D01*
X125027780Y-40993000D01*
X125094519Y-40973404D01*
X125139904Y-40921026D01*
X125149580Y-40869437D01*
X125150882Y-40867919D01*
X125152848Y-40868288D01*
X125153513Y-40869447D01*
X125177291Y-40999641D01*
X125176619Y-41001524D01*
X125175324Y-41002000D01*
X123966723Y-41002000D01*
X123964991Y-41001000D01*
X123964741Y-40999734D01*
X123983550Y-40859698D01*
X123984771Y-40858114D01*
X123986754Y-40858380D01*
G37*
M02*
