G04 #@! TF.GenerationSoftware,KiCad,Pcbnew,(5.1.5)-3*
G04 #@! TF.CreationDate,2020-03-11T14:38:08+09:00*
G04 #@! TF.ProjectId,potentio,706f7465-6e74-4696-9f2e-6b696361645f,rev?*
G04 #@! TF.SameCoordinates,Original*
G04 #@! TF.FileFunction,Copper,L2,Bot*
G04 #@! TF.FilePolarity,Positive*
%FSLAX46Y46*%
G04 Gerber Fmt 4.6, Leading zero omitted, Abs format (unit mm)*
G04 Created by KiCad (PCBNEW (5.1.5)-3) date 2020-03-11 14:38:08*
%MOMM*%
%LPD*%
G04 APERTURE LIST*
%ADD10R,1.000000X0.800000*%
%ADD11C,1.650000*%
%ADD12R,1.650000X1.650000*%
%ADD13O,2.500000X1.500000*%
%ADD14C,1.800000*%
%ADD15R,1.800000X1.800000*%
%ADD16C,0.500000*%
%ADD17C,0.254000*%
G04 APERTURE END LIST*
D10*
X124300000Y-125500000D03*
X124300000Y-127300000D03*
X129500000Y-135800000D03*
X129500000Y-134000000D03*
D11*
X110000000Y-123000000D03*
X122500000Y-120500000D03*
X122500000Y-123000000D03*
D12*
X122500000Y-125500000D03*
D13*
X128000000Y-120500000D03*
X128000000Y-123000000D03*
X128000000Y-125500000D03*
D14*
X129500000Y-129800000D03*
D15*
X129500000Y-132340000D03*
D10*
X124300000Y-101300000D03*
X124300000Y-99500000D03*
D15*
X129500000Y-106340000D03*
D14*
X129500000Y-103800000D03*
D13*
X128000000Y-99500000D03*
X128000000Y-97000000D03*
X128000000Y-94500000D03*
D10*
X129500000Y-108000000D03*
X129500000Y-109800000D03*
D12*
X122500000Y-99500000D03*
D11*
X122500000Y-97000000D03*
X122500000Y-94500000D03*
X110000000Y-97000000D03*
D16*
X122500000Y-99500000D02*
X124300000Y-99500000D01*
X124300000Y-99500000D02*
X124400000Y-99500000D01*
X124300000Y-99500000D02*
X124500000Y-99500000D01*
X124300000Y-98950000D02*
X124300000Y-99500000D01*
X126250000Y-97000000D02*
X124300000Y-98950000D01*
X128000000Y-97000000D02*
X126250000Y-97000000D01*
X129750000Y-97000000D02*
X130600000Y-97850000D01*
X128000000Y-97000000D02*
X129750000Y-97000000D01*
X130600000Y-102700000D02*
X129500000Y-103800000D01*
X130600000Y-97850000D02*
X130600000Y-102700000D01*
X126250000Y-123000000D02*
X124300000Y-124950000D01*
X130600000Y-123850000D02*
X130600000Y-128700000D01*
X128000000Y-123000000D02*
X126250000Y-123000000D01*
X129750000Y-123000000D02*
X130600000Y-123850000D01*
X130600000Y-128700000D02*
X129500000Y-129800000D01*
X122500000Y-125500000D02*
X124300000Y-125500000D01*
X124300000Y-124950000D02*
X124300000Y-125500000D01*
X124300000Y-125500000D02*
X124400000Y-125500000D01*
X124300000Y-125500000D02*
X124500000Y-125500000D01*
X128000000Y-123000000D02*
X129750000Y-123000000D01*
X129500000Y-108000000D02*
X129500000Y-106340000D01*
X129500000Y-134000000D02*
X129500000Y-132340000D01*
X121333274Y-97000000D02*
X120300000Y-98033274D01*
X122500000Y-97000000D02*
X121333274Y-97000000D01*
X120300000Y-98033274D02*
X120300000Y-101200000D01*
X120300000Y-101200000D02*
X122700000Y-103600000D01*
X125150000Y-103600000D02*
X124200000Y-103600000D01*
X128000000Y-99500000D02*
X128000000Y-100750000D01*
X122700000Y-103600000D02*
X124200000Y-103600000D01*
X128000000Y-100750000D02*
X125150000Y-103600000D01*
X121333274Y-123000000D02*
X120300000Y-124033274D01*
X122500000Y-123000000D02*
X121333274Y-123000000D01*
X120300000Y-124033274D02*
X120300000Y-127200000D01*
X120300000Y-127200000D02*
X122700000Y-129600000D01*
X125150000Y-129600000D02*
X124200000Y-129600000D01*
X122700000Y-129600000D02*
X124200000Y-129600000D01*
X128000000Y-126750000D02*
X125150000Y-129600000D01*
X128000000Y-125500000D02*
X128000000Y-126750000D01*
D17*
G36*
X131548000Y-110548000D02*
G01*
X130148689Y-110548000D01*
X130210463Y-110514981D01*
X130267869Y-110467869D01*
X130314981Y-110410463D01*
X130349988Y-110344970D01*
X130371545Y-110273905D01*
X130378824Y-110200000D01*
X130377000Y-110017250D01*
X130282750Y-109923000D01*
X129623000Y-109923000D01*
X129623000Y-109943000D01*
X129377000Y-109943000D01*
X129377000Y-109923000D01*
X128717250Y-109923000D01*
X128623000Y-110017250D01*
X128621176Y-110200000D01*
X128628455Y-110273905D01*
X128650012Y-110344970D01*
X128685019Y-110410463D01*
X128732131Y-110467869D01*
X128789537Y-110514981D01*
X128851311Y-110548000D01*
X106452000Y-110548000D01*
X106452000Y-109400000D01*
X128621176Y-109400000D01*
X128623000Y-109582750D01*
X128717250Y-109677000D01*
X129377000Y-109677000D01*
X129377000Y-109117250D01*
X129623000Y-109117250D01*
X129623000Y-109677000D01*
X130282750Y-109677000D01*
X130377000Y-109582750D01*
X130378824Y-109400000D01*
X130371545Y-109326095D01*
X130349988Y-109255030D01*
X130314981Y-109189537D01*
X130267869Y-109132131D01*
X130210463Y-109085019D01*
X130144970Y-109050012D01*
X130073905Y-109028455D01*
X130000000Y-109021176D01*
X129717250Y-109023000D01*
X129623000Y-109117250D01*
X129377000Y-109117250D01*
X129282750Y-109023000D01*
X129000000Y-109021176D01*
X128926095Y-109028455D01*
X128855030Y-109050012D01*
X128789537Y-109085019D01*
X128732131Y-109132131D01*
X128685019Y-109189537D01*
X128650012Y-109255030D01*
X128628455Y-109326095D01*
X128621176Y-109400000D01*
X106452000Y-109400000D01*
X106452000Y-106777305D01*
X107238940Y-106777305D01*
X107238940Y-107222695D01*
X107325832Y-107659527D01*
X107496275Y-108071013D01*
X107743720Y-108441342D01*
X108058658Y-108756280D01*
X108428987Y-109003725D01*
X108840473Y-109174168D01*
X109277305Y-109261060D01*
X109722695Y-109261060D01*
X110159527Y-109174168D01*
X110571013Y-109003725D01*
X110941342Y-108756280D01*
X111256280Y-108441342D01*
X111503725Y-108071013D01*
X111674168Y-107659527D01*
X111761060Y-107222695D01*
X111761060Y-106777305D01*
X112238940Y-106777305D01*
X112238940Y-107222695D01*
X112325832Y-107659527D01*
X112496275Y-108071013D01*
X112743720Y-108441342D01*
X113058658Y-108756280D01*
X113428987Y-109003725D01*
X113840473Y-109174168D01*
X114277305Y-109261060D01*
X114722695Y-109261060D01*
X115159527Y-109174168D01*
X115571013Y-109003725D01*
X115941342Y-108756280D01*
X116256280Y-108441342D01*
X116503725Y-108071013D01*
X116674168Y-107659527D01*
X116761060Y-107222695D01*
X116761060Y-106777305D01*
X117238940Y-106777305D01*
X117238940Y-107222695D01*
X117325832Y-107659527D01*
X117496275Y-108071013D01*
X117743720Y-108441342D01*
X118058658Y-108756280D01*
X118428987Y-109003725D01*
X118840473Y-109174168D01*
X119277305Y-109261060D01*
X119722695Y-109261060D01*
X120159527Y-109174168D01*
X120571013Y-109003725D01*
X120941342Y-108756280D01*
X121256280Y-108441342D01*
X121503725Y-108071013D01*
X121674168Y-107659527D01*
X121761060Y-107222695D01*
X121761060Y-106777305D01*
X122238940Y-106777305D01*
X122238940Y-107222695D01*
X122325832Y-107659527D01*
X122496275Y-108071013D01*
X122743720Y-108441342D01*
X123058658Y-108756280D01*
X123428987Y-109003725D01*
X123840473Y-109174168D01*
X124277305Y-109261060D01*
X124722695Y-109261060D01*
X125159527Y-109174168D01*
X125571013Y-109003725D01*
X125941342Y-108756280D01*
X126256280Y-108441342D01*
X126503725Y-108071013D01*
X126674168Y-107659527D01*
X126761060Y-107222695D01*
X126761060Y-106777305D01*
X126674168Y-106340473D01*
X126503725Y-105928987D01*
X126256280Y-105558658D01*
X125941342Y-105243720D01*
X125571013Y-104996275D01*
X125159527Y-104825832D01*
X124722695Y-104738940D01*
X124277305Y-104738940D01*
X123840473Y-104825832D01*
X123428987Y-104996275D01*
X123058658Y-105243720D01*
X122743720Y-105558658D01*
X122496275Y-105928987D01*
X122325832Y-106340473D01*
X122238940Y-106777305D01*
X121761060Y-106777305D01*
X121674168Y-106340473D01*
X121503725Y-105928987D01*
X121256280Y-105558658D01*
X120941342Y-105243720D01*
X120571013Y-104996275D01*
X120159527Y-104825832D01*
X119722695Y-104738940D01*
X119277305Y-104738940D01*
X118840473Y-104825832D01*
X118428987Y-104996275D01*
X118058658Y-105243720D01*
X117743720Y-105558658D01*
X117496275Y-105928987D01*
X117325832Y-106340473D01*
X117238940Y-106777305D01*
X116761060Y-106777305D01*
X116674168Y-106340473D01*
X116503725Y-105928987D01*
X116256280Y-105558658D01*
X115941342Y-105243720D01*
X115571013Y-104996275D01*
X115159527Y-104825832D01*
X114722695Y-104738940D01*
X114277305Y-104738940D01*
X113840473Y-104825832D01*
X113428987Y-104996275D01*
X113058658Y-105243720D01*
X112743720Y-105558658D01*
X112496275Y-105928987D01*
X112325832Y-106340473D01*
X112238940Y-106777305D01*
X111761060Y-106777305D01*
X111674168Y-106340473D01*
X111503725Y-105928987D01*
X111256280Y-105558658D01*
X110941342Y-105243720D01*
X110571013Y-104996275D01*
X110159527Y-104825832D01*
X109722695Y-104738940D01*
X109277305Y-104738940D01*
X108840473Y-104825832D01*
X108428987Y-104996275D01*
X108058658Y-105243720D01*
X107743720Y-105558658D01*
X107496275Y-105928987D01*
X107325832Y-106340473D01*
X107238940Y-106777305D01*
X106452000Y-106777305D01*
X106452000Y-96876689D01*
X108748000Y-96876689D01*
X108748000Y-97123311D01*
X108796114Y-97365195D01*
X108890492Y-97593044D01*
X109027508Y-97798104D01*
X109201896Y-97972492D01*
X109406956Y-98109508D01*
X109634805Y-98203886D01*
X109876689Y-98252000D01*
X110123311Y-98252000D01*
X110365195Y-98203886D01*
X110593044Y-98109508D01*
X110798104Y-97972492D01*
X110972492Y-97798104D01*
X111109508Y-97593044D01*
X111203886Y-97365195D01*
X111252000Y-97123311D01*
X111252000Y-96876689D01*
X111228332Y-96757702D01*
X112039903Y-96757702D01*
X112039903Y-97242298D01*
X112134443Y-97717584D01*
X112319891Y-98165293D01*
X112589118Y-98568220D01*
X112931780Y-98910882D01*
X113334707Y-99180109D01*
X113782416Y-99365557D01*
X114257702Y-99460097D01*
X114742298Y-99460097D01*
X115217584Y-99365557D01*
X115665293Y-99180109D01*
X116068220Y-98910882D01*
X116410882Y-98568220D01*
X116680109Y-98165293D01*
X116734793Y-98033274D01*
X119619726Y-98033274D01*
X119623000Y-98066519D01*
X119623001Y-101166746D01*
X119619726Y-101200000D01*
X119632796Y-101332714D01*
X119671508Y-101460329D01*
X119734372Y-101577940D01*
X119797776Y-101655198D01*
X119797779Y-101655201D01*
X119818974Y-101681027D01*
X119844800Y-101702222D01*
X122197778Y-104055201D01*
X122218973Y-104081027D01*
X122244799Y-104102222D01*
X122244801Y-104102224D01*
X122322059Y-104165628D01*
X122439670Y-104228492D01*
X122567285Y-104267204D01*
X122700000Y-104280275D01*
X122733252Y-104277000D01*
X125116755Y-104277000D01*
X125150000Y-104280274D01*
X125183245Y-104277000D01*
X125183252Y-104277000D01*
X125282715Y-104267204D01*
X125410330Y-104228492D01*
X125527941Y-104165628D01*
X125631027Y-104081027D01*
X125652226Y-104055196D01*
X128455201Y-101252222D01*
X128481027Y-101231027D01*
X128506491Y-101200000D01*
X128565628Y-101127941D01*
X128628492Y-101010330D01*
X128667204Y-100882715D01*
X128680275Y-100750000D01*
X128677000Y-100716748D01*
X128677000Y-100665261D01*
X128730732Y-100659969D01*
X128952597Y-100592667D01*
X129157070Y-100483374D01*
X129336291Y-100336291D01*
X129483374Y-100157070D01*
X129592667Y-99952597D01*
X129659969Y-99730732D01*
X129682694Y-99500000D01*
X129659969Y-99269268D01*
X129592667Y-99047403D01*
X129483374Y-98842930D01*
X129336291Y-98663709D01*
X129157070Y-98516626D01*
X128952597Y-98407333D01*
X128730732Y-98340031D01*
X128557812Y-98323000D01*
X127442188Y-98323000D01*
X127269268Y-98340031D01*
X127047403Y-98407333D01*
X126842930Y-98516626D01*
X126663709Y-98663709D01*
X126516626Y-98842930D01*
X126407333Y-99047403D01*
X126340031Y-99269268D01*
X126317306Y-99500000D01*
X126340031Y-99730732D01*
X126407333Y-99952597D01*
X126516626Y-100157070D01*
X126663709Y-100336291D01*
X126842930Y-100483374D01*
X127047403Y-100592667D01*
X127164415Y-100628162D01*
X124869578Y-102923000D01*
X122980423Y-102923000D01*
X121757423Y-101700000D01*
X123421176Y-101700000D01*
X123428455Y-101773905D01*
X123450012Y-101844970D01*
X123485019Y-101910463D01*
X123532131Y-101967869D01*
X123589537Y-102014981D01*
X123655030Y-102049988D01*
X123726095Y-102071545D01*
X123800000Y-102078824D01*
X124082750Y-102077000D01*
X124177000Y-101982750D01*
X124177000Y-101423000D01*
X124423000Y-101423000D01*
X124423000Y-101982750D01*
X124517250Y-102077000D01*
X124800000Y-102078824D01*
X124873905Y-102071545D01*
X124944970Y-102049988D01*
X125010463Y-102014981D01*
X125067869Y-101967869D01*
X125114981Y-101910463D01*
X125149988Y-101844970D01*
X125171545Y-101773905D01*
X125178824Y-101700000D01*
X125177000Y-101517250D01*
X125082750Y-101423000D01*
X124423000Y-101423000D01*
X124177000Y-101423000D01*
X123517250Y-101423000D01*
X123423000Y-101517250D01*
X123421176Y-101700000D01*
X121757423Y-101700000D01*
X120977000Y-100919578D01*
X120977000Y-98313696D01*
X121513523Y-97777173D01*
X121527508Y-97798104D01*
X121701896Y-97972492D01*
X121906956Y-98109508D01*
X122134805Y-98203886D01*
X122346193Y-98245934D01*
X121675000Y-98245934D01*
X121591293Y-98254178D01*
X121510804Y-98278595D01*
X121436624Y-98318245D01*
X121371605Y-98371605D01*
X121318245Y-98436624D01*
X121278595Y-98510804D01*
X121254178Y-98591293D01*
X121245934Y-98675000D01*
X121245934Y-100325000D01*
X121254178Y-100408707D01*
X121278595Y-100489196D01*
X121318245Y-100563376D01*
X121371605Y-100628395D01*
X121436624Y-100681755D01*
X121510804Y-100721405D01*
X121591293Y-100745822D01*
X121675000Y-100754066D01*
X123325000Y-100754066D01*
X123408707Y-100745822D01*
X123463880Y-100729085D01*
X123450012Y-100755030D01*
X123428455Y-100826095D01*
X123421176Y-100900000D01*
X123423000Y-101082750D01*
X123517250Y-101177000D01*
X124177000Y-101177000D01*
X124177000Y-100617250D01*
X124423000Y-100617250D01*
X124423000Y-101177000D01*
X125082750Y-101177000D01*
X125177000Y-101082750D01*
X125178824Y-100900000D01*
X125171545Y-100826095D01*
X125149988Y-100755030D01*
X125114981Y-100689537D01*
X125067869Y-100632131D01*
X125010463Y-100585019D01*
X124944970Y-100550012D01*
X124873905Y-100528455D01*
X124800000Y-100521176D01*
X124517250Y-100523000D01*
X124423000Y-100617250D01*
X124177000Y-100617250D01*
X124082750Y-100523000D01*
X123800000Y-100521176D01*
X123726095Y-100528455D01*
X123695452Y-100537750D01*
X123721405Y-100489196D01*
X123745822Y-100408707D01*
X123754066Y-100325000D01*
X123754066Y-100324542D01*
X123800000Y-100329066D01*
X124800000Y-100329066D01*
X124883707Y-100320822D01*
X124964196Y-100296405D01*
X125038376Y-100256755D01*
X125103395Y-100203395D01*
X125156755Y-100138376D01*
X125196405Y-100064196D01*
X125220822Y-99983707D01*
X125229066Y-99900000D01*
X125229066Y-99100000D01*
X125220822Y-99016293D01*
X125213911Y-98993511D01*
X126530422Y-97677000D01*
X126532982Y-97677000D01*
X126663709Y-97836291D01*
X126842930Y-97983374D01*
X127047403Y-98092667D01*
X127269268Y-98159969D01*
X127442188Y-98177000D01*
X128557812Y-98177000D01*
X128730732Y-98159969D01*
X128952597Y-98092667D01*
X129157070Y-97983374D01*
X129336291Y-97836291D01*
X129467018Y-97677000D01*
X129469578Y-97677000D01*
X129923000Y-98130423D01*
X129923001Y-102419576D01*
X129829945Y-102512633D01*
X129630698Y-102473000D01*
X129369302Y-102473000D01*
X129112928Y-102523996D01*
X128871430Y-102624028D01*
X128654087Y-102769252D01*
X128469252Y-102954087D01*
X128324028Y-103171430D01*
X128223996Y-103412928D01*
X128173000Y-103669302D01*
X128173000Y-103930698D01*
X128223996Y-104187072D01*
X128324028Y-104428570D01*
X128469252Y-104645913D01*
X128654087Y-104830748D01*
X128871430Y-104975972D01*
X128955836Y-105010934D01*
X128600000Y-105010934D01*
X128516293Y-105019178D01*
X128435804Y-105043595D01*
X128361624Y-105083245D01*
X128296605Y-105136605D01*
X128243245Y-105201624D01*
X128203595Y-105275804D01*
X128179178Y-105356293D01*
X128170934Y-105440000D01*
X128170934Y-107240000D01*
X128179178Y-107323707D01*
X128203595Y-107404196D01*
X128243245Y-107478376D01*
X128296605Y-107543395D01*
X128361624Y-107596755D01*
X128435804Y-107636405D01*
X128516293Y-107660822D01*
X128570934Y-107666203D01*
X128570934Y-108400000D01*
X128579178Y-108483707D01*
X128603595Y-108564196D01*
X128643245Y-108638376D01*
X128696605Y-108703395D01*
X128761624Y-108756755D01*
X128835804Y-108796405D01*
X128916293Y-108820822D01*
X129000000Y-108829066D01*
X130000000Y-108829066D01*
X130083707Y-108820822D01*
X130164196Y-108796405D01*
X130238376Y-108756755D01*
X130303395Y-108703395D01*
X130356755Y-108638376D01*
X130396405Y-108564196D01*
X130420822Y-108483707D01*
X130429066Y-108400000D01*
X130429066Y-107666203D01*
X130483707Y-107660822D01*
X130564196Y-107636405D01*
X130638376Y-107596755D01*
X130703395Y-107543395D01*
X130756755Y-107478376D01*
X130796405Y-107404196D01*
X130820822Y-107323707D01*
X130829066Y-107240000D01*
X130829066Y-105440000D01*
X130820822Y-105356293D01*
X130796405Y-105275804D01*
X130756755Y-105201624D01*
X130703395Y-105136605D01*
X130638376Y-105083245D01*
X130564196Y-105043595D01*
X130483707Y-105019178D01*
X130400000Y-105010934D01*
X130044164Y-105010934D01*
X130128570Y-104975972D01*
X130345913Y-104830748D01*
X130530748Y-104645913D01*
X130675972Y-104428570D01*
X130776004Y-104187072D01*
X130827000Y-103930698D01*
X130827000Y-103669302D01*
X130787367Y-103470055D01*
X131055201Y-103202222D01*
X131081027Y-103181027D01*
X131110757Y-103144802D01*
X131165628Y-103077941D01*
X131228492Y-102960330D01*
X131267204Y-102832715D01*
X131273454Y-102769252D01*
X131277000Y-102733252D01*
X131277000Y-102733245D01*
X131280274Y-102700000D01*
X131277000Y-102666755D01*
X131277000Y-97883252D01*
X131280275Y-97850000D01*
X131267204Y-97717285D01*
X131228492Y-97589670D01*
X131165628Y-97472059D01*
X131102224Y-97394801D01*
X131102218Y-97394795D01*
X131081026Y-97368973D01*
X131055205Y-97347782D01*
X130252226Y-96544804D01*
X130231027Y-96518973D01*
X130127941Y-96434372D01*
X130010330Y-96371508D01*
X129882715Y-96332796D01*
X129783252Y-96323000D01*
X129783245Y-96323000D01*
X129750000Y-96319726D01*
X129716755Y-96323000D01*
X129467018Y-96323000D01*
X129336291Y-96163709D01*
X129157070Y-96016626D01*
X128952597Y-95907333D01*
X128730732Y-95840031D01*
X128557812Y-95823000D01*
X127442188Y-95823000D01*
X127269268Y-95840031D01*
X127047403Y-95907333D01*
X126842930Y-96016626D01*
X126663709Y-96163709D01*
X126532982Y-96323000D01*
X126283241Y-96323000D01*
X126249999Y-96319726D01*
X126216757Y-96323000D01*
X126216748Y-96323000D01*
X126117285Y-96332796D01*
X125989670Y-96371508D01*
X125872059Y-96434372D01*
X125768973Y-96518973D01*
X125747774Y-96544804D01*
X123844800Y-98447778D01*
X123818973Y-98468974D01*
X123797778Y-98494800D01*
X123797776Y-98494802D01*
X123781774Y-98514301D01*
X123738472Y-98567064D01*
X123721405Y-98510804D01*
X123681755Y-98436624D01*
X123628395Y-98371605D01*
X123563376Y-98318245D01*
X123489196Y-98278595D01*
X123408707Y-98254178D01*
X123325000Y-98245934D01*
X122653807Y-98245934D01*
X122865195Y-98203886D01*
X123093044Y-98109508D01*
X123298104Y-97972492D01*
X123472492Y-97798104D01*
X123609508Y-97593044D01*
X123703886Y-97365195D01*
X123752000Y-97123311D01*
X123752000Y-96876689D01*
X123703886Y-96634805D01*
X123609508Y-96406956D01*
X123472492Y-96201896D01*
X123298104Y-96027508D01*
X123093044Y-95890492D01*
X122865195Y-95796114D01*
X122623311Y-95748000D01*
X122376689Y-95748000D01*
X122134805Y-95796114D01*
X121906956Y-95890492D01*
X121701896Y-96027508D01*
X121527508Y-96201896D01*
X121446589Y-96323000D01*
X121366515Y-96323000D01*
X121333273Y-96319726D01*
X121300031Y-96323000D01*
X121300022Y-96323000D01*
X121200559Y-96332796D01*
X121072944Y-96371508D01*
X120955333Y-96434372D01*
X120852247Y-96518973D01*
X120831048Y-96544804D01*
X119844800Y-97531052D01*
X119818973Y-97552248D01*
X119797778Y-97578074D01*
X119797776Y-97578076D01*
X119785492Y-97593044D01*
X119734372Y-97655334D01*
X119671508Y-97772945D01*
X119632796Y-97900560D01*
X119623000Y-98000023D01*
X119623000Y-98000029D01*
X119619726Y-98033274D01*
X116734793Y-98033274D01*
X116865557Y-97717584D01*
X116960097Y-97242298D01*
X116960097Y-96757702D01*
X116865557Y-96282416D01*
X116680109Y-95834707D01*
X116410882Y-95431780D01*
X116348668Y-95369566D01*
X121804382Y-95369566D01*
X121893263Y-95544361D01*
X122108666Y-95642663D01*
X122339108Y-95697053D01*
X122575733Y-95705440D01*
X122809448Y-95667503D01*
X123031270Y-95584700D01*
X123106737Y-95544361D01*
X123195618Y-95369566D01*
X122500000Y-94673948D01*
X121804382Y-95369566D01*
X116348668Y-95369566D01*
X116068220Y-95089118D01*
X115665293Y-94819891D01*
X115217584Y-94634443D01*
X114922429Y-94575733D01*
X121294560Y-94575733D01*
X121332497Y-94809448D01*
X121415300Y-95031270D01*
X121455639Y-95106737D01*
X121630434Y-95195618D01*
X122326052Y-94500000D01*
X122673948Y-94500000D01*
X123369566Y-95195618D01*
X123544361Y-95106737D01*
X123642663Y-94891334D01*
X123664990Y-94796734D01*
X126412766Y-94796734D01*
X126494599Y-95023857D01*
X126616117Y-95209935D01*
X126771602Y-95368731D01*
X126955079Y-95494142D01*
X127159497Y-95581349D01*
X127377000Y-95627000D01*
X127877000Y-95627000D01*
X127877000Y-94623000D01*
X128123000Y-94623000D01*
X128123000Y-95627000D01*
X128623000Y-95627000D01*
X128840503Y-95581349D01*
X129044921Y-95494142D01*
X129228398Y-95368731D01*
X129383883Y-95209935D01*
X129505401Y-95023857D01*
X129587234Y-94796734D01*
X129525399Y-94623000D01*
X128123000Y-94623000D01*
X127877000Y-94623000D01*
X126474601Y-94623000D01*
X126412766Y-94796734D01*
X123664990Y-94796734D01*
X123697053Y-94660892D01*
X123705440Y-94424267D01*
X123669567Y-94203266D01*
X126412766Y-94203266D01*
X126474601Y-94377000D01*
X127877000Y-94377000D01*
X127877000Y-93373000D01*
X128123000Y-93373000D01*
X128123000Y-94377000D01*
X129525399Y-94377000D01*
X129587234Y-94203266D01*
X129505401Y-93976143D01*
X129383883Y-93790065D01*
X129228398Y-93631269D01*
X129044921Y-93505858D01*
X128840503Y-93418651D01*
X128623000Y-93373000D01*
X128123000Y-93373000D01*
X127877000Y-93373000D01*
X127377000Y-93373000D01*
X127159497Y-93418651D01*
X126955079Y-93505858D01*
X126771602Y-93631269D01*
X126616117Y-93790065D01*
X126494599Y-93976143D01*
X126412766Y-94203266D01*
X123669567Y-94203266D01*
X123667503Y-94190552D01*
X123584700Y-93968730D01*
X123544361Y-93893263D01*
X123369566Y-93804382D01*
X122673948Y-94500000D01*
X122326052Y-94500000D01*
X121630434Y-93804382D01*
X121455639Y-93893263D01*
X121357337Y-94108666D01*
X121302947Y-94339108D01*
X121294560Y-94575733D01*
X114922429Y-94575733D01*
X114742298Y-94539903D01*
X114257702Y-94539903D01*
X113782416Y-94634443D01*
X113334707Y-94819891D01*
X112931780Y-95089118D01*
X112589118Y-95431780D01*
X112319891Y-95834707D01*
X112134443Y-96282416D01*
X112039903Y-96757702D01*
X111228332Y-96757702D01*
X111203886Y-96634805D01*
X111109508Y-96406956D01*
X110972492Y-96201896D01*
X110798104Y-96027508D01*
X110593044Y-95890492D01*
X110365195Y-95796114D01*
X110123311Y-95748000D01*
X109876689Y-95748000D01*
X109634805Y-95796114D01*
X109406956Y-95890492D01*
X109201896Y-96027508D01*
X109027508Y-96201896D01*
X108890492Y-96406956D01*
X108796114Y-96634805D01*
X108748000Y-96876689D01*
X106452000Y-96876689D01*
X106452000Y-93630434D01*
X121804382Y-93630434D01*
X122500000Y-94326052D01*
X123195618Y-93630434D01*
X123106737Y-93455639D01*
X122891334Y-93357337D01*
X122660892Y-93302947D01*
X122424267Y-93294560D01*
X122190552Y-93332497D01*
X121968730Y-93415300D01*
X121893263Y-93455639D01*
X121804382Y-93630434D01*
X106452000Y-93630434D01*
X106452000Y-87777305D01*
X107238940Y-87777305D01*
X107238940Y-88222695D01*
X107325832Y-88659527D01*
X107496275Y-89071013D01*
X107743720Y-89441342D01*
X108058658Y-89756280D01*
X108428987Y-90003725D01*
X108840473Y-90174168D01*
X109277305Y-90261060D01*
X109722695Y-90261060D01*
X110159527Y-90174168D01*
X110571013Y-90003725D01*
X110941342Y-89756280D01*
X111256280Y-89441342D01*
X111503725Y-89071013D01*
X111674168Y-88659527D01*
X111761060Y-88222695D01*
X111761060Y-87777305D01*
X112238940Y-87777305D01*
X112238940Y-88222695D01*
X112325832Y-88659527D01*
X112496275Y-89071013D01*
X112743720Y-89441342D01*
X113058658Y-89756280D01*
X113428987Y-90003725D01*
X113840473Y-90174168D01*
X114277305Y-90261060D01*
X114722695Y-90261060D01*
X115159527Y-90174168D01*
X115571013Y-90003725D01*
X115941342Y-89756280D01*
X116256280Y-89441342D01*
X116503725Y-89071013D01*
X116674168Y-88659527D01*
X116761060Y-88222695D01*
X116761060Y-87777305D01*
X117238940Y-87777305D01*
X117238940Y-88222695D01*
X117325832Y-88659527D01*
X117496275Y-89071013D01*
X117743720Y-89441342D01*
X118058658Y-89756280D01*
X118428987Y-90003725D01*
X118840473Y-90174168D01*
X119277305Y-90261060D01*
X119722695Y-90261060D01*
X120159527Y-90174168D01*
X120571013Y-90003725D01*
X120941342Y-89756280D01*
X121256280Y-89441342D01*
X121503725Y-89071013D01*
X121674168Y-88659527D01*
X121761060Y-88222695D01*
X121761060Y-87777305D01*
X122238940Y-87777305D01*
X122238940Y-88222695D01*
X122325832Y-88659527D01*
X122496275Y-89071013D01*
X122743720Y-89441342D01*
X123058658Y-89756280D01*
X123428987Y-90003725D01*
X123840473Y-90174168D01*
X124277305Y-90261060D01*
X124722695Y-90261060D01*
X125159527Y-90174168D01*
X125571013Y-90003725D01*
X125941342Y-89756280D01*
X126256280Y-89441342D01*
X126503725Y-89071013D01*
X126674168Y-88659527D01*
X126761060Y-88222695D01*
X126761060Y-87777305D01*
X126674168Y-87340473D01*
X126503725Y-86928987D01*
X126256280Y-86558658D01*
X125941342Y-86243720D01*
X125571013Y-85996275D01*
X125159527Y-85825832D01*
X124722695Y-85738940D01*
X124277305Y-85738940D01*
X123840473Y-85825832D01*
X123428987Y-85996275D01*
X123058658Y-86243720D01*
X122743720Y-86558658D01*
X122496275Y-86928987D01*
X122325832Y-87340473D01*
X122238940Y-87777305D01*
X121761060Y-87777305D01*
X121674168Y-87340473D01*
X121503725Y-86928987D01*
X121256280Y-86558658D01*
X120941342Y-86243720D01*
X120571013Y-85996275D01*
X120159527Y-85825832D01*
X119722695Y-85738940D01*
X119277305Y-85738940D01*
X118840473Y-85825832D01*
X118428987Y-85996275D01*
X118058658Y-86243720D01*
X117743720Y-86558658D01*
X117496275Y-86928987D01*
X117325832Y-87340473D01*
X117238940Y-87777305D01*
X116761060Y-87777305D01*
X116674168Y-87340473D01*
X116503725Y-86928987D01*
X116256280Y-86558658D01*
X115941342Y-86243720D01*
X115571013Y-85996275D01*
X115159527Y-85825832D01*
X114722695Y-85738940D01*
X114277305Y-85738940D01*
X113840473Y-85825832D01*
X113428987Y-85996275D01*
X113058658Y-86243720D01*
X112743720Y-86558658D01*
X112496275Y-86928987D01*
X112325832Y-87340473D01*
X112238940Y-87777305D01*
X111761060Y-87777305D01*
X111674168Y-87340473D01*
X111503725Y-86928987D01*
X111256280Y-86558658D01*
X110941342Y-86243720D01*
X110571013Y-85996275D01*
X110159527Y-85825832D01*
X109722695Y-85738940D01*
X109277305Y-85738940D01*
X108840473Y-85825832D01*
X108428987Y-85996275D01*
X108058658Y-86243720D01*
X107743720Y-86558658D01*
X107496275Y-86928987D01*
X107325832Y-87340473D01*
X107238940Y-87777305D01*
X106452000Y-87777305D01*
X106452000Y-85452000D01*
X131548001Y-85452000D01*
X131548000Y-110548000D01*
G37*
X131548000Y-110548000D02*
X130148689Y-110548000D01*
X130210463Y-110514981D01*
X130267869Y-110467869D01*
X130314981Y-110410463D01*
X130349988Y-110344970D01*
X130371545Y-110273905D01*
X130378824Y-110200000D01*
X130377000Y-110017250D01*
X130282750Y-109923000D01*
X129623000Y-109923000D01*
X129623000Y-109943000D01*
X129377000Y-109943000D01*
X129377000Y-109923000D01*
X128717250Y-109923000D01*
X128623000Y-110017250D01*
X128621176Y-110200000D01*
X128628455Y-110273905D01*
X128650012Y-110344970D01*
X128685019Y-110410463D01*
X128732131Y-110467869D01*
X128789537Y-110514981D01*
X128851311Y-110548000D01*
X106452000Y-110548000D01*
X106452000Y-109400000D01*
X128621176Y-109400000D01*
X128623000Y-109582750D01*
X128717250Y-109677000D01*
X129377000Y-109677000D01*
X129377000Y-109117250D01*
X129623000Y-109117250D01*
X129623000Y-109677000D01*
X130282750Y-109677000D01*
X130377000Y-109582750D01*
X130378824Y-109400000D01*
X130371545Y-109326095D01*
X130349988Y-109255030D01*
X130314981Y-109189537D01*
X130267869Y-109132131D01*
X130210463Y-109085019D01*
X130144970Y-109050012D01*
X130073905Y-109028455D01*
X130000000Y-109021176D01*
X129717250Y-109023000D01*
X129623000Y-109117250D01*
X129377000Y-109117250D01*
X129282750Y-109023000D01*
X129000000Y-109021176D01*
X128926095Y-109028455D01*
X128855030Y-109050012D01*
X128789537Y-109085019D01*
X128732131Y-109132131D01*
X128685019Y-109189537D01*
X128650012Y-109255030D01*
X128628455Y-109326095D01*
X128621176Y-109400000D01*
X106452000Y-109400000D01*
X106452000Y-106777305D01*
X107238940Y-106777305D01*
X107238940Y-107222695D01*
X107325832Y-107659527D01*
X107496275Y-108071013D01*
X107743720Y-108441342D01*
X108058658Y-108756280D01*
X108428987Y-109003725D01*
X108840473Y-109174168D01*
X109277305Y-109261060D01*
X109722695Y-109261060D01*
X110159527Y-109174168D01*
X110571013Y-109003725D01*
X110941342Y-108756280D01*
X111256280Y-108441342D01*
X111503725Y-108071013D01*
X111674168Y-107659527D01*
X111761060Y-107222695D01*
X111761060Y-106777305D01*
X112238940Y-106777305D01*
X112238940Y-107222695D01*
X112325832Y-107659527D01*
X112496275Y-108071013D01*
X112743720Y-108441342D01*
X113058658Y-108756280D01*
X113428987Y-109003725D01*
X113840473Y-109174168D01*
X114277305Y-109261060D01*
X114722695Y-109261060D01*
X115159527Y-109174168D01*
X115571013Y-109003725D01*
X115941342Y-108756280D01*
X116256280Y-108441342D01*
X116503725Y-108071013D01*
X116674168Y-107659527D01*
X116761060Y-107222695D01*
X116761060Y-106777305D01*
X117238940Y-106777305D01*
X117238940Y-107222695D01*
X117325832Y-107659527D01*
X117496275Y-108071013D01*
X117743720Y-108441342D01*
X118058658Y-108756280D01*
X118428987Y-109003725D01*
X118840473Y-109174168D01*
X119277305Y-109261060D01*
X119722695Y-109261060D01*
X120159527Y-109174168D01*
X120571013Y-109003725D01*
X120941342Y-108756280D01*
X121256280Y-108441342D01*
X121503725Y-108071013D01*
X121674168Y-107659527D01*
X121761060Y-107222695D01*
X121761060Y-106777305D01*
X122238940Y-106777305D01*
X122238940Y-107222695D01*
X122325832Y-107659527D01*
X122496275Y-108071013D01*
X122743720Y-108441342D01*
X123058658Y-108756280D01*
X123428987Y-109003725D01*
X123840473Y-109174168D01*
X124277305Y-109261060D01*
X124722695Y-109261060D01*
X125159527Y-109174168D01*
X125571013Y-109003725D01*
X125941342Y-108756280D01*
X126256280Y-108441342D01*
X126503725Y-108071013D01*
X126674168Y-107659527D01*
X126761060Y-107222695D01*
X126761060Y-106777305D01*
X126674168Y-106340473D01*
X126503725Y-105928987D01*
X126256280Y-105558658D01*
X125941342Y-105243720D01*
X125571013Y-104996275D01*
X125159527Y-104825832D01*
X124722695Y-104738940D01*
X124277305Y-104738940D01*
X123840473Y-104825832D01*
X123428987Y-104996275D01*
X123058658Y-105243720D01*
X122743720Y-105558658D01*
X122496275Y-105928987D01*
X122325832Y-106340473D01*
X122238940Y-106777305D01*
X121761060Y-106777305D01*
X121674168Y-106340473D01*
X121503725Y-105928987D01*
X121256280Y-105558658D01*
X120941342Y-105243720D01*
X120571013Y-104996275D01*
X120159527Y-104825832D01*
X119722695Y-104738940D01*
X119277305Y-104738940D01*
X118840473Y-104825832D01*
X118428987Y-104996275D01*
X118058658Y-105243720D01*
X117743720Y-105558658D01*
X117496275Y-105928987D01*
X117325832Y-106340473D01*
X117238940Y-106777305D01*
X116761060Y-106777305D01*
X116674168Y-106340473D01*
X116503725Y-105928987D01*
X116256280Y-105558658D01*
X115941342Y-105243720D01*
X115571013Y-104996275D01*
X115159527Y-104825832D01*
X114722695Y-104738940D01*
X114277305Y-104738940D01*
X113840473Y-104825832D01*
X113428987Y-104996275D01*
X113058658Y-105243720D01*
X112743720Y-105558658D01*
X112496275Y-105928987D01*
X112325832Y-106340473D01*
X112238940Y-106777305D01*
X111761060Y-106777305D01*
X111674168Y-106340473D01*
X111503725Y-105928987D01*
X111256280Y-105558658D01*
X110941342Y-105243720D01*
X110571013Y-104996275D01*
X110159527Y-104825832D01*
X109722695Y-104738940D01*
X109277305Y-104738940D01*
X108840473Y-104825832D01*
X108428987Y-104996275D01*
X108058658Y-105243720D01*
X107743720Y-105558658D01*
X107496275Y-105928987D01*
X107325832Y-106340473D01*
X107238940Y-106777305D01*
X106452000Y-106777305D01*
X106452000Y-96876689D01*
X108748000Y-96876689D01*
X108748000Y-97123311D01*
X108796114Y-97365195D01*
X108890492Y-97593044D01*
X109027508Y-97798104D01*
X109201896Y-97972492D01*
X109406956Y-98109508D01*
X109634805Y-98203886D01*
X109876689Y-98252000D01*
X110123311Y-98252000D01*
X110365195Y-98203886D01*
X110593044Y-98109508D01*
X110798104Y-97972492D01*
X110972492Y-97798104D01*
X111109508Y-97593044D01*
X111203886Y-97365195D01*
X111252000Y-97123311D01*
X111252000Y-96876689D01*
X111228332Y-96757702D01*
X112039903Y-96757702D01*
X112039903Y-97242298D01*
X112134443Y-97717584D01*
X112319891Y-98165293D01*
X112589118Y-98568220D01*
X112931780Y-98910882D01*
X113334707Y-99180109D01*
X113782416Y-99365557D01*
X114257702Y-99460097D01*
X114742298Y-99460097D01*
X115217584Y-99365557D01*
X115665293Y-99180109D01*
X116068220Y-98910882D01*
X116410882Y-98568220D01*
X116680109Y-98165293D01*
X116734793Y-98033274D01*
X119619726Y-98033274D01*
X119623000Y-98066519D01*
X119623001Y-101166746D01*
X119619726Y-101200000D01*
X119632796Y-101332714D01*
X119671508Y-101460329D01*
X119734372Y-101577940D01*
X119797776Y-101655198D01*
X119797779Y-101655201D01*
X119818974Y-101681027D01*
X119844800Y-101702222D01*
X122197778Y-104055201D01*
X122218973Y-104081027D01*
X122244799Y-104102222D01*
X122244801Y-104102224D01*
X122322059Y-104165628D01*
X122439670Y-104228492D01*
X122567285Y-104267204D01*
X122700000Y-104280275D01*
X122733252Y-104277000D01*
X125116755Y-104277000D01*
X125150000Y-104280274D01*
X125183245Y-104277000D01*
X125183252Y-104277000D01*
X125282715Y-104267204D01*
X125410330Y-104228492D01*
X125527941Y-104165628D01*
X125631027Y-104081027D01*
X125652226Y-104055196D01*
X128455201Y-101252222D01*
X128481027Y-101231027D01*
X128506491Y-101200000D01*
X128565628Y-101127941D01*
X128628492Y-101010330D01*
X128667204Y-100882715D01*
X128680275Y-100750000D01*
X128677000Y-100716748D01*
X128677000Y-100665261D01*
X128730732Y-100659969D01*
X128952597Y-100592667D01*
X129157070Y-100483374D01*
X129336291Y-100336291D01*
X129483374Y-100157070D01*
X129592667Y-99952597D01*
X129659969Y-99730732D01*
X129682694Y-99500000D01*
X129659969Y-99269268D01*
X129592667Y-99047403D01*
X129483374Y-98842930D01*
X129336291Y-98663709D01*
X129157070Y-98516626D01*
X128952597Y-98407333D01*
X128730732Y-98340031D01*
X128557812Y-98323000D01*
X127442188Y-98323000D01*
X127269268Y-98340031D01*
X127047403Y-98407333D01*
X126842930Y-98516626D01*
X126663709Y-98663709D01*
X126516626Y-98842930D01*
X126407333Y-99047403D01*
X126340031Y-99269268D01*
X126317306Y-99500000D01*
X126340031Y-99730732D01*
X126407333Y-99952597D01*
X126516626Y-100157070D01*
X126663709Y-100336291D01*
X126842930Y-100483374D01*
X127047403Y-100592667D01*
X127164415Y-100628162D01*
X124869578Y-102923000D01*
X122980423Y-102923000D01*
X121757423Y-101700000D01*
X123421176Y-101700000D01*
X123428455Y-101773905D01*
X123450012Y-101844970D01*
X123485019Y-101910463D01*
X123532131Y-101967869D01*
X123589537Y-102014981D01*
X123655030Y-102049988D01*
X123726095Y-102071545D01*
X123800000Y-102078824D01*
X124082750Y-102077000D01*
X124177000Y-101982750D01*
X124177000Y-101423000D01*
X124423000Y-101423000D01*
X124423000Y-101982750D01*
X124517250Y-102077000D01*
X124800000Y-102078824D01*
X124873905Y-102071545D01*
X124944970Y-102049988D01*
X125010463Y-102014981D01*
X125067869Y-101967869D01*
X125114981Y-101910463D01*
X125149988Y-101844970D01*
X125171545Y-101773905D01*
X125178824Y-101700000D01*
X125177000Y-101517250D01*
X125082750Y-101423000D01*
X124423000Y-101423000D01*
X124177000Y-101423000D01*
X123517250Y-101423000D01*
X123423000Y-101517250D01*
X123421176Y-101700000D01*
X121757423Y-101700000D01*
X120977000Y-100919578D01*
X120977000Y-98313696D01*
X121513523Y-97777173D01*
X121527508Y-97798104D01*
X121701896Y-97972492D01*
X121906956Y-98109508D01*
X122134805Y-98203886D01*
X122346193Y-98245934D01*
X121675000Y-98245934D01*
X121591293Y-98254178D01*
X121510804Y-98278595D01*
X121436624Y-98318245D01*
X121371605Y-98371605D01*
X121318245Y-98436624D01*
X121278595Y-98510804D01*
X121254178Y-98591293D01*
X121245934Y-98675000D01*
X121245934Y-100325000D01*
X121254178Y-100408707D01*
X121278595Y-100489196D01*
X121318245Y-100563376D01*
X121371605Y-100628395D01*
X121436624Y-100681755D01*
X121510804Y-100721405D01*
X121591293Y-100745822D01*
X121675000Y-100754066D01*
X123325000Y-100754066D01*
X123408707Y-100745822D01*
X123463880Y-100729085D01*
X123450012Y-100755030D01*
X123428455Y-100826095D01*
X123421176Y-100900000D01*
X123423000Y-101082750D01*
X123517250Y-101177000D01*
X124177000Y-101177000D01*
X124177000Y-100617250D01*
X124423000Y-100617250D01*
X124423000Y-101177000D01*
X125082750Y-101177000D01*
X125177000Y-101082750D01*
X125178824Y-100900000D01*
X125171545Y-100826095D01*
X125149988Y-100755030D01*
X125114981Y-100689537D01*
X125067869Y-100632131D01*
X125010463Y-100585019D01*
X124944970Y-100550012D01*
X124873905Y-100528455D01*
X124800000Y-100521176D01*
X124517250Y-100523000D01*
X124423000Y-100617250D01*
X124177000Y-100617250D01*
X124082750Y-100523000D01*
X123800000Y-100521176D01*
X123726095Y-100528455D01*
X123695452Y-100537750D01*
X123721405Y-100489196D01*
X123745822Y-100408707D01*
X123754066Y-100325000D01*
X123754066Y-100324542D01*
X123800000Y-100329066D01*
X124800000Y-100329066D01*
X124883707Y-100320822D01*
X124964196Y-100296405D01*
X125038376Y-100256755D01*
X125103395Y-100203395D01*
X125156755Y-100138376D01*
X125196405Y-100064196D01*
X125220822Y-99983707D01*
X125229066Y-99900000D01*
X125229066Y-99100000D01*
X125220822Y-99016293D01*
X125213911Y-98993511D01*
X126530422Y-97677000D01*
X126532982Y-97677000D01*
X126663709Y-97836291D01*
X126842930Y-97983374D01*
X127047403Y-98092667D01*
X127269268Y-98159969D01*
X127442188Y-98177000D01*
X128557812Y-98177000D01*
X128730732Y-98159969D01*
X128952597Y-98092667D01*
X129157070Y-97983374D01*
X129336291Y-97836291D01*
X129467018Y-97677000D01*
X129469578Y-97677000D01*
X129923000Y-98130423D01*
X129923001Y-102419576D01*
X129829945Y-102512633D01*
X129630698Y-102473000D01*
X129369302Y-102473000D01*
X129112928Y-102523996D01*
X128871430Y-102624028D01*
X128654087Y-102769252D01*
X128469252Y-102954087D01*
X128324028Y-103171430D01*
X128223996Y-103412928D01*
X128173000Y-103669302D01*
X128173000Y-103930698D01*
X128223996Y-104187072D01*
X128324028Y-104428570D01*
X128469252Y-104645913D01*
X128654087Y-104830748D01*
X128871430Y-104975972D01*
X128955836Y-105010934D01*
X128600000Y-105010934D01*
X128516293Y-105019178D01*
X128435804Y-105043595D01*
X128361624Y-105083245D01*
X128296605Y-105136605D01*
X128243245Y-105201624D01*
X128203595Y-105275804D01*
X128179178Y-105356293D01*
X128170934Y-105440000D01*
X128170934Y-107240000D01*
X128179178Y-107323707D01*
X128203595Y-107404196D01*
X128243245Y-107478376D01*
X128296605Y-107543395D01*
X128361624Y-107596755D01*
X128435804Y-107636405D01*
X128516293Y-107660822D01*
X128570934Y-107666203D01*
X128570934Y-108400000D01*
X128579178Y-108483707D01*
X128603595Y-108564196D01*
X128643245Y-108638376D01*
X128696605Y-108703395D01*
X128761624Y-108756755D01*
X128835804Y-108796405D01*
X128916293Y-108820822D01*
X129000000Y-108829066D01*
X130000000Y-108829066D01*
X130083707Y-108820822D01*
X130164196Y-108796405D01*
X130238376Y-108756755D01*
X130303395Y-108703395D01*
X130356755Y-108638376D01*
X130396405Y-108564196D01*
X130420822Y-108483707D01*
X130429066Y-108400000D01*
X130429066Y-107666203D01*
X130483707Y-107660822D01*
X130564196Y-107636405D01*
X130638376Y-107596755D01*
X130703395Y-107543395D01*
X130756755Y-107478376D01*
X130796405Y-107404196D01*
X130820822Y-107323707D01*
X130829066Y-107240000D01*
X130829066Y-105440000D01*
X130820822Y-105356293D01*
X130796405Y-105275804D01*
X130756755Y-105201624D01*
X130703395Y-105136605D01*
X130638376Y-105083245D01*
X130564196Y-105043595D01*
X130483707Y-105019178D01*
X130400000Y-105010934D01*
X130044164Y-105010934D01*
X130128570Y-104975972D01*
X130345913Y-104830748D01*
X130530748Y-104645913D01*
X130675972Y-104428570D01*
X130776004Y-104187072D01*
X130827000Y-103930698D01*
X130827000Y-103669302D01*
X130787367Y-103470055D01*
X131055201Y-103202222D01*
X131081027Y-103181027D01*
X131110757Y-103144802D01*
X131165628Y-103077941D01*
X131228492Y-102960330D01*
X131267204Y-102832715D01*
X131273454Y-102769252D01*
X131277000Y-102733252D01*
X131277000Y-102733245D01*
X131280274Y-102700000D01*
X131277000Y-102666755D01*
X131277000Y-97883252D01*
X131280275Y-97850000D01*
X131267204Y-97717285D01*
X131228492Y-97589670D01*
X131165628Y-97472059D01*
X131102224Y-97394801D01*
X131102218Y-97394795D01*
X131081026Y-97368973D01*
X131055205Y-97347782D01*
X130252226Y-96544804D01*
X130231027Y-96518973D01*
X130127941Y-96434372D01*
X130010330Y-96371508D01*
X129882715Y-96332796D01*
X129783252Y-96323000D01*
X129783245Y-96323000D01*
X129750000Y-96319726D01*
X129716755Y-96323000D01*
X129467018Y-96323000D01*
X129336291Y-96163709D01*
X129157070Y-96016626D01*
X128952597Y-95907333D01*
X128730732Y-95840031D01*
X128557812Y-95823000D01*
X127442188Y-95823000D01*
X127269268Y-95840031D01*
X127047403Y-95907333D01*
X126842930Y-96016626D01*
X126663709Y-96163709D01*
X126532982Y-96323000D01*
X126283241Y-96323000D01*
X126249999Y-96319726D01*
X126216757Y-96323000D01*
X126216748Y-96323000D01*
X126117285Y-96332796D01*
X125989670Y-96371508D01*
X125872059Y-96434372D01*
X125768973Y-96518973D01*
X125747774Y-96544804D01*
X123844800Y-98447778D01*
X123818973Y-98468974D01*
X123797778Y-98494800D01*
X123797776Y-98494802D01*
X123781774Y-98514301D01*
X123738472Y-98567064D01*
X123721405Y-98510804D01*
X123681755Y-98436624D01*
X123628395Y-98371605D01*
X123563376Y-98318245D01*
X123489196Y-98278595D01*
X123408707Y-98254178D01*
X123325000Y-98245934D01*
X122653807Y-98245934D01*
X122865195Y-98203886D01*
X123093044Y-98109508D01*
X123298104Y-97972492D01*
X123472492Y-97798104D01*
X123609508Y-97593044D01*
X123703886Y-97365195D01*
X123752000Y-97123311D01*
X123752000Y-96876689D01*
X123703886Y-96634805D01*
X123609508Y-96406956D01*
X123472492Y-96201896D01*
X123298104Y-96027508D01*
X123093044Y-95890492D01*
X122865195Y-95796114D01*
X122623311Y-95748000D01*
X122376689Y-95748000D01*
X122134805Y-95796114D01*
X121906956Y-95890492D01*
X121701896Y-96027508D01*
X121527508Y-96201896D01*
X121446589Y-96323000D01*
X121366515Y-96323000D01*
X121333273Y-96319726D01*
X121300031Y-96323000D01*
X121300022Y-96323000D01*
X121200559Y-96332796D01*
X121072944Y-96371508D01*
X120955333Y-96434372D01*
X120852247Y-96518973D01*
X120831048Y-96544804D01*
X119844800Y-97531052D01*
X119818973Y-97552248D01*
X119797778Y-97578074D01*
X119797776Y-97578076D01*
X119785492Y-97593044D01*
X119734372Y-97655334D01*
X119671508Y-97772945D01*
X119632796Y-97900560D01*
X119623000Y-98000023D01*
X119623000Y-98000029D01*
X119619726Y-98033274D01*
X116734793Y-98033274D01*
X116865557Y-97717584D01*
X116960097Y-97242298D01*
X116960097Y-96757702D01*
X116865557Y-96282416D01*
X116680109Y-95834707D01*
X116410882Y-95431780D01*
X116348668Y-95369566D01*
X121804382Y-95369566D01*
X121893263Y-95544361D01*
X122108666Y-95642663D01*
X122339108Y-95697053D01*
X122575733Y-95705440D01*
X122809448Y-95667503D01*
X123031270Y-95584700D01*
X123106737Y-95544361D01*
X123195618Y-95369566D01*
X122500000Y-94673948D01*
X121804382Y-95369566D01*
X116348668Y-95369566D01*
X116068220Y-95089118D01*
X115665293Y-94819891D01*
X115217584Y-94634443D01*
X114922429Y-94575733D01*
X121294560Y-94575733D01*
X121332497Y-94809448D01*
X121415300Y-95031270D01*
X121455639Y-95106737D01*
X121630434Y-95195618D01*
X122326052Y-94500000D01*
X122673948Y-94500000D01*
X123369566Y-95195618D01*
X123544361Y-95106737D01*
X123642663Y-94891334D01*
X123664990Y-94796734D01*
X126412766Y-94796734D01*
X126494599Y-95023857D01*
X126616117Y-95209935D01*
X126771602Y-95368731D01*
X126955079Y-95494142D01*
X127159497Y-95581349D01*
X127377000Y-95627000D01*
X127877000Y-95627000D01*
X127877000Y-94623000D01*
X128123000Y-94623000D01*
X128123000Y-95627000D01*
X128623000Y-95627000D01*
X128840503Y-95581349D01*
X129044921Y-95494142D01*
X129228398Y-95368731D01*
X129383883Y-95209935D01*
X129505401Y-95023857D01*
X129587234Y-94796734D01*
X129525399Y-94623000D01*
X128123000Y-94623000D01*
X127877000Y-94623000D01*
X126474601Y-94623000D01*
X126412766Y-94796734D01*
X123664990Y-94796734D01*
X123697053Y-94660892D01*
X123705440Y-94424267D01*
X123669567Y-94203266D01*
X126412766Y-94203266D01*
X126474601Y-94377000D01*
X127877000Y-94377000D01*
X127877000Y-93373000D01*
X128123000Y-93373000D01*
X128123000Y-94377000D01*
X129525399Y-94377000D01*
X129587234Y-94203266D01*
X129505401Y-93976143D01*
X129383883Y-93790065D01*
X129228398Y-93631269D01*
X129044921Y-93505858D01*
X128840503Y-93418651D01*
X128623000Y-93373000D01*
X128123000Y-93373000D01*
X127877000Y-93373000D01*
X127377000Y-93373000D01*
X127159497Y-93418651D01*
X126955079Y-93505858D01*
X126771602Y-93631269D01*
X126616117Y-93790065D01*
X126494599Y-93976143D01*
X126412766Y-94203266D01*
X123669567Y-94203266D01*
X123667503Y-94190552D01*
X123584700Y-93968730D01*
X123544361Y-93893263D01*
X123369566Y-93804382D01*
X122673948Y-94500000D01*
X122326052Y-94500000D01*
X121630434Y-93804382D01*
X121455639Y-93893263D01*
X121357337Y-94108666D01*
X121302947Y-94339108D01*
X121294560Y-94575733D01*
X114922429Y-94575733D01*
X114742298Y-94539903D01*
X114257702Y-94539903D01*
X113782416Y-94634443D01*
X113334707Y-94819891D01*
X112931780Y-95089118D01*
X112589118Y-95431780D01*
X112319891Y-95834707D01*
X112134443Y-96282416D01*
X112039903Y-96757702D01*
X111228332Y-96757702D01*
X111203886Y-96634805D01*
X111109508Y-96406956D01*
X110972492Y-96201896D01*
X110798104Y-96027508D01*
X110593044Y-95890492D01*
X110365195Y-95796114D01*
X110123311Y-95748000D01*
X109876689Y-95748000D01*
X109634805Y-95796114D01*
X109406956Y-95890492D01*
X109201896Y-96027508D01*
X109027508Y-96201896D01*
X108890492Y-96406956D01*
X108796114Y-96634805D01*
X108748000Y-96876689D01*
X106452000Y-96876689D01*
X106452000Y-93630434D01*
X121804382Y-93630434D01*
X122500000Y-94326052D01*
X123195618Y-93630434D01*
X123106737Y-93455639D01*
X122891334Y-93357337D01*
X122660892Y-93302947D01*
X122424267Y-93294560D01*
X122190552Y-93332497D01*
X121968730Y-93415300D01*
X121893263Y-93455639D01*
X121804382Y-93630434D01*
X106452000Y-93630434D01*
X106452000Y-87777305D01*
X107238940Y-87777305D01*
X107238940Y-88222695D01*
X107325832Y-88659527D01*
X107496275Y-89071013D01*
X107743720Y-89441342D01*
X108058658Y-89756280D01*
X108428987Y-90003725D01*
X108840473Y-90174168D01*
X109277305Y-90261060D01*
X109722695Y-90261060D01*
X110159527Y-90174168D01*
X110571013Y-90003725D01*
X110941342Y-89756280D01*
X111256280Y-89441342D01*
X111503725Y-89071013D01*
X111674168Y-88659527D01*
X111761060Y-88222695D01*
X111761060Y-87777305D01*
X112238940Y-87777305D01*
X112238940Y-88222695D01*
X112325832Y-88659527D01*
X112496275Y-89071013D01*
X112743720Y-89441342D01*
X113058658Y-89756280D01*
X113428987Y-90003725D01*
X113840473Y-90174168D01*
X114277305Y-90261060D01*
X114722695Y-90261060D01*
X115159527Y-90174168D01*
X115571013Y-90003725D01*
X115941342Y-89756280D01*
X116256280Y-89441342D01*
X116503725Y-89071013D01*
X116674168Y-88659527D01*
X116761060Y-88222695D01*
X116761060Y-87777305D01*
X117238940Y-87777305D01*
X117238940Y-88222695D01*
X117325832Y-88659527D01*
X117496275Y-89071013D01*
X117743720Y-89441342D01*
X118058658Y-89756280D01*
X118428987Y-90003725D01*
X118840473Y-90174168D01*
X119277305Y-90261060D01*
X119722695Y-90261060D01*
X120159527Y-90174168D01*
X120571013Y-90003725D01*
X120941342Y-89756280D01*
X121256280Y-89441342D01*
X121503725Y-89071013D01*
X121674168Y-88659527D01*
X121761060Y-88222695D01*
X121761060Y-87777305D01*
X122238940Y-87777305D01*
X122238940Y-88222695D01*
X122325832Y-88659527D01*
X122496275Y-89071013D01*
X122743720Y-89441342D01*
X123058658Y-89756280D01*
X123428987Y-90003725D01*
X123840473Y-90174168D01*
X124277305Y-90261060D01*
X124722695Y-90261060D01*
X125159527Y-90174168D01*
X125571013Y-90003725D01*
X125941342Y-89756280D01*
X126256280Y-89441342D01*
X126503725Y-89071013D01*
X126674168Y-88659527D01*
X126761060Y-88222695D01*
X126761060Y-87777305D01*
X126674168Y-87340473D01*
X126503725Y-86928987D01*
X126256280Y-86558658D01*
X125941342Y-86243720D01*
X125571013Y-85996275D01*
X125159527Y-85825832D01*
X124722695Y-85738940D01*
X124277305Y-85738940D01*
X123840473Y-85825832D01*
X123428987Y-85996275D01*
X123058658Y-86243720D01*
X122743720Y-86558658D01*
X122496275Y-86928987D01*
X122325832Y-87340473D01*
X122238940Y-87777305D01*
X121761060Y-87777305D01*
X121674168Y-87340473D01*
X121503725Y-86928987D01*
X121256280Y-86558658D01*
X120941342Y-86243720D01*
X120571013Y-85996275D01*
X120159527Y-85825832D01*
X119722695Y-85738940D01*
X119277305Y-85738940D01*
X118840473Y-85825832D01*
X118428987Y-85996275D01*
X118058658Y-86243720D01*
X117743720Y-86558658D01*
X117496275Y-86928987D01*
X117325832Y-87340473D01*
X117238940Y-87777305D01*
X116761060Y-87777305D01*
X116674168Y-87340473D01*
X116503725Y-86928987D01*
X116256280Y-86558658D01*
X115941342Y-86243720D01*
X115571013Y-85996275D01*
X115159527Y-85825832D01*
X114722695Y-85738940D01*
X114277305Y-85738940D01*
X113840473Y-85825832D01*
X113428987Y-85996275D01*
X113058658Y-86243720D01*
X112743720Y-86558658D01*
X112496275Y-86928987D01*
X112325832Y-87340473D01*
X112238940Y-87777305D01*
X111761060Y-87777305D01*
X111674168Y-87340473D01*
X111503725Y-86928987D01*
X111256280Y-86558658D01*
X110941342Y-86243720D01*
X110571013Y-85996275D01*
X110159527Y-85825832D01*
X109722695Y-85738940D01*
X109277305Y-85738940D01*
X108840473Y-85825832D01*
X108428987Y-85996275D01*
X108058658Y-86243720D01*
X107743720Y-86558658D01*
X107496275Y-86928987D01*
X107325832Y-87340473D01*
X107238940Y-87777305D01*
X106452000Y-87777305D01*
X106452000Y-85452000D01*
X131548001Y-85452000D01*
X131548000Y-110548000D01*
G36*
X131548000Y-136548000D02*
G01*
X130148689Y-136548000D01*
X130210463Y-136514981D01*
X130267869Y-136467869D01*
X130314981Y-136410463D01*
X130349988Y-136344970D01*
X130371545Y-136273905D01*
X130378824Y-136200000D01*
X130377000Y-136017250D01*
X130282750Y-135923000D01*
X129623000Y-135923000D01*
X129623000Y-135943000D01*
X129377000Y-135943000D01*
X129377000Y-135923000D01*
X128717250Y-135923000D01*
X128623000Y-136017250D01*
X128621176Y-136200000D01*
X128628455Y-136273905D01*
X128650012Y-136344970D01*
X128685019Y-136410463D01*
X128732131Y-136467869D01*
X128789537Y-136514981D01*
X128851311Y-136548000D01*
X106452000Y-136548000D01*
X106452000Y-135400000D01*
X128621176Y-135400000D01*
X128623000Y-135582750D01*
X128717250Y-135677000D01*
X129377000Y-135677000D01*
X129377000Y-135117250D01*
X129623000Y-135117250D01*
X129623000Y-135677000D01*
X130282750Y-135677000D01*
X130377000Y-135582750D01*
X130378824Y-135400000D01*
X130371545Y-135326095D01*
X130349988Y-135255030D01*
X130314981Y-135189537D01*
X130267869Y-135132131D01*
X130210463Y-135085019D01*
X130144970Y-135050012D01*
X130073905Y-135028455D01*
X130000000Y-135021176D01*
X129717250Y-135023000D01*
X129623000Y-135117250D01*
X129377000Y-135117250D01*
X129282750Y-135023000D01*
X129000000Y-135021176D01*
X128926095Y-135028455D01*
X128855030Y-135050012D01*
X128789537Y-135085019D01*
X128732131Y-135132131D01*
X128685019Y-135189537D01*
X128650012Y-135255030D01*
X128628455Y-135326095D01*
X128621176Y-135400000D01*
X106452000Y-135400000D01*
X106452000Y-132777305D01*
X107238940Y-132777305D01*
X107238940Y-133222695D01*
X107325832Y-133659527D01*
X107496275Y-134071013D01*
X107743720Y-134441342D01*
X108058658Y-134756280D01*
X108428987Y-135003725D01*
X108840473Y-135174168D01*
X109277305Y-135261060D01*
X109722695Y-135261060D01*
X110159527Y-135174168D01*
X110571013Y-135003725D01*
X110941342Y-134756280D01*
X111256280Y-134441342D01*
X111503725Y-134071013D01*
X111674168Y-133659527D01*
X111761060Y-133222695D01*
X111761060Y-132777305D01*
X112238940Y-132777305D01*
X112238940Y-133222695D01*
X112325832Y-133659527D01*
X112496275Y-134071013D01*
X112743720Y-134441342D01*
X113058658Y-134756280D01*
X113428987Y-135003725D01*
X113840473Y-135174168D01*
X114277305Y-135261060D01*
X114722695Y-135261060D01*
X115159527Y-135174168D01*
X115571013Y-135003725D01*
X115941342Y-134756280D01*
X116256280Y-134441342D01*
X116503725Y-134071013D01*
X116674168Y-133659527D01*
X116761060Y-133222695D01*
X116761060Y-132777305D01*
X117238940Y-132777305D01*
X117238940Y-133222695D01*
X117325832Y-133659527D01*
X117496275Y-134071013D01*
X117743720Y-134441342D01*
X118058658Y-134756280D01*
X118428987Y-135003725D01*
X118840473Y-135174168D01*
X119277305Y-135261060D01*
X119722695Y-135261060D01*
X120159527Y-135174168D01*
X120571013Y-135003725D01*
X120941342Y-134756280D01*
X121256280Y-134441342D01*
X121503725Y-134071013D01*
X121674168Y-133659527D01*
X121761060Y-133222695D01*
X121761060Y-132777305D01*
X122238940Y-132777305D01*
X122238940Y-133222695D01*
X122325832Y-133659527D01*
X122496275Y-134071013D01*
X122743720Y-134441342D01*
X123058658Y-134756280D01*
X123428987Y-135003725D01*
X123840473Y-135174168D01*
X124277305Y-135261060D01*
X124722695Y-135261060D01*
X125159527Y-135174168D01*
X125571013Y-135003725D01*
X125941342Y-134756280D01*
X126256280Y-134441342D01*
X126503725Y-134071013D01*
X126674168Y-133659527D01*
X126761060Y-133222695D01*
X126761060Y-132777305D01*
X126674168Y-132340473D01*
X126503725Y-131928987D01*
X126256280Y-131558658D01*
X125941342Y-131243720D01*
X125571013Y-130996275D01*
X125159527Y-130825832D01*
X124722695Y-130738940D01*
X124277305Y-130738940D01*
X123840473Y-130825832D01*
X123428987Y-130996275D01*
X123058658Y-131243720D01*
X122743720Y-131558658D01*
X122496275Y-131928987D01*
X122325832Y-132340473D01*
X122238940Y-132777305D01*
X121761060Y-132777305D01*
X121674168Y-132340473D01*
X121503725Y-131928987D01*
X121256280Y-131558658D01*
X120941342Y-131243720D01*
X120571013Y-130996275D01*
X120159527Y-130825832D01*
X119722695Y-130738940D01*
X119277305Y-130738940D01*
X118840473Y-130825832D01*
X118428987Y-130996275D01*
X118058658Y-131243720D01*
X117743720Y-131558658D01*
X117496275Y-131928987D01*
X117325832Y-132340473D01*
X117238940Y-132777305D01*
X116761060Y-132777305D01*
X116674168Y-132340473D01*
X116503725Y-131928987D01*
X116256280Y-131558658D01*
X115941342Y-131243720D01*
X115571013Y-130996275D01*
X115159527Y-130825832D01*
X114722695Y-130738940D01*
X114277305Y-130738940D01*
X113840473Y-130825832D01*
X113428987Y-130996275D01*
X113058658Y-131243720D01*
X112743720Y-131558658D01*
X112496275Y-131928987D01*
X112325832Y-132340473D01*
X112238940Y-132777305D01*
X111761060Y-132777305D01*
X111674168Y-132340473D01*
X111503725Y-131928987D01*
X111256280Y-131558658D01*
X110941342Y-131243720D01*
X110571013Y-130996275D01*
X110159527Y-130825832D01*
X109722695Y-130738940D01*
X109277305Y-130738940D01*
X108840473Y-130825832D01*
X108428987Y-130996275D01*
X108058658Y-131243720D01*
X107743720Y-131558658D01*
X107496275Y-131928987D01*
X107325832Y-132340473D01*
X107238940Y-132777305D01*
X106452000Y-132777305D01*
X106452000Y-122876689D01*
X108748000Y-122876689D01*
X108748000Y-123123311D01*
X108796114Y-123365195D01*
X108890492Y-123593044D01*
X109027508Y-123798104D01*
X109201896Y-123972492D01*
X109406956Y-124109508D01*
X109634805Y-124203886D01*
X109876689Y-124252000D01*
X110123311Y-124252000D01*
X110365195Y-124203886D01*
X110593044Y-124109508D01*
X110798104Y-123972492D01*
X110972492Y-123798104D01*
X111109508Y-123593044D01*
X111203886Y-123365195D01*
X111252000Y-123123311D01*
X111252000Y-122876689D01*
X111228332Y-122757702D01*
X112039903Y-122757702D01*
X112039903Y-123242298D01*
X112134443Y-123717584D01*
X112319891Y-124165293D01*
X112589118Y-124568220D01*
X112931780Y-124910882D01*
X113334707Y-125180109D01*
X113782416Y-125365557D01*
X114257702Y-125460097D01*
X114742298Y-125460097D01*
X115217584Y-125365557D01*
X115665293Y-125180109D01*
X116068220Y-124910882D01*
X116410882Y-124568220D01*
X116680109Y-124165293D01*
X116734793Y-124033274D01*
X119619726Y-124033274D01*
X119623000Y-124066519D01*
X119623001Y-127166746D01*
X119619726Y-127200000D01*
X119632796Y-127332714D01*
X119671508Y-127460329D01*
X119734372Y-127577940D01*
X119797776Y-127655198D01*
X119797779Y-127655201D01*
X119818974Y-127681027D01*
X119844800Y-127702222D01*
X122197778Y-130055201D01*
X122218973Y-130081027D01*
X122244799Y-130102222D01*
X122244801Y-130102224D01*
X122322059Y-130165628D01*
X122439670Y-130228492D01*
X122567285Y-130267204D01*
X122700000Y-130280275D01*
X122733252Y-130277000D01*
X125116755Y-130277000D01*
X125150000Y-130280274D01*
X125183245Y-130277000D01*
X125183252Y-130277000D01*
X125282715Y-130267204D01*
X125410330Y-130228492D01*
X125527941Y-130165628D01*
X125631027Y-130081027D01*
X125652226Y-130055196D01*
X128455201Y-127252222D01*
X128481027Y-127231027D01*
X128506491Y-127200000D01*
X128565628Y-127127941D01*
X128628492Y-127010330D01*
X128667204Y-126882715D01*
X128680275Y-126750000D01*
X128677000Y-126716748D01*
X128677000Y-126665261D01*
X128730732Y-126659969D01*
X128952597Y-126592667D01*
X129157070Y-126483374D01*
X129336291Y-126336291D01*
X129483374Y-126157070D01*
X129592667Y-125952597D01*
X129659969Y-125730732D01*
X129682694Y-125500000D01*
X129659969Y-125269268D01*
X129592667Y-125047403D01*
X129483374Y-124842930D01*
X129336291Y-124663709D01*
X129157070Y-124516626D01*
X128952597Y-124407333D01*
X128730732Y-124340031D01*
X128557812Y-124323000D01*
X127442188Y-124323000D01*
X127269268Y-124340031D01*
X127047403Y-124407333D01*
X126842930Y-124516626D01*
X126663709Y-124663709D01*
X126516626Y-124842930D01*
X126407333Y-125047403D01*
X126340031Y-125269268D01*
X126317306Y-125500000D01*
X126340031Y-125730732D01*
X126407333Y-125952597D01*
X126516626Y-126157070D01*
X126663709Y-126336291D01*
X126842930Y-126483374D01*
X127047403Y-126592667D01*
X127164415Y-126628162D01*
X124869578Y-128923000D01*
X122980423Y-128923000D01*
X121757423Y-127700000D01*
X123421176Y-127700000D01*
X123428455Y-127773905D01*
X123450012Y-127844970D01*
X123485019Y-127910463D01*
X123532131Y-127967869D01*
X123589537Y-128014981D01*
X123655030Y-128049988D01*
X123726095Y-128071545D01*
X123800000Y-128078824D01*
X124082750Y-128077000D01*
X124177000Y-127982750D01*
X124177000Y-127423000D01*
X124423000Y-127423000D01*
X124423000Y-127982750D01*
X124517250Y-128077000D01*
X124800000Y-128078824D01*
X124873905Y-128071545D01*
X124944970Y-128049988D01*
X125010463Y-128014981D01*
X125067869Y-127967869D01*
X125114981Y-127910463D01*
X125149988Y-127844970D01*
X125171545Y-127773905D01*
X125178824Y-127700000D01*
X125177000Y-127517250D01*
X125082750Y-127423000D01*
X124423000Y-127423000D01*
X124177000Y-127423000D01*
X123517250Y-127423000D01*
X123423000Y-127517250D01*
X123421176Y-127700000D01*
X121757423Y-127700000D01*
X120977000Y-126919578D01*
X120977000Y-124313696D01*
X121513523Y-123777173D01*
X121527508Y-123798104D01*
X121701896Y-123972492D01*
X121906956Y-124109508D01*
X122134805Y-124203886D01*
X122346193Y-124245934D01*
X121675000Y-124245934D01*
X121591293Y-124254178D01*
X121510804Y-124278595D01*
X121436624Y-124318245D01*
X121371605Y-124371605D01*
X121318245Y-124436624D01*
X121278595Y-124510804D01*
X121254178Y-124591293D01*
X121245934Y-124675000D01*
X121245934Y-126325000D01*
X121254178Y-126408707D01*
X121278595Y-126489196D01*
X121318245Y-126563376D01*
X121371605Y-126628395D01*
X121436624Y-126681755D01*
X121510804Y-126721405D01*
X121591293Y-126745822D01*
X121675000Y-126754066D01*
X123325000Y-126754066D01*
X123408707Y-126745822D01*
X123463880Y-126729085D01*
X123450012Y-126755030D01*
X123428455Y-126826095D01*
X123421176Y-126900000D01*
X123423000Y-127082750D01*
X123517250Y-127177000D01*
X124177000Y-127177000D01*
X124177000Y-126617250D01*
X124423000Y-126617250D01*
X124423000Y-127177000D01*
X125082750Y-127177000D01*
X125177000Y-127082750D01*
X125178824Y-126900000D01*
X125171545Y-126826095D01*
X125149988Y-126755030D01*
X125114981Y-126689537D01*
X125067869Y-126632131D01*
X125010463Y-126585019D01*
X124944970Y-126550012D01*
X124873905Y-126528455D01*
X124800000Y-126521176D01*
X124517250Y-126523000D01*
X124423000Y-126617250D01*
X124177000Y-126617250D01*
X124082750Y-126523000D01*
X123800000Y-126521176D01*
X123726095Y-126528455D01*
X123695452Y-126537750D01*
X123721405Y-126489196D01*
X123745822Y-126408707D01*
X123754066Y-126325000D01*
X123754066Y-126324542D01*
X123800000Y-126329066D01*
X124800000Y-126329066D01*
X124883707Y-126320822D01*
X124964196Y-126296405D01*
X125038376Y-126256755D01*
X125103395Y-126203395D01*
X125156755Y-126138376D01*
X125196405Y-126064196D01*
X125220822Y-125983707D01*
X125229066Y-125900000D01*
X125229066Y-125100000D01*
X125220822Y-125016293D01*
X125213911Y-124993511D01*
X126530422Y-123677000D01*
X126532982Y-123677000D01*
X126663709Y-123836291D01*
X126842930Y-123983374D01*
X127047403Y-124092667D01*
X127269268Y-124159969D01*
X127442188Y-124177000D01*
X128557812Y-124177000D01*
X128730732Y-124159969D01*
X128952597Y-124092667D01*
X129157070Y-123983374D01*
X129336291Y-123836291D01*
X129467018Y-123677000D01*
X129469578Y-123677000D01*
X129923000Y-124130423D01*
X129923001Y-128419576D01*
X129829945Y-128512633D01*
X129630698Y-128473000D01*
X129369302Y-128473000D01*
X129112928Y-128523996D01*
X128871430Y-128624028D01*
X128654087Y-128769252D01*
X128469252Y-128954087D01*
X128324028Y-129171430D01*
X128223996Y-129412928D01*
X128173000Y-129669302D01*
X128173000Y-129930698D01*
X128223996Y-130187072D01*
X128324028Y-130428570D01*
X128469252Y-130645913D01*
X128654087Y-130830748D01*
X128871430Y-130975972D01*
X128955836Y-131010934D01*
X128600000Y-131010934D01*
X128516293Y-131019178D01*
X128435804Y-131043595D01*
X128361624Y-131083245D01*
X128296605Y-131136605D01*
X128243245Y-131201624D01*
X128203595Y-131275804D01*
X128179178Y-131356293D01*
X128170934Y-131440000D01*
X128170934Y-133240000D01*
X128179178Y-133323707D01*
X128203595Y-133404196D01*
X128243245Y-133478376D01*
X128296605Y-133543395D01*
X128361624Y-133596755D01*
X128435804Y-133636405D01*
X128516293Y-133660822D01*
X128570934Y-133666203D01*
X128570934Y-134400000D01*
X128579178Y-134483707D01*
X128603595Y-134564196D01*
X128643245Y-134638376D01*
X128696605Y-134703395D01*
X128761624Y-134756755D01*
X128835804Y-134796405D01*
X128916293Y-134820822D01*
X129000000Y-134829066D01*
X130000000Y-134829066D01*
X130083707Y-134820822D01*
X130164196Y-134796405D01*
X130238376Y-134756755D01*
X130303395Y-134703395D01*
X130356755Y-134638376D01*
X130396405Y-134564196D01*
X130420822Y-134483707D01*
X130429066Y-134400000D01*
X130429066Y-133666203D01*
X130483707Y-133660822D01*
X130564196Y-133636405D01*
X130638376Y-133596755D01*
X130703395Y-133543395D01*
X130756755Y-133478376D01*
X130796405Y-133404196D01*
X130820822Y-133323707D01*
X130829066Y-133240000D01*
X130829066Y-131440000D01*
X130820822Y-131356293D01*
X130796405Y-131275804D01*
X130756755Y-131201624D01*
X130703395Y-131136605D01*
X130638376Y-131083245D01*
X130564196Y-131043595D01*
X130483707Y-131019178D01*
X130400000Y-131010934D01*
X130044164Y-131010934D01*
X130128570Y-130975972D01*
X130345913Y-130830748D01*
X130530748Y-130645913D01*
X130675972Y-130428570D01*
X130776004Y-130187072D01*
X130827000Y-129930698D01*
X130827000Y-129669302D01*
X130787367Y-129470055D01*
X131055201Y-129202222D01*
X131081027Y-129181027D01*
X131110757Y-129144802D01*
X131165628Y-129077941D01*
X131228492Y-128960330D01*
X131267204Y-128832715D01*
X131273454Y-128769252D01*
X131277000Y-128733252D01*
X131277000Y-128733245D01*
X131280274Y-128700000D01*
X131277000Y-128666755D01*
X131277000Y-123883252D01*
X131280275Y-123850000D01*
X131267204Y-123717285D01*
X131228492Y-123589670D01*
X131165628Y-123472059D01*
X131102224Y-123394801D01*
X131102218Y-123394795D01*
X131081026Y-123368973D01*
X131055205Y-123347782D01*
X130252226Y-122544804D01*
X130231027Y-122518973D01*
X130127941Y-122434372D01*
X130010330Y-122371508D01*
X129882715Y-122332796D01*
X129783252Y-122323000D01*
X129783245Y-122323000D01*
X129750000Y-122319726D01*
X129716755Y-122323000D01*
X129467018Y-122323000D01*
X129336291Y-122163709D01*
X129157070Y-122016626D01*
X128952597Y-121907333D01*
X128730732Y-121840031D01*
X128557812Y-121823000D01*
X127442188Y-121823000D01*
X127269268Y-121840031D01*
X127047403Y-121907333D01*
X126842930Y-122016626D01*
X126663709Y-122163709D01*
X126532982Y-122323000D01*
X126283241Y-122323000D01*
X126249999Y-122319726D01*
X126216757Y-122323000D01*
X126216748Y-122323000D01*
X126117285Y-122332796D01*
X125989670Y-122371508D01*
X125872059Y-122434372D01*
X125768973Y-122518973D01*
X125747774Y-122544804D01*
X123844800Y-124447778D01*
X123818973Y-124468974D01*
X123797778Y-124494800D01*
X123797776Y-124494802D01*
X123781774Y-124514301D01*
X123738472Y-124567064D01*
X123721405Y-124510804D01*
X123681755Y-124436624D01*
X123628395Y-124371605D01*
X123563376Y-124318245D01*
X123489196Y-124278595D01*
X123408707Y-124254178D01*
X123325000Y-124245934D01*
X122653807Y-124245934D01*
X122865195Y-124203886D01*
X123093044Y-124109508D01*
X123298104Y-123972492D01*
X123472492Y-123798104D01*
X123609508Y-123593044D01*
X123703886Y-123365195D01*
X123752000Y-123123311D01*
X123752000Y-122876689D01*
X123703886Y-122634805D01*
X123609508Y-122406956D01*
X123472492Y-122201896D01*
X123298104Y-122027508D01*
X123093044Y-121890492D01*
X122865195Y-121796114D01*
X122623311Y-121748000D01*
X122376689Y-121748000D01*
X122134805Y-121796114D01*
X121906956Y-121890492D01*
X121701896Y-122027508D01*
X121527508Y-122201896D01*
X121446589Y-122323000D01*
X121366515Y-122323000D01*
X121333273Y-122319726D01*
X121300031Y-122323000D01*
X121300022Y-122323000D01*
X121200559Y-122332796D01*
X121072944Y-122371508D01*
X120955333Y-122434372D01*
X120852247Y-122518973D01*
X120831048Y-122544804D01*
X119844800Y-123531052D01*
X119818973Y-123552248D01*
X119797778Y-123578074D01*
X119797776Y-123578076D01*
X119785492Y-123593044D01*
X119734372Y-123655334D01*
X119671508Y-123772945D01*
X119632796Y-123900560D01*
X119623000Y-124000023D01*
X119623000Y-124000029D01*
X119619726Y-124033274D01*
X116734793Y-124033274D01*
X116865557Y-123717584D01*
X116960097Y-123242298D01*
X116960097Y-122757702D01*
X116865557Y-122282416D01*
X116680109Y-121834707D01*
X116410882Y-121431780D01*
X116348668Y-121369566D01*
X121804382Y-121369566D01*
X121893263Y-121544361D01*
X122108666Y-121642663D01*
X122339108Y-121697053D01*
X122575733Y-121705440D01*
X122809448Y-121667503D01*
X123031270Y-121584700D01*
X123106737Y-121544361D01*
X123195618Y-121369566D01*
X122500000Y-120673948D01*
X121804382Y-121369566D01*
X116348668Y-121369566D01*
X116068220Y-121089118D01*
X115665293Y-120819891D01*
X115217584Y-120634443D01*
X114922429Y-120575733D01*
X121294560Y-120575733D01*
X121332497Y-120809448D01*
X121415300Y-121031270D01*
X121455639Y-121106737D01*
X121630434Y-121195618D01*
X122326052Y-120500000D01*
X122673948Y-120500000D01*
X123369566Y-121195618D01*
X123544361Y-121106737D01*
X123642663Y-120891334D01*
X123664990Y-120796734D01*
X126412766Y-120796734D01*
X126494599Y-121023857D01*
X126616117Y-121209935D01*
X126771602Y-121368731D01*
X126955079Y-121494142D01*
X127159497Y-121581349D01*
X127377000Y-121627000D01*
X127877000Y-121627000D01*
X127877000Y-120623000D01*
X128123000Y-120623000D01*
X128123000Y-121627000D01*
X128623000Y-121627000D01*
X128840503Y-121581349D01*
X129044921Y-121494142D01*
X129228398Y-121368731D01*
X129383883Y-121209935D01*
X129505401Y-121023857D01*
X129587234Y-120796734D01*
X129525399Y-120623000D01*
X128123000Y-120623000D01*
X127877000Y-120623000D01*
X126474601Y-120623000D01*
X126412766Y-120796734D01*
X123664990Y-120796734D01*
X123697053Y-120660892D01*
X123705440Y-120424267D01*
X123669567Y-120203266D01*
X126412766Y-120203266D01*
X126474601Y-120377000D01*
X127877000Y-120377000D01*
X127877000Y-119373000D01*
X128123000Y-119373000D01*
X128123000Y-120377000D01*
X129525399Y-120377000D01*
X129587234Y-120203266D01*
X129505401Y-119976143D01*
X129383883Y-119790065D01*
X129228398Y-119631269D01*
X129044921Y-119505858D01*
X128840503Y-119418651D01*
X128623000Y-119373000D01*
X128123000Y-119373000D01*
X127877000Y-119373000D01*
X127377000Y-119373000D01*
X127159497Y-119418651D01*
X126955079Y-119505858D01*
X126771602Y-119631269D01*
X126616117Y-119790065D01*
X126494599Y-119976143D01*
X126412766Y-120203266D01*
X123669567Y-120203266D01*
X123667503Y-120190552D01*
X123584700Y-119968730D01*
X123544361Y-119893263D01*
X123369566Y-119804382D01*
X122673948Y-120500000D01*
X122326052Y-120500000D01*
X121630434Y-119804382D01*
X121455639Y-119893263D01*
X121357337Y-120108666D01*
X121302947Y-120339108D01*
X121294560Y-120575733D01*
X114922429Y-120575733D01*
X114742298Y-120539903D01*
X114257702Y-120539903D01*
X113782416Y-120634443D01*
X113334707Y-120819891D01*
X112931780Y-121089118D01*
X112589118Y-121431780D01*
X112319891Y-121834707D01*
X112134443Y-122282416D01*
X112039903Y-122757702D01*
X111228332Y-122757702D01*
X111203886Y-122634805D01*
X111109508Y-122406956D01*
X110972492Y-122201896D01*
X110798104Y-122027508D01*
X110593044Y-121890492D01*
X110365195Y-121796114D01*
X110123311Y-121748000D01*
X109876689Y-121748000D01*
X109634805Y-121796114D01*
X109406956Y-121890492D01*
X109201896Y-122027508D01*
X109027508Y-122201896D01*
X108890492Y-122406956D01*
X108796114Y-122634805D01*
X108748000Y-122876689D01*
X106452000Y-122876689D01*
X106452000Y-119630434D01*
X121804382Y-119630434D01*
X122500000Y-120326052D01*
X123195618Y-119630434D01*
X123106737Y-119455639D01*
X122891334Y-119357337D01*
X122660892Y-119302947D01*
X122424267Y-119294560D01*
X122190552Y-119332497D01*
X121968730Y-119415300D01*
X121893263Y-119455639D01*
X121804382Y-119630434D01*
X106452000Y-119630434D01*
X106452000Y-113777305D01*
X107238940Y-113777305D01*
X107238940Y-114222695D01*
X107325832Y-114659527D01*
X107496275Y-115071013D01*
X107743720Y-115441342D01*
X108058658Y-115756280D01*
X108428987Y-116003725D01*
X108840473Y-116174168D01*
X109277305Y-116261060D01*
X109722695Y-116261060D01*
X110159527Y-116174168D01*
X110571013Y-116003725D01*
X110941342Y-115756280D01*
X111256280Y-115441342D01*
X111503725Y-115071013D01*
X111674168Y-114659527D01*
X111761060Y-114222695D01*
X111761060Y-113777305D01*
X112238940Y-113777305D01*
X112238940Y-114222695D01*
X112325832Y-114659527D01*
X112496275Y-115071013D01*
X112743720Y-115441342D01*
X113058658Y-115756280D01*
X113428987Y-116003725D01*
X113840473Y-116174168D01*
X114277305Y-116261060D01*
X114722695Y-116261060D01*
X115159527Y-116174168D01*
X115571013Y-116003725D01*
X115941342Y-115756280D01*
X116256280Y-115441342D01*
X116503725Y-115071013D01*
X116674168Y-114659527D01*
X116761060Y-114222695D01*
X116761060Y-113777305D01*
X117238940Y-113777305D01*
X117238940Y-114222695D01*
X117325832Y-114659527D01*
X117496275Y-115071013D01*
X117743720Y-115441342D01*
X118058658Y-115756280D01*
X118428987Y-116003725D01*
X118840473Y-116174168D01*
X119277305Y-116261060D01*
X119722695Y-116261060D01*
X120159527Y-116174168D01*
X120571013Y-116003725D01*
X120941342Y-115756280D01*
X121256280Y-115441342D01*
X121503725Y-115071013D01*
X121674168Y-114659527D01*
X121761060Y-114222695D01*
X121761060Y-113777305D01*
X122238940Y-113777305D01*
X122238940Y-114222695D01*
X122325832Y-114659527D01*
X122496275Y-115071013D01*
X122743720Y-115441342D01*
X123058658Y-115756280D01*
X123428987Y-116003725D01*
X123840473Y-116174168D01*
X124277305Y-116261060D01*
X124722695Y-116261060D01*
X125159527Y-116174168D01*
X125571013Y-116003725D01*
X125941342Y-115756280D01*
X126256280Y-115441342D01*
X126503725Y-115071013D01*
X126674168Y-114659527D01*
X126761060Y-114222695D01*
X126761060Y-113777305D01*
X126674168Y-113340473D01*
X126503725Y-112928987D01*
X126256280Y-112558658D01*
X125941342Y-112243720D01*
X125571013Y-111996275D01*
X125159527Y-111825832D01*
X124722695Y-111738940D01*
X124277305Y-111738940D01*
X123840473Y-111825832D01*
X123428987Y-111996275D01*
X123058658Y-112243720D01*
X122743720Y-112558658D01*
X122496275Y-112928987D01*
X122325832Y-113340473D01*
X122238940Y-113777305D01*
X121761060Y-113777305D01*
X121674168Y-113340473D01*
X121503725Y-112928987D01*
X121256280Y-112558658D01*
X120941342Y-112243720D01*
X120571013Y-111996275D01*
X120159527Y-111825832D01*
X119722695Y-111738940D01*
X119277305Y-111738940D01*
X118840473Y-111825832D01*
X118428987Y-111996275D01*
X118058658Y-112243720D01*
X117743720Y-112558658D01*
X117496275Y-112928987D01*
X117325832Y-113340473D01*
X117238940Y-113777305D01*
X116761060Y-113777305D01*
X116674168Y-113340473D01*
X116503725Y-112928987D01*
X116256280Y-112558658D01*
X115941342Y-112243720D01*
X115571013Y-111996275D01*
X115159527Y-111825832D01*
X114722695Y-111738940D01*
X114277305Y-111738940D01*
X113840473Y-111825832D01*
X113428987Y-111996275D01*
X113058658Y-112243720D01*
X112743720Y-112558658D01*
X112496275Y-112928987D01*
X112325832Y-113340473D01*
X112238940Y-113777305D01*
X111761060Y-113777305D01*
X111674168Y-113340473D01*
X111503725Y-112928987D01*
X111256280Y-112558658D01*
X110941342Y-112243720D01*
X110571013Y-111996275D01*
X110159527Y-111825832D01*
X109722695Y-111738940D01*
X109277305Y-111738940D01*
X108840473Y-111825832D01*
X108428987Y-111996275D01*
X108058658Y-112243720D01*
X107743720Y-112558658D01*
X107496275Y-112928987D01*
X107325832Y-113340473D01*
X107238940Y-113777305D01*
X106452000Y-113777305D01*
X106452000Y-111452000D01*
X131548001Y-111452000D01*
X131548000Y-136548000D01*
G37*
X131548000Y-136548000D02*
X130148689Y-136548000D01*
X130210463Y-136514981D01*
X130267869Y-136467869D01*
X130314981Y-136410463D01*
X130349988Y-136344970D01*
X130371545Y-136273905D01*
X130378824Y-136200000D01*
X130377000Y-136017250D01*
X130282750Y-135923000D01*
X129623000Y-135923000D01*
X129623000Y-135943000D01*
X129377000Y-135943000D01*
X129377000Y-135923000D01*
X128717250Y-135923000D01*
X128623000Y-136017250D01*
X128621176Y-136200000D01*
X128628455Y-136273905D01*
X128650012Y-136344970D01*
X128685019Y-136410463D01*
X128732131Y-136467869D01*
X128789537Y-136514981D01*
X128851311Y-136548000D01*
X106452000Y-136548000D01*
X106452000Y-135400000D01*
X128621176Y-135400000D01*
X128623000Y-135582750D01*
X128717250Y-135677000D01*
X129377000Y-135677000D01*
X129377000Y-135117250D01*
X129623000Y-135117250D01*
X129623000Y-135677000D01*
X130282750Y-135677000D01*
X130377000Y-135582750D01*
X130378824Y-135400000D01*
X130371545Y-135326095D01*
X130349988Y-135255030D01*
X130314981Y-135189537D01*
X130267869Y-135132131D01*
X130210463Y-135085019D01*
X130144970Y-135050012D01*
X130073905Y-135028455D01*
X130000000Y-135021176D01*
X129717250Y-135023000D01*
X129623000Y-135117250D01*
X129377000Y-135117250D01*
X129282750Y-135023000D01*
X129000000Y-135021176D01*
X128926095Y-135028455D01*
X128855030Y-135050012D01*
X128789537Y-135085019D01*
X128732131Y-135132131D01*
X128685019Y-135189537D01*
X128650012Y-135255030D01*
X128628455Y-135326095D01*
X128621176Y-135400000D01*
X106452000Y-135400000D01*
X106452000Y-132777305D01*
X107238940Y-132777305D01*
X107238940Y-133222695D01*
X107325832Y-133659527D01*
X107496275Y-134071013D01*
X107743720Y-134441342D01*
X108058658Y-134756280D01*
X108428987Y-135003725D01*
X108840473Y-135174168D01*
X109277305Y-135261060D01*
X109722695Y-135261060D01*
X110159527Y-135174168D01*
X110571013Y-135003725D01*
X110941342Y-134756280D01*
X111256280Y-134441342D01*
X111503725Y-134071013D01*
X111674168Y-133659527D01*
X111761060Y-133222695D01*
X111761060Y-132777305D01*
X112238940Y-132777305D01*
X112238940Y-133222695D01*
X112325832Y-133659527D01*
X112496275Y-134071013D01*
X112743720Y-134441342D01*
X113058658Y-134756280D01*
X113428987Y-135003725D01*
X113840473Y-135174168D01*
X114277305Y-135261060D01*
X114722695Y-135261060D01*
X115159527Y-135174168D01*
X115571013Y-135003725D01*
X115941342Y-134756280D01*
X116256280Y-134441342D01*
X116503725Y-134071013D01*
X116674168Y-133659527D01*
X116761060Y-133222695D01*
X116761060Y-132777305D01*
X117238940Y-132777305D01*
X117238940Y-133222695D01*
X117325832Y-133659527D01*
X117496275Y-134071013D01*
X117743720Y-134441342D01*
X118058658Y-134756280D01*
X118428987Y-135003725D01*
X118840473Y-135174168D01*
X119277305Y-135261060D01*
X119722695Y-135261060D01*
X120159527Y-135174168D01*
X120571013Y-135003725D01*
X120941342Y-134756280D01*
X121256280Y-134441342D01*
X121503725Y-134071013D01*
X121674168Y-133659527D01*
X121761060Y-133222695D01*
X121761060Y-132777305D01*
X122238940Y-132777305D01*
X122238940Y-133222695D01*
X122325832Y-133659527D01*
X122496275Y-134071013D01*
X122743720Y-134441342D01*
X123058658Y-134756280D01*
X123428987Y-135003725D01*
X123840473Y-135174168D01*
X124277305Y-135261060D01*
X124722695Y-135261060D01*
X125159527Y-135174168D01*
X125571013Y-135003725D01*
X125941342Y-134756280D01*
X126256280Y-134441342D01*
X126503725Y-134071013D01*
X126674168Y-133659527D01*
X126761060Y-133222695D01*
X126761060Y-132777305D01*
X126674168Y-132340473D01*
X126503725Y-131928987D01*
X126256280Y-131558658D01*
X125941342Y-131243720D01*
X125571013Y-130996275D01*
X125159527Y-130825832D01*
X124722695Y-130738940D01*
X124277305Y-130738940D01*
X123840473Y-130825832D01*
X123428987Y-130996275D01*
X123058658Y-131243720D01*
X122743720Y-131558658D01*
X122496275Y-131928987D01*
X122325832Y-132340473D01*
X122238940Y-132777305D01*
X121761060Y-132777305D01*
X121674168Y-132340473D01*
X121503725Y-131928987D01*
X121256280Y-131558658D01*
X120941342Y-131243720D01*
X120571013Y-130996275D01*
X120159527Y-130825832D01*
X119722695Y-130738940D01*
X119277305Y-130738940D01*
X118840473Y-130825832D01*
X118428987Y-130996275D01*
X118058658Y-131243720D01*
X117743720Y-131558658D01*
X117496275Y-131928987D01*
X117325832Y-132340473D01*
X117238940Y-132777305D01*
X116761060Y-132777305D01*
X116674168Y-132340473D01*
X116503725Y-131928987D01*
X116256280Y-131558658D01*
X115941342Y-131243720D01*
X115571013Y-130996275D01*
X115159527Y-130825832D01*
X114722695Y-130738940D01*
X114277305Y-130738940D01*
X113840473Y-130825832D01*
X113428987Y-130996275D01*
X113058658Y-131243720D01*
X112743720Y-131558658D01*
X112496275Y-131928987D01*
X112325832Y-132340473D01*
X112238940Y-132777305D01*
X111761060Y-132777305D01*
X111674168Y-132340473D01*
X111503725Y-131928987D01*
X111256280Y-131558658D01*
X110941342Y-131243720D01*
X110571013Y-130996275D01*
X110159527Y-130825832D01*
X109722695Y-130738940D01*
X109277305Y-130738940D01*
X108840473Y-130825832D01*
X108428987Y-130996275D01*
X108058658Y-131243720D01*
X107743720Y-131558658D01*
X107496275Y-131928987D01*
X107325832Y-132340473D01*
X107238940Y-132777305D01*
X106452000Y-132777305D01*
X106452000Y-122876689D01*
X108748000Y-122876689D01*
X108748000Y-123123311D01*
X108796114Y-123365195D01*
X108890492Y-123593044D01*
X109027508Y-123798104D01*
X109201896Y-123972492D01*
X109406956Y-124109508D01*
X109634805Y-124203886D01*
X109876689Y-124252000D01*
X110123311Y-124252000D01*
X110365195Y-124203886D01*
X110593044Y-124109508D01*
X110798104Y-123972492D01*
X110972492Y-123798104D01*
X111109508Y-123593044D01*
X111203886Y-123365195D01*
X111252000Y-123123311D01*
X111252000Y-122876689D01*
X111228332Y-122757702D01*
X112039903Y-122757702D01*
X112039903Y-123242298D01*
X112134443Y-123717584D01*
X112319891Y-124165293D01*
X112589118Y-124568220D01*
X112931780Y-124910882D01*
X113334707Y-125180109D01*
X113782416Y-125365557D01*
X114257702Y-125460097D01*
X114742298Y-125460097D01*
X115217584Y-125365557D01*
X115665293Y-125180109D01*
X116068220Y-124910882D01*
X116410882Y-124568220D01*
X116680109Y-124165293D01*
X116734793Y-124033274D01*
X119619726Y-124033274D01*
X119623000Y-124066519D01*
X119623001Y-127166746D01*
X119619726Y-127200000D01*
X119632796Y-127332714D01*
X119671508Y-127460329D01*
X119734372Y-127577940D01*
X119797776Y-127655198D01*
X119797779Y-127655201D01*
X119818974Y-127681027D01*
X119844800Y-127702222D01*
X122197778Y-130055201D01*
X122218973Y-130081027D01*
X122244799Y-130102222D01*
X122244801Y-130102224D01*
X122322059Y-130165628D01*
X122439670Y-130228492D01*
X122567285Y-130267204D01*
X122700000Y-130280275D01*
X122733252Y-130277000D01*
X125116755Y-130277000D01*
X125150000Y-130280274D01*
X125183245Y-130277000D01*
X125183252Y-130277000D01*
X125282715Y-130267204D01*
X125410330Y-130228492D01*
X125527941Y-130165628D01*
X125631027Y-130081027D01*
X125652226Y-130055196D01*
X128455201Y-127252222D01*
X128481027Y-127231027D01*
X128506491Y-127200000D01*
X128565628Y-127127941D01*
X128628492Y-127010330D01*
X128667204Y-126882715D01*
X128680275Y-126750000D01*
X128677000Y-126716748D01*
X128677000Y-126665261D01*
X128730732Y-126659969D01*
X128952597Y-126592667D01*
X129157070Y-126483374D01*
X129336291Y-126336291D01*
X129483374Y-126157070D01*
X129592667Y-125952597D01*
X129659969Y-125730732D01*
X129682694Y-125500000D01*
X129659969Y-125269268D01*
X129592667Y-125047403D01*
X129483374Y-124842930D01*
X129336291Y-124663709D01*
X129157070Y-124516626D01*
X128952597Y-124407333D01*
X128730732Y-124340031D01*
X128557812Y-124323000D01*
X127442188Y-124323000D01*
X127269268Y-124340031D01*
X127047403Y-124407333D01*
X126842930Y-124516626D01*
X126663709Y-124663709D01*
X126516626Y-124842930D01*
X126407333Y-125047403D01*
X126340031Y-125269268D01*
X126317306Y-125500000D01*
X126340031Y-125730732D01*
X126407333Y-125952597D01*
X126516626Y-126157070D01*
X126663709Y-126336291D01*
X126842930Y-126483374D01*
X127047403Y-126592667D01*
X127164415Y-126628162D01*
X124869578Y-128923000D01*
X122980423Y-128923000D01*
X121757423Y-127700000D01*
X123421176Y-127700000D01*
X123428455Y-127773905D01*
X123450012Y-127844970D01*
X123485019Y-127910463D01*
X123532131Y-127967869D01*
X123589537Y-128014981D01*
X123655030Y-128049988D01*
X123726095Y-128071545D01*
X123800000Y-128078824D01*
X124082750Y-128077000D01*
X124177000Y-127982750D01*
X124177000Y-127423000D01*
X124423000Y-127423000D01*
X124423000Y-127982750D01*
X124517250Y-128077000D01*
X124800000Y-128078824D01*
X124873905Y-128071545D01*
X124944970Y-128049988D01*
X125010463Y-128014981D01*
X125067869Y-127967869D01*
X125114981Y-127910463D01*
X125149988Y-127844970D01*
X125171545Y-127773905D01*
X125178824Y-127700000D01*
X125177000Y-127517250D01*
X125082750Y-127423000D01*
X124423000Y-127423000D01*
X124177000Y-127423000D01*
X123517250Y-127423000D01*
X123423000Y-127517250D01*
X123421176Y-127700000D01*
X121757423Y-127700000D01*
X120977000Y-126919578D01*
X120977000Y-124313696D01*
X121513523Y-123777173D01*
X121527508Y-123798104D01*
X121701896Y-123972492D01*
X121906956Y-124109508D01*
X122134805Y-124203886D01*
X122346193Y-124245934D01*
X121675000Y-124245934D01*
X121591293Y-124254178D01*
X121510804Y-124278595D01*
X121436624Y-124318245D01*
X121371605Y-124371605D01*
X121318245Y-124436624D01*
X121278595Y-124510804D01*
X121254178Y-124591293D01*
X121245934Y-124675000D01*
X121245934Y-126325000D01*
X121254178Y-126408707D01*
X121278595Y-126489196D01*
X121318245Y-126563376D01*
X121371605Y-126628395D01*
X121436624Y-126681755D01*
X121510804Y-126721405D01*
X121591293Y-126745822D01*
X121675000Y-126754066D01*
X123325000Y-126754066D01*
X123408707Y-126745822D01*
X123463880Y-126729085D01*
X123450012Y-126755030D01*
X123428455Y-126826095D01*
X123421176Y-126900000D01*
X123423000Y-127082750D01*
X123517250Y-127177000D01*
X124177000Y-127177000D01*
X124177000Y-126617250D01*
X124423000Y-126617250D01*
X124423000Y-127177000D01*
X125082750Y-127177000D01*
X125177000Y-127082750D01*
X125178824Y-126900000D01*
X125171545Y-126826095D01*
X125149988Y-126755030D01*
X125114981Y-126689537D01*
X125067869Y-126632131D01*
X125010463Y-126585019D01*
X124944970Y-126550012D01*
X124873905Y-126528455D01*
X124800000Y-126521176D01*
X124517250Y-126523000D01*
X124423000Y-126617250D01*
X124177000Y-126617250D01*
X124082750Y-126523000D01*
X123800000Y-126521176D01*
X123726095Y-126528455D01*
X123695452Y-126537750D01*
X123721405Y-126489196D01*
X123745822Y-126408707D01*
X123754066Y-126325000D01*
X123754066Y-126324542D01*
X123800000Y-126329066D01*
X124800000Y-126329066D01*
X124883707Y-126320822D01*
X124964196Y-126296405D01*
X125038376Y-126256755D01*
X125103395Y-126203395D01*
X125156755Y-126138376D01*
X125196405Y-126064196D01*
X125220822Y-125983707D01*
X125229066Y-125900000D01*
X125229066Y-125100000D01*
X125220822Y-125016293D01*
X125213911Y-124993511D01*
X126530422Y-123677000D01*
X126532982Y-123677000D01*
X126663709Y-123836291D01*
X126842930Y-123983374D01*
X127047403Y-124092667D01*
X127269268Y-124159969D01*
X127442188Y-124177000D01*
X128557812Y-124177000D01*
X128730732Y-124159969D01*
X128952597Y-124092667D01*
X129157070Y-123983374D01*
X129336291Y-123836291D01*
X129467018Y-123677000D01*
X129469578Y-123677000D01*
X129923000Y-124130423D01*
X129923001Y-128419576D01*
X129829945Y-128512633D01*
X129630698Y-128473000D01*
X129369302Y-128473000D01*
X129112928Y-128523996D01*
X128871430Y-128624028D01*
X128654087Y-128769252D01*
X128469252Y-128954087D01*
X128324028Y-129171430D01*
X128223996Y-129412928D01*
X128173000Y-129669302D01*
X128173000Y-129930698D01*
X128223996Y-130187072D01*
X128324028Y-130428570D01*
X128469252Y-130645913D01*
X128654087Y-130830748D01*
X128871430Y-130975972D01*
X128955836Y-131010934D01*
X128600000Y-131010934D01*
X128516293Y-131019178D01*
X128435804Y-131043595D01*
X128361624Y-131083245D01*
X128296605Y-131136605D01*
X128243245Y-131201624D01*
X128203595Y-131275804D01*
X128179178Y-131356293D01*
X128170934Y-131440000D01*
X128170934Y-133240000D01*
X128179178Y-133323707D01*
X128203595Y-133404196D01*
X128243245Y-133478376D01*
X128296605Y-133543395D01*
X128361624Y-133596755D01*
X128435804Y-133636405D01*
X128516293Y-133660822D01*
X128570934Y-133666203D01*
X128570934Y-134400000D01*
X128579178Y-134483707D01*
X128603595Y-134564196D01*
X128643245Y-134638376D01*
X128696605Y-134703395D01*
X128761624Y-134756755D01*
X128835804Y-134796405D01*
X128916293Y-134820822D01*
X129000000Y-134829066D01*
X130000000Y-134829066D01*
X130083707Y-134820822D01*
X130164196Y-134796405D01*
X130238376Y-134756755D01*
X130303395Y-134703395D01*
X130356755Y-134638376D01*
X130396405Y-134564196D01*
X130420822Y-134483707D01*
X130429066Y-134400000D01*
X130429066Y-133666203D01*
X130483707Y-133660822D01*
X130564196Y-133636405D01*
X130638376Y-133596755D01*
X130703395Y-133543395D01*
X130756755Y-133478376D01*
X130796405Y-133404196D01*
X130820822Y-133323707D01*
X130829066Y-133240000D01*
X130829066Y-131440000D01*
X130820822Y-131356293D01*
X130796405Y-131275804D01*
X130756755Y-131201624D01*
X130703395Y-131136605D01*
X130638376Y-131083245D01*
X130564196Y-131043595D01*
X130483707Y-131019178D01*
X130400000Y-131010934D01*
X130044164Y-131010934D01*
X130128570Y-130975972D01*
X130345913Y-130830748D01*
X130530748Y-130645913D01*
X130675972Y-130428570D01*
X130776004Y-130187072D01*
X130827000Y-129930698D01*
X130827000Y-129669302D01*
X130787367Y-129470055D01*
X131055201Y-129202222D01*
X131081027Y-129181027D01*
X131110757Y-129144802D01*
X131165628Y-129077941D01*
X131228492Y-128960330D01*
X131267204Y-128832715D01*
X131273454Y-128769252D01*
X131277000Y-128733252D01*
X131277000Y-128733245D01*
X131280274Y-128700000D01*
X131277000Y-128666755D01*
X131277000Y-123883252D01*
X131280275Y-123850000D01*
X131267204Y-123717285D01*
X131228492Y-123589670D01*
X131165628Y-123472059D01*
X131102224Y-123394801D01*
X131102218Y-123394795D01*
X131081026Y-123368973D01*
X131055205Y-123347782D01*
X130252226Y-122544804D01*
X130231027Y-122518973D01*
X130127941Y-122434372D01*
X130010330Y-122371508D01*
X129882715Y-122332796D01*
X129783252Y-122323000D01*
X129783245Y-122323000D01*
X129750000Y-122319726D01*
X129716755Y-122323000D01*
X129467018Y-122323000D01*
X129336291Y-122163709D01*
X129157070Y-122016626D01*
X128952597Y-121907333D01*
X128730732Y-121840031D01*
X128557812Y-121823000D01*
X127442188Y-121823000D01*
X127269268Y-121840031D01*
X127047403Y-121907333D01*
X126842930Y-122016626D01*
X126663709Y-122163709D01*
X126532982Y-122323000D01*
X126283241Y-122323000D01*
X126249999Y-122319726D01*
X126216757Y-122323000D01*
X126216748Y-122323000D01*
X126117285Y-122332796D01*
X125989670Y-122371508D01*
X125872059Y-122434372D01*
X125768973Y-122518973D01*
X125747774Y-122544804D01*
X123844800Y-124447778D01*
X123818973Y-124468974D01*
X123797778Y-124494800D01*
X123797776Y-124494802D01*
X123781774Y-124514301D01*
X123738472Y-124567064D01*
X123721405Y-124510804D01*
X123681755Y-124436624D01*
X123628395Y-124371605D01*
X123563376Y-124318245D01*
X123489196Y-124278595D01*
X123408707Y-124254178D01*
X123325000Y-124245934D01*
X122653807Y-124245934D01*
X122865195Y-124203886D01*
X123093044Y-124109508D01*
X123298104Y-123972492D01*
X123472492Y-123798104D01*
X123609508Y-123593044D01*
X123703886Y-123365195D01*
X123752000Y-123123311D01*
X123752000Y-122876689D01*
X123703886Y-122634805D01*
X123609508Y-122406956D01*
X123472492Y-122201896D01*
X123298104Y-122027508D01*
X123093044Y-121890492D01*
X122865195Y-121796114D01*
X122623311Y-121748000D01*
X122376689Y-121748000D01*
X122134805Y-121796114D01*
X121906956Y-121890492D01*
X121701896Y-122027508D01*
X121527508Y-122201896D01*
X121446589Y-122323000D01*
X121366515Y-122323000D01*
X121333273Y-122319726D01*
X121300031Y-122323000D01*
X121300022Y-122323000D01*
X121200559Y-122332796D01*
X121072944Y-122371508D01*
X120955333Y-122434372D01*
X120852247Y-122518973D01*
X120831048Y-122544804D01*
X119844800Y-123531052D01*
X119818973Y-123552248D01*
X119797778Y-123578074D01*
X119797776Y-123578076D01*
X119785492Y-123593044D01*
X119734372Y-123655334D01*
X119671508Y-123772945D01*
X119632796Y-123900560D01*
X119623000Y-124000023D01*
X119623000Y-124000029D01*
X119619726Y-124033274D01*
X116734793Y-124033274D01*
X116865557Y-123717584D01*
X116960097Y-123242298D01*
X116960097Y-122757702D01*
X116865557Y-122282416D01*
X116680109Y-121834707D01*
X116410882Y-121431780D01*
X116348668Y-121369566D01*
X121804382Y-121369566D01*
X121893263Y-121544361D01*
X122108666Y-121642663D01*
X122339108Y-121697053D01*
X122575733Y-121705440D01*
X122809448Y-121667503D01*
X123031270Y-121584700D01*
X123106737Y-121544361D01*
X123195618Y-121369566D01*
X122500000Y-120673948D01*
X121804382Y-121369566D01*
X116348668Y-121369566D01*
X116068220Y-121089118D01*
X115665293Y-120819891D01*
X115217584Y-120634443D01*
X114922429Y-120575733D01*
X121294560Y-120575733D01*
X121332497Y-120809448D01*
X121415300Y-121031270D01*
X121455639Y-121106737D01*
X121630434Y-121195618D01*
X122326052Y-120500000D01*
X122673948Y-120500000D01*
X123369566Y-121195618D01*
X123544361Y-121106737D01*
X123642663Y-120891334D01*
X123664990Y-120796734D01*
X126412766Y-120796734D01*
X126494599Y-121023857D01*
X126616117Y-121209935D01*
X126771602Y-121368731D01*
X126955079Y-121494142D01*
X127159497Y-121581349D01*
X127377000Y-121627000D01*
X127877000Y-121627000D01*
X127877000Y-120623000D01*
X128123000Y-120623000D01*
X128123000Y-121627000D01*
X128623000Y-121627000D01*
X128840503Y-121581349D01*
X129044921Y-121494142D01*
X129228398Y-121368731D01*
X129383883Y-121209935D01*
X129505401Y-121023857D01*
X129587234Y-120796734D01*
X129525399Y-120623000D01*
X128123000Y-120623000D01*
X127877000Y-120623000D01*
X126474601Y-120623000D01*
X126412766Y-120796734D01*
X123664990Y-120796734D01*
X123697053Y-120660892D01*
X123705440Y-120424267D01*
X123669567Y-120203266D01*
X126412766Y-120203266D01*
X126474601Y-120377000D01*
X127877000Y-120377000D01*
X127877000Y-119373000D01*
X128123000Y-119373000D01*
X128123000Y-120377000D01*
X129525399Y-120377000D01*
X129587234Y-120203266D01*
X129505401Y-119976143D01*
X129383883Y-119790065D01*
X129228398Y-119631269D01*
X129044921Y-119505858D01*
X128840503Y-119418651D01*
X128623000Y-119373000D01*
X128123000Y-119373000D01*
X127877000Y-119373000D01*
X127377000Y-119373000D01*
X127159497Y-119418651D01*
X126955079Y-119505858D01*
X126771602Y-119631269D01*
X126616117Y-119790065D01*
X126494599Y-119976143D01*
X126412766Y-120203266D01*
X123669567Y-120203266D01*
X123667503Y-120190552D01*
X123584700Y-119968730D01*
X123544361Y-119893263D01*
X123369566Y-119804382D01*
X122673948Y-120500000D01*
X122326052Y-120500000D01*
X121630434Y-119804382D01*
X121455639Y-119893263D01*
X121357337Y-120108666D01*
X121302947Y-120339108D01*
X121294560Y-120575733D01*
X114922429Y-120575733D01*
X114742298Y-120539903D01*
X114257702Y-120539903D01*
X113782416Y-120634443D01*
X113334707Y-120819891D01*
X112931780Y-121089118D01*
X112589118Y-121431780D01*
X112319891Y-121834707D01*
X112134443Y-122282416D01*
X112039903Y-122757702D01*
X111228332Y-122757702D01*
X111203886Y-122634805D01*
X111109508Y-122406956D01*
X110972492Y-122201896D01*
X110798104Y-122027508D01*
X110593044Y-121890492D01*
X110365195Y-121796114D01*
X110123311Y-121748000D01*
X109876689Y-121748000D01*
X109634805Y-121796114D01*
X109406956Y-121890492D01*
X109201896Y-122027508D01*
X109027508Y-122201896D01*
X108890492Y-122406956D01*
X108796114Y-122634805D01*
X108748000Y-122876689D01*
X106452000Y-122876689D01*
X106452000Y-119630434D01*
X121804382Y-119630434D01*
X122500000Y-120326052D01*
X123195618Y-119630434D01*
X123106737Y-119455639D01*
X122891334Y-119357337D01*
X122660892Y-119302947D01*
X122424267Y-119294560D01*
X122190552Y-119332497D01*
X121968730Y-119415300D01*
X121893263Y-119455639D01*
X121804382Y-119630434D01*
X106452000Y-119630434D01*
X106452000Y-113777305D01*
X107238940Y-113777305D01*
X107238940Y-114222695D01*
X107325832Y-114659527D01*
X107496275Y-115071013D01*
X107743720Y-115441342D01*
X108058658Y-115756280D01*
X108428987Y-116003725D01*
X108840473Y-116174168D01*
X109277305Y-116261060D01*
X109722695Y-116261060D01*
X110159527Y-116174168D01*
X110571013Y-116003725D01*
X110941342Y-115756280D01*
X111256280Y-115441342D01*
X111503725Y-115071013D01*
X111674168Y-114659527D01*
X111761060Y-114222695D01*
X111761060Y-113777305D01*
X112238940Y-113777305D01*
X112238940Y-114222695D01*
X112325832Y-114659527D01*
X112496275Y-115071013D01*
X112743720Y-115441342D01*
X113058658Y-115756280D01*
X113428987Y-116003725D01*
X113840473Y-116174168D01*
X114277305Y-116261060D01*
X114722695Y-116261060D01*
X115159527Y-116174168D01*
X115571013Y-116003725D01*
X115941342Y-115756280D01*
X116256280Y-115441342D01*
X116503725Y-115071013D01*
X116674168Y-114659527D01*
X116761060Y-114222695D01*
X116761060Y-113777305D01*
X117238940Y-113777305D01*
X117238940Y-114222695D01*
X117325832Y-114659527D01*
X117496275Y-115071013D01*
X117743720Y-115441342D01*
X118058658Y-115756280D01*
X118428987Y-116003725D01*
X118840473Y-116174168D01*
X119277305Y-116261060D01*
X119722695Y-116261060D01*
X120159527Y-116174168D01*
X120571013Y-116003725D01*
X120941342Y-115756280D01*
X121256280Y-115441342D01*
X121503725Y-115071013D01*
X121674168Y-114659527D01*
X121761060Y-114222695D01*
X121761060Y-113777305D01*
X122238940Y-113777305D01*
X122238940Y-114222695D01*
X122325832Y-114659527D01*
X122496275Y-115071013D01*
X122743720Y-115441342D01*
X123058658Y-115756280D01*
X123428987Y-116003725D01*
X123840473Y-116174168D01*
X124277305Y-116261060D01*
X124722695Y-116261060D01*
X125159527Y-116174168D01*
X125571013Y-116003725D01*
X125941342Y-115756280D01*
X126256280Y-115441342D01*
X126503725Y-115071013D01*
X126674168Y-114659527D01*
X126761060Y-114222695D01*
X126761060Y-113777305D01*
X126674168Y-113340473D01*
X126503725Y-112928987D01*
X126256280Y-112558658D01*
X125941342Y-112243720D01*
X125571013Y-111996275D01*
X125159527Y-111825832D01*
X124722695Y-111738940D01*
X124277305Y-111738940D01*
X123840473Y-111825832D01*
X123428987Y-111996275D01*
X123058658Y-112243720D01*
X122743720Y-112558658D01*
X122496275Y-112928987D01*
X122325832Y-113340473D01*
X122238940Y-113777305D01*
X121761060Y-113777305D01*
X121674168Y-113340473D01*
X121503725Y-112928987D01*
X121256280Y-112558658D01*
X120941342Y-112243720D01*
X120571013Y-111996275D01*
X120159527Y-111825832D01*
X119722695Y-111738940D01*
X119277305Y-111738940D01*
X118840473Y-111825832D01*
X118428987Y-111996275D01*
X118058658Y-112243720D01*
X117743720Y-112558658D01*
X117496275Y-112928987D01*
X117325832Y-113340473D01*
X117238940Y-113777305D01*
X116761060Y-113777305D01*
X116674168Y-113340473D01*
X116503725Y-112928987D01*
X116256280Y-112558658D01*
X115941342Y-112243720D01*
X115571013Y-111996275D01*
X115159527Y-111825832D01*
X114722695Y-111738940D01*
X114277305Y-111738940D01*
X113840473Y-111825832D01*
X113428987Y-111996275D01*
X113058658Y-112243720D01*
X112743720Y-112558658D01*
X112496275Y-112928987D01*
X112325832Y-113340473D01*
X112238940Y-113777305D01*
X111761060Y-113777305D01*
X111674168Y-113340473D01*
X111503725Y-112928987D01*
X111256280Y-112558658D01*
X110941342Y-112243720D01*
X110571013Y-111996275D01*
X110159527Y-111825832D01*
X109722695Y-111738940D01*
X109277305Y-111738940D01*
X108840473Y-111825832D01*
X108428987Y-111996275D01*
X108058658Y-112243720D01*
X107743720Y-112558658D01*
X107496275Y-112928987D01*
X107325832Y-113340473D01*
X107238940Y-113777305D01*
X106452000Y-113777305D01*
X106452000Y-111452000D01*
X131548001Y-111452000D01*
X131548000Y-136548000D01*
M02*
